<?xml version="1.0" encoding="UTF-8" standalone="no"?>
<svg width="15px" height="15px" viewBox="0 0 15 15" version="1.1" xmlns="http://www.w3.org/2000/svg" xmlns:xlink="http://www.w3.org/1999/xlink">
    <!-- Generator: Sketch 39.1 (31720) - http://www.bohemiancoding.com/sketch -->
    <title>Group 5</title>
    <desc>Created with Sketch.</desc>
    <defs></defs>
    <g id="Page-1" stroke="none" stroke-width="1" fill="none" fill-rule="evenodd" opacity="0.438840951">
        <g id="items-copy-13" transform="translate(-255.000000, -300.000000)" fill="#000000">
            <g id="Group-4" transform="translate(24.000000, 236.000000)">
                <g id="Group-2" transform="translate(11.000000, 25.000000)">
                    <g id="Group" transform="translate(1.000000, 0.000000)">
                        <g id="Group-5" transform="translate(219.000000, 39.000000)">
                            <path d="M7.49543919,14.1090709 C3.87998311,14.1090709 0.881807432,11.1108953 0.881807432,7.49543919 C0.881807432,3.87998311 3.87998311,0.881807432 7.49543919,0.881807432 C11.1108953,0.881807432 14.1090709,3.87998311 14.1090709,7.49543919 C14.1090709,11.1108953 11.1108953,14.1090709 7.49543919,14.1090709 M7.49543919,0 C3.35087838,0 0,3.35087838 0,7.49543919 C0,11.64 3.35087838,14.9908784 7.49543919,14.9908784 C11.64,14.9908784 14.9908784,11.64 14.9908784,7.49543919 C14.9908784,3.35087838 11.64,0 7.49543919,0" id="Fill-1"></path>
                            <path d="M9.69998311,7.05456081 L8.57478041,7.05456081 L7.93636824,7.05456081 L5.29089527,7.05456081 C5.02636824,7.05456081 4.84996622,7.23091216 4.84996622,7.49548986 C4.84996622,7.76001689 5.02631757,7.93641892 5.29089527,7.93641892 L7.93636824,7.93641892 L8.57478041,7.93641892 L9.69998311,7.93641892 C9.96451014,7.93641892 10.1409122,7.76006757 10.1409122,7.49548986 C10.1409122,7.23091216 9.96451014,7.05456081 9.69998311,7.05456081" id="Fill-3"></path>
                        </g>
                    </g>
                </g>
            </g>
        </g>
    </g>
</svg>