<?xml version="1.0" encoding="UTF-8" standalone="no"?>
<svg width="15px" height="12px" viewBox="0 0 15 12" version="1.1" xmlns="http://www.w3.org/2000/svg" xmlns:xlink="http://www.w3.org/1999/xlink">
    <!-- Generator: Sketch 40 (33762) - http://www.bohemiancoding.com/sketch -->
    <title></title>
    <desc>Created with Sketch.</desc>
    <defs></defs>
    <g id="Page-1" stroke="none" stroke-width="1" fill="none" fill-rule="evenodd">
        <g id="Dashboard" transform="translate(-983.000000, -157.000000)" fill="#FFFFFF">
            <path d="M996.691667,165.68131 L996.691667,158.240187 C996.691667,158.17301 996.667472,158.114877 996.619082,158.065786 C996.570693,158.016695 996.51339,157.99215 996.447173,157.99215 L984.22247,157.99215 C984.156253,157.99215 984.09895,158.016695 984.05056,158.065786 C984.002171,158.114877 983.977976,158.17301 983.977976,158.240187 L983.977976,165.68131 C983.977976,165.748488 984.002171,165.806621 984.05056,165.855712 C984.09895,165.904803 984.156253,165.929348 984.22247,165.929348 L996.447173,165.929348 C996.51339,165.929348 996.570693,165.904803 996.619082,165.855712 C996.667472,165.806621 996.691667,165.748488 996.691667,165.68131 L996.691667,165.68131 Z M997.669643,158.240187 L997.669643,165.68131 C997.669643,166.022364 997.549944,166.314321 997.310542,166.557193 C997.071141,166.800064 996.783354,166.921498 996.447173,166.921498 L990.82381,166.921498 L990.82381,167.913647 L993.513244,167.913647 C993.584555,167.913647 993.643131,167.936901 993.688974,167.983408 C993.734817,168.029915 993.757738,168.08934 993.757738,168.161685 L993.757738,168.65776 C993.757738,168.730104 993.734817,168.789529 993.688974,168.836037 C993.643131,168.882544 993.584555,168.905797 993.513244,168.905797 L987.156399,168.905797 C987.085088,168.905797 987.026512,168.882544 986.980669,168.836037 C986.934826,168.789529 986.911905,168.730104 986.911905,168.65776 L986.911905,168.161685 C986.911905,168.08934 986.934826,168.029915 986.980669,167.983408 C987.026512,167.936901 987.085088,167.913647 987.156399,167.913647 L989.845833,167.913647 L989.845833,166.921498 L984.22247,166.921498 C983.886289,166.921498 983.598502,166.800064 983.359101,166.557193 C983.119699,166.314321 983,166.022364 983,165.68131 L983,158.240187 C983,157.899134 983.119699,157.607176 983.359101,157.364305 C983.598502,157.121434 983.886289,157 984.22247,157 L996.447173,157 C996.783354,157 997.071141,157.121434 997.310542,157.364305 C997.549944,157.607176 997.669643,157.899134 997.669643,158.240187 L997.669643,158.240187 Z" id=""></path>
        </g>
    </g>
</svg>