<?xml version="1.0" encoding="UTF-8"?>
<svg width="32px" height="32px" viewBox="0 0 32 32" version="1.1" xmlns="http://www.w3.org/2000/svg" xmlns:xlink="http://www.w3.org/1999/xlink">
    <!-- Generator: Sketch Beta 47.1 (45415) - http://www.bohemiancoding.com/sketch -->
    <title>Group 2</title>
    <desc>Created with Sketch Beta.</desc>
    <defs></defs>
    <g id="Symbols" stroke="none" stroke-width="1" fill="none" fill-rule="evenodd">
        <g id="Collection-icon/Recycling" transform="translate(-35.000000, -1.000000)">
            <g id="Group" transform="translate(9.000000, 1.000000)">
                <g id="Group-2" transform="translate(26.000000, 0.000000)">
                    <circle id="Oval-2" stroke="#0094CD" cx="16" cy="16" r="15.5"></circle>
                    <path d="M15.2168994,19.7919361 L15.0606807,24.172904 L15.0606807,24.4974201 L10.2179031,24.172904 C9.90546584,24.172904 9.7492472,24.0106459 9.43680994,23.8483878 C9.12437267,23.6861298 8.96815404,23.3616136 8.96815404,23.0370975 C8.8119354,22.8748394 8.8119354,22.5503233 8.8119354,22.3880652 C8.8119354,22.2258071 8.8119354,21.901291 8.8119354,21.5767748 C8.8119354,21.2522587 8.96815404,21.0900006 8.96815404,20.9277426 C8.96815404,20.7654845 9.12437267,20.6032264 9.2805913,20.1164522 C9.43680994,19.7919361 9.43680994,19.4674199 9.43680994,19.4674199 C10.0616845,19.629678 11.9363081,19.629678 15.2168994,19.7919361 Z M10.8427776,12.814839 L12.8736199,17.358065 L11.1552149,16.2222585 C10.686559,16.8712908 10.2179031,17.358065 9.90546584,18.0070973 C9.59302857,18.6561296 9.2805913,19.1429038 9.12437267,19.4674199 C8.96815404,19.9541941 8.8119354,20.2787103 8.65571677,20.6032264 C8.49949814,20.9277426 8.49949814,21.2522587 8.49949814,21.4145168 L8.49949814,21.7390329 L6.31243727,17.5203231 C6.15621863,17.358065 6.15621863,17.0335488 6.15621863,16.8712908 C6.15621863,16.7090327 6.15621863,16.3845166 6.15621863,16.3845166 L6.31243727,16.2222585 C6.62487453,15.7354843 6.9373118,14.9241939 7.56218633,13.9506455 L6,12.9770971 L10.8427776,12.814839 Z M24.9024547,18.9806457 L22.7153938,23.1993556 C22.5591751,23.3616136 22.5591751,23.6861298 22.2467379,23.6861298 C22.0905192,23.8483878 21.9343006,23.8483878 21.778082,24.0106459 L21.6218633,24.0106459 C21.1532074,24.0106459 20.2158956,24.172904 19.1223652,24.172904 L19.2785838,26.1200008 L16.6228671,21.7390329 L18.9661466,17.358065 L19.1223652,19.4674199 C20.3721143,19.629678 21.4656447,19.629678 22.4029565,19.4674199 C23.3402683,19.3051618 23.9651428,19.3051618 24.2775801,19.1429038 L24.9024547,18.9806457 Z M15.8417739,7.94709686 C15.5293366,8.43387107 14.4358062,10.2187099 12.8736199,13.1393551 L9.2805913,10.8677421 L8.96815404,10.8677421 L11.4676522,6.64903229 C11.6238708,6.32451614 11.7800894,6.16225807 12.0925267,6.16225807 C12.404964,6 12.7174012,6 13.0298385,6 C13.1860571,6 13.3422758,6 13.654713,6.16225807 C13.8109317,6.16225807 13.9671503,6.32451614 14.1233689,6.48677421 C14.2795876,6.64903229 14.4358062,6.64903229 14.5920248,6.81129036 C14.7482435,6.97354843 14.9044621,7.1358065 15.0606807,7.29806457 C15.2168994,7.46032264 15.2168994,7.62258071 15.5293366,7.78483878 C15.6855553,7.78483878 15.8417739,7.94709686 15.8417739,7.94709686 Z M23.3402683,11.6790325 L25.8397665,16.0600004 C25.9959851,16.3845166 25.9959851,16.7090327 25.9959851,17.0335488 C25.9959851,17.358065 25.8397665,17.6825811 25.6835478,17.8448392 C25.5273292,18.0070973 25.5273292,18.1693553 25.3711106,18.3316134 C25.2148919,18.4938715 25.0586733,18.6561296 24.9024547,18.6561296 C24.746236,18.6561296 24.5900174,18.8183876 24.2775801,18.9806457 C24.1213615,19.1429038 23.8089242,19.1429038 23.8089242,19.1429038 C23.6527056,19.1429038 23.4964869,19.3051618 23.1840497,19.3051618 C22.8716124,19.3051618 22.7153938,19.4674199 22.7153938,19.4674199 C22.4029565,18.8183876 21.4656447,17.1958069 19.7472397,14.2751616 L23.3402683,12.0035486 L23.3402683,11.6790325 Z M21.778082,8.92064528 L23.3402683,7.94709686 L20.8407702,12.3280648 L15.9979925,12.1658067 L17.7163975,11.1922583 C17.4039602,10.543226 17.2477416,9.89419371 16.9353043,9.24516143 C16.6228671,8.59612914 16.3104298,8.10935493 15.9979925,7.78483878 C15.6855553,7.46032264 15.5293366,7.1358065 15.2168994,6.81129036 C15.0606807,6.48677421 14.7482435,6.32451614 14.7482435,6.32451614 L14.5920248,6.16225807 L19.2785838,6.16225807 C19.5910211,6.16225807 19.7472397,6.16225807 19.9034584,6.32451614 C20.059677,6.48677421 20.2158956,6.48677421 20.3721143,6.64903229 L20.5283329,6.81129036 C20.8407702,7.1358065 21.1532074,7.94709686 21.778082,8.92064528 Z" id="TrashCanIcon-Copy-3" fill="#0094CD" fill-rule="nonzero"></path>
                </g>
            </g>
        </g>
    </g>
</svg>