<?xml version="1.0" encoding="UTF-8"?>
<svg width="32px" height="32px" viewBox="0 0 32 32" version="1.1" xmlns="http://www.w3.org/2000/svg" xmlns:xlink="http://www.w3.org/1999/xlink">
    <!-- Generator: Sketch Beta 47.1 (45415) - http://www.bohemiancoding.com/sketch -->
    <title>Group</title>
    <desc>Created with Sketch Beta.</desc>
    <defs></defs>
    <g id="Symbols" stroke="none" stroke-width="1" fill="none" fill-rule="evenodd">
        <g id="Collection-icon/Garbage" transform="translate(-35.000000, -1.000000)">
            <g id="Group-2" transform="translate(16.000000, 1.000000)">
                <g id="Group" transform="translate(19.000000, 0.000000)">
                    <circle id="Oval-2" stroke="#24754D" cx="16" cy="16" r="15.5"></circle>
                    <g id="IconGarbage-Copy-4" transform="translate(7.500000, 6.000000)" fill-rule="nonzero" fill="#00764E">
                        <path d="M12.0789474,0 C12.377193,0.4921875 12.5263158,0.984375 12.5263158,1.4765625 L12.5263158,1.640625 C14.4649123,2.1328125 15.8070175,2.7890625 15.8070175,3.609375 C15.8070175,4.921875 12.377193,6.0703125 8.64912281,6.0703125 C4.92105263,6.0703125 1.19298246,5.0859375 1.19298246,3.609375 C1.19298246,2.625 2.53508772,1.96875 4.47368421,1.640625 L4.47368421,1.4765625 C4.47368421,0.984375 4.62280702,0.4921875 4.92105263,9.10729825e-17 C2.0877193,0.4921875 0.149122807,1.8046875 0,3.28125 L0,5.0859375 C0,5.578125 0.298245614,5.90625 0.745614035,6.3984375 L1.78947368,17.8828125 C1.78947368,17.8828125 2.23684211,21 8.5,21 C14.7631579,21 15.2105263,17.8828125 15.2105263,17.8828125 L16.254386,6.3984375 C16.7017544,5.90625 17,5.578125 17,5.0859375 L17,3.28125 C17,1.8046875 15.0614035,0.4921875 12.0789474,0 Z M4.62280702,19.03125 C4.1754386,19.03125 3.72807018,18.703125 3.57894737,18.2109375 L2.68421053,9.3515625 C2.68421053,8.859375 2.98245614,8.3671875 3.42982456,8.3671875 C3.87719298,8.3671875 4.3245614,8.6953125 4.47368421,9.1875 L5.36842105,18.046875 C5.51754386,18.5390625 5.07017544,18.8671875 4.62280702,19.03125 Z M9.39473684,19.03125 C9.39473684,19.5234375 8.94736842,19.8515625 8.5,19.8515625 C8.05263158,19.8515625 7.60526316,19.5234375 7.60526316,19.03125 L7.60526316,10.0078125 C7.60526316,9.515625 8.05263158,9.1875 8.5,9.1875 C8.94736842,9.1875 9.39473684,9.515625 9.39473684,10.0078125 L9.39473684,19.03125 Z M13.5701754,18.2109375 C13.5701754,18.703125 13.122807,19.03125 12.5263158,19.03125 C12.0789474,19.03125 11.6315789,18.5390625 11.7807018,18.046875 L12.6754386,9.1875 C12.6754386,8.6953125 13.122807,8.3671875 13.7192982,8.3671875 C14.1666667,8.3671875 14.6140351,8.859375 14.4649123,9.3515625 L13.5701754,18.2109375 Z" id="Shape"></path>
                        <path d="M5.86531067,4 C6.21143493,4 6.5575592,3.69230769 6.5575592,3.23076923 L6.5575592,1.69230769 C6.5575592,1.53846154 6.73062133,1.38461538 6.90368347,1.38461538 L10.191864,1.38461538 C10.3649261,1.38461538 10.5379883,1.53846154 10.5379883,1.69230769 L10.5379883,3.23076923 C10.5379883,3.69230769 10.8841125,4 11.2302368,4 C11.5763611,4 11.9224853,3.69230769 11.9224853,3.23076923 L11.9224853,1.69230769 C12.2686096,0.769230769 11.4032989,0 10.3649261,0 L6.90368347,0 C5.86531067,0 5,0.769230769 5,1.69230769 L5,3.23076923 C5,3.69230769 5.34612427,4 5.86531067,4 Z" id="Shape"></path>
                    </g>
                </g>
            </g>
        </g>
    </g>
</svg>