<?xml version="1.0" encoding="UTF-8" standalone="no"?>
<svg width="40px" height="40px" viewBox="0 0 40 40" version="1.1" xmlns="http://www.w3.org/2000/svg" xmlns:xlink="http://www.w3.org/1999/xlink">
    <!-- Generator: Sketch 47.1 (45422) - http://www.bohemiancoding.com/sketch -->
    <title>icon_gargage</title>
    <desc>Created with Sketch.</desc>
    <defs></defs>
    <g id="1.0-About-" stroke="none" stroke-width="1" fill="none" fill-rule="evenodd">
        <g id="DSNY---1.5-Locations" transform="translate(-502.000000, -605.000000)">
            <g id="Group-3" transform="translate(482.000000, 586.000000)">
                <g id="icon_gargage" transform="translate(20.000000, 19.000000)">
                    <circle id="Oval-2" stroke="#7CC04B" cx="20" cy="20" r="19.5"></circle>
                    <path d="M33.7433054,21.9699924 L29.3070659,18.6191908 L29.3070659,17.2734962 C29.3070659,17.0890153 29.2206347,16.9152824 29.0735928,16.8041908 L20.3417844,10.2088092 C20.1325389,10.0507786 19.8443234,10.0507786 19.6350778,10.2088092 L10.9032695,16.8041908 C10.7562275,16.9152824 10.6697964,17.0890153 10.6697964,17.2734962 L10.6697964,18.6191908 L6.23355689,21.9699924 C6.08651497,22.081084 6.00008383,22.2548168 6.00008383,22.4392977 L6.00008383,28.3777863 C6.00008383,28.7024122 6.26281437,28.9655725 6.58691018,28.9655725 L11.2566228,28.9655725 L15.9263353,28.9655725 L24.0505269,28.9655725 L28.7202395,28.9655725 L33.3899521,28.9655725 C33.7140479,28.9655725 33.9767784,28.7024122 33.9767784,28.3777863 L33.9767784,22.4392977 C33.9767784,22.2548168 33.8903473,22.081084 33.7433054,21.9699924 L33.7433054,21.9699924 Z M20.6229581,27.789916 L19.3538204,27.789916 L19.3538204,24.8269695 L20.6229581,24.8269695 L20.6229581,27.789916 Z M21.7966108,27.789916 L21.7966108,24.2391832 C21.7966108,23.9145573 21.5338802,23.6513969 21.2097844,23.6513969 L18.766994,23.6513969 C18.4428982,23.6513969 18.1801677,23.9145573 18.1801677,24.2391832 L18.1801677,27.789916 L15.3394251,27.789916 L11.8434491,27.789916 L11.8434491,17.5663817 L19.9884311,11.4141908 L28.1334132,17.5663817 L28.1334132,27.789916 L24.6373533,27.789916 L21.7966108,27.789916 Z M7.17373653,22.7321832 L10.6697964,20.0915115 L10.6697964,27.789916 L7.17373653,27.789916 L7.17373653,22.7321832 Z M32.8031257,27.789916 L29.3070659,27.789916 L29.3070659,20.0915115 L32.8031257,22.7321832 L32.8031257,27.789916 Z" id="Shape" fill="#7CC04B" fill-rule="nonzero"></path>
                    <path d="M6.94017964,18.1908626 L19.9884311,8.33528244 L33.0365988,18.1909466 C33.142479,18.2708855 33.2664671,18.3095115 33.3895329,18.3095115 C33.5673413,18.3095115 33.7431377,18.2288168 33.858491,18.0755725 C34.0536527,17.8164427 34.0020958,17.4478168 33.7433054,17.2524198 L20.3417844,7.12981679 C20.1325389,6.97178626 19.8443234,6.97178626 19.6350778,7.12981679 L6.23355689,17.2523359 C5.97476647,17.4478168 5.92320958,17.8163588 6.11837126,18.0754885 C6.3134491,18.3347023 6.68155689,18.3863435 6.94017964,18.1908626 Z" id="Shape" fill="#7CC04B" fill-rule="nonzero"></path>
                </g>
            </g>
        </g>
    </g>
</svg>