<?xml version="1.0" encoding="UTF-8" standalone="no"?>
<svg width="24px" height="33px" viewBox="0 0 24 33" version="1.1" xmlns="http://www.w3.org/2000/svg" xmlns:xlink="http://www.w3.org/1999/xlink">
    <!-- Generator: Sketch 47.1 (45422) - http://www.bohemiancoding.com/sketch -->
    <title>Map_marker_selected</title>
    <desc>Created with Sketch.</desc>
    <defs></defs>
    <g id="1.0-About-" stroke="none" stroke-width="1" fill="none" fill-rule="evenodd">
        <g id="Map_marker_selected" fill-rule="nonzero" fill="#ED7530">
            <path d="M12,0 C5.40354839,0 0.0369677419,5.36658065 0.0369677419,11.9629677 C0.0369677419,20.1492903 10.7427097,32.1672903 11.1985161,32.6749032 C11.6266452,33.1517419 12.374129,33.1509032 12.8014839,32.6749032 C13.2572903,32.1672903 23.9630323,20.1492903 23.9630323,11.9629677 C23.9629032,5.36658065 18.5963871,0 12,0 Z M12,17.981871 C8.68116129,17.981871 5.98116129,15.2818065 5.98116129,11.9629677 C5.98116129,8.64412903 8.68122581,5.94412903 12,5.94412903 C15.3187742,5.94412903 18.0187742,8.64419355 18.0187742,11.9630323 C18.0187742,15.281871 15.3187742,17.981871 12,17.981871 Z" id="Shape"></path>
        </g>
    </g>
</svg>