<?xml version="1.0" encoding="UTF-8" standalone="no"?>
<svg width="251px" height="56px" viewBox="0 0 251 56" version="1.1" xmlns="http://www.w3.org/2000/svg" xmlns:xlink="http://www.w3.org/1999/xlink">
    <!-- Generator: Sketch 47.1 (45422) - http://www.bohemiancoding.com/sketch -->
    <title>Web_logo</title>
    <desc>Created with Sketch.</desc>
    <defs></defs>
    <g id="Header_Footer" stroke="none" stroke-width="1" fill="none" fill-rule="evenodd">
        <g id="Main_nav" transform="translate(-253.000000, -34.000000)">
            <g id="Group-2">
                <g id="Web_logo" transform="translate(253.000000, 34.000000)">
                    <g id="DSNY-Web_logo" fill-rule="nonzero">
                        <g id="Layer_1">
                            <g id="XMLID_92_">
                                <path d="M27.9767635,0.371784232 C12.73361,0.371784232 0.371784232,12.73361 0.371784232,27.9767635 C0.371784232,43.219917 12.73361,55.5817427 27.9767635,55.5817427 C43.219917,55.5817427 55.5817427,43.219917 55.5817427,27.9767635 C55.6049793,12.73361 43.2431535,0.371784232 27.9767635,0.371784232 Z" id="Shape" fill="#E6E6E6"></path>
                                <path d="M27.9767635,55.9767635 C12.5477178,55.9767635 0,43.4058091 0,27.9767635 C0,12.5477178 12.5477178,0 27.9767635,0 C43.4058091,0 55.953527,12.5477178 55.953527,27.9767635 C55.9767635,43.4058091 43.4058091,55.9767635 27.9767635,55.9767635 Z M27.9767635,0.743568465 C12.9659751,0.743568465 0.743568465,12.9659751 0.743568465,27.9767635 C0.743568465,42.9875519 12.9659751,55.2099585 27.9767635,55.2099585 C42.9875519,55.2099585 55.2099585,42.9875519 55.2099585,27.9767635 C55.2099585,12.9659751 43.0107884,0.743568465 27.9767635,0.743568465 Z" id="Shape" fill="#000000"></path>
                            </g>
                            <g id="XMLID_65_" transform="translate(7.203320, 6.970954)" fill="#015949">
                                <circle id="Oval" cx="20.726971" cy="20.7966805" r="20.6572614"></circle>
                            </g>
                            <g id="XMLID_93_" transform="translate(6.970954, 6.970954)" fill="#000000">
                                <path d="M21.0058091,41.9651452 C9.45726141,41.9651452 0.046473029,32.5543568 0.046473029,21.0058091 C0.046473029,9.45726141 9.45726141,0.046473029 21.0058091,0.046473029 C32.5543568,0.046473029 41.9651452,9.45726141 41.9651452,21.0058091 C41.9651452,32.5775934 32.5775934,41.9651452 21.0058091,41.9651452 Z M21.0058091,0.650622407 C9.78257261,0.650622407 0.627385892,9.78257261 0.627385892,21.0290456 C0.627385892,32.2755187 9.7593361,41.4074689 21.0058091,41.4074689 C32.2290456,41.4074689 41.3842324,32.2755187 41.3842324,21.0290456 C41.3842324,9.78257261 32.2522822,0.650622407 21.0058091,0.650622407 Z" id="Shape"></path>
                            </g>
                            <g id="Group" transform="translate(9.294606, 2.556017)" fill="#000000">
                                <polygon id="Shape" points="0.209128631 7.80746888 0.650622407 7.38921162 3.36929461 8.13278008 3.36929461 8.13278008 1.74273859 6.39004149 2.13775934 6.01825726 4.34522822 8.38838174 3.90373444 8.806639 1.20829876 8.06307054 1.20829876 8.06307054 2.83485477 9.80580913 2.43983402 10.1775934"></polygon>
                                <polygon id="Shape" points="3.06721992 5.29792531 4.97261411 3.95020747 5.25145228 4.34522822 3.81078838 5.36763485 4.29875519 6.06473029 5.64647303 5.13526971 5.90207469 5.50705394 4.55435685 6.43651452 5.08879668 7.22655602 6.5526971 6.20414938 6.83153527 6.59917012 4.87966805 7.94688797"></polygon>
                                <polygon id="Shape" points="5.6 3.50871369 6.11120332 3.25311203 7.71452282 5.22821577 7.71452282 5.22821577 7.22655602 2.7186722 7.76099585 2.46307054 9.41078838 4.41493776 9.41078838 4.41493776 8.87634855 1.92863071 9.38755187 1.67302905 9.99170124 4.97261411 9.48049793 5.22821577 7.80746888 3.27634855 7.80746888 3.27634855 8.29543568 5.80912863 7.76099585 6.06473029"></polygon>
                                <polygon id="Shape" points="13.1053942 2.67219917 11.4788382 1.02240664 12.1294606 0.882987552 13.2912863 2.11452282 13.8024896 0.51120332 14.4298755 0.371784232 13.6863071 2.5560166 13.9651452 3.78755187 13.4074689 3.90373444"></polygon>
                                <path d="M16.3817427,0.046473029 C16.6141079,0.0232365145 16.846473,0.046473029 17.0323651,0.139419087 C17.2414938,0.209128631 17.4041494,0.325311203 17.5435685,0.46473029 C17.6829876,0.604149378 17.7991701,0.790041494 17.8921162,0.97593361 C17.9850622,1.18506224 18.0315353,1.39419087 18.0547718,1.62655602 C18.0780083,1.85892116 18.0547718,2.09128631 18.0082988,2.30041494 C17.9618257,2.50954357 17.8688797,2.69543568 17.7526971,2.85809129 C17.6365145,3.02074689 17.4738589,3.16016598 17.2879668,3.25311203 C17.1020747,3.36929461 16.8929461,3.41576763 16.6373444,3.43900415 C16.4049793,3.46224066 16.1726141,3.43900415 15.986722,3.34605809 C15.7775934,3.27634855 15.6149378,3.16016598 15.4755187,3.02074689 C15.3360996,2.8813278 15.219917,2.69543568 15.126971,2.50954357 C15.0340249,2.30041494 14.9875519,2.09128631 14.9643154,1.85892116 C14.9410788,1.62655602 14.9643154,1.41742739 15.0107884,1.20829876 C15.0572614,0.999170124 15.1502075,0.813278008 15.26639,0.650622407 C15.3825726,0.487966805 15.5452282,0.348547718 15.7311203,0.25560166 C15.9170124,0.162655602 16.1493776,0.0697095436 16.3817427,0.046473029 Z M16.4282158,0.51120332 C16.2655602,0.534439834 16.1029046,0.580912863 15.986722,0.650622407 C15.8705394,0.72033195 15.7775934,0.836514523 15.7078838,0.952697095 C15.6381743,1.06887967 15.5917012,1.20829876 15.5684647,1.37095436 C15.5452282,1.51037344 15.5452282,1.67302905 15.5452282,1.83568465 C15.5684647,1.99834025 15.5917012,2.13775934 15.6381743,2.27717842 C15.6846473,2.41659751 15.7543568,2.5560166 15.8473029,2.64896266 C15.940249,2.76514523 16.033195,2.83485477 16.1726141,2.90456432 C16.3120332,2.97427386 16.4514523,2.99751037 16.6373444,2.97427386 C16.8,2.95103734 16.9626556,2.90456432 17.0788382,2.83485477 C17.1950207,2.76514523 17.2879668,2.64896266 17.3576763,2.53278008 C17.4273859,2.41659751 17.4738589,2.27717842 17.4970954,2.11452282 C17.520332,1.97510373 17.520332,1.81244813 17.520332,1.64979253 C17.4970954,1.48713693 17.4738589,1.34771784 17.4273859,1.20829876 C17.3809129,1.06887967 17.3112033,0.929460581 17.2182573,0.836514523 C17.1253112,0.72033195 17.0323651,0.650622407 16.8929461,0.580912863 C16.753527,0.51120332 16.5908714,0.487966805 16.4282158,0.51120332 Z" id="Shape"></path>
                                <path d="M18.8912863,0 L20.4481328,0.0929460581 C20.7966805,0.116182573 21.0755187,0.209128631 21.2381743,0.371784232 C21.4008299,0.534439834 21.4705394,0.766804979 21.4705394,1.02240664 C21.4705394,1.18506224 21.4240664,1.30124481 21.3775934,1.39419087 C21.3311203,1.48713693 21.2614108,1.58008299 21.1917012,1.62655602 C21.1219917,1.67302905 21.0755187,1.71950207 21.0058091,1.74273859 C20.9360996,1.7659751 20.8896266,1.78921162 20.86639,1.78921162 L20.86639,1.78921162 C20.9128631,1.78921162 20.9593361,1.81244813 21.0290456,1.83568465 C21.0755187,1.85892116 21.1219917,1.90539419 21.1684647,1.95186722 C21.2149378,1.99834025 21.2381743,2.09128631 21.2846473,2.16099585 C21.3078838,2.25394191 21.3078838,2.34688797 21.3078838,2.48630705 C21.2846473,2.67219917 21.3078838,2.85809129 21.3078838,2.99751037 C21.3311203,3.16016598 21.3543568,3.27634855 21.4240664,3.34605809 L20.819917,3.29958506 C20.773444,3.22987552 20.773444,3.13692946 20.7502075,3.06721992 L20.7502075,2.81161826 L20.7502075,2.41659751 C20.7502075,2.30041494 20.7037344,2.20746888 20.6572614,2.13775934 C20.6107884,2.06804979 20.5410788,1.99834025 20.4713693,1.97510373 C20.4016598,1.92863071 20.2854772,1.90539419 20.1460581,1.90539419 L19.3095436,1.85892116 L19.2165975,3.18340249 L18.6589212,3.13692946 L18.8912863,0 Z M19.3560166,1.53360996 L20.2854772,1.6033195 C20.4713693,1.62655602 20.6107884,1.58008299 20.7037344,1.51037344 C20.7966805,1.4406639 20.86639,1.30124481 20.86639,1.13858921 C20.86639,1.04564315 20.86639,0.952697095 20.8431535,0.882987552 C20.819917,0.813278008 20.773444,0.766804979 20.726971,0.72033195 C20.6804979,0.673858921 20.6107884,0.650622407 20.5410788,0.627385892 C20.4713693,0.604149378 20.4016598,0.604149378 20.3319502,0.604149378 L19.4024896,0.534439834 L19.3560166,1.53360996 Z" id="Shape"></path>
                                <polygon id="Shape" points="22.8879668 0.348547718 23.4456432 0.46473029 23.1435685 1.90539419 24.8630705 0.766804979 25.5369295 0.906224066 24.0033195 1.90539419 24.9560166 4.08962656 24.2589212 3.95020747 23.5385892 2.20746888 22.9809129 2.5560166 22.7485477 3.62489627 22.1908714 3.50871369"></polygon>
                                <path d="M29.53361,3.55518672 C29.5568465,3.46224066 29.5568465,3.36929461 29.5568465,3.27634855 C29.5568465,3.18340249 29.53361,3.11369295 29.4871369,3.02074689 C29.4406639,2.95103734 29.3941909,2.85809129 29.3244813,2.81161826 C29.2547718,2.74190871 29.1618257,2.69543568 29.0688797,2.64896266 C28.9062241,2.57925311 28.766805,2.5560166 28.6273859,2.5560166 C28.4879668,2.57925311 28.3485477,2.60248963 28.2323651,2.69543568 C28.1161826,2.76514523 28,2.85809129 27.9070539,2.99751037 C27.8141079,3.11369295 27.7443983,3.25311203 27.6746888,3.39253112 C27.6049793,3.53195021 27.5585062,3.67136929 27.5352697,3.8340249 C27.5120332,3.97344398 27.5120332,4.13609959 27.5352697,4.27551867 C27.5585062,4.41493776 27.6049793,4.53112033 27.6979253,4.6473029 C27.7908714,4.76348548 27.9070539,4.85643154 28.0697095,4.92614108 C28.1858921,4.97261411 28.3020747,4.99585062 28.3950207,4.99585062 C28.5112033,4.99585062 28.6041494,4.97261411 28.6970954,4.92614108 C28.7900415,4.87966805 28.8829876,4.83319502 28.9526971,4.74024896 C29.0224066,4.67053942 29.0921162,4.57759336 29.1618257,4.46141079 L29.673029,4.69377593 C29.580083,4.85643154 29.4639004,5.01908714 29.3477178,5.13526971 C29.2082988,5.25145228 29.0688797,5.34439834 28.9062241,5.39087137 C28.7435685,5.4373444 28.5809129,5.48381743 28.3950207,5.46058091 C28.2091286,5.46058091 28.046473,5.41410788 27.8605809,5.32116183 C27.6282158,5.22821577 27.4655602,5.08879668 27.3261411,4.92614108 C27.186722,4.76348548 27.0937759,4.57759336 27.0240664,4.39170124 C26.9543568,4.20580913 26.9543568,3.9966805 26.9543568,3.76431535 C26.9775934,3.55518672 27.0240664,3.32282158 27.1170124,3.11369295 C27.2099585,2.90456432 27.3261411,2.7186722 27.4887967,2.5560166 C27.6282158,2.393361 27.8141079,2.27717842 28,2.18423237 C28.1858921,2.09128631 28.3717842,2.04481328 28.6041494,2.04481328 C28.813278,2.04481328 29.0224066,2.09128631 29.2547718,2.18423237 C29.4174274,2.25394191 29.5568465,2.34688797 29.6962656,2.46307054 C29.8356846,2.57925311 29.9286307,2.69543568 29.9983402,2.83485477 C30.0680498,2.97427386 30.1145228,3.11369295 30.1377593,3.27634855 C30.1609959,3.43900415 30.1377593,3.60165975 30.0680498,3.76431535 L29.53361,3.55518672 Z" id="Shape"></path>
                                <polygon id="Shape" points="31.2995851 3.32282158 31.7875519 3.60165975 30.1609959 6.41327801 29.673029 6.13443983"></polygon>
                                <polygon id="Shape" points="32.5078838 4.01991701 34.6456432 5.53029046 34.366805 5.9253112 33.5302905 5.32116183 31.926971 7.57510373 31.4622407 7.24979253 33.0655602 4.99585062 32.2290456 4.39170124"></polygon>
                                <polygon id="Shape" points="34.5991701 8.10954357 35.0406639 5.83236515 35.5286307 6.27385892 35.180083 7.92365145 36.7834025 7.43568465 37.2481328 7.87717842 35.0174274 8.50456432 34.1576763 9.4340249 33.7394191 9.03900415"></polygon>
                            </g>
                            <g id="Group" transform="translate(2.556017, 32.066390)" fill="#000000">
                                <path d="M3.27634855,0.139419087 L3.60165975,1.4406639 C3.67136929,1.67302905 3.67136929,1.90539419 3.62489627,2.09128631 C3.57842324,2.27717842 3.50871369,2.46307054 3.39253112,2.60248963 C3.27634855,2.74190871 3.13692946,2.8813278 2.95103734,2.97427386 C2.76514523,3.06721992 2.57925311,3.16016598 2.37012448,3.206639 C2.16099585,3.25311203 1.95186722,3.27634855 1.74273859,3.27634855 C1.53360996,3.27634855 1.34771784,3.22987552 1.18506224,3.16016598 C1.02240664,3.09045643 0.859751037,2.97427386 0.743568465,2.81161826 C0.627385892,2.64896266 0.534439834,2.46307054 0.46473029,2.20746888 L0.139419087,0.906224066 L3.27634855,0.139419087 Z M0.72033195,1.37095436 L0.859751037,1.90539419 C0.906224066,2.11452282 0.97593361,2.27717842 1.06887967,2.41659751 C1.16182573,2.53278008 1.2780083,2.62572614 1.39419087,2.67219917 C1.51037344,2.7186722 1.64979253,2.74190871 1.78921162,2.74190871 C1.92863071,2.74190871 2.09128631,2.7186722 2.25394191,2.67219917 C2.41659751,2.62572614 2.5560166,2.57925311 2.69543568,2.50954357 C2.83485477,2.43983402 2.92780083,2.37012448 3.02074689,2.25394191 C3.11369295,2.16099585 3.16016598,2.02157676 3.18340249,1.88215768 C3.206639,1.74273859 3.18340249,1.55684647 3.13692946,1.32448133 L2.99751037,0.790041494 L0.72033195,1.37095436 Z" id="Shape"></path>
                                <polygon id="Shape" points="4.11286307 3.22987552 4.85643154 5.1120332 4.39170124 5.29792531 3.8340249 3.85726141 3.0439834 4.1593361 3.55518672 5.48381743 3.11369295 5.64647303 2.60248963 4.3219917 1.71950207 4.67053942 2.30041494 6.13443983 1.83568465 6.32033195 1.09211618 4.39170124"></polygon>
                                <path d="M5.04232365,5.50705394 L5.69294606,6.7153527 C5.78589212,6.90124481 5.85560166,7.08713693 5.85560166,7.22655602 C5.85560166,7.38921162 5.83236515,7.50539419 5.78589212,7.62157676 C5.73941909,7.73775934 5.66970954,7.83070539 5.57676349,7.90041494 C5.48381743,7.97012448 5.39087137,8.03983402 5.29792531,8.08630705 C5.20497925,8.13278008 5.1120332,8.17925311 4.99585062,8.20248963 C4.87966805,8.22572614 4.76348548,8.24896266 4.6473029,8.22572614 C4.53112033,8.20248963 4.39170124,8.1560166 4.27551867,8.06307054 C4.1593361,7.97012448 4.04315353,7.83070539 3.92697095,7.64481328 L3.53195021,6.92448133 L2.43983402,7.50539419 L2.18423237,7.0406639 L5.04232365,5.50705394 Z M3.95020747,6.69211618 L4.3219917,7.38921162 C4.34522822,7.43568465 4.39170124,7.48215768 4.43817427,7.52863071 C4.4846473,7.57510373 4.53112033,7.62157676 4.60082988,7.64481328 C4.67053942,7.66804979 4.74024896,7.69128631 4.80995851,7.69128631 C4.87966805,7.69128631 4.97261411,7.66804979 5.06556017,7.62157676 C5.15850622,7.57510373 5.22821577,7.52863071 5.2746888,7.45892116 C5.32116183,7.38921162 5.34439834,7.34273859 5.36763485,7.27302905 C5.39087137,7.2033195 5.36763485,7.15684647 5.36763485,7.08713693 C5.34439834,7.01742739 5.32116183,6.97095436 5.29792531,6.90124481 L4.92614108,6.20414938 L3.95020747,6.69211618 Z" id="Shape"></path>
                                <path d="M6.7153527,8.38838174 L7.0406639,8.85311203 L5.04232365,11.6647303 L4.71701245,11.2 L5.25145228,10.479668 L4.55435685,9.45726141 L3.69460581,9.71286307 L3.36929461,9.24813278 L6.7153527,8.38838174 Z M4.99585062,9.34107884 L5.53029046,10.1078838 L6.41327801,8.94605809 L6.41327801,8.94605809 L4.99585062,9.34107884 Z" id="Shape"></path>
                                <path d="M7.87717842,10.0149378 L8.82987552,11.0838174 C9.03900415,11.3394191 9.15518672,11.5717842 9.15518672,11.7809129 C9.15518672,12.013278 9.03900415,12.2224066 8.82987552,12.3850622 C8.71369295,12.4780083 8.59751037,12.5477178 8.50456432,12.5941909 C8.41161826,12.6406639 8.3186722,12.6406639 8.22572614,12.6406639 C8.13278008,12.6406639 8.06307054,12.6406639 8.01659751,12.6174274 C7.97012448,12.5941909 7.92365145,12.5709544 7.90041494,12.5709544 L7.90041494,12.5709544 C7.92365145,12.6174274 7.94688797,12.6639004 7.97012448,12.7103734 C7.993361,12.7568465 7.993361,12.826556 7.97012448,12.8962656 C7.94688797,12.9659751 7.92365145,13.0356846 7.90041494,13.1053942 C7.85394191,13.1751037 7.78423237,13.2680498 7.69128631,13.3609959 C7.55186722,13.4771784 7.43568465,13.6165975 7.31950207,13.7327801 C7.22655602,13.8489627 7.15684647,13.9651452 7.15684647,14.0580913 L6.78506224,13.639834 C6.80829876,13.5701245 6.85477178,13.5004149 6.90124481,13.4307054 C6.97095436,13.3609959 7.01742739,13.3145228 7.08713693,13.2680498 C7.2033195,13.1751037 7.29626556,13.0821577 7.3659751,12.9892116 C7.43568465,12.8962656 7.48215768,12.826556 7.50539419,12.73361 C7.52863071,12.6639004 7.52863071,12.5709544 7.50539419,12.5012448 C7.48215768,12.4315353 7.43568465,12.3385892 7.34273859,12.2456432 L6.83153527,11.6647303 L5.83236515,12.5477178 L5.48381743,12.1526971 L7.87717842,10.0149378 Z M7.11037344,11.3858921 L7.69128631,12.013278 C7.80746888,12.1294606 7.92365145,12.1991701 8.03983402,12.1991701 C8.1560166,12.1991701 8.29543568,12.1526971 8.41161826,12.0365145 C8.4813278,11.966805 8.55103734,11.8970954 8.57427386,11.8273859 C8.59751037,11.7576763 8.62074689,11.7112033 8.62074689,11.6414938 C8.62074689,11.5717842 8.59751037,11.5253112 8.57427386,11.4788382 C8.55103734,11.4323651 8.50456432,11.3626556 8.45809129,11.3161826 L7.90041494,10.6887967 L7.11037344,11.3858921 Z" id="Shape"></path>
                                <polygon id="Shape" points="9.61991701 11.9435685 11.3161826 13.4539419 10.9908714 13.8257261 10.3170124 13.2215768 8.4813278 15.2896266 8.10954357 14.9643154 9.94522822 12.8962656 9.29460581 12.3153527"></polygon>
                                <polygon id="Shape" points="11.5950207 13.6863071 12.1759336 14.0813278 11.4091286 16.6373444 11.4091286 16.6373444 13.4771784 14.9643154 14.0580913 15.3593361 12.2456432 18.0547718 11.8506224 17.7759336 13.2448133 15.7078838 13.2448133 15.7078838 11.1767635 17.3344398 10.8282158 17.1020747 11.5717842 14.5692946 11.5717842 14.5692946 10.1775934 16.6373444 9.78257261 16.3585062"></polygon>
                                <polygon id="Shape" points="14.5460581 15.6149378 16.3585062 16.5211618 16.1493776 16.9626556 14.7784232 16.2655602 14.406639 17.0323651 15.6846473 17.659751 15.4755187 18.0780083 14.1975104 17.4506224 13.7792531 18.3103734 15.173444 19.0074689 14.9643154 19.4489627 13.1286307 18.5195021"></polygon>
                                <polygon id="Shape" points="16.7302905 16.6605809 17.2414938 16.846473 17.6829876 19.5419087 17.6829876 19.5419087 18.4962656 17.2879668 18.9609959 17.4506224 17.8688797 20.4946058 17.3576763 20.3087137 16.9161826 17.613278 16.9161826 17.613278 16.1029046 19.8672199 15.6381743 19.7045643"></polygon>
                                <polygon id="Shape" points="19.193361 17.5435685 21.4240664 18.0547718 21.3078838 18.5427386 20.4248963 18.33361 19.7975104 21.0058091 19.3095436 20.8896266 19.9369295 18.2174274 19.0771784 18.0082988"></polygon>
                                <path d="M24.3751037,18.4962656 C24.5842324,18.4962656 24.7701245,18.5659751 24.9327801,18.6356846 C25.0954357,18.7286307 25.2348548,18.8448133 25.3510373,18.9842324 C25.4672199,19.1236515 25.5369295,19.2863071 25.606639,19.4721992 C25.653112,19.6580913 25.6763485,19.8439834 25.6763485,20.053112 C25.6763485,20.2622407 25.6298755,20.4481328 25.560166,20.6340249 C25.4904564,20.819917 25.3975104,20.9593361 25.2813278,21.0987552 C25.1651452,21.2381743 25.0024896,21.3311203 24.839834,21.4008299 C24.6771784,21.4705394 24.4680498,21.4937759 24.2589212,21.4937759 C24.0497925,21.4937759 23.8639004,21.4473029 23.7012448,21.3543568 C23.5385892,21.2614108 23.3991701,21.1452282 23.2829876,21.0058091 C23.166805,20.86639 23.0970954,20.7037344 23.0273859,20.5178423 C22.9809129,20.3319502 22.9576763,20.1460581 22.9576763,19.9369295 C22.9576763,19.7278008 23.0041494,19.5419087 23.0738589,19.3792531 C23.1435685,19.193361 23.2365145,19.0539419 23.3526971,18.9145228 C23.4688797,18.7751037 23.6315353,18.6821577 23.7941909,18.6124481 C23.9568465,18.5195021 24.1427386,18.473029 24.3751037,18.4962656 Z M24.3518672,18.8912863 C24.2124481,18.8912863 24.073029,18.9145228 23.9568465,18.9609959 C23.8406639,19.0074689 23.7477178,19.1004149 23.6780083,19.193361 C23.6082988,19.2863071 23.5385892,19.4024896 23.5153527,19.5419087 C23.4688797,19.6813278 23.4456432,19.7975104 23.4456432,19.9369295 C23.4456432,20.0763485 23.4456432,20.2157676 23.4688797,20.3319502 C23.4921162,20.4713693 23.5385892,20.5875519 23.6082988,20.6804979 C23.6780083,20.7966805 23.7477178,20.86639 23.8639004,20.9360996 C23.980083,21.0058091 24.0962656,21.0290456 24.2589212,21.0522822 C24.3983402,21.0522822 24.5377593,21.0290456 24.6539419,20.9825726 C24.7701245,20.9360996 24.8630705,20.8431535 24.9327801,20.7502075 C25.0024896,20.6572614 25.0721992,20.5410788 25.0954357,20.4016598 C25.1419087,20.2622407 25.1651452,20.1460581 25.1651452,20.006639 C25.1651452,19.8672199 25.1651452,19.7278008 25.1419087,19.6116183 C25.1186722,19.4721992 25.0721992,19.3560166 25.0024896,19.2630705 C24.9327801,19.146888 24.8630705,19.0771784 24.746888,19.0074689 C24.6307054,18.9377593 24.4912863,18.9145228 24.3518672,18.8912863 Z" id="Shape"></path>
                                <polygon id="Shape" points="26.1178423 18.5892116 28.0697095 18.4497925 28.0929461 18.8680498 26.6290456 18.9609959 26.6755187 19.7045643 27.953527 19.6116183 27.9767635 20.006639 26.6987552 20.0995851 26.7917012 21.3543568 26.3037344 21.3775934"></polygon>
                                <path d="M30.9742739,19.9369295 C30.9975104,20.053112 31.0439834,20.1460581 31.1136929,20.2390041 C31.1834025,20.3087137 31.253112,20.3784232 31.3460581,20.4016598 C31.4390041,20.4481328 31.5319502,20.4481328 31.6248963,20.4481328 C31.7178423,20.4481328 31.8340249,20.4248963 31.9502075,20.4016598 C32.06639,20.3784232 32.1593361,20.3319502 32.2522822,20.2854772 C32.3219917,20.2390041 32.3917012,20.1925311 32.4381743,20.1228216 C32.4846473,20.0763485 32.5078838,20.006639 32.5078838,19.9369295 L32.5078838,19.7510373 C32.4846473,19.6348548 32.4149378,19.5419087 32.3452282,19.4954357 C32.2755187,19.4489627 32.2058091,19.4257261 32.1360996,19.4257261 C32.019917,19.4024896 31.8804979,19.4024896 31.7178423,19.4024896 L31.1369295,19.4024896 C30.9975104,19.4024896 30.8580913,19.3792531 30.7651452,19.3560166 C30.6721992,19.3327801 30.5792531,19.2863071 30.5095436,19.2165975 C30.439834,19.1701245 30.3701245,19.1004149 30.346888,19.0307054 C30.3004149,18.9609959 30.2771784,18.8912863 30.2539419,18.7983402 C30.2074689,18.6356846 30.2074689,18.4962656 30.2539419,18.3568465 C30.3004149,18.2174274 30.346888,18.1012448 30.439834,18.0082988 C30.5327801,17.8921162 30.6257261,17.8224066 30.7651452,17.7526971 C30.9045643,17.6829876 31.0207469,17.6365145 31.160166,17.5900415 C31.3228216,17.5435685 31.4854772,17.520332 31.6481328,17.5435685 C31.8107884,17.5435685 31.9502075,17.566805 32.0896266,17.6365145 C32.2290456,17.6829876 32.3452282,17.7759336 32.4381743,17.8921162 C32.5311203,18.0082988 32.6008299,18.1244813 32.6473029,18.3103734 L32.0896266,18.4497925 C32.019917,18.2406639 31.926971,18.1244813 31.7643154,18.0780083 C31.6248963,18.0315353 31.4622407,18.0315353 31.253112,18.0780083 C31.1834025,18.1012448 31.1136929,18.1244813 31.0672199,18.1477178 C30.9975104,18.1709544 30.9510373,18.2174274 30.9045643,18.2639004 C30.8580913,18.3103734 30.8116183,18.3568465 30.7883817,18.426556 C30.7651452,18.4962656 30.7651452,18.5659751 30.7883817,18.6356846 C30.8116183,18.7518672 30.8813278,18.8215768 30.9510373,18.8680498 C31.0439834,18.9145228 31.1369295,18.9377593 31.253112,18.9377593 L31.3925311,18.9377593 L31.6713693,18.9377593 L31.973444,18.9377593 L32.1825726,18.9377593 C32.2987552,18.9377593 32.3917012,18.9609959 32.4846473,19.0074689 C32.5775934,19.0539419 32.6473029,19.1004149 32.7170124,19.146888 C32.786722,19.2165975 32.8564315,19.2630705 32.9029046,19.3560166 C32.9493776,19.4257261 32.9726141,19.5186722 32.9958506,19.5883817 C33.0423237,19.7742739 33.0423237,19.9136929 32.9958506,20.0763485 C32.9493776,20.2157676 32.879668,20.3551867 32.786722,20.4481328 C32.6937759,20.5643154 32.5775934,20.6572614 32.4381743,20.726971 C32.2987552,20.7966805 32.1593361,20.86639 31.9966805,20.9128631 C31.8107884,20.9593361 31.6481328,20.9825726 31.4622407,20.9825726 C31.2995851,20.9825726 31.1369295,20.9593361 30.9975104,20.8896266 C30.8580913,20.819917 30.7419087,20.726971 30.6257261,20.6107884 C30.5095436,20.4946058 30.439834,20.3319502 30.393361,20.1460581 L30.9742739,19.9369295 Z" id="Shape"></path>
                                <path d="M33.8091286,16.7767635 L34.366805,16.5443983 L36.760166,19.0539419 L36.2024896,19.2863071 L35.5983402,18.6124481 L34.413278,19.1004149 L34.459751,20.006639 L33.9253112,20.2390041 L33.8091286,16.7767635 Z M34.3900415,18.6589212 L35.2962656,18.2871369 L34.320332,17.1950207 L34.2970954,17.1950207 L34.3900415,18.6589212 Z" id="Shape"></path>
                                <polygon id="Shape" points="35.8539419 15.8705394 36.3419087 15.5684647 38.7817427 16.8929461 38.7817427 16.8929461 37.5502075 14.8481328 37.9917012 14.5925311 39.6647303 17.3809129 39.1767635 17.6829876 36.760166 16.3585062 36.760166 16.3585062 37.9917012 18.4033195 37.5502075 18.6589212"></polygon>
                                <polygon id="Shape" points="38.6655602 14.0813278 39.1302905 13.7327801 41.0821577 16.3352697 40.6174274 16.6838174"></polygon>
                                <polygon id="Shape" points="39.5950207 13.4307054 41.546888 11.6647303 41.8721992 12.0365145 41.1053942 12.73361 42.9643154 14.7784232 42.5460581 15.1502075 40.6871369 13.1053942 39.920332 13.8024896"></polygon>
                                <path d="M42.1742739,10.9211618 L42.5692946,10.4564315 L45.8456432,11.6414938 L45.4506224,12.1062241 L44.6141079,11.7809129 L43.7543568,12.7568465 L44.1958506,13.546888 L43.8008299,13.9883817 L42.1742739,10.9211618 Z M43.5219917,12.3385892 L44.1726141,11.5950207 L42.8016598,11.0373444 L42.8016598,11.0373444 L43.5219917,12.3385892 Z" id="Shape"></path>
                                <polygon id="Shape" points="43.219917 9.71286307 44.7070539 7.55186722 45.1020747 7.83070539 44.5211618 8.69045643 46.7983402 10.2473029 46.473029 10.7120332 44.1958506 9.15518672 43.6149378 9.99170124"></polygon>
                                <polygon id="Shape" points="44.9858921 7.0406639 45.2647303 6.5526971 48.0995851 8.13278008 47.8207469 8.62074689"></polygon>
                                <path d="M46.1477178,4.50788382 C46.2406639,4.27551867 46.3568465,4.08962656 46.5195021,3.95020747 C46.6821577,3.81078838 46.8448133,3.69460581 47.0539419,3.64813278 C47.2630705,3.60165975 47.4489627,3.55518672 47.6813278,3.57842324 C47.8904564,3.60165975 48.1228216,3.64813278 48.3319502,3.74107884 C48.5410788,3.8340249 48.726971,3.95020747 48.8896266,4.08962656 C49.0522822,4.22904564 49.1684647,4.39170124 49.2614108,4.57759336 C49.3543568,4.76348548 49.4008299,4.94937759 49.4008299,5.15850622 C49.4008299,5.36763485 49.3775934,5.57676349 49.2846473,5.80912863 C49.1917012,6.04149378 49.0755187,6.22738589 48.9128631,6.36680498 C48.7502075,6.50622407 48.5875519,6.62240664 48.3784232,6.66887967 C48.1925311,6.73858921 47.9834025,6.76182573 47.7510373,6.73858921 C47.5419087,6.7153527 47.3095436,6.66887967 47.1004149,6.57593361 C46.8912863,6.48298755 46.7053942,6.36680498 46.5427386,6.22738589 C46.380083,6.0879668 46.2639004,5.9253112 46.1709544,5.73941909 C46.0780083,5.55352697 46.0315353,5.36763485 46.0082988,5.13526971 C46.0082988,4.94937759 46.0547718,4.74024896 46.1477178,4.50788382 Z M46.5659751,4.69377593 C46.4962656,4.85643154 46.473029,4.99585062 46.4962656,5.15850622 C46.5195021,5.29792531 46.5659751,5.4373444 46.6356846,5.55352697 C46.7053942,5.66970954 46.8215768,5.78589212 46.9377593,5.87883817 C47.0539419,5.97178423 47.193361,6.04149378 47.3327801,6.11120332 C47.4721992,6.18091286 47.6116183,6.20414938 47.7742739,6.22738589 C47.9369295,6.25062241 48.0763485,6.25062241 48.2157676,6.22738589 C48.3551867,6.20414938 48.4713693,6.13443983 48.5875519,6.04149378 C48.7037344,5.94854772 48.7966805,5.83236515 48.86639,5.66970954 C48.9360996,5.50705394 48.9593361,5.36763485 48.9360996,5.20497925 C48.9128631,5.06556017 48.86639,4.92614108 48.7966805,4.80995851 C48.726971,4.69377593 48.6107884,4.57759336 48.4946058,4.4846473 C48.3784232,4.39170124 48.2390041,4.3219917 48.0995851,4.25228216 C47.960166,4.18257261 47.8207469,4.1593361 47.6580913,4.13609959 C47.4954357,4.11286307 47.3560166,4.11286307 47.2165975,4.13609959 C47.0771784,4.1593361 46.9609959,4.22904564 46.8448133,4.3219917 C46.7286307,4.39170124 46.6356846,4.53112033 46.5659751,4.69377593 Z" id="Shape"></path>
                                <polygon id="Shape" points="46.9842324 2.53278008 47.1236515 1.97510373 49.7726141 1.18506224 49.7726141 1.18506224 47.4489627 0.604149378 47.5651452 0.116182573 50.7253112 0.906224066 50.5858921 1.46390041 47.9369295 2.25394191 47.9369295 2.27717842 50.2605809 2.85809129 50.1443983 3.34605809"></polygon>
                            </g>
                            <g id="Group" transform="translate(2.091286, 15.800830)">
                                <g id="XMLID_22_" transform="translate(14.639004, 7.900415)">
                                    <path d="M9.73609959,0.278838174 L0.441493776,6.25062241 C0.441493776,6.25062241 1.4406639,8.43485477 1.97510373,8.43485477 C5.25145228,8.50456432 12.013278,1.85892116 12.013278,1.85892116 L9.73609959,0.278838174 Z" id="Shape" fill="#FFFFFF"></path>
                                    <path d="M1.99834025,8.66721992 L1.95186722,8.66721992 C1.34771784,8.6439834 0.557676349,7.0406639 0.232365145,6.34356846 L0.162655602,6.18091286 L9.73609959,0.0232365145 L12.3153527,1.85892116 L12.1294606,2.04481328 C11.8506224,2.30041494 5.34439834,8.66721992 1.99834025,8.66721992 Z M0.697095436,6.34356846 C1.18506224,7.3659751 1.74273859,8.22572614 1.95186722,8.24896266 L1.99834025,8.24896266 C4.87966805,8.24896266 10.5726141,2.95103734 11.6414938,1.90539419 L9.71286307,0.534439834 L0.697095436,6.34356846 Z" id="Shape" fill="#000000"></path>
                                </g>
                                <g id="XMLID_21_" transform="translate(11.618257, 6.273859)">
                                    <path d="M10.5726141,0.371784232 L0.418257261,6.62240664 C0.418257261,6.62240664 1.41742739,8.806639 1.95186722,8.806639 C5.22821577,8.87634855 12.8497925,1.95186722 12.8497925,1.95186722 L10.5726141,0.371784232 Z" id="Shape" fill="#FFFFFF"></path>
                                    <path d="M1.99834025,9.01576763 L1.95186722,9.01576763 C1.34771784,9.01576763 0.557676349,7.38921162 0.232365145,6.69211618 L0.162655602,6.52946058 L10.5958506,0.0929460581 L13.1751037,1.90539419 L12.9892116,2.09128631 C12.6639004,2.393361 5.34439834,9.01576763 1.99834025,9.01576763 Z M0.697095436,6.7153527 C1.18506224,7.73775934 1.74273859,8.59751037 1.95186722,8.62074689 L1.99834025,8.62074689 C4.90290456,8.62074689 11.2929461,3.0439834 12.5012448,1.99834025 L10.5726141,0.627385892 L0.697095436,6.7153527 Z" id="Shape" fill="#000000"></path>
                                </g>
                                <g id="XMLID_20_" transform="translate(9.294606, 4.647303)">
                                    <path d="M10.5029046,0.278838174 L0.348547718,6.52946058 C0.348547718,6.52946058 1.34771784,8.71369295 1.88215768,8.71369295 C5.15850622,8.78340249 12.780083,1.85892116 12.780083,1.85892116 L10.5029046,0.278838174 Z" id="Shape" fill="#FFFFFF"></path>
                                    <path d="M1.90539419,8.94605809 L1.85892116,8.94605809 C1.25477178,8.92282158 0.46473029,7.31950207 0.139419087,6.62240664 L0.0697095436,6.45975104 L10.5029046,0.0232365145 L13.0821577,1.83568465 L12.8962656,2.02157676 C12.5709544,2.32365145 5.25145228,8.94605809 1.90539419,8.94605809 Z M0.604149378,6.62240664 C1.09211618,7.64481328 1.64979253,8.50456432 1.85892116,8.52780083 L1.90539419,8.52780083 C4.80995851,8.52780083 11.2,2.95103734 12.4082988,1.90539419 L10.479668,0.534439834 L0.604149378,6.62240664 Z" id="Shape" fill="#000000"></path>
                                </g>
                                <g id="XMLID_19_" transform="translate(5.112033, 3.485477)">
                                    <path d="M13.2912863,0.441493776 L0.325311203,6.34356846 C0.325311203,6.34356846 1.13858921,8.1560166 1.71950207,8.22572614 C5.32116183,8.71369295 15.5917012,1.85892116 15.5917012,1.85892116 L13.2912863,0.441493776 Z" id="Shape" fill="#FFFFFF"></path>
                                    <path d="M2.11452282,8.45809129 C1.97510373,8.45809129 1.81244813,8.45809129 1.69626556,8.43485477 C1.02240664,8.34190871 0.278838174,6.73858921 0.139419087,6.41327801 L0.046473029,6.22738589 L13.3145228,0.209128631 L15.986722,1.85892116 L15.7078838,2.04481328 C15.3128631,2.32365145 6.04149378,8.45809129 2.11452282,8.45809129 Z M0.580912863,6.43651452 C0.952697095,7.2033195 1.46390041,7.993361 1.74273859,8.01659751 C4.90290456,8.45809129 13.5701245,2.95103734 15.219917,1.88215768 L13.2680498,0.673858921 L0.580912863,6.43651452 Z" id="Shape" fill="#000000"></path>
                                </g>
                                <g id="XMLID_18_" transform="translate(0.000000, 1.858921)">
                                    <path d="M17.9618257,0.371784232 C17.9618257,0.371784232 4.18257261,4.80995851 0.534439834,5.7626556 C-0.302074689,5.97178423 1.46390041,8.78340249 2.04481328,8.89958506 C4.50788382,9.41078838 19.1236515,1.69626556 18.5427386,2.06804979 L17.9618257,0.371784232 Z" id="Shape" fill="#FFFFFF"></path>
                                    <path d="M2.30041494,9.15518672 C2.18423237,9.15518672 2.09128631,9.15518672 1.99834025,9.13195021 C1.39419087,8.99253112 0.116182573,6.99419087 0.0929460581,6.15767635 C0.0929460581,5.71618257 0.348547718,5.6 0.46473029,5.57676349 C4.08962656,4.6473029 17.7526971,0.232365145 17.8921162,0.185892116 L18.0780083,0.116182573 L18.6821577,1.92863071 C18.6821577,1.95186722 18.7053942,1.95186722 18.7053942,1.97510373 L18.7983402,2.13775934 L18.4033195,2.41659751 L18.380083,2.37012448 C18.1709544,2.46307054 17.7991701,2.64896266 17.4041494,2.85809129 C11.9435685,5.6 4.57759336,9.15518672 2.30041494,9.15518672 Z M17.8224066,0.627385892 C16.1261411,1.18506224 3.95020747,5.08879668 0.580912863,5.97178423 C0.557676349,5.97178423 0.51120332,5.99502075 0.51120332,6.13443983 C0.534439834,6.92448133 1.7659751,8.6439834 2.09128631,8.71369295 C2.16099585,8.73692946 2.25394191,8.73692946 2.34688797,8.73692946 C4.74024896,8.73692946 14.1045643,4.06639004 17.2414938,2.48630705 C17.7526971,2.23070539 18.0780083,2.06804979 18.2871369,1.97510373 L17.8224066,0.627385892 Z" id="Shape" fill="#000000"></path>
                                </g>
                                <g id="XMLID_15_" transform="translate(13.477178, 0.000000)">
                                    <path d="M12.1062241,9.20165975 C11.0373444,8.87634855 9.45726141,8.29543568 8.43485477,7.27302905 C7.66804979,6.52946058 6.83153527,5.39087137 6.80829876,5.39087137 C6.76182573,5.34439834 6.7153527,5.29792531 6.64564315,5.29792531 L6.64564315,5.29792531 L6.39004149,5.29792531 C5.25145228,5.29792531 4.80995851,5.20497925 4.74024896,5.15850622 C4.6473029,5.01908714 4.60082988,4.11286307 4.6473029,3.34605809 C4.6473029,3.27634855 4.62406639,3.22987552 4.57759336,3.18340249 C4.53112033,3.13692946 4.4846473,3.11369295 4.43817427,3.11369295 C4.43817427,3.11369295 4.43817427,3.11369295 4.41493776,3.11369295 C4.39170124,3.11369295 2.20746888,3.27634855 0.952697095,3.29958506 C1.53360996,2.99751037 2.13775934,2.60248963 2.78838174,2.20746888 C4.20580913,1.30124481 5.83236515,0.278838174 7.11037344,0.278838174 C8.45809129,0.278838174 9.27136929,1.51037344 9.5966805,4.04315353 C9.94522822,6.8780083 11.1767635,8.41161826 12.1062241,9.20165975 Z" id="Shape" fill="#FFFFFF"></path>
                                    <path d="M7.11037344,0.487966805 C7.55186722,0.487966805 8.94605809,0.487966805 9.38755187,4.06639004 C9.66639004,6.34356846 10.5029046,7.80746888 11.3161826,8.71369295 C10.386722,8.36514523 9.31784232,7.85394191 8.57427386,7.11037344 C7.83070539,6.36680498 6.97095436,5.25145228 6.97095436,5.25145228 C6.90124481,5.13526971 6.76182573,5.08879668 6.64564315,5.08879668 L6.64564315,5.08879668 L6.41327801,5.08879668 C5.55352697,5.08879668 5.1120332,5.04232365 4.94937759,4.99585062 C4.87966805,4.74024896 4.85643154,4.01991701 4.90290456,3.34605809 C4.90290456,3.22987552 4.85643154,3.11369295 4.78672199,3.02074689 C4.71701245,2.95103734 4.60082988,2.90456432 4.4846473,2.90456432 L4.46141079,2.90456432 C4.43817427,2.90456432 3.06721992,2.99751037 1.88215768,3.06721992 C2.23070539,2.85809129 2.60248963,2.62572614 2.97427386,2.393361 C4.3219917,1.51037344 5.9253112,0.487966805 7.11037344,0.487966805 L7.11037344,0.487966805 Z M7.11037344,0.0697095436 C4.97261411,0.0697095436 2.11452282,2.7186722 0.185892116,3.41576763 C-1.85300386e-12,3.48547718 0.209128631,3.50871369 0.604149378,3.50871369 C1.74273859,3.50871369 4.43817427,3.32282158 4.43817427,3.32282158 C4.43817427,3.32282158 4.34522822,5.08879668 4.60082988,5.29792531 C4.80995851,5.46058091 5.87883817,5.48381743 6.36680498,5.48381743 L6.62240664,5.48381743 C6.62240664,5.48381743 7.48215768,6.62240664 8.27219917,7.38921162 C10.0381743,9.10871369 13.2215768,9.66639004 13.2215768,9.66639004 C13.2215768,9.66639004 10.3634855,8.50456432 9.78257261,3.9966805 C9.4340249,1.04564315 8.41161826,0.0697095436 7.11037344,0.0697095436 L7.11037344,0.0697095436 Z" id="Shape" fill="#000000"></path>
                                </g>
                            </g>
                            <g id="Group" transform="translate(26.954357, 15.800830)">
                                <g id="XMLID_26_" transform="translate(0.000000, 7.900415)">
                                    <path d="M2.7186722,0.278838174 L12.013278,6.25062241 C12.013278,6.25062241 11.0141079,8.43485477 10.479668,8.43485477 C7.2033195,8.50456432 0.441493776,1.85892116 0.441493776,1.85892116 L2.7186722,0.278838174 Z" id="Shape" fill="#FFFFFF"></path>
                                    <path d="M10.433195,8.6439834 C7.08713693,8.6439834 0.580912863,2.27717842 0.302074689,1.99834025 L0.116182573,1.81244813 L2.69543568,0 L12.2688797,6.15767635 L12.1991701,6.32033195 C11.8738589,7.01742739 11.0838174,8.62074689 10.479668,8.6439834 L10.433195,8.6439834 Z M0.766804979,1.90539419 C1.85892116,2.95103734 7.55186722,8.24896266 10.4099585,8.24896266 L10.4564315,8.24896266 C10.6655602,8.22572614 11.246473,7.3659751 11.7112033,6.34356846 L2.67219917,0.534439834 L0.766804979,1.90539419 Z" id="Shape" fill="#000000"></path>
                                </g>
                                <g id="XMLID_25_" transform="translate(2.091286, 6.273859)">
                                    <path d="M2.78838174,0.348547718 L12.9427386,6.59917012 C12.9427386,6.59917012 11.9435685,8.78340249 11.4091286,8.78340249 C8.13278008,8.85311203 0.51120332,1.92863071 0.51120332,1.92863071 L2.78838174,0.348547718 Z" id="Shape" fill="#FFFFFF"></path>
                                    <path d="M11.3626556,9.01576763 C8.01659751,9.01576763 0.697095436,2.393361 0.395020747,2.09128631 L0.209128631,1.90539419 L2.78838174,0.0929460581 L13.2215768,6.52946058 L13.1518672,6.69211618 C12.826556,7.38921162 12.0365145,8.99253112 11.4323651,9.01576763 L11.3626556,9.01576763 Z M0.859751037,1.97510373 C2.06804979,3.0439834 8.45809129,8.59751037 11.3626556,8.59751037 L11.4091286,8.59751037 C11.6182573,8.57427386 12.1991701,7.71452282 12.6639004,6.69211618 L2.78838174,0.604149378 L0.859751037,1.97510373 Z" id="Shape" fill="#000000"></path>
                                </g>
                                <g id="XMLID_24_" transform="translate(4.647303, 4.647303)">
                                    <path d="M2.62572614,0.278838174 L12.780083,6.52946058 C12.780083,6.52946058 11.7809129,8.71369295 11.246473,8.71369295 C7.97012448,8.78340249 0.348547718,1.85892116 0.348547718,1.85892116 L2.62572614,0.278838174 Z" id="Shape" fill="#FFFFFF"></path>
                                    <path d="M11.2232365,8.92282158 C7.87717842,8.92282158 0.557676349,2.30041494 0.25560166,1.99834025 L0.0697095436,1.81244813 L2.64896266,0 L13.0821577,6.43651452 L13.0124481,6.59917012 C12.6871369,7.29626556 11.8970954,8.89958506 11.2929461,8.92282158 C11.246473,8.92282158 11.246473,8.92282158 11.2232365,8.92282158 Z M0.72033195,1.88215768 C1.92863071,2.95103734 8.3186722,8.50456432 11.2232365,8.50456432 L11.2697095,8.50456432 C11.4788382,8.4813278 12.059751,7.62157676 12.5244813,6.59917012 L2.64896266,0.51120332 L0.72033195,1.88215768 Z" id="Shape" fill="#000000"></path>
                                </g>
                                <g id="XMLID_17_" transform="translate(5.809129, 3.485477)">
                                    <path d="M2.85809129,0.418257261 L15.8240664,6.32033195 C15.8240664,6.32033195 15.0107884,8.13278008 14.4298755,8.20248963 C10.8282158,8.69045643 0.534439834,1.85892116 0.534439834,1.85892116 L2.85809129,0.418257261 Z" id="Shape" fill="#FFFFFF"></path>
                                    <path d="M14.0348548,8.43485477 C10.1078838,8.43485477 0.836514523,2.30041494 0.418257261,2.02157676 L0.139419087,1.83568465 L2.83485477,0.162655602 L16.1029046,6.18091286 L16.0099585,6.36680498 C15.8705394,6.69211618 15.1037344,8.29543568 14.453112,8.38838174 C14.3369295,8.43485477 14.1975104,8.43485477 14.0348548,8.43485477 Z M0.929460581,1.85892116 C2.57925311,2.92780083 11.246473,8.43485477 14.406639,7.993361 C14.6854772,7.94688797 15.1966805,7.18008299 15.5684647,6.41327801 L2.8813278,0.650622407 L0.929460581,1.85892116 Z" id="Shape" fill="#000000"></path>
                                </g>
                                <g id="XMLID_13_" transform="translate(8.132780, 1.858921)">
                                    <path d="M0.97593361,0.371784232 C0.97593361,0.371784232 14.7551867,4.80995851 18.4033195,5.7626556 C19.239834,5.97178423 17.4738589,8.78340249 16.8929461,8.89958506 C14.4298755,9.41078838 -0.185892116,1.69626556 0.395020747,2.06804979 L0.97593361,0.371784232 Z" id="Shape" fill="#FFFFFF"></path>
                                    <path d="M16.6373444,9.13195021 C14.360166,9.13195021 6.97095436,5.57676349 1.51037344,2.83485477 C1.09211618,2.62572614 0.743568465,2.43983402 0.534439834,2.34688797 L0.51120332,2.393361 L0.116182573,2.13775934 L0.209128631,1.95186722 C0.232365145,1.92863071 0.232365145,1.90539419 0.232365145,1.90539419 L0.836514523,0.0929460581 L1.02240664,0.162655602 C1.16182573,0.209128631 14.8248963,4.62406639 18.4497925,5.55352697 C18.5659751,5.57676349 18.8448133,5.69294606 18.8215768,6.13443983 C18.7983402,6.97095436 17.520332,8.96929461 16.9161826,9.10871369 C16.8697095,9.13195021 16.753527,9.13195021 16.6373444,9.13195021 Z M0.673858921,1.97510373 C0.882987552,2.06804979 1.20829876,2.23070539 1.71950207,2.48630705 C4.99585062,4.13609959 14.9875519,9.10871369 16.8697095,8.71369295 C17.1717842,8.6439834 18.426556,6.92448133 18.4497925,6.13443983 C18.4497925,5.99502075 18.4033195,5.97178423 18.380083,5.97178423 C14.9875519,5.08879668 2.83485477,1.18506224 1.13858921,0.627385892 L0.673858921,1.97510373 Z" id="Shape" fill="#000000"></path>
                                </g>
                                <g id="XMLID_4_" transform="translate(0.232365, 0.000000)">
                                    <path d="M1.25477178,9.17842324 C2.16099585,8.41161826 3.39253112,6.85477178 3.76431535,4.01991701 C4.08962656,1.48713693 4.90290456,0.25560166 6.25062241,0.25560166 C7.50539419,0.25560166 9.13195021,1.2780083 10.5726141,2.18423237 C11.2232365,2.60248963 11.8273859,2.97427386 12.4082988,3.27634855 C11.1767635,3.25311203 8.96929461,3.09045643 8.94605809,3.09045643 C8.94605809,3.09045643 8.94605809,3.09045643 8.92282158,3.09045643 C8.87634855,3.09045643 8.806639,3.11369295 8.78340249,3.16016598 C8.73692946,3.206639 8.71369295,3.25311203 8.71369295,3.32282158 C8.76016598,4.08962656 8.71369295,4.99585062 8.62074689,5.13526971 C8.55103734,5.18174274 8.13278008,5.2746888 6.99419087,5.2746888 L6.73858921,5.2746888 L6.73858921,5.2746888 C6.66887967,5.2746888 6.59917012,5.29792531 6.57593361,5.36763485 C6.57593361,5.36763485 5.71618257,6.50622407 4.94937759,7.24979253 C3.90373444,8.27219917 2.32365145,8.87634855 1.25477178,9.17842324 Z" id="Shape" fill="#FFFFFF"></path>
                                    <path d="M6.25062241,0.0697095436 L6.25062241,0.487966805 C7.45892116,0.487966805 9.03900415,1.48713693 10.4564315,2.393361 C10.8282158,2.62572614 11.2,2.85809129 11.5485477,3.06721992 C10.3634855,3.02074689 8.99253112,2.90456432 8.96929461,2.90456432 L8.94605809,2.90456432 C8.82987552,2.90456432 8.73692946,2.95103734 8.6439834,3.02074689 C8.55103734,3.11369295 8.50456432,3.22987552 8.52780083,3.34605809 C8.55103734,4.01991701 8.52780083,4.74024896 8.4813278,4.99585062 C8.3186722,5.04232365 7.87717842,5.08879668 7.01742739,5.08879668 L6.78506224,5.08879668 L6.78506224,5.08879668 C6.64564315,5.08879668 6.52946058,5.15850622 6.45975104,5.25145228 C6.45975104,5.25145228 5.62323651,6.39004149 4.85643154,7.11037344 C4.08962656,7.85394191 3.02074689,8.36514523 2.11452282,8.71369295 C2.92780083,7.80746888 3.76431535,6.32033195 4.04315353,4.06639004 C4.4846473,0.487966805 5.85560166,0.487966805 6.32033195,0.487966805 L6.25062241,0.0697095436 L6.25062241,0.0697095436 Z M6.25062241,0.0697095436 C4.94937759,0.0697095436 3.92697095,1.04564315 3.55518672,4.01991701 C2.99751037,8.52780083 0.116182573,9.68962656 0.116182573,9.68962656 C0.116182573,9.68962656 3.29958506,9.13195021 5.06556017,7.41244813 C5.85560166,6.64564315 6.7153527,5.50705394 6.7153527,5.50705394 L6.97095436,5.50705394 C7.45892116,5.50705394 8.52780083,5.48381743 8.73692946,5.32116183 C8.99253112,5.1120332 8.89958506,3.34605809 8.89958506,3.34605809 C8.89958506,3.34605809 11.5950207,3.53195021 12.73361,3.53195021 C13.1286307,3.53195021 13.3377593,3.50871369 13.1518672,3.43900415 C11.246473,2.7186722 8.36514523,0.0697095436 6.25062241,0.0697095436 L6.25062241,0.0697095436 Z" id="Shape" fill="#000000"></path>
                                </g>
                            </g>
                            <g id="XMLID_48_" transform="translate(25.792531, 19.518672)" fill="#000000">
                                <polygon id="Shape" points="3.09045643 29.1153527 4.1593361 0.25560166 0.348547718 0.25560166 1.58008299 29.0921162"></polygon>
                                <path d="M3.22987552,29.2547718 L1.46390041,29.2082988 L0.209128631,0.0929460581 L4.3219917,0.0929460581 L4.3219917,0.232365145 L3.22987552,29.2547718 Z M1.71950207,28.9526971 L2.95103734,28.9759336 L4.01991701,0.395020747 L0.487966805,0.395020747 L1.71950207,28.9526971 Z" id="Shape"></path>
                            </g>
                            <g id="XMLID_47_" transform="translate(26.721992, 19.983402)" fill="#FFFFFF">
                                <polygon id="Shape" points="0.0232365145 0.0697095436 0.371784232 15.6381743 0.580912863 15.7775934 0.580912863 0.0697095436"></polygon>
                            </g>
                            <g id="XMLID_6_" transform="translate(25.095436, 9.759336)" fill="#000000">
                                <path d="M5.71618257,3.90373444 C5.66970954,3.18340249 5.13526971,2.27717842 4.01991701,1.7659751 C3.60165975,1.55684647 3.32282158,1.34771784 3.34605809,0.952697095 C3.34605809,0.46473029 3.67136929,0.116182573 3.67136929,0.116182573 C3.67136929,0.116182573 1.51037344,0.139419087 1.67302905,2.09128631 C1.69626556,2.48630705 2.02157676,3.11369295 1.46390041,3.16016598 C1.02240664,3.206639 1.04564315,2.60248963 1.06887967,2.34688797 C1.09211618,1.85892116 -0.046473029,3.13692946 0.25560166,4.99585062 C0.697095436,7.85394191 6.01825726,7.85394191 5.71618257,3.90373444 Z" id="Shape"></path>
                            </g>
                            <g id="XMLID_3_" transform="translate(25.560166, 10.224066)" fill="#FFFFFF">
                                <path d="M4.85643154,4.01991701 C4.90290456,3.22987552 4.69377593,2.57925311 4.13609959,2.11452282 C3.69460581,1.74273859 3.50871369,1.71950207 3.13692946,1.48713693 C2.90456432,1.34771784 2.64896266,1.13858921 2.5560166,0.766804979 C2.48630705,0.418257261 2.57925311,0.162655602 2.57925311,0.162655602 C2.57925311,0.162655602 2.09128631,0.209128631 1.74273859,0.743568465 C1.53360996,1.06887967 1.51037344,1.34771784 1.67302905,2.25394191 C1.85892116,3.29958506 0.580912863,3.39253112 0.395020747,2.76514523 C0.278838174,2.43983402 -0.162655602,4.06639004 0.302074689,4.99585062 C0.743568465,5.83236515 1.67302905,6.20414938 2.62572614,6.15767635 C3.60165975,6.0879668 4.78672199,5.36763485 4.85643154,4.01991701 Z" id="Shape"></path>
                            </g>
                            <g id="XMLID_1_" transform="translate(26.954357, 13.709544)" fill="#000000">
                                <path d="M0.046473029,1.69626556 C0.139419087,1.06887967 0.72033195,1.04564315 1.02240664,0.650622407 C1.18506224,0.418257261 1.16182573,0 1.16182573,0 C1.16182573,0 1.71950207,0.325311203 1.39419087,1.06887967 C1.30124481,1.30124481 1.2780083,1.55684647 1.6033195,1.53360996 C1.78921162,1.53360996 1.92863071,1.34771784 1.95186722,1.25477178 C1.97510373,1.1153527 2.25394191,1.58008299 2.13775934,2.13775934 C1.95186722,3.06721992 -0.185892116,3.13692946 0.046473029,1.69626556 Z" id="Shape"></path>
                            </g>
                            <ellipse id="Oval" fill="#000000" cx="27.9767635" cy="18.0780083" rx="1.95186722" ry="1.67302905"></ellipse>
                            <path d="M26.7917012,18.1244813 C26.7917012,17.566805 27.1634855,16.9626556 27.6514523,16.8929461 C27.6049793,16.8929461 27.5585062,16.8697095 27.5120332,16.8697095 C26.9543568,16.8697095 26.4431535,17.4041494 26.419917,18.1244813 C26.419917,18.7286307 26.9543568,19.4024896 27.5352697,19.4024896 C27.5817427,19.4024896 27.6282158,19.4024896 27.6746888,19.3792531 C27.1634855,19.2863071 26.7917012,18.6821577 26.7917012,18.1244813 Z" id="Shape" fill="#FFFFFF"></path>
                            <g id="XMLID_40_" transform="translate(28.348548, 27.883817)" fill="#FFFFFF">
                                <path d="M1.13858921,8.3186722 C5.34439834,7.85394191 7.24979253,5.57676349 7.08713693,3.09045643 C7.0406639,2.393361 6.57593361,1.64979253 5.87883817,1.04564315 C4.6473029,0.0697095436 3.39253112,0.0697095436 3.06721992,0.0697095436 C1.4406639,0.0697095436 0.116182573,0.72033195 0.116182573,1.53360996 C0.116182573,2.34688797 1.4406639,2.99751037 3.06721992,2.99751037 C3.62489627,2.99751037 4.1593361,2.92780083 4.60082988,2.78838174 C4.99585062,2.74190871 5.06556017,3.206639 5.01908714,3.39253112 C4.99585062,4.69377593 3.13692946,5.55352697 1.18506224,6.27385892 L1.13858921,8.3186722 Z" id="Shape"></path>
                            </g>
                            <g id="XMLID_12_" transform="translate(27.651452, 27.651452)" fill="#000000">
                                <path d="M0.371784232,9.5966805 C0.278838174,9.5966805 0.209128631,9.55020747 0.185892116,9.45726141 C0.139419087,9.34107884 0.185892116,9.22489627 0.302074689,9.17842324 C0.325311203,9.17842324 0.371784232,9.15518672 0.395020747,9.13195021 C0.46473029,9.08547718 0.51120332,9.06224066 0.580912863,9.03900415 C1.06887967,8.87634855 1.30124481,8.806639 1.53360996,8.73692946 C1.81244813,8.66721992 2.11452282,8.57427386 2.90456432,8.29543568 C6.45975104,7.0406639 7.83070539,5.62323651 7.62157676,3.34605809 C7.55186722,2.48630705 7.15684647,2.02157676 6.48298755,1.4406639 C5.71618257,0.836514523 4.83319502,0.534439834 3.8340249,0.534439834 L3.8340249,0.534439834 C2.18423237,0.534439834 1.09211618,1.18506224 1.09211618,1.78921162 C1.09211618,2.02157676 1.25477178,2.23070539 1.37095436,2.34688797 C1.85892116,2.81161826 2.78838174,3.09045643 3.81078838,3.0439834 C4.39170124,3.02074689 4.71701245,2.99751037 5.29792531,2.83485477 L5.39087137,2.83485477 C5.80912863,2.8813278 6.06473029,3.206639 6.0879668,3.64813278 C6.13443983,4.69377593 4.71701245,5.73941909 1.83568465,6.73858921 C1.71950207,6.78506224 1.6033195,6.7153527 1.58008299,6.59917012 C1.53360996,6.48298755 1.6033195,6.36680498 1.71950207,6.34356846 C4.29875519,5.4373444 5.73941909,4.46141079 5.69294606,3.67136929 C5.66970954,3.34605809 5.48381743,3.27634855 5.39087137,3.25311203 C4.80995851,3.41576763 4.43817427,3.43900415 3.85726141,3.46224066 C2.7186722,3.50871369 1.67302905,3.18340249 1.09211618,2.64896266 C0.813278008,2.393361 0.673858921,2.09128631 0.673858921,1.78921162 C0.673858921,0.859751037 2.06804979,0.116182573 3.8340249,0.116182573 L3.8340249,0.116182573 C4.92614108,0.116182573 5.9253112,0.46473029 6.76182573,1.1153527 C7.50539419,1.7659751 7.94688797,2.32365145 8.03983402,3.32282158 C8.27219917,5.78589212 6.76182573,7.38921162 3.0439834,8.69045643 C2.23070539,8.96929461 1.92863071,9.06224066 1.64979253,9.13195021 C1.41742739,9.20165975 1.20829876,9.24813278 0.72033195,9.4340249 C0.697095436,9.4340249 0.650622407,9.48049793 0.604149378,9.50373444 C0.557676349,9.52697095 0.487966805,9.57344398 0.441493776,9.5966805 C0.418257261,9.5966805 0.395020747,9.5966805 0.371784232,9.5966805 Z" id="Shape"></path>
                            </g>
                            <g id="XMLID_10_" transform="translate(29.742739, 28.813278)" fill="#000000">
                                <ellipse id="Oval" transform="translate(0.654689, 0.644593) rotate(-11.636935) translate(-0.654689, -0.644593) " cx="0.654688708" cy="0.407434733" rx="1" ry="1"></ellipse>
                            </g>
                            <g id="XMLID_35_" transform="translate(20.680498, 27.883817)" fill="#FFFFFF">
                                <path d="M12.8962656,11.2697095 C12.8962656,9.36431535 11.7344398,8.29543568 8.20248963,7.0406639 C7.48215768,6.78506224 7.85394191,6.97095436 6.11120332,6.32033195 C4.1593361,5.57676349 2.11452282,4.74024896 2.09128631,3.41576763 C2.04481328,3.206639 2.13775934,2.76514523 2.50954357,2.81161826 C2.95103734,2.95103734 3.48547718,3.02074689 4.04315353,3.02074689 C5.66970954,3.02074689 6.99419087,2.37012448 6.99419087,1.55684647 C6.99419087,0.743568465 5.66970954,0.0929460581 4.04315353,0.0929460581 C3.71784232,0.0929460581 2.46307054,0.0929460581 1.23153527,1.06887967 C0.534439834,1.67302905 0.0697095436,2.41659751 0.0232365145,3.11369295 C-0.139419087,5.6 1.95186722,7.29626556 5.22821577,8.43485477 C6.59917012,8.89958506 7.50539419,9.15518672 8.806639,9.71286307 C9.85228216,10.1775934 10.3170124,10.340249 10.433195,11.3161826 C10.5958506,12.2688797 9.9219917,12.9659751 8.59751037,13.546888 L8.52780083,15.8240664 C11.4323651,15.173444 12.8962656,13.6630705 12.8962656,11.2697095 Z" id="Shape"></path>
                            </g>
                            <path d="M26.0248963,45.9153527 C26.0481328,45.1253112 26.6058091,44.4514523 27.0705394,44.2423237 L26.9775934,42.0116183 C25.8390041,41.9883817 24.5145228,43.1966805 23.93361,44.2423237 C23.5618257,44.9161826 23.5153527,47.2165975 24.5377593,48.0763485 C25.6995851,48.3087137 26.3502075,48.3087137 27.3261411,48.3551867 C27.3493776,48.2622407 27.233195,47.9834025 27.2099585,47.960166 C26.6987552,47.7510373 26.0016598,46.7286307 26.0248963,45.9153527 Z" id="Shape" fill="#FFFFFF"></path>
                            <g id="XMLID_8_" transform="translate(20.448133, 27.651452)" fill="#000000">
                                <path d="M8.1560166,16.3352697 C8.03983402,16.3352697 7.94688797,16.2423237 7.94688797,16.1493776 C7.94688797,16.033195 8.01659751,15.940249 8.13278008,15.9170124 C10.9211618,15.6846473 13.1518672,13.6630705 12.9892116,11.5020747 C12.873029,9.78257261 11.4556017,8.57427386 8.3186722,7.45892116 C7.993361,7.34273859 7.90041494,7.31950207 7.73775934,7.24979253 C7.55186722,7.18008299 7.22655602,7.06390041 6.22738589,6.7153527 C3.34605809,5.71618257 1.90539419,4.67053942 1.97510373,3.62489627 C1.99834025,3.16016598 2.25394191,2.85809129 2.67219917,2.81161826 L2.76514523,2.81161826 C3.34605809,2.97427386 3.67136929,2.99751037 4.25228216,3.02074689 C5.2746888,3.06721992 6.22738589,2.78838174 6.69211618,2.32365145 C6.83153527,2.20746888 6.97095436,1.99834025 6.97095436,1.7659751 C6.97095436,1.16182573 5.87883817,0.51120332 4.22904564,0.51120332 L4.22904564,0.51120332 C3.22987552,0.51120332 2.32365145,0.813278008 1.55684647,1.4406639 C0.882987552,2.02157676 0.51120332,2.48630705 0.441493776,3.34605809 C0.232365145,5.6 1.6033195,7.0406639 5.15850622,8.29543568 C5.94854772,8.57427386 6.59917012,8.78340249 7.18008299,8.94605809 C7.66804979,9.10871369 8.1560166,9.24813278 8.6439834,9.4340249 C9.61991701,9.78257261 10.8979253,10.386722 10.9211618,11.7809129 C10.8979253,12.3153527 10.6423237,12.780083 10.2008299,13.1518672 C9.41078838,13.8257261 8.08630705,14.0813278 7.24979253,13.9883817 C7.13360996,13.9651452 7.0406639,13.8721992 7.06390041,13.7560166 C7.08713693,13.639834 7.18008299,13.546888 7.29626556,13.5701245 C7.94688797,13.639834 9.17842324,13.4539419 9.9219917,12.826556 C10.2705394,12.5244813 10.4564315,12.1759336 10.479668,11.7809129 C10.4564315,10.9211618 9.82904564,10.3170124 8.4813278,9.82904564 C7.993361,9.66639004 7.52863071,9.50373444 7.0406639,9.36431535 C6.45975104,9.17842324 5.80912863,8.96929461 5.01908714,8.69045643 C1.30124481,7.38921162 -0.185892116,5.7626556 0.0232365145,3.32282158 C0.116182573,2.32365145 0.557676349,1.7659751 1.30124481,1.13858921 C2.16099585,0.46473029 3.13692946,0.116182573 4.22904564,0.116182573 L4.22904564,0.116182573 C6.01825726,0.116182573 7.38921162,0.859751037 7.38921162,1.78921162 C7.38921162,2.09128631 7.24979253,2.393361 6.97095436,2.64896266 C6.41327801,3.18340249 5.34439834,3.50871369 4.20580913,3.46224066 C3.62489627,3.43900415 3.25311203,3.41576763 2.67219917,3.25311203 C2.57925311,3.27634855 2.393361,3.34605809 2.37012448,3.67136929 C2.32365145,4.4846473 3.78755187,5.46058091 6.34356846,6.34356846 C7.34273859,6.69211618 7.66804979,6.80829876 7.85394191,6.8780083 C8.01659751,6.92448133 8.10954357,6.97095436 8.43485477,7.08713693 C11.7576763,8.27219917 13.2448133,9.5966805 13.3842324,11.5020747 C13.593361,13.8954357 11.246473,16.079668 8.1560166,16.3352697 L8.1560166,16.3352697 Z" id="Shape"></path>
                            </g>
                            <g id="XMLID_2_" transform="translate(25.095436, 27.895245)" fill="#000000">
                                <ellipse id="Oval" transform="translate(0.770341, 1.058650) rotate(-78.363065) translate(-0.770341, -1.058650) " cx="0.533183019" cy="1.05865021" rx="1" ry="1"></ellipse>
                            </g>
                            <path d="M27.5120332,48.5410788 C26.7917012,48.2854772 26.0016598,47.4257261 25.9551867,46.1477178 C25.9087137,45.3576763 26.3037344,43.940249 27.953527,43.6614108 L28.0232365,44.079668 C26.326971,44.3352697 26.3502075,45.9385892 26.373444,46.1244813 C26.419917,47.146888 27.0473029,47.9136929 27.6514523,48.1460581 L27.5120332,48.5410788 Z" id="Shape" fill="#000000"></path>
                            <path d="M24.9560166,48.6572614 C24.9327801,48.6572614 24.9095436,48.6572614 24.8630705,48.6340249 C23.3062241,47.960166 23.3294606,45.5435685 23.7941909,44.3817427 C24.2124481,43.26639 25.0721992,41.9419087 27.8373444,41.4771784 C27.953527,41.4539419 28.0697095,41.5236515 28.0697095,41.639834 C28.0929461,41.7560166 28.0232365,41.8721992 27.9070539,41.8721992 C25.3510373,42.3136929 24.5842324,43.4522822 24.1892116,44.5211618 C23.7941909,45.520332 23.7709544,47.6813278 25.0489627,48.2390041 C25.1651452,48.2854772 25.2116183,48.4016598 25.1651452,48.5178423 C25.1186722,48.6107884 25.0489627,48.6572614 24.9560166,48.6572614 Z" id="Shape" fill="#000000"></path>
                            <g id="XMLID_32_" transform="translate(22.539419, 36.016598)" fill="#FFFFFF">
                                <path d="M4.18257261,0.743568465 C4.18257261,0.906224066 4.20580913,1.20829876 4.20580913,1.20829876 C4.20580913,1.37095436 4.18257261,1.51037344 4.11286307,1.55684647 C3.206639,2.25394191 2.60248963,2.18423237 2.48630705,3.16016598 C2.32365145,4.11286307 3.11369295,4.76348548 4.43817427,5.34439834 L6.85477178,5.99502075 L6.52946058,8.13278008 L4.53112033,7.66804979 C1.64979253,7.0406639 0.0232365145,5.55352697 0.0232365145,3.13692946 C0.0232365145,1.7659751 0.697095436,0.97593361 2.32365145,0.0929460581 L3.206639,0.418257261 L4.18257261,0.743568465 Z" id="Shape"></path>
                            </g>
                            <path d="M29.9983402,45.9153527 C29.9983402,45.1253112 29.5568465,44.4514523 29.0921162,44.2423237 L29.1850622,42.0116183 C30.3236515,41.9883817 31.6481328,43.1966805 32.2290456,44.2423237 C32.6008299,44.9161826 32.7170124,47.193361 31.6713693,48.053112 C30.9510373,48.1692946 30.0912863,48.3087137 28.813278,48.3551867 C28.7900415,48.2622407 28.8829876,48.053112 28.9062241,48.0298755 C29.9751037,47.6813278 29.9983402,46.6589212 29.9983402,45.9153527 Z" id="Shape" fill="#FFFFFF"></path>
                            <g id="XMLID_14_" transform="translate(24.630705, 36.946058)" fill="#000000">
                                <path d="M6.73858921,11.7112033 C6.66887967,11.7112033 6.59917012,11.6647303 6.5526971,11.5950207 C6.50622407,11.5020747 6.52946058,11.3626556 6.64564315,11.3161826 C7.76099585,10.7120332 7.85394191,8.66721992 7.43568465,7.57510373 C7.11037344,6.73858921 6.62240664,5.85560166 4.36846473,5.08879668 C4.25228216,5.04232365 4.1593361,5.01908714 4.04315353,4.99585062 C3.92697095,4.97261411 3.78755187,4.92614108 3.55518672,4.85643154 C3.36929461,4.80995851 3.18340249,4.76348548 3.02074689,4.71701245 C2.81161826,4.67053942 2.64896266,4.62406639 2.53278008,4.60082988 C1.95186722,4.4846473 0.209128631,4.08962656 0.185892116,2.48630705 C0.185892116,1.39419087 0.859751037,0.627385892 2.20746888,0.209128631 C2.32365145,0.185892116 2.43983402,0.232365145 2.46307054,0.348547718 C2.48630705,0.46473029 2.43983402,0.580912863 2.32365145,0.604149378 C1.16182573,0.97593361 0.580912863,1.58008299 0.580912863,2.46307054 C0.604149378,3.32282158 1.23153527,3.85726141 2.60248963,4.1593361 C2.7186722,4.18257261 2.90456432,4.22904564 3.11369295,4.27551867 C3.27634855,4.3219917 3.46224066,4.36846473 3.67136929,4.41493776 C3.90373444,4.4846473 4.04315353,4.50788382 4.1593361,4.55435685 C4.29875519,4.57759336 4.36846473,4.60082988 4.50788382,4.6473029 C6.92448133,5.46058091 7.48215768,6.48298755 7.83070539,7.3659751 C8.3186722,8.62074689 8.17925311,10.8979253 6.85477178,11.6182573 C6.80829876,11.6879668 6.78506224,11.7112033 6.73858921,11.7112033 Z" id="Shape"></path>
                            </g>
                            <g id="XMLID_11_" transform="translate(22.074689, 35.551867)" fill="#000000">
                                <path d="M6.66887967,12.9427386 L6.52946058,12.5477178 C7.11037344,12.3385892 7.69128631,11.6414938 7.76099585,10.5726141 C7.78423237,10.0149378 7.50539419,8.99253112 6.32033195,8.69045643 C6.29709544,8.69045643 5.90207469,8.57427386 5.34439834,8.45809129 C4.92614108,8.38838174 4.76348548,8.34190871 4.62406639,8.3186722 L4.4846473,8.29543568 C1.71950207,7.71452282 0.0232365145,5.85560166 0.185892116,3.57842324 C0.278838174,2.32365145 0.882987552,1.2780083 1.92863071,0.604149378 L1.95186722,0.580912863 C2.13775934,0.46473029 2.27717842,0.371784232 2.83485477,0.162655602 L2.97427386,0.557676349 C2.46307054,0.743568465 2.32365145,0.836514523 2.18423237,0.952697095 L2.16099585,0.97593361 C0.929460581,1.7659751 0.673858921,2.97427386 0.627385892,3.62489627 C0.487966805,5.69294606 2.02157676,7.3659751 4.57759336,7.90041494 L4.71701245,7.92365145 C4.83319502,7.94688797 4.99585062,7.993361 5.41410788,8.06307054 C5.99502075,8.17925311 6.41327801,8.29543568 6.41327801,8.29543568 C7.66804979,8.62074689 8.17925311,9.71286307 8.1560166,10.5958506 C8.10954357,11.8506224 7.3659751,12.6871369 6.66887967,12.9427386 Z" id="Shape"></path>
                            </g>
                            <polygon id="Shape" fill="#FFFFFF" points="27.0705394 37.0390041 27.5295558 37.1319502 27.5295558 40.9659751 27.3000476 40.9427386"></polygon>
                        </g>
                    </g>
                    <path d="M70.724,35.112 L65.189,35.112 C65.2436669,36.5333404 65.5648304,37.7154953 66.1525,38.6585 C66.7401696,39.6015047 67.4918288,40.3599971 68.4075,40.934 C69.3231712,41.5080029 70.3686608,41.9179988 71.544,42.164 C72.7193392,42.4100012 73.9219939,42.533 75.152,42.533 C76.3546727,42.533 77.5368275,42.4168345 78.6985,42.1845 C79.8601725,41.9521655 80.8919955,41.5490029 81.794,40.975 C82.6960045,40.4009971 83.4271639,39.6425047 83.9875,38.6995 C84.5478361,37.7564953 84.828,36.588007 84.828,35.194 C84.828,34.2099951 84.6366686,33.38317 84.254,32.7135 C83.8713314,32.04383 83.3656698,31.4835023 82.737,31.0325 C82.1083302,30.5814977 81.3908374,30.2193347 80.5845,29.946 C79.7781626,29.6726653 78.9513376,29.4403343 78.104,29.249 C77.2839959,29.0576657 76.4776706,28.8800008 75.685,28.716 C74.8923294,28.5519992 74.1885031,28.367501 73.5735,28.1625 C72.9584969,27.957499 72.4596686,27.6910016 72.077,27.363 C71.6943314,27.0349984 71.503,26.6113359 71.503,26.092 C71.503,25.6546645 71.6123322,25.306168 71.831,25.0465 C72.0496678,24.786832 72.3161651,24.5886673 72.6305,24.452 C72.9448349,24.3153326 73.2933314,24.2265002 73.676,24.1855 C74.0586686,24.1444998 74.4139984,24.124 74.742,24.124 C75.7806719,24.124 76.6826628,24.3221647 77.448,24.7185 C78.2133372,25.1148353 78.6369996,25.8733277 78.719,26.994 L84.254,26.994 C84.1446661,25.6819934 83.8098361,24.5955043 83.2495,23.7345 C82.6891639,22.8734957 81.9853376,22.1833359 81.138,21.664 C80.2906624,21.1446641 79.3271721,20.7756678 78.2475,20.557 C77.1678279,20.3383322 76.0540057,20.229 74.906,20.229 C73.7579943,20.229 72.6373388,20.331499 71.544,20.5365 C70.4506612,20.741501 69.466671,21.0968308 68.592,21.6025 C67.717329,22.1081692 67.0135027,22.798329 66.4805,23.673 C65.9474973,24.547671 65.681,25.6683265 65.681,27.035 C65.681,27.964338 65.8723314,28.7501635 66.255,29.3925 C66.6376686,30.0348365 67.1433302,30.5678312 67.772,30.9915 C68.4006698,31.4151688 69.1181626,31.756832 69.9245,32.0165 C70.7308374,32.276168 71.5576624,32.5016657 72.405,32.693 C74.4823437,33.1303355 76.1018275,33.5676645 77.2635,34.005 C78.4251725,34.4423355 79.006,35.098329 79.006,35.973 C79.006,36.4923359 78.8830012,36.9228316 78.637,37.2645 C78.3909988,37.6061684 78.0835018,37.879499 77.7145,38.0845 C77.3454982,38.289501 76.9355023,38.4398329 76.4845,38.5355 C76.0334977,38.6311671 75.6030021,38.679 75.193,38.679 C74.6189971,38.679 74.0655027,38.6106673 73.5325,38.474 C72.9994973,38.3373326 72.528002,38.1255014 72.118,37.8385 C71.7079979,37.5514986 71.373168,37.1825023 71.1135,36.7315 C70.853832,36.2804977 70.724,35.7406698 70.724,35.112 Z M87.485,27.322 C87.5670004,25.9553265 87.9086637,24.8210045 88.51,23.919 C89.1113363,23.0169955 89.876662,22.2926694 90.806,21.746 C91.735338,21.1993306 92.7808275,20.8098345 93.9425,20.5775 C95.1041725,20.3451655 96.2726608,20.229 97.448,20.229 C98.5140053,20.229 99.5936612,20.3041659 100.687,20.4545 C101.780339,20.6048341 102.777995,20.8986645 103.68,21.336 C104.582005,21.7733355 105.319997,22.3814961 105.894,23.1605 C106.468003,23.9395039 106.755,24.9713269 106.755,26.256 L106.755,37.285 C106.755,38.2416714 106.809666,39.157329 106.919,40.032 C107.028334,40.906671 107.219665,41.5626645 107.493,42 L101.589,42 C101.479666,41.6719984 101.390834,41.3371684 101.3225,40.9955 C101.254166,40.6538316 101.206333,40.3053351 101.179,39.95 C100.249662,40.9066714 99.1563396,41.5763314 97.899,41.959 C96.6416604,42.3416686 95.3570066,42.533 94.045,42.533 C93.0336616,42.533 92.090671,42.4100012 91.216,42.164 C90.341329,41.9179988 89.5760033,41.5353359 88.92,41.016 C88.2639967,40.4966641 87.7515018,39.8406706 87.3825,39.048 C87.0134982,38.2553294 86.829,37.3123388 86.829,36.219 C86.829,35.0163273 87.0408312,34.0255039 87.4645,33.2465 C87.8881688,32.4674961 88.43483,31.845669 89.1045,31.381 C89.77417,30.916331 90.5394957,30.5678345 91.4005,30.3355 C92.2615043,30.1031655 93.129329,29.9186673 94.004,29.782 C94.878671,29.6453326 95.7396624,29.5360004 96.587,29.454 C97.4343376,29.3719996 98.1859967,29.2490008 98.842,29.085 C99.4980033,28.9209992 100.017331,28.6818349 100.4,28.3675 C100.782669,28.0531651 100.960333,27.5953363 100.933,26.994 C100.933,26.3653302 100.830501,25.8665018 100.6255,25.4975 C100.420499,25.1284982 100.147168,24.841501 99.8055,24.6365 C99.4638316,24.431499 99.0675023,24.2948337 98.6165,24.2265 C98.1654977,24.1581663 97.6803359,24.124 97.161,24.124 C96.0129943,24.124 95.1110033,24.3699975 94.455,24.862 C93.7989967,25.3540025 93.4163339,26.1739943 93.307,27.322 L87.485,27.322 Z M100.933,31.627 C100.686999,31.8456678 100.379502,32.0164994 100.0105,32.1395 C99.6414982,32.2625006 99.2451688,32.3649996 98.8215,32.447 C98.3978312,32.5290004 97.953669,32.5973331 97.489,32.652 C97.024331,32.7066669 96.559669,32.7749996 96.095,32.857 C95.6576645,32.9390004 95.2271688,33.0483327 94.8035,33.185 C94.3798312,33.3216673 94.0108349,33.5061655 93.6965,33.7385 C93.3821651,33.9708345 93.1293343,34.2646649 92.938,34.62 C92.7466657,34.9753351 92.651,35.4263306 92.651,35.973 C92.651,36.4923359 92.7466657,36.9296649 92.938,37.285 C93.1293343,37.6403351 93.3889984,37.920499 93.717,38.1255 C94.0450016,38.330501 94.4276645,38.4739996 94.865,38.556 C95.3023355,38.6380004 95.753331,38.679 96.218,38.679 C97.3660057,38.679 98.2543302,38.4876686 98.883,38.105 C99.5116698,37.7223314 99.9763318,37.2645027 100.277,36.7315 C100.577668,36.1984973 100.762166,35.6586694 100.8305,35.112 C100.898834,34.5653306 100.933,34.1280016 100.933,33.8 L100.933,31.627 Z M110.765,20.803 L110.765,42 L116.587,42 L116.587,30.889 C116.587,28.7296559 116.94233,27.1785047 117.653,26.2355 C118.36367,25.2924953 119.511659,24.821 121.097,24.821 C122.491007,24.821 123.461331,25.2514957 124.008,26.1125 C124.554669,26.9735043 124.828,28.2786579 124.828,30.028 L124.828,42 L130.65,42 L130.65,28.962 C130.65,27.6499934 130.533834,26.4541721 130.3015,25.3745 C130.069166,24.2948279 129.666003,23.3791704 129.092,22.6275 C128.517997,21.8758296 127.732172,21.2881688 126.7345,20.8645 C125.736828,20.4408312 124.459008,20.229 122.901,20.229 C121.670994,20.229 120.468339,20.5091639 119.293,21.0695 C118.117661,21.6298361 117.161004,22.5249939 116.423,23.755 L116.3,23.755 L116.3,20.803 L110.765,20.803 Z M140.564,17.523 L140.564,12.726 L134.742,12.726 L134.742,17.523 L140.564,17.523 Z M134.742,20.803 L134.742,42 L140.564,42 L140.564,20.803 L134.742,20.803 Z M152.036,20.803 L152.036,14.448 L146.214,14.448 L146.214,20.803 L142.688,20.803 L142.688,24.698 L146.214,24.698 L146.214,37.203 C146.214,38.2690053 146.391665,39.1299967 146.747,39.786 C147.102335,40.4420033 147.587497,40.9476649 148.2025,41.303 C148.817503,41.6583351 149.528163,41.8974994 150.3345,42.0205 C151.140837,42.1435006 151.994995,42.205 152.897,42.205 C153.471003,42.205 154.058664,42.1913335 154.66,42.164 C155.261336,42.1366665 155.807998,42.0820004 156.3,42 L156.3,37.49 C156.026665,37.5446669 155.739668,37.5856665 155.439,37.613 C155.138332,37.6403335 154.824002,37.654 154.496,37.654 C153.511995,37.654 152.856002,37.4900016 152.528,37.162 C152.199998,36.8339984 152.036,36.1780049 152.036,35.194 L152.036,24.698 L156.3,24.698 L156.3,20.803 L152.036,20.803 Z M158.342,27.322 C158.424,25.9553265 158.765664,24.8210045 159.367,23.919 C159.968336,23.0169955 160.733662,22.2926694 161.663,21.746 C162.592338,21.1993306 163.637828,20.8098345 164.7995,20.5775 C165.961172,20.3451655 167.129661,20.229 168.305,20.229 C169.371005,20.229 170.450661,20.3041659 171.544,20.4545 C172.637339,20.6048341 173.634995,20.8986645 174.537,21.336 C175.439005,21.7733355 176.176997,22.3814961 176.751,23.1605 C177.325003,23.9395039 177.612,24.9713269 177.612,26.256 L177.612,37.285 C177.612,38.2416714 177.666666,39.157329 177.776,40.032 C177.885334,40.906671 178.076665,41.5626645 178.35,42 L172.446,42 C172.336666,41.6719984 172.247834,41.3371684 172.1795,40.9955 C172.111166,40.6538316 172.063333,40.3053351 172.036,39.95 C171.106662,40.9066714 170.01334,41.5763314 168.756,41.959 C167.49866,42.3416686 166.214007,42.533 164.902,42.533 C163.890662,42.533 162.947671,42.4100012 162.073,42.164 C161.198329,41.9179988 160.433003,41.5353359 159.777,41.016 C159.120997,40.4966641 158.608502,39.8406706 158.2395,39.048 C157.870498,38.2553294 157.686,37.3123388 157.686,36.219 C157.686,35.0163273 157.897831,34.0255039 158.3215,33.2465 C158.745169,32.4674961 159.29183,31.845669 159.9615,31.381 C160.63117,30.916331 161.396496,30.5678345 162.2575,30.3355 C163.118504,30.1031655 163.986329,29.9186673 164.861,29.782 C165.735671,29.6453326 166.596662,29.5360004 167.444,29.454 C168.291338,29.3719996 169.042997,29.2490008 169.699,29.085 C170.355003,28.9209992 170.874331,28.6818349 171.257,28.3675 C171.639669,28.0531651 171.817333,27.5953363 171.79,26.994 C171.79,26.3653302 171.687501,25.8665018 171.4825,25.4975 C171.277499,25.1284982 171.004168,24.841501 170.6625,24.6365 C170.320832,24.431499 169.924502,24.2948337 169.4735,24.2265 C169.022498,24.1581663 168.537336,24.124 168.018,24.124 C166.869994,24.124 165.968003,24.3699975 165.312,24.862 C164.655997,25.3540025 164.273334,26.1739943 164.164,27.322 L158.342,27.322 Z M171.79,31.627 C171.543999,31.8456678 171.236502,32.0164994 170.8675,32.1395 C170.498498,32.2625006 170.102169,32.3649996 169.6785,32.447 C169.254831,32.5290004 168.810669,32.5973331 168.346,32.652 C167.881331,32.7066669 167.416669,32.7749996 166.952,32.857 C166.514664,32.9390004 166.084169,33.0483327 165.6605,33.185 C165.236831,33.3216673 164.867835,33.5061655 164.5535,33.7385 C164.239165,33.9708345 163.986334,34.2646649 163.795,34.62 C163.603666,34.9753351 163.508,35.4263306 163.508,35.973 C163.508,36.4923359 163.603666,36.9296649 163.795,37.285 C163.986334,37.6403351 164.245998,37.920499 164.574,38.1255 C164.902002,38.330501 165.284664,38.4739996 165.722,38.556 C166.159336,38.6380004 166.610331,38.679 167.075,38.679 C168.223006,38.679 169.11133,38.4876686 169.74,38.105 C170.36867,37.7223314 170.833332,37.2645027 171.134,36.7315 C171.434668,36.1984973 171.619166,35.6586694 171.6875,35.112 C171.755834,34.5653306 171.79,34.1280016 171.79,33.8 L171.79,31.627 Z M189.002,20.803 L189.002,14.448 L183.18,14.448 L183.18,20.803 L179.654,20.803 L179.654,24.698 L183.18,24.698 L183.18,37.203 C183.18,38.2690053 183.357665,39.1299967 183.713,39.786 C184.068335,40.4420033 184.553497,40.9476649 185.1685,41.303 C185.783503,41.6583351 186.494163,41.8974994 187.3005,42.0205 C188.106837,42.1435006 188.960995,42.205 189.863,42.205 C190.437003,42.205 191.024664,42.1913335 191.626,42.164 C192.227336,42.1366665 192.773998,42.0820004 193.266,42 L193.266,37.49 C192.992665,37.5446669 192.705668,37.5856665 192.405,37.613 C192.104332,37.6403335 191.790002,37.654 191.462,37.654 C190.477995,37.654 189.822002,37.4900016 189.494,37.162 C189.165998,36.8339984 189.002,36.1780049 189.002,35.194 L189.002,24.698 L193.266,24.698 L193.266,20.803 L189.002,20.803 Z M201.54,17.523 L201.54,12.726 L195.718,12.726 L195.718,17.523 L201.54,17.523 Z M195.718,20.803 L195.718,42 L201.54,42 L201.54,20.803 L195.718,20.803 Z M210.798,31.422 C210.798,32.2693376 210.879999,33.0961626 211.044,33.9025 C211.208001,34.7088374 211.488165,35.4331635 211.8845,36.0755 C212.280835,36.7178365 212.806997,37.2303314 213.463,37.613 C214.119003,37.9956686 214.938995,38.187 215.923,38.187 C216.907005,38.187 217.73383,37.9956686 218.4035,37.613 C219.07317,37.2303314 219.606165,36.7178365 220.0025,36.0755 C220.398835,35.4331635 220.678999,34.7088374 220.843,33.9025 C221.007001,33.0961626 221.089,32.2693376 221.089,31.422 C221.089,30.5746624 221.007001,29.7410041 220.843,28.921 C220.678999,28.1009959 220.398835,27.3766698 220.0025,26.748 C219.606165,26.1193302 219.07317,25.6068353 218.4035,25.2105 C217.73383,24.8141647 216.907005,24.616 215.923,24.616 C214.938995,24.616 214.119003,24.8141647 213.463,25.2105 C212.806997,25.6068353 212.280835,26.1193302 211.8845,26.748 C211.488165,27.3766698 211.208001,28.1009959 211.044,28.921 C210.879999,29.7410041 210.798,30.5746624 210.798,31.422 Z M204.976,31.422 C204.976,29.7273249 205.235664,28.1898402 205.755,26.8095 C206.274336,25.4291598 207.012329,24.2538382 207.969,23.2835 C208.925671,22.3131618 210.07366,21.5615027 211.413,21.0285 C212.75234,20.4954973 214.255658,20.229 215.923,20.229 C217.590342,20.229 219.100493,20.4954973 220.4535,21.0285 C221.806507,21.5615027 222.961329,22.3131618 223.918,23.2835 C224.874671,24.2538382 225.612664,25.4291598 226.132,26.8095 C226.651336,28.1898402 226.911,29.7273249 226.911,31.422 C226.911,33.1166751 226.651336,34.6473265 226.132,36.014 C225.612664,37.3806735 224.874671,38.5491618 223.918,39.5195 C222.961329,40.4898382 221.806507,41.2346641 220.4535,41.754 C219.100493,42.2733359 217.590342,42.533 215.923,42.533 C214.255658,42.533 212.75234,42.2733359 211.413,41.754 C210.07366,41.2346641 208.925671,40.4898382 207.969,39.5195 C207.012329,38.5491618 206.274336,37.3806735 205.755,36.014 C205.235664,34.6473265 204.976,33.1166751 204.976,31.422 Z M230.183,20.803 L230.183,42 L236.005,42 L236.005,30.889 C236.005,28.7296559 236.36033,27.1785047 237.071,26.2355 C237.78167,25.2924953 238.929659,24.821 240.515,24.821 C241.909007,24.821 242.879331,25.2514957 243.426,26.1125 C243.972669,26.9735043 244.246,28.2786579 244.246,30.028 L244.246,42 L250.068,42 L250.068,28.962 C250.068,27.6499934 249.951834,26.4541721 249.7195,25.3745 C249.487166,24.2948279 249.084003,23.3791704 248.51,22.6275 C247.935997,21.8758296 247.150172,21.2881688 246.1525,20.8645 C245.154828,20.4408312 243.877008,20.229 242.319,20.229 C241.088994,20.229 239.886339,20.5091639 238.711,21.0695 C237.535661,21.6298361 236.579004,22.5249939 235.841,23.755 L235.718,23.755 L235.718,20.803 L230.183,20.803 Z" id="sanitation" fill="#000000"></path>
                </g>
            </g>
        </g>
    </g>
</svg>