<?xml version="1.0" encoding="utf-8"?>
<!-- Generator: Adobe Illustrator 19.0.0, SVG Export Plug-In . SVG Version: 6.00 Build 0)  -->
<svg version="1.1" id="Layer_1" xmlns="http://www.w3.org/2000/svg" xmlns:xlink="http://www.w3.org/1999/xlink" x="0px" y="0px"
	 viewBox="-298 389 15 16" style="enable-background:new -298 389 15 16;" xml:space="preserve">
<style type="text/css">
	.st0{filter:url(#Adobe_OpacityMaskFilter);}
	.st1{fill:#FFFFFF;}
	.st2{mask:url(#mask-2_1_);}
	.st3{fill:#030404;}
	.st4{fill:#221F20;}
</style>
<title>Page 1</title>
<desc>Created with Sketch.</desc>
<g id="Symbols">
	<g id="Group-3-Copy" transform="translate(-127.000000, -77.000000)">
		<g id="Page-1" transform="translate(127.000000, 76.000000)">
			<g id="Group-3" transform="translate(0.000000, 4.905800)">
				<g id="Clip-2">
				</g>
				<defs>
					<filter id="Adobe_OpacityMaskFilter" filterUnits="userSpaceOnUse" x="-303" y="384.1" width="24.7" height="21.9">
						<feColorMatrix  type="matrix" values="1 0 0 0 0  0 1 0 0 0  0 0 1 0 0  0 0 0 1 0"/>
					</filter>
				</defs>
				<mask maskUnits="userSpaceOnUse" x="-303" y="384.1" width="24.7" height="21.9" id="mask-2_1_">
					<g class="st0">
						<path id="path-1_1_" class="st1" d="M-296.8,389.1c-0.3,0-0.6,0.1-0.9,0.4c-0.2,0.2-0.4,0.5-0.4,0.9v7.4
							c0,0.3,0.1,0.6,0.4,0.9c0.2,0.2,0.5,0.4,0.9,0.4h5.6h1h5.6c0.3,0,0.6-0.1,0.9-0.4c0.2-0.2,0.4-0.5,0.4-0.9v-7.4
							c0-0.3-0.1-0.6-0.4-0.9c-0.2-0.2-0.5-0.4-0.9-0.4H-296.8L-296.8,389.1z M-296.9,397.9c0,0-0.1-0.1-0.1-0.2v-7.4
							c0-0.1,0-0.1,0.1-0.2c0,0,0.1-0.1,0.2-0.1h12.2c0.1,0,0.1,0,0.2,0.1c0,0,0.1,0.1,0.1,0.2v7.4c0,0.1,0,0.1-0.1,0.2
							c0,0-0.1,0.1-0.2,0.1h-12.2C-296.8,398-296.9,398-296.9,397.9L-296.9,397.9z"/>
					</g>
				</mask>
				<g id="Fill-1" class="st2">
					<polygon class="st3" points="-303,406 -278.3,406 -278.3,384.1 -303,384.1 					"/>
				</g>
			</g>
			<g id="Group-16" transform="translate(2.000000, 0.905800)">
				<g id="Stroke-4">
					<path class="st3" d="M-290,393.9h-0.8c0-0.5-0.2-1.1-0.6-1.4c-0.3-0.3-0.8-0.5-1.2-0.5c-1,0-1.9,0.8-1.9,1.9h-0.8
						c0-1.5,1.2-2.7,2.7-2.7c0.6,0,1.3,0.2,1.8,0.7C-290.3,392.4-290,393.2-290,393.9z"/>
				</g>
				<g id="Stroke-6">
					<path class="st3" d="M-291.5,392.4c-0.1,0-0.2-0.1-0.3-0.1c-0.1-0.2-0.1-0.4,0.1-0.6l2.5-2c0.2-0.1,0.4-0.1,0.6,0.1
						c0.1,0.2,0.1,0.4-0.1,0.6l-2.5,2C-291.3,392.3-291.4,392.4-291.5,392.4z"/>
				</g>
				<g id="Stroke-8">
					<path class="st3" d="M-294.2,392.4c-0.1,0-0.2,0-0.2-0.1l-2.5-2c-0.2-0.1-0.2-0.4-0.1-0.6c0.1-0.2,0.4-0.2,0.6-0.1l2.5,2
						c0.2,0.1,0.2,0.4,0.1,0.6C-294,392.3-294.1,392.4-294.2,392.4z"/>
				</g>
				<g id="Stroke-10">
					<path class="st4" d="M-288.8,404.4h-7.8c-0.7,0-1-0.6-1-1v-0.8h0.8v0.8c0,0.2,0.1,0.2,0.2,0.2h7.8c0.1,0,0.2,0,0.2-0.2l0-0.8
						h0.8v0.8C-287.8,403.8-288,404.4-288.8,404.4z"/>
				</g>
				<g id="Fill-12">
					<path class="st3" d="M-287.1,401.2c0.1,0,0.3-0.1,0.3-0.3v-5c0-0.1-0.1-0.3-0.3-0.3s-0.3,0.1-0.3,0.3v5
						C-287.4,401.1-287.3,401.2-287.1,401.2"/>
				</g>
				<g id="Fill-14">
					<path class="st3" d="M-287.3,395.3c0,0.1,0.1,0.2,0.2,0.2c0.1,0,0.2-0.1,0.2-0.2c0-0.1,0-0.2-0.1-0.3c-0.1-0.1-0.2-0.1-0.3,0
						C-287.4,395-287.4,395.2-287.3,395.3C-287.3,395.3-287.4,395.3-287.3,395.3"/>
				</g>
			</g>
		</g>
	</g>
</g>
</svg>
