<?xml version="1.0" encoding="UTF-8" standalone="no"?>
<svg width="6px" height="12px" viewBox="0 0 6 12" version="1.1" xmlns="http://www.w3.org/2000/svg" xmlns:xlink="http://www.w3.org/1999/xlink">
    <!-- Generator: Sketch 40 (33762) - http://www.bohemiancoding.com/sketch -->
    <title></title>
    <desc>Created with Sketch.</desc>
    <defs></defs>
    <g id="Page-1" stroke="none" stroke-width="1" fill="none" fill-rule="evenodd">
        <g id="Dashboard-specs" transform="translate(-306.000000, -586.000000)" fill="#FFFFFF">
            <path d="M311.849128,591.527284 C311.849128,591.623283 311.815628,591.708203 311.748627,591.782048 L307.065305,596.9438 C306.998304,597.017646 306.921255,597.054568 306.834154,597.054568 C306.747053,597.054568 306.670004,597.017646 306.603003,596.9438 L306.1005,596.389964 C306.0335,596.316119 306,596.231198 306,596.1352 C306,596.039201 306.0335,595.95428 306.1005,595.880435 L310.050169,591.527284 L306.1005,587.174132 C306.0335,587.100287 306,587.015367 306,586.919368 C306,586.823369 306.0335,586.738448 306.1005,586.664603 L306.603003,586.110767 C306.670004,586.036922 306.747053,586 306.834154,586 C306.921255,586 306.998304,586.036922 307.065305,586.110767 L311.748627,591.272519 C311.815628,591.346364 311.849128,591.431285 311.849128,591.527284 L311.849128,591.527284 Z" id=""></path>
        </g>
    </g>
</svg>