<?xml version="1.0" encoding="UTF-8" standalone="no"?>
<svg width="13px" height="9px" viewBox="0 0 13 9" version="1.1" xmlns="http://www.w3.org/2000/svg" xmlns:xlink="http://www.w3.org/1999/xlink">
    <!-- Generator: Sketch 40 (33762) - http://www.bohemiancoding.com/sketch -->
    <title> copy 3</title>
    <desc>Created with Sketch.</desc>
    <defs></defs>
    <g id="Page-1" stroke="none" stroke-width="1" fill="none" fill-rule="evenodd">
        <g id="Dashboard" transform="translate(-290.000000, -179.000000)" fill="#FFFFFF">
            <path d="M302.134352,181.148438 L296.874775,186.9375 C296.784988,187.036459 296.678664,187.085938 296.555798,187.085938 C296.432932,187.085938 296.326607,187.036459 296.236821,186.9375 L290.977244,181.148438 C290.887457,181.049479 290.842564,180.93099 290.842564,180.792969 C290.842564,180.654947 290.887457,180.536459 290.977244,180.4375 L292.153915,179.148438 C292.243701,179.049479 292.350026,179 292.472892,179 C292.595757,179 292.702082,179.049479 292.791869,179.148438 L296.555798,183.296875 L300.319727,179.148438 C300.409514,179.049479 300.515838,179 300.638704,179 C300.76157,179 300.867895,179.049479 300.957681,179.148438 L302.134352,180.4375 C302.224139,180.536459 302.269031,180.654947 302.269031,180.792969 C302.269031,180.93099 302.224139,181.049479 302.134352,181.148438 L302.134352,181.148438 Z" id="-copy-3"></path>
        </g>
    </g>
</svg>