<?xml version="1.0" encoding="UTF-8" standalone="no"?>
<svg width="15px" height="15px" viewBox="0 0 15 15" version="1.1" xmlns="http://www.w3.org/2000/svg" xmlns:xlink="http://www.w3.org/1999/xlink">
    <!-- Generator: Sketch 39.1 (31720) - http://www.bohemiancoding.com/sketch -->
    <title>Group 5</title>
    <desc>Created with Sketch.</desc>
    <defs></defs>
    <g id="Page-1" stroke="none" stroke-width="1" fill="none" fill-rule="evenodd">
        <g id="items-copy-15" transform="translate(-284.000000, -254.000000)" fill="#000000">
            <g id="Group-2" transform="translate(40.000000, 134.000000)">
                <g id="Group" transform="translate(193.000000, 73.000000)">
                    <g id="Group-5" transform="translate(51.000000, 47.000000)">
                        <path d="M7.49543919,14.1090709 C3.87998311,14.1090709 0.881807432,11.1108953 0.881807432,7.49543919 C0.881807432,3.87998311 3.87998311,0.881807432 7.49543919,0.881807432 C11.1108953,0.881807432 14.1090709,3.87998311 14.1090709,7.49543919 C14.1090709,11.1108953 11.1108953,14.1090709 7.49543919,14.1090709 M7.49543919,0 C3.35087838,0 0,3.35087838 0,7.49543919 C0,11.64 3.35087838,14.9908784 7.49543919,14.9908784 C11.64,14.9908784 14.9908784,11.64 14.9908784,7.49543919 C14.9908784,3.35087838 11.64,0 7.49543919,0" id="Fill-1"></path>
                        <path d="M9.69998311,7.05456081 L7.93636824,7.05456081 L7.93636824,5.29094595 C7.93636824,5.02641892 7.76001689,4.85001689 7.49543919,4.85001689 C7.23091216,4.85001689 7.05451014,5.02636824 7.05451014,5.29094595 L7.05451014,7.05456081 L5.29089527,7.05456081 C5.02636824,7.05456081 4.84996622,7.23091216 4.84996622,7.49548986 C4.84996622,7.76001689 5.02631757,7.93641892 5.29089527,7.93641892 L7.05451014,7.93641892 L7.05451014,9.70003378 C7.05451014,9.96456081 7.23086149,10.1409628 7.49543919,10.1409628 C7.75996622,10.1409628 7.93636824,9.96461149 7.93636824,9.70003378 L7.93636824,7.93641892 L9.69998311,7.93641892 C9.96451014,7.93641892 10.1409122,7.76006757 10.1409122,7.49548986 C10.1409122,7.23091216 9.96451014,7.05456081 9.69998311,7.05456081" id="Fill-3"></path>
                    </g>
                </g>
            </g>
        </g>
    </g>
</svg>