<?xml version="1.0" encoding="UTF-8" standalone="no"?>
<svg width="15px" height="16px" viewBox="0 0 15 16" version="1.1" xmlns="http://www.w3.org/2000/svg" xmlns:xlink="http://www.w3.org/1999/xlink">
    <!-- Generator: Sketch 40 (33762) - http://www.bohemiancoding.com/sketch -->
    <title>Page 1</title>
    <desc>Created with Sketch.</desc>
    <defs>
        <path d="M1.223,0.094 C0.886,0.094 0.599,0.216 0.359,0.459 C0.12,0.701 0,0.993 0,1.335 L0,8.776 C0,9.117 0.12,9.408 0.359,9.652 C0.599,9.895 0.886,10.016 1.223,10.016 L6.846,10.016 L7.824,10.016 L13.447,10.016 C13.783,10.016 14.071,9.895 14.31,9.652 C14.55,9.408 14.669,9.117 14.669,8.776 L14.669,1.335 C14.669,0.993 14.55,0.701 14.31,0.459 C14.071,0.216 13.783,0.094 13.447,0.094 L1.223,0.094 L1.223,0.094 Z M1.051,8.949 C1.002,8.901 0.978,8.842 0.978,8.776 L0.978,1.335 C0.978,1.267 1.002,1.21 1.051,1.16 C1.099,1.111 1.156,1.086 1.223,1.086 L13.447,1.086 C13.513,1.086 13.571,1.111 13.619,1.16 C13.668,1.21 13.692,1.267 13.692,1.335 L13.692,8.776 C13.692,8.842 13.668,8.901 13.619,8.949 C13.571,8.999 13.513,9.023 13.447,9.023 L1.223,9.023 C1.156,9.023 1.099,8.999 1.051,8.949 L1.051,8.949 Z" id="path-1"></path>
    </defs>
    <g id="Page-1" stroke="none" stroke-width="1" fill="none" fill-rule="evenodd">
        <g id="Dashboard" transform="translate(-986.000000, -150.000000)">
            <g id="Page-1" transform="translate(986.000000, 149.000000)">
                <path d="M13.6917,13.6813 L13.6917,6.2403 C13.6917,6.1733 13.6677,6.1153 13.6187,6.0653 C13.5707,6.0163 13.5137,5.9923 13.4477,5.9923 L1.2227,5.9923 C1.1567,5.9923 1.0987,6.0163 1.0507,6.0653 C1.0027,6.1153 0.9777,6.1733 0.9777,6.2403 L0.9777,13.6813 C0.9777,13.7483 1.0027,13.8063 1.0507,13.8553 C1.0987,13.9043 1.1567,13.9293 1.2227,13.9293 L13.4477,13.9293 C13.5137,13.9293 13.5707,13.9043 13.6187,13.8553 C13.6677,13.8063 13.6917,13.7483 13.6917,13.6813 M6.8457,14.9213 L1.2227,14.9213 C0.8867,14.9213 0.5987,14.8003 0.3587,14.5573 C0.1197,14.3143 -0.0003,14.0223 -0.0003,13.6813 L-0.0003,6.2403 C-0.0003,5.8993 0.1197,5.6073 0.3587,5.3643 C0.5987,5.1213 0.8867,5.0003 1.2227,5.0003 L13.4477,5.0003 C13.7837,5.0003 14.0707,5.1213 14.3107,5.3643 C14.5497,5.6073 14.6697,5.8993 14.6697,6.2403 L14.6697,13.6813 C14.6697,14.0223 14.5497,14.3143 14.3107,14.5573 C14.0707,14.8003 13.7837,14.9213 13.4477,14.9213 L7.8237,14.9213" id="Fill-1" fill="#FEFEFE"></path>
                <g id="Group-5" transform="translate(0.000000, 4.905800)">
                    <mask id="mask-2" fill="white">
                        <use xlink:href="#path-1"></use>
                    </mask>
                    <g id="Clip-4"></g>
                    <polygon id="Fill-3" fill="#FEFEFE" mask="url(#mask-2)" points="-5 17 19.67 17 19.67 -4.906 -5 -4.906"></polygon>
                </g>
                <g id="Group-18" transform="translate(2.000000, 0.905800)" fill="#FEFEFE">
                    <path d="M8.0114,4.7065 L7.2104,4.7065 C7.2104,4.1645 6.9764,3.6485 6.5674,3.2925 C6.2254,2.9945 5.7874,2.8315 5.3344,2.8315 C4.3004,2.8315 3.4594,3.6725 3.4594,4.7065 L2.6584,4.7065 C2.6584,3.2305 3.8594,2.0305 5.3344,2.0305 C5.9814,2.0305 6.6054,2.2655 7.0924,2.6885 C7.6764,3.1975 8.0114,3.9335 8.0114,4.7065" id="Fill-6"></path>
                    <path d="M6.7467,3.2124 C6.6297,3.2124 6.5147,3.1604 6.4347,3.0634 C6.2967,2.8914 6.3237,2.6394 6.4957,2.5004 L9.0247,0.4654 C9.1967,0.3254 9.4477,0.3554 9.5877,0.5254 C9.7267,0.6974 9.6987,0.9494 9.5267,1.0884 L6.9977,3.1234 C6.9237,3.1834 6.8347,3.2124 6.7467,3.2124" id="Fill-8"></path>
                    <path d="M3.7789,3.2123 C3.6909,3.2123 3.6019,3.1833 3.5279,3.1233 L0.9989,1.0883 C0.8269,0.9493 0.7999,0.6973 0.9379,0.5253 C1.0759,0.3543 1.3279,0.3263 1.5009,0.4653 L4.0299,2.5003 C4.2019,2.6393 4.2289,2.8913 4.0909,3.0633 C4.0109,3.1603 3.8949,3.2123 3.7789,3.2123" id="Fill-10"></path>
                    <path d="M9.2321,15.395 L1.4381,15.395 C0.6991,15.395 0.4301,14.816 0.4301,14.427 L0.4301,13.594 L1.2311,13.594 L1.2311,14.427 C1.2391,14.594 1.3641,14.594 1.4381,14.594 L9.2321,14.594 C9.3061,14.594 9.4311,14.594 9.4401,14.419 L9.4391,13.594 L10.2401,13.594 L10.2401,14.427 C10.2401,14.816 9.9711,15.395 9.2321,15.395" id="Fill-12"></path>
                    <path d="M10.8945,12.1862 C11.0395,12.1862 11.1565,12.0692 11.1565,11.9242 L11.1565,6.9342 C11.1565,6.7892 11.0395,6.6712 10.8945,6.6712 C10.7495,6.6712 10.6325,6.7892 10.6325,6.9342 L10.6325,11.9242 C10.6325,12.0692 10.7495,12.1862 10.8945,12.1862" id="Fill-14"></path>
                    <path d="M10.6521,6.2859 C10.6941,6.3849 10.7931,6.4509 10.9011,6.4479 C11.0081,6.4449 11.1061,6.3749 11.1411,6.2739 C11.1771,6.1729 11.1471,6.0569 11.0661,5.9869 C10.9771,5.9109 10.8461,5.9029 10.7491,5.9669 C10.6451,6.0369 10.6071,6.1709 10.6521,6.2859 C10.6591,6.3019 10.6461,6.2699 10.6521,6.2859" id="Fill-16"></path>
                </g>
            </g>
        </g>
    </g>
</svg>