<?xml version="1.0" encoding="UTF-8" standalone="no"?>
<svg width="15px" height="12px" viewBox="0 0 15 12" version="1.1" xmlns="http://www.w3.org/2000/svg" xmlns:xlink="http://www.w3.org/1999/xlink">
    <!-- Generator: Sketch 40 (33762) - http://www.bohemiancoding.com/sketch -->
    <title></title>
    <desc>Created with Sketch.</desc>
    <defs></defs>
    <g id="Page-1" stroke="none" stroke-width="1" fill="none" fill-rule="evenodd">
        <g id="Dashboard-specs" transform="translate(-674.000000, -391.000000)" fill="#000000">
            <path d="M687.732735,399.68131 L687.732735,392.240187 C687.732735,392.17301 687.708499,392.114877 687.660025,392.065786 C687.611552,392.016695 687.55415,391.99215 687.487817,391.99215 L675.241924,391.99215 C675.175592,391.99215 675.11819,392.016695 675.069716,392.065786 C675.021243,392.114877 674.997006,392.17301 674.997006,392.240187 L674.997006,399.68131 C674.997006,399.748488 675.021243,399.806621 675.069716,399.855712 C675.11819,399.904803 675.175592,399.929348 675.241924,399.929348 L687.487817,399.929348 C687.55415,399.929348 687.611552,399.904803 687.660025,399.855712 C687.708499,399.806621 687.732735,399.748488 687.732735,399.68131 L687.732735,399.68131 Z M688.712407,392.240187 L688.712407,399.68131 C688.712407,400.022364 688.5925,400.314321 688.352684,400.557193 C688.112867,400.800064 687.824581,400.921498 687.487817,400.921498 L681.854706,400.921498 L681.854706,401.913647 L684.548803,401.913647 C684.620238,401.913647 684.678915,401.936901 684.724838,401.983408 C684.77076,402.029915 684.793721,402.08934 684.793721,402.161685 L684.793721,402.65776 C684.793721,402.730104 684.77076,402.789529 684.724838,402.836037 C684.678915,402.882544 684.620238,402.905797 684.548803,402.905797 L678.180938,402.905797 C678.109504,402.905797 678.050826,402.882544 678.004904,402.836037 C677.958981,402.789529 677.936021,402.730104 677.936021,402.65776 L677.936021,402.161685 C677.936021,402.08934 677.958981,402.029915 678.004904,401.983408 C678.050826,401.936901 678.109504,401.913647 678.180938,401.913647 L680.875035,401.913647 L680.875035,400.921498 L675.241924,400.921498 C674.90516,400.921498 674.616874,400.800064 674.377058,400.557193 C674.137241,400.314321 674.017335,400.022364 674.017335,399.68131 L674.017335,392.240187 C674.017335,391.899134 674.137241,391.607176 674.377058,391.364305 C674.616874,391.121434 674.90516,391 675.241924,391 L687.487817,391 C687.824581,391 688.112867,391.121434 688.352684,391.364305 C688.5925,391.607176 688.712407,391.899134 688.712407,392.240187 L688.712407,392.240187 Z" id=""></path>
        </g>
    </g>
</svg>