<?xml version="1.0" encoding="UTF-8"?>
<svg width="42px" height="42px" viewBox="0 0 42 42" version="1.1" xmlns="http://www.w3.org/2000/svg" xmlns:xlink="http://www.w3.org/1999/xlink">
    <!-- Generator: Sketch 43.2 (39069) - http://www.bohemiancoding.com/sketch -->
    <title>play-button (1)</title>
    <desc>Created with Sketch.</desc>
    <defs></defs>
    <g id="Page-1" stroke="none" stroke-width="1" fill="none" fill-rule="evenodd">
        <g id="Mobile-Portrait" transform="translate(-233.000000, -336.000000)">
            <g id="Group-2" transform="translate(29.000000, 336.000000)">
                <g id="play-button-(1)" transform="translate(204.000000, 0.000000)">
                    <g id="Capa_1">
                        <path d="M21,0 C9.40217578,0 0,9.40201172 0,21 C0,32.5979883 9.40217578,42 21,42 C32.5978242,42 42,32.5979883 42,21 C42,9.40201172 32.5978242,0 21,0 Z" id="Shape" fill="#F17B02" fill-rule="nonzero"></path>
                        <path d="M28.258125,22.1131641 L17.758125,28.6756641 C17.5456641,28.8083086 17.304082,28.875 17.0625,28.875 C16.8436406,28.875 16.6244531,28.8205312 16.4261016,28.7102812 C16.0088906,28.4789531 15.75,28.0399219 15.75,27.5625 L15.75,14.4375 C15.75,13.9600781 16.0088906,13.5210469 16.4261016,13.2897187 C16.8433125,13.0570781 17.3534648,13.0711875 17.758125,13.3243359 L28.258125,19.8868359 C28.6417031,20.1271875 28.875,20.5475977 28.875,21 C28.875,21.4524023 28.6417031,21.8728945 28.258125,22.1131641 Z" id="Path" fill="#FFFFFF"></path>
                    </g>
                </g>
            </g>
        </g>
    </g>
</svg>