<?xml version="1.0" encoding="UTF-8"?>
<svg width="147px" height="42px" viewBox="0 0 147 42" version="1.1" xmlns="http://www.w3.org/2000/svg" xmlns:xlink="http://www.w3.org/1999/xlink">
    <!-- Generator: Sketch 43.2 (39069) - http://www.bohemiancoding.com/sketch -->
    <title>Page 1</title>
    <desc>Created with Sketch.</desc>
    <defs></defs>
    <g id="Home" stroke="none" stroke-width="1" fill="none" fill-rule="evenodd">
        <g id="Artboard" transform="translate(0.000000, -1.000000)">
            <g id="Page-1" transform="translate(0.000000, 1.000000)">
                <path d="M5.7998,36.5 C5.3998,36.8 4.9998,36.9 4.4998,36.9 C3.8998,36.9 3.2998,36.7 2.7998,36.2 C2.2998,35.7 2.0998,35.1 2.0998,34.4 C2.0998,33.7 2.2998,33.1 2.6998,32.6 C3.0998,32.1 3.5998,31.9 4.2998,31.9 C4.6998,31.9 5.0998,32 5.3998,32.2 C5.9998,32.5 6.2998,33 6.2998,33.7 L5.7998,33.7 C5.7998,33.4 5.5998,33.2 5.3998,32.9 C5.1998,32.7 4.8998,32.6 4.4998,32.6 C3.8998,32.6 3.4998,32.9 3.2998,33.4 C3.0998,33.6 2.9998,34 2.9998,34.4 C2.9998,34.9 3.0998,35.4 3.3998,35.8 C3.6998,36.2 3.9998,36.3 4.4998,36.3 C4.7998,36.3 5.0998,36.2 5.2998,36 C5.4998,35.8 5.6998,35.6 5.7998,35.3 L6.4998,35.3 C6.3998,35.8 6.1998,36.2 5.7998,36.5 Z M1.7998,31.8 C1.0998,32.5 0.6998,33.4 0.6998,34.4 C0.6998,35.4 1.0998,36.3 1.7998,37 C2.4998,37.7 3.3998,38.1 4.3998,38.1 C5.3998,38.1 6.2998,37.7 6.9998,37 C7.6998,36.3 8.0998,35.4 8.0998,34.4 C8.0998,33.4 7.6998,32.5 6.9998,31.8 C6.2998,31.1 5.3998,30.7 4.3998,30.7 C3.3998,30.7 2.4998,31.1 1.7998,31.8 Z M7.4998,37.5 C6.6998,38.3 5.5998,38.8 4.4998,38.8 C3.3998,38.8 2.2998,38.4 1.4998,37.5 C0.6998,36.6 0.1998,35.6 0.1998,34.4 C0.1998,33.2 0.5998,32.2 1.4998,31.4 C2.3998,30.6 3.3998,30.1 4.4998,30.1 C5.5998,30.1 6.6998,30.5 7.4998,31.4 C8.2998,32.2 8.7998,33.2 8.7998,34.4 C8.6998,35.6 8.2998,36.6 7.4998,37.5 Z" id="Fill-1" fill="#949494"></path>
                <path d="M13,36.9004 C13.3,36.4004 13.8,35.9004 14.5,35.4004 L15.6,34.7004 C16.1,34.4004 16.5,34.2004 16.7,33.9004 C17,33.5994 17.2,33.2004 17.2,32.7994 C17.2,32.2994 17.1,31.9004 16.8,31.5994 C16.5,31.2994 16.1,31.2004 15.6,31.2004 C14.9,31.2004 14.4,31.5004 14.1,32.0004 C14,32.2994 13.9,32.7004 13.9,33.2004 L12.8,33.2004 C12.8,32.5004 12.9,31.9004 13.2,31.4004 C13.7,30.5994 14.5,30.2004 15.6,30.2004 C16.6,30.2004 17.3,30.5004 17.7,31.0004 C18.1,31.5004 18.4,32.0994 18.4,32.7004 C18.4,33.4004 18.2,33.9004 17.7,34.4004 C17.4,34.7004 16.9,35.0004 16.2,35.4004 L15.4,36.0004 C15,36.2004 14.7,36.4004 14.5,36.5994 C14.1,36.9004 13.9,37.2994 13.8,37.7004 L18.4,37.7004 L18.4,38.7004 L12.6,38.7004 C12.6,38.0004 12.7,37.4004 13,36.9004" id="Fill-3" fill="#949494"></path>
                <path d="M23.3999,37.2998 C23.6999,36.7998 23.8999,35.9008 23.8999,34.5998 C23.8999,33.5998 23.7999,32.9008 23.4999,32.1998 C23.2999,31.5998 22.7999,31.2998 22.0999,31.2998 C21.4999,31.2998 20.9999,31.5998 20.6999,32.1998 C20.3999,32.7998 20.2999,33.5998 20.2999,34.7998 C20.2999,35.6998 20.3999,36.2998 20.5999,36.9008 C20.8999,37.6998 21.3999,38.0998 21.9999,38.0998 C22.5999,37.9998 23.0999,37.7998 23.3999,37.2998 M24.4999,31.6998 C24.8999,32.4008 25.0999,33.2998 25.0999,34.4998 C25.0999,35.5998 24.8999,36.5998 24.5999,37.2998 C23.9999,38.4008 23.1999,38.9998 22.0999,38.9998 C21.0999,38.9998 20.2999,38.5998 19.8999,37.6998 C19.4999,36.9998 19.2999,35.9998 19.2999,34.7998 C19.2999,33.7998 19.3999,32.9998 19.6999,32.2998 C20.1999,30.9998 20.9999,30.4008 22.1999,30.4008 C23.1999,30.4008 23.9999,30.7998 24.4999,31.6998" id="Fill-5" fill="#949494"></path>
                <path d="M26.7002,32.7998 L26.7002,31.9998 C27.5002,31.9008 28.0002,31.7998 28.3002,31.5998 C28.6002,31.4008 28.8002,30.9998 29.0002,30.4008 L29.8002,30.4008 L29.8002,38.7998 L28.7002,38.7998 L28.7002,32.9008 L26.7002,32.9008 L26.7002,32.7998 Z" id="Fill-7" fill="#949494"></path>
                <path d="M38.5,30.5 L38.5,31.4 C38.2,31.7 37.9,32.1 37.4,32.8 C36.9,33.5 36.6,34.1 36.2,34.9 C35.9,35.6 35.6,36.3 35.4,36.9 C35.3,37.3 35.1,37.9 35,38.8 L33.8,38.8 C34.1,37.2 34.7,35.6 35.6,34 C36.1,33.1 36.7,32.3 37.3,31.6 L32.7,31.6 L32.7,30.5 L38.5,30.5 Z" id="Fill-9" fill="#949494"></path>
                <path d="M46.8999,35.2002 L45.5999,31.4002 L44.1999,35.2002 L46.8999,35.2002 Z M44.9999,30.0992 L46.2999,30.0992 L49.3999,38.7002 L48.0999,38.7002 L47.1999,36.0992 L43.7999,36.0992 L42.8999,38.7002 L41.6999,38.7002 L44.9999,30.0992 Z" id="Fill-11" fill="#949494"></path>
                <polygon id="Fill-13" fill="#949494" points="50.4 38.701 51.5 38.701 51.5 30.1 50.4 30.1"></polygon>
                <polygon id="Fill-15" fill="#949494" points="53 38.701 54.1 38.701 54.1 30.1 53 30.1"></polygon>
                <path d="M63.1001,34.0996 C63.6001,34.0996 64.1001,33.9996 64.4001,33.7996 C64.7001,33.5996 64.9001,33.2006 64.9001,32.5996 C64.9001,31.9996 64.7001,31.5996 64.3001,31.2996 C64.1001,31.2006 63.8001,31.0996 63.4001,31.0996 L60.6001,31.0996 L60.6001,33.9996 L63.1001,33.9996 L63.1001,34.0996 Z M59.3001,30.0996 L63.2001,30.0996 C63.8001,30.0996 64.4001,30.2006 64.8001,30.4006 C65.6001,30.7996 66.0001,31.4006 66.0001,32.4006 C66.0001,32.9006 65.9001,33.2996 65.7001,33.7006 C65.5001,34.0996 65.2001,34.2996 64.8001,34.4996 C65.1001,34.5996 65.4001,34.7996 65.6001,34.9996 C65.8001,35.2006 65.9001,35.5996 65.9001,36.0996 L65.9001,37.2996 C65.9001,37.5996 65.9001,37.9006 66.0001,37.9996 C66.1001,38.2996 66.2001,38.4006 66.4001,38.4996 L66.4001,38.7006 L65.0001,38.7006 C65.0001,38.5996 64.9001,38.4996 64.9001,38.4006 C64.9001,38.2996 64.9001,38.0996 64.8001,37.7006 L64.7001,36.2996 C64.7001,35.7006 64.5001,35.4006 64.1001,35.2006 C63.9001,35.0996 63.5001,34.9996 63.1001,34.9996 L60.5001,34.9996 L60.5001,38.7006 L59.3001,38.7006 L59.3001,30.0996 Z" id="Fill-16" fill="#949494"></path>
                <path d="M67.7,38.7 L68.8,38.7 L68.8,32.5 L67.7,32.5 L67.7,38.7 Z M67.7,31.3 L68.8,31.3 L68.8,30.1 L67.7,30.1 L67.7,31.3 Z" id="Fill-17" fill="#949494"></path>
                <path d="M73.8999,33.9004 C73.5999,33.5004 73.1999,33.2994 72.6999,33.2994 C71.9999,33.2994 71.4999,33.5994 71.1999,34.2994 C71.0999,34.7004 70.9999,35.2004 70.9999,35.7994 C70.9999,36.5004 71.0999,37.0004 71.3999,37.4004 C71.6999,37.7994 72.0999,38.0004 72.5999,38.0004 C73.3999,38.0004 73.8999,37.7004 74.1999,37.0004 C74.3999,36.5994 74.4999,36.2004 74.4999,35.5994 C74.3999,34.7994 74.2999,34.2004 73.8999,33.9004 M73.7999,32.7004 C73.9999,32.7994 74.1999,33.0004 74.3999,33.2994 L74.3999,32.5004 L75.3999,32.5004 L75.3999,38.2004 C75.3999,39.0004 75.2999,39.5994 74.9999,40.0994 C74.5999,41.0004 73.6999,41.4004 72.4999,41.4004 C71.7999,41.4004 71.2999,41.2004 70.7999,40.9004 C70.2999,40.5994 70.0999,40.0994 69.9999,39.5004 L71.0999,39.5004 C71.1999,39.7994 71.2999,40.0004 71.3999,40.2004 C71.5999,40.4004 71.9999,40.5994 72.4999,40.5994 C73.2999,40.5994 73.7999,40.2994 74.0999,39.7004 C74.1999,39.4004 74.2999,38.7994 74.2999,37.9004 C74.0999,38.2004 73.7999,38.5004 73.4999,38.5994 C73.1999,38.7994 72.7999,38.7994 72.2999,38.7994 C71.5999,38.7994 70.9999,38.5994 70.4999,38.0994 C69.9999,37.5994 69.6999,36.7994 69.6999,35.7004 C69.6999,34.5994 69.9999,33.7994 70.4999,33.2004 C70.9999,32.5994 71.5999,32.2994 72.3999,32.2994 C72.9999,32.4004 73.3999,32.5004 73.7999,32.7004" id="Fill-18" fill="#949494"></path>
                <path d="M77,30.0996 L78.1,30.0996 L78.1,33.2996 C78.3,32.9996 78.6,32.7996 78.8,32.5996 C79.1,32.4006 79.6,32.2996 80.1,32.2996 C81,32.2996 81.6,32.5996 82,33.2996 C82.2,33.5996 82.3,34.0996 82.3,34.7006 L82.3,38.7006 L81,38.7006 L81,34.7006 C81,34.2006 80.9,33.9006 80.8,33.7006 C80.6,33.4006 80.2,33.2006 79.7,33.2006 C79.3,33.2006 78.9,33.4006 78.5,33.7006 C78.1,33.9996 78,34.5996 78,35.4006 L78,38.7006 L77,38.7006 L77,30.0996 Z" id="Fill-19" fill="#949494"></path>
                <path d="M83.8999,30.7002 L84.9999,30.7002 L84.9999,32.5002 L85.9999,32.5002 L85.9999,33.4002 L84.9999,33.4002 L84.9999,37.5002 C84.9999,37.7002 85.0999,37.9002 85.1999,37.9002 C85.2999,37.9002 85.3999,38.0002 85.5999,38.0002 L85.7999,38.0002 L85.9999,38.0002 L85.9999,38.8002 C85.8999,38.8002 85.7999,38.9002 85.5999,38.9002 L85.1999,38.9002 C84.6999,38.9002 84.3999,38.8002 84.1999,38.5002 C83.9999,38.2002 83.8999,37.9002 83.8999,37.5002 L83.8999,33.3002 L82.9999,33.3002 L82.9999,32.4002 L83.7999,32.4002 L83.7999,30.7002 L83.8999,30.7002 Z" id="Fill-20" fill="#949494"></path>
                <path d="M87.6001,36.7998 C87.6001,37.1998 87.7001,37.4008 87.9001,37.5998 C88.2001,37.9008 88.6001,38.0998 89.3001,38.0998 C89.7001,38.0998 90.0001,37.9998 90.4001,37.7998 C90.8001,37.5998 90.9001,37.4008 90.9001,36.9998 C90.9001,36.6998 90.8001,36.4998 90.5001,36.4008 C90.3001,36.2998 90.0001,36.1998 89.6001,36.0998 L88.7001,35.9008 C88.2001,35.7998 87.8001,35.5998 87.5001,35.4998 C87.0001,35.1998 86.8001,34.7998 86.8001,34.2998 C86.8001,33.6998 87.0001,33.1998 87.5001,32.9008 C87.9001,32.4998 88.5001,32.2998 89.2001,32.2998 C90.2001,32.2998 90.8001,32.5998 91.3001,33.0998 C91.6001,33.4998 91.7001,33.7998 91.7001,34.1998 L90.7001,34.1998 C90.7001,33.9998 90.6001,33.6998 90.4001,33.5998 C90.2001,33.2998 89.7001,33.1998 89.1001,33.1998 C88.7001,33.1998 88.4001,33.2998 88.2001,33.4008 C88.0001,33.5998 87.9001,33.7998 87.9001,33.9998 C87.9001,34.2998 88.0001,34.4998 88.3001,34.6998 C88.5001,34.7998 88.7001,34.9008 89.0001,34.9998 L89.7001,35.1998 C90.5001,35.4008 91.0001,35.5998 91.3001,35.6998 C91.7001,35.9998 91.9001,36.4008 91.9001,36.9998 C91.9001,37.5998 91.7001,37.9998 91.3001,38.4008 C90.9001,38.7998 90.2001,38.9998 89.3001,38.9998 C88.4001,38.9998 87.7001,38.7998 87.3001,38.4008 C86.9001,37.9998 86.7001,37.4998 86.7001,36.7998 L87.6001,36.7998 Z" id="Fill-21" fill="#949494"></path>
                <path d="M100.3999,34.0996 C100.8999,34.0996 101.3999,33.9996 101.6999,33.7996 C101.9999,33.5996 102.1999,33.2006 102.1999,32.5996 C102.1999,31.9996 101.9999,31.5996 101.5999,31.2996 C101.3999,31.2006 101.0999,31.0996 100.6999,31.0996 L97.8999,31.0996 L97.8999,33.9996 L100.3999,33.9996 L100.3999,34.0996 Z M96.5999,30.0996 L100.4999,30.0996 C101.0999,30.0996 101.6999,30.2006 102.0999,30.4006 C102.8999,30.7996 103.2999,31.4006 103.2999,32.4006 C103.2999,32.9006 103.1999,33.2996 102.9999,33.7006 C102.7999,34.0996 102.4999,34.2996 102.0999,34.4996 C102.3999,34.5996 102.6999,34.7996 102.8999,34.9996 C103.0999,35.2006 103.1999,35.5996 103.1999,36.0996 L103.1999,37.2996 C103.1999,37.5996 103.1999,37.9006 103.2999,37.9996 C103.3999,38.2996 103.4999,38.4006 103.6999,38.4996 L103.6999,38.7006 L102.2999,38.7006 C102.2999,38.5996 102.1999,38.4996 102.1999,38.4006 C102.1999,38.2996 102.1999,38.0996 102.0999,37.7006 L101.9999,36.2996 C101.9999,35.7006 101.7999,35.4006 101.3999,35.2006 C101.1999,35.0996 100.7999,34.9996 100.3999,34.9996 L97.7999,34.9996 L97.7999,38.7006 L96.5999,38.7006 L96.5999,30.0996 Z" id="Fill-22" fill="#949494"></path>
                <path d="M109.2998,35.0996 C109.2998,34.5996 109.1998,34.2996 108.9998,33.9996 C108.6998,33.4996 108.1998,33.2006 107.5998,33.2006 C107.0998,33.2006 106.6998,33.4006 106.3998,33.7006 C106.0998,33.9996 105.8998,34.4996 105.8998,34.9996 L109.2998,34.9996 L109.2998,35.0996 Z M108.8998,32.5996 C109.2998,32.7996 109.5998,33.0996 109.7998,33.4006 C109.9998,33.7006 110.0998,34.0996 110.1998,34.4996 C110.2998,34.7996 110.2998,35.2996 110.2998,35.9006 L105.6998,35.9006 C105.6998,36.4996 105.8998,37.0996 106.0998,37.4006 C106.3998,37.7996 106.7998,37.9996 107.3998,37.9996 C107.8998,37.9996 108.3998,37.7996 108.6998,37.4996 C108.8998,37.2996 108.9998,36.9996 109.0998,36.7996 L110.0998,36.7996 C110.0998,36.9996 109.9998,37.2996 109.7998,37.5996 C109.5998,37.9006 109.4998,38.0996 109.2998,38.2996 C108.9998,38.5996 108.5998,38.7996 108.0998,38.9006 C107.7998,38.9996 107.5998,38.9996 107.1998,38.9996 C106.3998,38.9996 105.7998,38.7006 105.1998,38.0996 C104.6998,37.4996 104.3998,36.7006 104.3998,35.7006 C104.3998,34.7006 104.6998,33.9006 105.1998,33.2006 C105.6998,32.5996 106.4998,32.2996 107.2998,32.2996 C107.9998,32.2996 108.4998,32.4006 108.8998,32.5996 L108.8998,32.5996 Z" id="Fill-23" fill="#949494"></path>
                <path d="M112.2998,36.7998 C112.2998,37.1998 112.3998,37.4008 112.5998,37.5998 C112.8998,37.9008 113.2998,38.0998 113.9998,38.0998 C114.3998,38.0998 114.6998,37.9998 115.0998,37.7998 C115.4998,37.5998 115.5998,37.4008 115.5998,36.9998 C115.5998,36.6998 115.4998,36.4998 115.1998,36.4008 C114.9998,36.2998 114.6998,36.1998 114.2998,36.0998 L113.3998,35.9008 C112.8998,35.7998 112.4998,35.5998 112.1998,35.4998 C111.6998,35.1998 111.4998,34.7998 111.4998,34.2998 C111.4998,33.6998 111.6998,33.1998 112.1998,32.9008 C112.5998,32.4998 113.1998,32.2998 113.8998,32.2998 C114.8998,32.2998 115.4998,32.5998 115.9998,33.0998 C116.2998,33.4998 116.3998,33.7998 116.3998,34.1998 L115.3998,34.1998 C115.3998,33.9998 115.2998,33.6998 115.0998,33.5998 C114.8998,33.2998 114.3998,33.1998 113.7998,33.1998 C113.3998,33.1998 113.0998,33.2998 112.8998,33.4008 C112.6998,33.5998 112.5998,33.7998 112.5998,33.9998 C112.5998,34.2998 112.6998,34.4998 112.9998,34.6998 C113.1998,34.7998 113.3998,34.9008 113.6998,34.9998 L114.3998,35.1998 C115.1998,35.4008 115.6998,35.5998 115.9998,35.6998 C116.3998,35.9998 116.5998,36.4008 116.5998,36.9998 C116.5998,37.5998 116.3998,37.9998 115.9998,38.4008 C115.5998,38.7998 114.8998,38.9998 113.9998,38.9998 C113.0998,38.9998 112.3998,38.7998 111.9998,38.4008 C111.5998,37.9998 111.3998,37.4998 111.3998,36.7998 L112.2998,36.7998 Z" id="Fill-24" fill="#949494"></path>
                <path d="M121.9004,35.0996 C121.9004,34.5996 121.7994,34.2996 121.5994,33.9996 C121.2994,33.4996 120.7994,33.2006 120.2004,33.2006 C119.7004,33.2006 119.2994,33.4006 119.0004,33.7006 C118.7004,33.9996 118.5004,34.4996 118.5004,34.9996 L121.9004,34.9996 L121.9004,35.0996 Z M121.5994,32.5996 C122.0004,32.7996 122.2994,33.0996 122.5004,33.4006 C122.7004,33.7006 122.7994,34.0996 122.9004,34.4996 C123.0004,34.7996 123.0004,35.2996 123.0004,35.9006 L118.4004,35.9006 C118.4004,36.4996 118.6004,37.0996 118.7994,37.4006 C119.0994,37.7996 119.5004,37.9996 120.0994,37.9996 C120.5994,37.9996 121.0994,37.7996 121.4004,37.4996 C121.5994,37.2996 121.7004,36.9996 121.7994,36.7996 L122.7994,36.7996 C122.7994,36.9996 122.7004,37.2996 122.5004,37.5996 C122.2994,37.9006 122.2004,38.0996 122.0004,38.2996 C121.7004,38.5996 121.2994,38.7996 120.7994,38.9006 C120.5004,38.9996 120.2994,38.9996 119.9004,38.9996 C119.0994,38.9996 118.5004,38.7006 117.9004,38.0996 C117.4004,37.4996 117.1004,36.7006 117.1004,35.7006 C117.1004,34.7006 117.4004,33.9006 117.9004,33.2006 C118.4004,32.5996 119.2004,32.2996 120.0004,32.2996 C120.7004,32.2996 121.0994,32.4006 121.5994,32.5996 L121.5994,32.5996 Z" id="Fill-25" fill="#949494"></path>
                <path d="M124.4004,32.5 L125.4004,32.5 L125.4004,33.6 C125.5004,33.4 125.7004,33.1 126.0004,32.8 C126.2994,32.5 126.7004,32.3 127.0994,32.3 L127.2004,32.3 L127.4004,32.3 L127.4004,33.4 L127.2004,33.4 L127.0004,33.4 C126.5004,33.4 126.0994,33.6 125.7994,33.9 C125.5004,34.2 125.4004,34.6 125.4004,35.1 L125.4004,38.7 L124.2994,38.7 L124.2994,32.5 L124.4004,32.5 Z" id="Fill-26" fill="#949494"></path>
                <polygon id="Fill-27" fill="#949494" points="128.9004 32.5 130.5994 37.6 132.2994 32.5 133.5004 32.5 131.0994 38.8 130.0004 38.8 127.7004 32.5"></polygon>
                <path d="M138.5996,35.0996 C138.5996,34.5996 138.4996,34.2996 138.2996,33.9996 C137.9996,33.4996 137.4996,33.2006 136.9006,33.2006 C136.4006,33.2006 135.9996,33.4006 135.7006,33.7006 C135.4006,33.9996 135.2006,34.4996 135.2006,34.9996 L138.5996,34.9996 L138.5996,35.0996 Z M138.2006,32.5996 C138.5996,32.7996 138.9006,33.0996 139.0996,33.4006 C139.2996,33.7006 139.4006,34.0996 139.4996,34.4996 C139.5996,34.7996 139.5996,35.2996 139.5996,35.9006 L134.9996,35.9006 C134.9996,36.4996 135.2006,37.0996 135.4006,37.4006 C135.5996,37.7006 136.0996,37.9996 136.7006,37.9996 C137.2006,37.9996 137.7006,37.7996 137.9996,37.4996 C138.2006,37.2996 138.2996,36.9996 138.4006,36.7996 L139.4006,36.7996 C139.4006,36.9996 139.2996,37.2996 139.0996,37.5996 C138.9006,37.9006 138.7996,38.0996 138.5996,38.2996 C138.2996,38.5996 137.9006,38.7996 137.4006,38.9006 C137.0996,38.9996 136.9006,38.9996 136.4996,38.9996 C135.7006,38.9996 135.0996,38.7006 134.4996,38.0996 C133.9006,37.4996 133.7006,36.7006 133.7006,35.7006 C133.7006,34.7006 133.9996,33.9006 134.4996,33.2006 C134.9996,32.4996 135.7996,32.2996 136.5996,32.2996 C137.4006,32.2996 137.7996,32.4006 138.2006,32.5996 L138.2006,32.5996 Z" id="Fill-28" fill="#949494"></path>
                <path d="M142.0996,37.4004 C142.4006,37.9004 142.7996,38.0994 143.4996,38.0994 C143.9996,38.0994 144.4006,37.9004 144.7006,37.5004 C144.9996,37.0994 145.2006,36.5004 145.2006,35.7004 C145.2006,34.9004 144.9996,34.2994 144.7006,33.9004 C144.4006,33.5004 143.9996,33.2994 143.4996,33.2994 C142.9996,33.2994 142.4996,33.5004 142.2006,33.9004 C141.9006,34.2994 141.7006,34.9004 141.7006,35.7004 C141.7006,36.4004 141.7996,36.9004 142.0996,37.4004 M144.4996,32.7004 C144.7006,32.7994 144.9006,33.0004 145.0996,33.2994 L145.0996,30.0994 L146.0996,30.0994 L146.0996,38.7004 L145.2006,38.7004 L145.2006,37.7994 C144.9996,38.2004 144.7006,38.5004 144.2996,38.5994 C143.9996,38.7994 143.5996,38.9004 143.0996,38.9004 C142.4006,38.9004 141.7996,38.5994 141.2996,38.0004 C140.7996,37.4004 140.4996,36.5994 140.4996,35.7004 C140.4996,34.7994 140.7006,34.0004 141.2006,33.2994 C141.7006,32.5994 142.2996,32.2994 143.2006,32.2994 C143.7006,32.4004 144.0996,32.5004 144.4996,32.7004" id="Fill-29" fill="#949494"></path>
                <polygon id="Fill-31" fill="#9B9B9B" points="38.3999 10.2002 39.1999 9.4002 39.1999 6.9002 36.6999 4.4002 28.4999 4.4002 26.0999 6.9002 26.0999 15.2002 28.4999 17.8002 36.6999 17.8002 39.1999 15.2002 39.1999 12.7002 38.3999 11.9002 34.2999 11.9002 34.2999 12.7002 30.9999 12.7002 30.9999 9.4002 34.2999 9.4002 34.2999 10.2002"></polygon>
                <polygon id="Fill-32" fill="#9B9B9B" points="9 4.4001 8.2 5.2001 8.2 8.6001 4.1 4.4001 0.8 4.4001 0 5.2001 0 16.9001 0.8 17.8001 4.1 17.8001 4.9 16.9001 4.9 13.6001 9 17.8001 12.299 17.8001 13.1 16.9001 13.1 5.2001 12.299 4.4001"></polygon>
                <polygon id="Fill-33" fill="#9B9B9B" points="26.1001 5.2002 25.3001 4.4002 22.0001 4.4002 21.2001 5.2002 21.2001 6.9002 19.6001 8.6002 18.0001 6.9002 18.0001 5.2002 17.2001 4.4002 13.9001 4.4002 13.1001 5.2002 13.1001 10.2002 17.2001 14.4002 17.2001 16.9002 18.0001 17.8002 21.2001 17.8002 22.0001 16.9002 22.0001 14.4002 26.1001 10.2002"></polygon>
                <path d="M42.7002,13.5 C42.9002,14.6 43.3002,15.3 43.9002,15.8 C44.5002,16.2 45.3002,16.5 46.4002,16.5 C46.9002,16.5 47.4002,16.4 47.8002,16.3 C48.2002,16.2 48.5002,16 48.8002,15.8 C49.1002,15.6 49.2002,15.3 49.4002,15.1 C49.5002,14.8 49.6002,14.5 49.6002,14.2 C49.6002,13.6 49.4002,13.1 49.0002,12.8 C48.6002,12.5 48.1002,12.3 47.5002,12.1 C46.9002,11.9 46.3002,11.8 45.6002,11.7 C44.9002,11.6 44.3002,11.4 43.7002,11.2 C43.1002,11 42.6002,10.6 42.2002,10.2 C41.8002,9.7 41.6002,9.1 41.6002,8.3 C41.6002,7.3 42.0002,6.4 42.7002,5.7 C43.5002,5 44.5002,4.7 45.9002,4.7 C47.3002,4.7 48.4002,5 49.2002,5.6 C50.0002,6.2 50.6002,7.2 50.7002,8.6 L49.2002,8.6 C49.1002,7.6 48.7002,7 48.1002,6.6 C47.5002,6.2 46.7002,6 45.8002,6 C44.9002,6 44.2002,6.2 43.7002,6.6 C43.2002,7 43.0002,7.5 43.0002,8.2 C43.0002,8.8 43.2002,9.2 43.6002,9.5 C44.0002,9.8 44.5002,10 45.1002,10.2 C45.7002,10.4 46.3002,10.6 47.0002,10.7 C47.7002,10.8 48.3002,11.1 48.9002,11.3 C49.5002,11.5 50.0002,11.9 50.4002,12.4 C50.8002,12.9 51.0002,13.5 51.0002,14.3 C51.0002,14.9 50.9002,15.4 50.6002,15.9 C50.3002,16.4 50.0002,16.7 49.5002,17 C49.0002,17.3 48.5002,17.5 47.9002,17.7 C47.3002,17.9 46.6002,17.9 45.9002,17.9 C45.2002,17.9 44.5002,17.8 43.9002,17.6 C43.3002,17.4 42.8002,17.1 42.4002,16.7 C42.0002,16.3 41.7002,15.9 41.5002,15.3 C41.3002,14.8 41.1002,14.2 41.1002,13.6 L42.7002,13.6 L42.7002,13.5 Z" id="Fill-34" fill="#9B9B9B"></path>
                <path d="M62.1001,10.8999 C61.5001,11.1999 60.9001,11.2999 60.2001,11.3999 C59.6001,11.4999 58.9001,11.4999 58.3001,11.5999 C57.2001,11.6999 56.3001,11.8999 55.7001,12.2999 C55.1001,12.6999 54.8001,13.3999 54.8001,14.1999 C54.8001,14.5999 54.9001,14.8999 55.0001,15.1999 C55.2001,15.4999 55.4001,15.6999 55.6001,15.8999 C55.8001,16.0999 56.1001,16.1999 56.5001,16.2999 C56.8001,16.3999 57.2001,16.3999 57.5001,16.3999 C58.1001,16.3999 58.6001,16.2999 59.2001,16.1999 C59.7001,16.0999 60.2001,15.7999 60.7001,15.4999 C61.1001,15.1999 61.5001,14.7999 61.7001,14.3999 C62.0001,13.8999 62.1001,13.3999 62.1001,12.7999 L62.1001,10.8999 Z M59.7001,10.0999 C60.0001,10.0999 60.3001,9.9999 60.7001,9.9999 C61.1001,9.8999 61.4001,9.7999 61.6001,9.6999 C61.8001,9.5999 62.0001,9.3999 62.0001,9.0999 C62.1001,8.7999 62.1001,8.5999 62.1001,8.3999 C62.1001,7.6999 61.9001,7.0999 61.4001,6.5999 C60.9001,6.0999 60.1001,5.8999 59.0001,5.8999 C58.5001,5.8999 58.0001,5.8999 57.6001,5.9999 C57.2001,6.0999 56.8001,6.1999 56.5001,6.4999 C56.2001,6.6999 55.9001,6.9999 55.7001,7.3999 C55.5001,7.7999 55.4001,8.1999 55.3001,8.7999 L53.8001,8.7999 C53.8001,8.0999 54.0001,7.3999 54.3001,6.8999 C54.6001,6.3999 55.0001,5.8999 55.4001,5.5999 C55.9001,5.2999 56.4001,4.9999 57.0001,4.8999 C57.6001,4.6999 58.2001,4.6999 58.9001,4.6999 C59.5001,4.6999 60.1001,4.7999 60.7001,4.8999 C61.3001,4.9999 61.7001,5.2999 62.1001,5.5999 C62.5001,5.8999 62.8001,6.2999 63.1001,6.7999 C63.3001,7.2999 63.5001,7.8999 63.5001,8.5999 L63.5001,15.3999 C63.5001,15.9999 63.6001,16.2999 63.8001,16.4999 C64.0001,16.6999 64.4001,16.5999 65.0001,16.3999 L65.0001,17.4999 C64.9001,17.4999 64.7001,17.5999 64.5001,17.5999 C64.3001,17.6999 64.1001,17.6999 63.9001,17.6999 C63.7001,17.6999 63.5001,17.6999 63.2001,17.5999 C63.0001,17.5999 62.8001,17.4999 62.6001,17.3999 C62.5001,17.2999 62.3001,17.0999 62.2001,16.9999 C62.1001,16.7999 62.1001,16.5999 62.0001,16.3999 L62.0001,15.7999 C61.4001,16.4999 60.7001,16.9999 59.9001,17.2999 C59.1001,17.6999 58.3001,17.7999 57.3001,17.7999 C56.8001,17.7999 56.2001,17.6999 55.7001,17.5999 C55.2001,17.4999 54.7001,17.1999 54.4001,16.8999 C54.0001,16.5999 53.7001,16.1999 53.5001,15.7999 C53.3001,15.3999 53.2001,14.7999 53.2001,14.1999 C53.2001,12.0999 54.7001,10.7999 57.6001,10.3999 L59.7001,10.0999 Z" id="Fill-36" fill="#9B9B9B"></path>
                <path d="M68.7998,17.3999 L67.3998,17.3999 L67.3998,4.8999 L68.7998,4.8999 L68.7998,6.5999 C69.3998,5.9999 69.9998,5.4999 70.5998,5.0999 C71.1998,4.6999 71.9998,4.4999 72.7998,4.4999 C73.5998,4.4999 74.2998,4.5999 74.8998,4.8999 C75.5998,5.1999 76.0998,5.5999 76.5998,6.2999 C76.8998,6.7999 77.0998,7.1999 77.0998,7.6999 C77.1998,8.1999 77.1998,8.6999 77.1998,9.1999 L77.1998,17.3999 L75.7998,17.3999 L75.7998,9.1999 C75.7998,8.0999 75.5998,7.1999 75.0998,6.6999 C74.5998,6.0999 73.7998,5.8999 72.5998,5.8999 C72.0998,5.8999 71.6998,5.9999 71.3998,6.0999 C70.9998,6.1999 70.6998,6.3999 70.3998,6.5999 C70.0998,6.7999 69.7998,7.0999 69.5998,7.3999 C69.3998,7.6999 69.1998,7.9999 69.0998,8.2999 C68.9998,8.6999 68.8998,9.0999 68.7998,9.4999 C68.6998,9.8999 68.7998,10.2999 68.7998,10.6999 L68.7998,17.3999 Z" id="Fill-38" fill="#9B9B9B"></path>
                <path d="M81,17.4 L82.4,17.4 L82.4,4.9 L81,4.9 L81,17.4 Z M80.9,2.2 L82.5,2.2 L82.5,-7.10542736e-15 L80.9,-7.10542736e-15 L80.9,2.2 Z" id="Fill-40" fill="#9B9B9B"></path>
                <path d="M90.6001,17.5 C90.4001,17.5 90.2001,17.6 89.9001,17.7 C89.6001,17.8 89.3001,17.8 88.9001,17.8 C88.2001,17.8 87.6001,17.6 87.2001,17.3 C86.8001,16.9 86.6001,16.3 86.6001,15.4 L86.6001,6.2 L84.8001,6.2 L84.8001,4.9 L86.6001,4.9 L86.6001,1.4 L88.0001,1.4 L88.0001,4.9 L90.3001,4.9 L90.3001,6.1 L88.0001,6.1 L88.0001,14.7 L88.0001,15.5 C88.0001,15.7 88.1001,15.9 88.1001,16.1 C88.2001,16.2 88.3001,16.3 88.5001,16.4 C88.7001,16.5 88.9001,16.5 89.2001,16.5 L89.8001,16.5 C90.0001,16.5 90.2001,16.4 90.4001,16.4 L90.4001,17.5 L90.6001,17.5 Z" id="Fill-42" fill="#9B9B9B"></path>
                <path d="M101.1001,10.8999 C100.5001,11.1999 99.9001,11.2999 99.2001,11.3999 C98.6001,11.4999 97.9001,11.4999 97.3001,11.5999 C96.2001,11.6999 95.3001,11.8999 94.7001,12.2999 C94.1001,12.6999 93.8001,13.3999 93.8001,14.1999 C93.8001,14.5999 93.9001,14.8999 94.0001,15.1999 C94.2001,15.4999 94.4001,15.6999 94.6001,15.8999 C94.8001,16.0999 95.1001,16.1999 95.5001,16.2999 C95.8001,16.3999 96.2001,16.3999 96.5001,16.3999 C97.1001,16.3999 97.6001,16.2999 98.2001,16.1999 C98.7001,16.0999 99.2001,15.7999 99.7001,15.4999 C100.1001,15.1999 100.5001,14.7999 100.7001,14.3999 C101.0001,13.8999 101.1001,13.3999 101.1001,12.7999 L101.1001,10.8999 Z M98.6001,10.0999 C98.9001,10.0999 99.2001,9.9999 99.6001,9.9999 C100.0001,9.8999 100.3001,9.7999 100.5001,9.6999 C100.7001,9.5999 100.9001,9.3999 100.9001,9.0999 C101.0001,8.7999 101.0001,8.5999 101.0001,8.3999 C101.0001,7.6999 100.8001,7.0999 100.3001,6.5999 C99.8001,6.0999 99.0001,5.8999 97.9001,5.8999 C97.4001,5.8999 96.9001,5.8999 96.5001,5.9999 C96.1001,6.0999 95.7001,6.1999 95.4001,6.4999 C95.1001,6.6999 94.8001,6.9999 94.6001,7.3999 C94.4001,7.7999 94.3001,8.1999 94.2001,8.7999 L92.7001,8.7999 C92.7001,8.0999 92.9001,7.3999 93.2001,6.8999 C93.5001,6.3999 93.9001,5.8999 94.3001,5.5999 C94.8001,5.2999 95.3001,4.9999 95.9001,4.8999 C96.5001,4.6999 97.1001,4.6999 97.8001,4.6999 C98.4001,4.6999 99.0001,4.7999 99.6001,4.8999 C100.2001,4.9999 100.6001,5.2999 101.0001,5.5999 C101.4001,5.8999 101.7001,6.2999 102.0001,6.7999 C102.2001,7.2999 102.4001,7.8999 102.4001,8.5999 L102.4001,15.3999 C102.4001,15.9999 102.5001,16.2999 102.7001,16.4999 C102.9001,16.6999 103.3001,16.5999 103.9001,16.3999 L103.9001,17.4999 C103.8001,17.4999 103.6001,17.5999 103.4001,17.5999 C103.2001,17.6999 103.0001,17.6999 102.8001,17.6999 C102.6001,17.6999 102.4001,17.6999 102.1001,17.5999 C101.9001,17.5999 101.7001,17.4999 101.5001,17.3999 L101.1001,16.9999 C101.0001,16.7999 101.0001,16.5999 100.9001,16.3999 L100.9001,15.7999 C100.3001,16.4999 99.6001,16.9999 98.8001,17.2999 C98.0001,17.6999 97.2001,17.7999 96.2001,17.7999 C95.7001,17.7999 95.1001,17.6999 94.6001,17.5999 C94.1001,17.4999 93.6001,17.1999 93.3001,16.8999 C92.9001,16.5999 92.6001,16.1999 92.4001,15.7999 C92.2001,15.3999 92.1001,14.7999 92.1001,14.1999 C92.1001,12.0999 93.6001,10.7999 96.5001,10.3999 L98.6001,10.0999 Z" id="Fill-43" fill="#9B9B9B"></path>
                <path d="M110.7002,17.5 C110.5002,17.5 110.3002,17.6 110.0002,17.7 C109.7002,17.8 109.4002,17.8 109.0002,17.8 C108.3002,17.8 107.7002,17.6 107.3002,17.3 C106.9002,16.9 106.7002,16.3 106.7002,15.4 L106.7002,6.2 L105.0002,6.2 L105.0002,4.9 L106.8002,4.9 L106.8002,1.4 L108.2002,1.4 L108.2002,4.9 L110.5002,4.9 L110.5002,6.1 L108.2002,6.1 L108.2002,14.7 L108.2002,15.5 C108.2002,15.7 108.3002,15.9 108.3002,16.1 C108.4002,16.2 108.5002,16.3 108.7002,16.4 C108.9002,16.5 109.1002,16.5 109.4002,16.5 L110.0002,16.5 C110.2002,16.5 110.4002,16.4 110.6002,16.4 L110.6002,17.5 L110.7002,17.5 Z" id="Fill-44" fill="#9B9B9B"></path>
                <path d="M113.2,17.4 L114.6,17.4 L114.6,4.9 L113.2,4.9 L113.2,17.4 Z M113.2,2.2 L114.8,2.2 L114.8,-7.10542736e-15 L113.2,-7.10542736e-15 L113.2,2.2 Z" id="Fill-45" fill="#9B9B9B"></path>
                <path d="M127.5996,11.2002 C127.5996,10.5002 127.4996,9.8002 127.4006,9.1002 C127.2006,8.5002 126.9996,7.9002 126.7006,7.4002 C126.4006,6.9002 125.9006,6.6002 125.4006,6.3002 C124.9006,6.0002 124.2006,5.9002 123.4006,5.9002 C122.5996,5.9002 121.9996,6.0002 121.4996,6.3002 C120.9996,6.6002 120.4996,7.0002 120.2006,7.5002 C119.9006,8.0002 119.5996,8.6002 119.4996,9.2002 C119.2996,9.8002 119.2996,10.5002 119.2996,11.2002 C119.2996,12.0002 119.4006,12.7002 119.5996,13.3002 C119.7996,13.9002 120.0996,14.5002 120.4006,15.0002 C120.7996,15.5002 121.2006,15.8002 121.7006,16.1002 C122.2006,16.4002 122.7996,16.5002 123.4996,16.5002 C124.2996,16.5002 124.9006,16.4002 125.4006,16.1002 C125.9006,15.8002 126.4006,15.4002 126.7006,14.9002 C126.9996,14.4002 127.2996,13.8002 127.4006,13.2002 C127.4996,12.6002 127.5996,11.9002 127.5996,11.2002 M123.4006,17.8002 C122.5996,17.8002 121.7996,17.6002 121.0996,17.4002 C120.4006,17.2002 119.7996,16.7002 119.2996,16.2002 C118.7996,15.7002 118.3996,15.0002 118.0996,14.1002 C117.7996,13.3002 117.5996,12.3002 117.5996,11.2002 C117.5996,10.3002 117.7006,9.4002 117.9996,8.6002 C118.2006,7.8002 118.5996,7.1002 119.0996,6.5002 C119.5996,5.9002 120.2006,5.4002 120.9006,5.1002 C121.5996,4.8002 122.4996,4.6002 123.4006,4.6002 C124.4006,4.6002 125.2006,4.8002 125.9996,5.1002 C126.7006,5.4002 127.2996,5.9002 127.7996,6.5002 C128.2996,7.1002 128.5996,7.8002 128.9006,8.6002 C129.0996,9.4002 129.2006,10.3002 129.2006,11.2002 C129.2006,12.2002 129.0996,13.1002 128.7996,13.9002 C128.4996,14.7002 128.0996,15.4002 127.5996,16.0002 C127.0996,16.6002 126.4996,17.0002 125.7996,17.3002 C124.9996,17.6002 124.2006,17.8002 123.4006,17.8002" id="Fill-46" fill="#9B9B9B"></path>
                <path d="M133.2998,17.3999 L131.9008,17.3999 L131.9008,4.8999 L133.2998,4.8999 L133.2998,6.5999 C133.9008,5.9999 134.4998,5.4999 135.0998,5.0999 C135.6998,4.6999 136.4998,4.4999 137.2998,4.4999 C138.0998,4.4999 138.7998,4.5999 139.4998,4.8999 C140.1998,5.1999 140.6998,5.5999 141.1998,6.2999 C141.4998,6.7999 141.6998,7.1999 141.6998,7.6999 C141.7998,8.1999 141.7998,8.6999 141.7998,9.1999 L141.7998,17.3999 L140.4008,17.3999 L140.4008,9.1999 C140.4008,8.0999 140.1998,7.1999 139.6998,6.6999 C139.1998,6.0999 138.4008,5.8999 137.1998,5.8999 C136.6998,5.8999 136.2998,5.9999 135.9998,6.0999 C135.5998,6.1999 135.2998,6.3999 134.9998,6.5999 C134.6998,6.7999 134.4008,7.0999 134.1998,7.3999 C133.9998,7.6999 133.7998,7.9999 133.6998,8.2999 C133.5998,8.6999 133.4998,9.0999 133.4008,9.4999 C133.2998,9.8999 133.4008,10.2999 133.4008,10.6999 L133.4008,17.3999 L133.2998,17.3999 Z" id="Fill-47" fill="#9B9B9B"></path>
            </g>
        </g>
    </g>
</svg>