<?xml version="1.0" encoding="UTF-8"?>
<svg width="117px" height="37px" viewBox="0 0 117 37" version="1.1" xmlns="http://www.w3.org/2000/svg" xmlns:xlink="http://www.w3.org/1999/xlink">
    <!-- Generator: Sketch 43.2 (39069) - http://www.bohemiancoding.com/sketch -->
    <title>Group 6</title>
    <desc>Created with Sketch.</desc>
    <defs></defs>
    <g id="Page-1" stroke="none" stroke-width="1" fill="none" fill-rule="evenodd">
        <g id="Mobile-Portrait" transform="translate(-10.000000, -5.000000)" fill-rule="nonzero">
            <g id="Group-6" transform="translate(10.000000, 5.000000)">
                <g id="FINAL-DSNY-Web">
                    <g id="Layer_1">
                        <g id="XMLID_92_">
                            <path d="M18.5172815,0.245643154 C8.42813144,0.245643154 0.24607683,8.41327801 0.24607683,18.4846473 C0.24607683,28.5560166 8.42813144,36.7236515 18.5172815,36.7236515 C28.6064315,36.7236515 36.7884861,28.5560166 36.7884861,18.4846473 C36.8038659,8.41327801 28.6218113,0.245643154 18.5172815,0.245643154 Z" id="Shape" fill="#E6E6E6"></path>
                            <path d="M18.5172815,36.9846473 C8.30509303,36.9846473 0,28.6788382 0,18.4846473 C0,8.29045643 8.30509303,0 18.5172815,0 C28.72947,0 37.034563,8.29045643 37.034563,18.4846473 C37.0499428,28.6788382 28.72947,36.9846473 18.5172815,36.9846473 Z M18.5172815,0.491286307 C8.58192946,0.491286307 0.492153661,8.56680498 0.492153661,18.4846473 C0.492153661,28.4024896 8.58192946,36.4780083 18.5172815,36.4780083 C28.4526335,36.4780083 36.5424093,28.4024896 36.5424093,18.4846473 C36.5424093,8.56680498 28.4680133,0.491286307 18.5172815,0.491286307 Z" id="Shape" fill="#000000"></path>
                        </g>
                        <g id="XMLID_65_" transform="translate(4.767739, 4.605809)" fill="#015949">
                            <ellipse id="Oval" cx="13.7187833" cy="13.7406639" rx="13.6726439" ry="13.6485477"></ellipse>
                        </g>
                        <g id="XMLID_93_" transform="translate(4.613941, 4.605809)" fill="#000000">
                            <path d="M13.9033409,27.726971 C6.25957937,27.726971 0.0307596038,21.5091286 0.0307596038,13.8788382 C0.0307596038,6.24854772 6.25957937,0.0307053942 13.9033409,0.0307053942 C21.5471025,0.0307053942 27.7759222,6.24854772 27.7759222,13.8788382 C27.7759222,21.5244813 21.5624823,27.726971 13.9033409,27.726971 Z M13.9033409,0.429875519 C6.4748966,0.429875519 0.415254651,6.46348548 0.415254651,13.8941909 C0.415254651,21.3248963 6.4595168,27.3585062 13.9033409,27.3585062 C21.3317852,27.3585062 27.3914272,21.3248963 27.3914272,13.8941909 C27.3914272,6.46348548 21.347165,0.429875519 13.9033409,0.429875519 Z" id="Shape"></path>
                        </g>
                        <g id="Group" transform="translate(6.151921, 1.688797)" fill="#000000">
                            <polygon id="Shape" points="0.138418217 5.15850622 0.430634453 4.88215768 2.23007128 5.37344398 2.23007128 5.37344398 1.15348514 4.2219917 1.41494177 3.97634855 2.87602296 5.54232365 2.58380672 5.8186722 0.799749699 5.32738589 0.799749699 5.32738589 1.87633583 6.47883817 1.6148792 6.72448133"></polygon>
                            <polygon id="Shape" points="2.03013385 3.50041494 3.29127761 2.60995851 3.47583523 2.87095436 2.52228751 3.54647303 2.84526335 4.00705394 3.73729186 3.39294606 3.90646968 3.63858921 3.01444117 4.2526971 3.36817662 4.7746888 4.33710414 4.09917012 4.52166176 4.36016598 3.2297584 5.25062241"></polygon>
                            <polygon id="Shape" points="3.70653226 2.31825726 4.0448879 2.14937759 5.10609423 3.45435685 5.10609423 3.45435685 4.78311839 1.79626556 5.13685383 1.62738589 6.22881977 2.91701245 6.22881977 2.91701245 5.87508433 1.27427386 6.21343997 1.10539419 6.61331482 3.28547718 6.27495918 3.45435685 5.16761344 2.16473029 5.16761344 2.16473029 5.49058928 3.83817427 5.13685383 4.00705394"></polygon>
                            <polygon id="Shape" points="8.67420827 1.76556017 7.59762214 0.675518672 8.02825659 0.58340249 8.79724669 1.39709544 9.13560233 0.337759336 9.55085698 0.245643154 9.05870332 1.68879668 9.24326094 2.50248963 8.8741457 2.57925311"></polygon>
                            <path d="M10.8427603,0.0307053942 C10.9965584,0.0153526971 11.1503564,0.0307053942 11.2733948,0.0921161826 C11.411813,0.138174274 11.5194716,0.214937759 11.6117504,0.307053942 C11.7040292,0.399170124 11.7809283,0.521991701 11.8424475,0.644813278 C11.9039667,0.782987552 11.9347263,0.921161826 11.9501061,1.0746888 C11.9654859,1.22821577 11.9501061,1.38174274 11.9193465,1.51991701 C11.8885869,1.65809129 11.8270677,1.78091286 11.7501687,1.88838174 C11.6732696,1.99585062 11.565611,2.0879668 11.4425726,2.14937759 C11.3195342,2.22614108 11.181116,2.25684647 11.0119382,2.27219917 C10.8581401,2.28755187 10.7043421,2.27219917 10.5813037,2.21078838 C10.4428855,2.16473029 10.3352269,2.0879668 10.2429481,1.99585062 C10.1506693,1.90373444 10.0737702,1.78091286 10.012251,1.65809129 C9.95073183,1.51991701 9.91997223,1.38174274 9.90459242,1.22821577 C9.88921262,1.0746888 9.90459242,0.936514523 9.93535203,0.798340249 C9.96611163,0.660165975 10.0276308,0.537344398 10.1045298,0.429875519 C10.1814289,0.322406639 10.2890875,0.230290456 10.4121259,0.168879668 C10.5351643,0.10746888 10.6889623,0.0460580913 10.8427603,0.0307053942 Z M10.8735199,0.337759336 C10.7658613,0.353112033 10.6582027,0.383817427 10.5813037,0.429875519 C10.5044047,0.47593361 10.4428855,0.552697095 10.3967461,0.629460581 C10.3506067,0.706224066 10.3198471,0.798340249 10.3044673,0.905809129 C10.2890875,0.997925311 10.2890875,1.10539419 10.2890875,1.21286307 C10.3044673,1.32033195 10.3198471,1.41244813 10.3506067,1.50456432 C10.3813663,1.5966805 10.4275057,1.68879668 10.4890249,1.75020747 C10.5505441,1.82697095 10.6120633,1.87302905 10.7043421,1.91908714 C10.7966209,1.96514523 10.8888997,1.98049793 11.0119382,1.96514523 C11.1195968,1.94979253 11.2272554,1.91908714 11.3041544,1.87302905 C11.3810534,1.82697095 11.4425726,1.75020747 11.488712,1.67344398 C11.5348514,1.5966805 11.565611,1.50456432 11.5809908,1.39709544 C11.5963706,1.30497925 11.5963706,1.19751037 11.5963706,1.09004149 C11.5809908,0.982572614 11.565611,0.890456432 11.5348514,0.798340249 C11.5040918,0.706224066 11.4579524,0.614107884 11.3964332,0.552697095 C11.334914,0.47593361 11.2733948,0.429875519 11.181116,0.383817427 C11.0888372,0.337759336 10.9811786,0.322406639 10.8735199,0.337759336 Z" id="Shape"></path>
                            <path d="M12.5037789,0 L13.5342257,0.0614107884 C13.7649227,0.0767634855 13.9494803,0.138174274 14.0571389,0.245643154 C14.1647976,0.353112033 14.210937,0.506639004 14.210937,0.675518672 C14.210937,0.782987552 14.1801774,0.859751037 14.1494177,0.921161826 C14.1186581,0.982572614 14.0725187,1.0439834 14.0263793,1.0746888 C13.9802399,1.10539419 13.9494803,1.13609959 13.9033409,1.15145228 C13.8572015,1.16680498 13.8264419,1.18215768 13.8110621,1.18215768 L13.8110621,1.18215768 C13.8418217,1.18215768 13.8725813,1.19751037 13.9187207,1.21286307 C13.9494803,1.22821577 13.9802399,1.25892116 14.0109995,1.28962656 C14.0417591,1.32033195 14.0571389,1.38174274 14.0878985,1.42780083 C14.1032783,1.48921162 14.1032783,1.55062241 14.1032783,1.64273859 C14.0878985,1.76556017 14.1032783,1.88838174 14.1032783,1.98049793 C14.1186581,2.0879668 14.1340379,2.16473029 14.1801774,2.21078838 L13.7803025,2.18008299 C13.7495429,2.1340249 13.7495429,2.07261411 13.7341631,2.02655602 L13.7341631,1.85767635 L13.7341631,1.5966805 C13.7341631,1.51991701 13.7034035,1.45850622 13.6726439,1.41244813 C13.6418843,1.36639004 13.5957449,1.32033195 13.5496055,1.30497925 C13.5034661,1.27427386 13.4265671,1.25892116 13.3342882,1.25892116 L12.7806154,1.22821577 L12.7190962,2.1033195 L12.3499809,2.07261411 L12.5037789,0 Z M12.811375,1.01327801 L13.4265671,1.0593361 C13.5496055,1.0746888 13.6418843,1.0439834 13.7034035,0.997925311 C13.7649227,0.95186722 13.8110621,0.859751037 13.8110621,0.752282158 C13.8110621,0.690871369 13.8110621,0.629460581 13.7956823,0.58340249 C13.7803025,0.537344398 13.7495429,0.506639004 13.7187833,0.47593361 C13.6880237,0.445228216 13.6418843,0.429875519 13.5957449,0.414522822 C13.5496055,0.399170124 13.5034661,0.399170124 13.4573267,0.399170124 L12.8421346,0.353112033 L12.811375,1.01327801 Z" id="Shape"></path>
                            <polygon id="Shape" points="15.1491049 0.230290456 15.5182201 0.307053942 15.3182827 1.25892116 16.456388 0.506639004 16.9024023 0.598755187 15.8873354 1.25892116 16.5179072 2.70207469 16.0565132 2.60995851 15.5797393 1.45850622 15.2106241 1.68879668 15.0568261 2.39502075 14.6877108 2.31825726"></polygon>
                            <path d="M19.5477282,2.34896266 C19.563108,2.28755187 19.563108,2.22614108 19.563108,2.16473029 C19.563108,2.1033195 19.5477282,2.05726141 19.5169686,1.99585062 C19.486209,1.94979253 19.4554494,1.88838174 19.40931,1.85767635 C19.3631706,1.81161826 19.3016514,1.78091286 19.2401322,1.75020747 C19.1324736,1.70414938 19.0401948,1.68879668 18.9479159,1.68879668 C18.8556371,1.70414938 18.7633583,1.71950207 18.6864593,1.78091286 C18.6095603,1.82697095 18.5326613,1.88838174 18.4711421,1.98049793 C18.4096229,2.05726141 18.3634835,2.14937759 18.3173441,2.24149378 C18.2712047,2.33360996 18.2404451,2.42572614 18.2250653,2.53319502 C18.2096855,2.6253112 18.2096855,2.73278008 18.2250653,2.82489627 C18.2404451,2.91701245 18.2712047,2.99377593 18.3327239,3.07053942 C18.3942431,3.1473029 18.4711421,3.20871369 18.5788007,3.25477178 C18.6556997,3.28547718 18.7325987,3.30082988 18.7941179,3.30082988 C18.8710169,3.30082988 18.9325361,3.28547718 18.9940553,3.25477178 C19.0555746,3.22406639 19.1170938,3.193361 19.1632332,3.13195021 C19.2093726,3.08589212 19.255512,3.02448133 19.3016514,2.94771784 L19.640007,3.10124481 C19.5784878,3.20871369 19.5015888,3.31618257 19.4246898,3.39294606 C19.332411,3.46970954 19.2401322,3.53112033 19.1324736,3.56182573 C19.024815,3.59253112 18.9171563,3.62323651 18.7941179,3.60788382 C18.6710795,3.60788382 18.5634209,3.57717842 18.4403825,3.51576763 C18.2865845,3.45435685 18.1789258,3.36224066 18.086647,3.25477178 C17.9943682,3.1473029 17.932849,3.02448133 17.8867096,2.90165975 C17.8405702,2.77883817 17.8405702,2.6406639 17.8405702,2.48713693 C17.85595,2.34896266 17.8867096,2.19543568 17.9482288,2.05726141 C18.009748,1.91908714 18.086647,1.79626556 18.1943056,1.68879668 C18.2865845,1.5813278 18.4096229,1.50456432 18.5326613,1.44315353 C18.6556997,1.38174274 18.7787381,1.35103734 18.9325361,1.35103734 C19.0709544,1.35103734 19.2093726,1.38174274 19.3631706,1.44315353 C19.4708292,1.48921162 19.563108,1.55062241 19.6553868,1.62738589 C19.7476656,1.70414938 19.8091848,1.78091286 19.8553243,1.87302905 C19.9014637,1.96514523 19.9322233,2.05726141 19.9476031,2.16473029 C19.9629829,2.27219917 19.9476031,2.37966805 19.9014637,2.48713693 L19.5477282,2.34896266 Z" id="Shape"></path>
                            <polygon id="Shape" points="20.7165932 2.19543568 21.039569 2.37966805 19.9629829 4.2373444 19.640007 4.05311203"></polygon>
                            <polygon id="Shape" points="21.5163429 2.6560166 22.9312846 3.65394191 22.746727 3.91493776 22.1930541 3.51576763 21.1318478 5.00497925 20.8242518 4.79004149 21.8854581 3.30082988 21.3317852 2.90165975"></polygon>
                            <polygon id="Shape" points="22.900525 5.35809129 23.1927413 3.85352697 23.5157171 4.14522822 23.2850201 5.23526971 24.3462264 4.91286307 24.6538224 5.20456432 23.1773615 5.61908714 22.6083088 6.23319502 22.3314724 5.97219917"></polygon>
                        </g>
                        <g id="Group" transform="translate(1.691778, 21.186722)" fill="#000000">
                            <path d="M2.16855207,0.0921161826 L2.38386929,0.95186722 C2.4300087,1.10539419 2.4300087,1.25892116 2.3992491,1.38174274 C2.36848949,1.50456432 2.32235009,1.62738589 2.24545108,1.71950207 C2.16855207,1.81161826 2.07627326,1.90373444 1.95323484,1.96514523 C1.83019643,2.02655602 1.70715801,2.0879668 1.56873979,2.1186722 C1.43032158,2.14937759 1.29190336,2.16473029 1.15348514,2.16473029 C1.01506693,2.16473029 0.89202851,2.1340249 0.784369897,2.0879668 C0.676711284,2.04190871 0.56905267,1.96514523 0.492153661,1.85767635 C0.415254651,1.75020747 0.353735444,1.62738589 0.307596038,1.45850622 L0.0922788114,0.598755187 L2.16855207,0.0921161826 Z M0.476773859,0.905809129 L0.56905267,1.25892116 C0.599812274,1.39709544 0.64595168,1.50456432 0.707470887,1.5966805 C0.768990095,1.67344398 0.845889105,1.73485477 0.922788114,1.76556017 C0.999687124,1.79626556 1.09196593,1.81161826 1.18424475,1.81161826 C1.27652356,1.81161826 1.38418217,1.79626556 1.49184078,1.76556017 C1.5994994,1.73485477 1.69177821,1.70414938 1.78405702,1.65809129 C1.87633583,1.6120332 1.93785504,1.5659751 1.99937425,1.48921162 C2.06089345,1.42780083 2.09165306,1.33568465 2.10703286,1.24356846 C2.12241266,1.15145228 2.10703286,1.02863071 2.07627326,0.875103734 L1.98399445,0.521991701 L0.476773859,0.905809129 Z" id="Shape"></path>
                            <polygon id="Shape" points="2.72222494 2.1340249 3.2143786 3.37759336 2.90678256 3.50041494 2.53766731 2.54854772 2.01475405 2.74813278 2.35310969 3.62323651 2.06089345 3.73070539 1.72253781 2.85560166 1.13810534 3.08589212 1.52260039 4.05311203 1.21500435 4.17593361 0.722850689 2.90165975"></polygon>
                            <path d="M3.33741701,3.63858921 L3.76805147,4.43692946 C3.82957067,4.55975104 3.87571008,4.68257261 3.87571008,4.7746888 C3.87571008,4.88215768 3.86033028,4.95892116 3.82957067,5.03568465 C3.79881107,5.11244813 3.75267166,5.17385892 3.69115246,5.21991701 C3.62963325,5.2659751 3.56811404,5.3120332 3.50659483,5.34273859 C3.44507563,5.37344398 3.38355642,5.40414938 3.30665741,5.41950207 C3.2297584,5.43485477 3.15285939,5.45020747 3.07596038,5.43485477 C2.99906137,5.41950207 2.90678256,5.38879668 2.82988355,5.32738589 C2.75298454,5.2659751 2.67608553,5.17385892 2.59918652,5.05103734 L2.33772989,4.57510373 L1.6148792,4.95892116 L1.44570138,4.65186722 L3.33741701,3.63858921 Z M2.61456632,4.42157676 L2.86064315,4.88215768 C2.87602296,4.91286307 2.90678256,4.94356846 2.93754216,4.97427386 C2.96830177,5.00497925 2.99906137,5.03568465 3.04520078,5.05103734 C3.09134018,5.06639004 3.13747959,5.08174274 3.18361899,5.08174274 C3.2297584,5.08174274 3.29127761,5.06639004 3.35279681,5.03568465 C3.41431602,5.00497925 3.46045543,4.97427386 3.49121503,4.92821577 C3.52197464,4.88215768 3.53735444,4.85145228 3.55273424,4.80539419 C3.56811404,4.7593361 3.55273424,4.72863071 3.55273424,4.68257261 C3.53735444,4.63651452 3.52197464,4.60580913 3.50659483,4.55975104 L3.260518,4.09917012 L2.61456632,4.42157676 Z" id="Shape"></path>
                            <path d="M4.44476275,5.54232365 L4.66007998,5.84937759 L3.33741701,7.70705394 L3.12209979,7.4 L3.47583523,6.92406639 L3.01444117,6.24854772 L2.4453885,6.41742739 L2.23007128,6.11037344 L4.44476275,5.54232365 Z M3.30665741,6.17178423 L3.66039285,6.67842324 L4.24482532,5.91078838 L4.24482532,5.91078838 L3.30665741,6.17178423 Z" id="Shape"></path>
                            <path d="M5.21375284,6.61701245 L5.84432472,7.32323651 C5.98274294,7.49211618 6.05964195,7.64564315 6.05964195,7.78381743 C6.05964195,7.9373444 5.98274294,8.07551867 5.84432472,8.18298755 C5.76742571,8.24439834 5.6905267,8.29045643 5.6290075,8.32116183 C5.56748829,8.35186722 5.50596908,8.35186722 5.44444987,8.35186722 C5.38293067,8.35186722 5.33679126,8.35186722 5.30603166,8.33651452 C5.27527205,8.32116183 5.24451245,8.30580913 5.22913265,8.30580913 L5.22913265,8.30580913 C5.24451245,8.33651452 5.25989225,8.36721992 5.27527205,8.39792531 C5.29065185,8.42863071 5.29065185,8.4746888 5.27527205,8.52074689 C5.25989225,8.56680498 5.24451245,8.61286307 5.22913265,8.65892116 C5.19837304,8.70497925 5.15223364,8.76639004 5.09071443,8.82780083 C4.99843562,8.90456432 4.92153661,8.9966805 4.8446376,9.07344398 C4.78311839,9.15020747 4.73697899,9.22697095 4.73697899,9.28838174 L4.49090215,9.0120332 C4.50628196,8.9659751 4.53704156,8.91991701 4.56780116,8.87385892 C4.61394057,8.82780083 4.64470017,8.79709544 4.69083958,8.76639004 C4.76773859,8.70497925 4.8292578,8.64356846 4.8753972,8.58215768 C4.92153661,8.52074689 4.95229621,8.4746888 4.96767601,8.41327801 C4.98305582,8.36721992 4.98305582,8.30580913 4.96767601,8.25975104 C4.95229621,8.21369295 4.92153661,8.15228216 4.8600174,8.09087137 L4.52166176,7.70705394 L3.86033028,8.29045643 L3.62963325,8.02946058 L5.21375284,6.61701245 Z M4.70621938,7.52282158 L5.09071443,7.9373444 C5.16761344,8.01410788 5.24451245,8.06016598 5.32141146,8.06016598 C5.39831047,8.06016598 5.49058928,8.02946058 5.56748829,7.9526971 C5.61362769,7.906639 5.6597671,7.86058091 5.6751469,7.81452282 C5.6905267,7.76846473 5.70590651,7.73775934 5.70590651,7.69170124 C5.70590651,7.64564315 5.6905267,7.61493776 5.6751469,7.58423237 C5.6597671,7.55352697 5.6290075,7.50746888 5.59824789,7.47676349 L5.22913265,7.06224066 L4.70621938,7.52282158 Z" id="Shape"></path>
                            <polygon id="Shape" points="6.36723799 7.89128631 7.48996353 8.88921162 7.2746463 9.13485477 6.82863204 8.73568465 5.61362769 10.1020747 5.36755086 9.88713693 6.58255521 8.52074689 6.15192076 8.13692946"></polygon>
                            <polygon id="Shape" points="7.67452115 9.04273859 8.0590162 9.30373444 7.55148273 10.9925311 7.55148273 10.9925311 8.9202851 9.88713693 9.30478015 10.1481328 8.1051556 11.9290456 7.84369897 11.7448133 8.76648708 10.3784232 8.76648708 10.3784232 7.39768471 11.453112 7.16698769 11.2995851 7.65914135 9.62614108 7.65914135 9.62614108 6.73635323 10.9925311 6.4748966 10.8082988"></polygon>
                            <polygon id="Shape" points="9.62775599 10.3170124 10.8273805 10.9157676 10.6889623 11.2074689 9.78155401 10.746888 9.53547718 11.253527 10.3813663 11.6680498 10.2429481 11.9443983 9.39705896 11.5298755 9.12022253 12.0979253 10.0430106 12.5585062 9.90459242 12.8502075 8.68958807 12.2360996"></polygon>
                            <polygon id="Shape" points="11.0734574 11.0078838 11.411813 11.1307054 11.7040292 12.9116183 11.7040292 12.9116183 12.2423223 11.4224066 12.5499184 11.5298755 11.8270677 13.5410788 11.488712 13.4182573 11.1964958 11.6373444 11.1964958 11.6373444 10.6582027 13.126556 10.3506067 13.0190871"></polygon>
                            <polygon id="Shape" points="12.7037164 11.5912863 14.1801774 11.9290456 14.1032783 12.2514523 13.5188459 12.113278 13.1035912 13.8788382 12.7806154 13.8020747 13.19587 12.0365145 12.6268174 11.8983402"></polygon>
                            <path d="M16.1334122,12.2207469 C16.2718304,12.2207469 16.3948688,12.266805 16.5025274,12.3128631 C16.6101861,12.3742739 16.7024649,12.4510373 16.7793639,12.5431535 C16.8562629,12.6352697 16.9024023,12.7427386 16.9485417,12.8655602 C16.9793013,12.9883817 16.9946811,13.1112033 16.9946811,13.2493776 C16.9946811,13.3875519 16.9639215,13.5103734 16.9177821,13.633195 C16.8716427,13.7560166 16.8101235,13.8481328 16.7332245,13.940249 C16.6563255,14.0323651 16.5486668,14.0937759 16.4410082,14.139834 C16.3333496,14.1858921 16.1949314,14.2012448 16.0565132,14.2012448 C15.918095,14.2012448 15.7950566,14.1705394 15.6873979,14.1091286 C15.5797393,14.0477178 15.4874605,13.9709544 15.4105615,13.8788382 C15.3336625,13.786722 15.2875231,13.6792531 15.2413837,13.5564315 C15.2106241,13.43361 15.1952443,13.3107884 15.1952443,13.1726141 C15.1952443,13.0344398 15.2260039,12.9116183 15.2721433,12.8041494 C15.3182827,12.6813278 15.3798019,12.5892116 15.4567009,12.4970954 C15.5335999,12.4049793 15.6412585,12.3435685 15.7489171,12.2975104 C15.8565758,12.2360996 15.9796142,12.2053942 16.1334122,12.2207469 Z M16.1180324,12.4817427 C16.0257536,12.4817427 15.9334748,12.4970954 15.8565758,12.5278008 C15.7796768,12.5585062 15.7181575,12.619917 15.6720181,12.6813278 C15.6258787,12.7427386 15.5797393,12.8195021 15.5643595,12.9116183 C15.5335999,13.0037344 15.5182201,13.0804979 15.5182201,13.1726141 C15.5182201,13.2647303 15.5182201,13.3568465 15.5335999,13.43361 C15.5489797,13.5257261 15.5797393,13.6024896 15.6258787,13.6639004 C15.6720181,13.7406639 15.7181575,13.786722 15.7950566,13.8327801 C15.8719556,13.8788382 15.9488546,13.8941909 16.0565132,13.9095436 C16.148792,13.9095436 16.2410708,13.8941909 16.3179698,13.8634855 C16.3948688,13.8327801 16.456388,13.7713693 16.5025274,13.7099585 C16.5486668,13.6485477 16.5948063,13.5717842 16.6101861,13.479668 C16.6409457,13.3875519 16.6563255,13.3107884 16.6563255,13.2186722 C16.6563255,13.126556 16.6563255,13.0344398 16.6409457,12.9576763 C16.6255659,12.8655602 16.5948063,12.7887967 16.5486668,12.7273859 C16.5025274,12.6506224 16.456388,12.6045643 16.379489,12.5585062 C16.30259,12.5124481 16.2103112,12.4970954 16.1180324,12.4817427 Z" id="Shape"></path>
                            <polygon id="Shape" points="17.2868973 12.2821577 18.5788007 12.1900415 18.5941805 12.46639 17.625253 12.5278008 17.6560126 13.0190871 18.5019017 12.9576763 18.5172815 13.2186722 17.6713924 13.280083 17.7329116 14.1091286 17.4099358 14.1244813"></polygon>
                            <path d="M20.5012759,13.1726141 C20.5166557,13.2493776 20.5474153,13.3107884 20.5935547,13.3721992 C20.6396942,13.4182573 20.6858336,13.4643154 20.7473528,13.479668 C20.808872,13.5103734 20.8703912,13.5103734 20.9319104,13.5103734 C20.9934296,13.5103734 21.0703286,13.4950207 21.1472276,13.479668 C21.2241266,13.4643154 21.2856458,13.43361 21.347165,13.4029046 C21.3933044,13.3721992 21.4394438,13.3414938 21.4702035,13.2954357 C21.5009631,13.2647303 21.5163429,13.2186722 21.5163429,13.1726141 L21.5163429,13.0497925 C21.5009631,12.973029 21.4548237,12.9116183 21.4086842,12.8809129 C21.3625448,12.8502075 21.3164054,12.8348548 21.270266,12.8348548 C21.193367,12.8195021 21.1010882,12.8195021 20.9934296,12.8195021 L20.6089345,12.8195021 C20.5166557,12.8195021 20.4243769,12.8041494 20.3628577,12.7887967 C20.3013385,12.773444 20.2398193,12.7427386 20.1936799,12.6966805 C20.1475405,12.6659751 20.1014011,12.619917 20.0860213,12.5738589 C20.0552617,12.5278008 20.0398819,12.4817427 20.0245021,12.420332 C19.9937425,12.3128631 19.9937425,12.2207469 20.0245021,12.1286307 C20.0552617,12.0365145 20.0860213,11.959751 20.1475405,11.8983402 C20.2090597,11.8215768 20.2705789,11.7755187 20.3628577,11.7294606 C20.4551365,11.6834025 20.5320355,11.6526971 20.6243143,11.6219917 C20.731973,11.5912863 20.8396316,11.5759336 20.9472902,11.5912863 C21.0549488,11.5912863 21.1472276,11.606639 21.2395064,11.6526971 C21.3317852,11.6834025 21.4086842,11.7448133 21.4702035,11.8215768 C21.5317227,11.8983402 21.5778621,11.9751037 21.6086217,12.0979253 L21.2395064,12.1900415 C21.193367,12.0518672 21.1318478,11.9751037 21.0241892,11.9443983 C20.9319104,11.9136929 20.8242518,11.9136929 20.6858336,11.9443983 C20.6396942,11.959751 20.5935547,11.9751037 20.5627951,11.9904564 C20.5166557,12.0058091 20.4858961,12.0365145 20.4551365,12.0672199 C20.4243769,12.0979253 20.3936173,12.1286307 20.3782375,12.1746888 C20.3628577,12.2207469 20.3628577,12.266805 20.3782375,12.3128631 C20.3936173,12.3896266 20.4397567,12.4356846 20.4858961,12.46639 C20.5474153,12.4970954 20.6089345,12.5124481 20.6858336,12.5124481 L20.7781124,12.5124481 L20.96267,12.5124481 L21.1626074,12.5124481 L21.3010256,12.5124481 C21.3779246,12.5124481 21.4394438,12.5278008 21.5009631,12.5585062 C21.5624823,12.5892116 21.6086217,12.619917 21.6547611,12.6506224 C21.7009005,12.6966805 21.7470399,12.7273859 21.7777995,12.7887967 C21.8085591,12.8348548 21.8239389,12.8962656 21.8393187,12.9423237 C21.8700783,13.0651452 21.8700783,13.1572614 21.8393187,13.2647303 C21.8085591,13.3568465 21.7624197,13.4489627 21.7009005,13.5103734 C21.6393813,13.5871369 21.5624823,13.6485477 21.4702035,13.6946058 C21.3779246,13.7406639 21.2856458,13.786722 21.1779872,13.8174274 C21.0549488,13.8481328 20.9472902,13.8634855 20.8242518,13.8634855 C20.7165932,13.8634855 20.6089345,13.8481328 20.5166557,13.8020747 C20.4243769,13.7560166 20.3474779,13.6946058 20.2705789,13.6178423 C20.1936799,13.5410788 20.1475405,13.43361 20.1167809,13.3107884 L20.5012759,13.1726141 Z" id="Shape"></path>
                            <path d="M22.3776118,11.0846473 L22.746727,10.9311203 L24.3308466,12.5892116 L23.9617314,12.7427386 L23.5618565,12.2975104 L22.7774866,12.619917 L22.8082462,13.2186722 L22.4545108,13.3721992 L22.3776118,11.0846473 Z M22.7621068,12.3282158 L23.3619191,12.0825726 L22.7159674,11.3609959 L22.7005876,11.3609959 L22.7621068,12.3282158 Z" id="Shape"></path>
                            <polygon id="Shape" points="23.7310343 10.4858921 24.0540102 10.2863071 25.6688894 11.1614108 25.6688894 11.1614108 24.8537599 9.81037344 25.1459761 9.64149378 26.2533218 11.4838174 25.930346 11.6834025 24.3308466 10.8082988 24.3308466 10.8082988 25.1459761 12.1593361 24.8537599 12.3282158"></polygon>
                            <polygon id="Shape" points="25.5919904 9.30373444 25.8995864 9.07344398 27.1914898 10.7929461 26.8838937 11.0232365"></polygon>
                            <polygon id="Shape" points="26.2071824 8.87385892 27.4990858 7.70705394 27.714403 7.9526971 27.2068696 8.41327801 28.4372537 9.76431535 28.1604173 10.0099585 26.9300331 8.65892116 26.4224997 9.11950207"></polygon>
                            <path d="M27.9143404,7.21576763 L28.1757971,6.90871369 L30.3443492,7.69170124 L30.0828925,7.99875519 L29.5292196,7.78381743 L28.960167,8.42863071 L29.2523832,8.95062241 L28.9909266,9.24232365 L27.9143404,7.21576763 Z M28.806369,8.15228216 L29.2370034,7.66099585 L28.3295951,7.29253112 L28.3295951,7.29253112 L28.806369,8.15228216 Z" id="Shape"></path>
                            <polygon id="Shape" points="28.6064315 6.41742739 29.5907389 4.98962656 29.8521955 5.17385892 29.4677004 5.74190871 30.974921 6.77053942 30.7596038 7.07759336 29.2523832 6.04896266 28.8678882 6.60165975"></polygon>
                            <polygon id="Shape" points="29.7752965 4.65186722 29.9598541 4.32946058 31.8361899 5.37344398 31.6516323 5.69585062"></polygon>
                            <path d="M30.5442866,2.97842324 C30.6058058,2.82489627 30.6827048,2.70207469 30.7903634,2.60995851 C30.898022,2.51784232 31.0056806,2.44107884 31.1440988,2.41037344 C31.2825171,2.37966805 31.4055555,2.34896266 31.5593535,2.36431535 C31.6977717,2.37966805 31.8515697,2.41037344 31.989988,2.47178423 C32.1284062,2.53319502 32.2514446,2.60995851 32.3591032,2.70207469 C32.4667618,2.79419087 32.5436608,2.90165975 32.60518,3.02448133 C32.6666992,3.1473029 32.6974588,3.27012448 32.6974588,3.40829876 C32.6974588,3.54647303 32.682079,3.6846473 32.6205598,3.83817427 C32.5590406,3.99170124 32.4821416,4.11452282 32.374483,4.206639 C32.2668244,4.29875519 32.1591658,4.37551867 32.0207476,4.40622407 C31.8977091,4.45228216 31.7592909,4.46763485 31.6054929,4.45228216 C31.4670747,4.43692946 31.3132767,4.40622407 31.1748585,4.34481328 C31.0364402,4.28340249 30.9134018,4.206639 30.8057432,4.11452282 C30.6980846,4.02240664 30.6211856,3.91493776 30.5596664,3.79211618 C30.4981472,3.66929461 30.4673876,3.54647303 30.4520078,3.39294606 C30.4520078,3.27012448 30.4827674,3.13195021 30.5442866,2.97842324 Z M30.821123,3.10124481 C30.7749836,3.20871369 30.7596038,3.30082988 30.7749836,3.40829876 C30.7903634,3.50041494 30.821123,3.59253112 30.8672624,3.66929461 C30.9134018,3.74605809 30.9903008,3.82282158 31.0671998,3.88423237 C31.1440988,3.94564315 31.2363777,3.99170124 31.3286565,4.03775934 C31.4209353,4.08381743 31.5132141,4.09917012 31.6208727,4.11452282 C31.7285313,4.12987552 31.8208101,4.12987552 31.9130889,4.11452282 C32.0053678,4.09917012 32.0822668,4.05311203 32.1591658,3.99170124 C32.2360648,3.93029046 32.297584,3.85352697 32.3437234,3.74605809 C32.3898628,3.63858921 32.4052426,3.54647303 32.3898628,3.43900415 C32.374483,3.34688797 32.3437234,3.25477178 32.297584,3.1780083 C32.2514446,3.10124481 32.1745456,3.02448133 32.0976466,2.96307054 C32.0207476,2.90165975 31.9284687,2.85560166 31.8361899,2.80954357 C31.7439111,2.76348548 31.6516323,2.74813278 31.5439737,2.73278008 C31.4363151,2.71742739 31.3440363,2.71742739 31.2517575,2.73278008 C31.1594787,2.74813278 31.0825796,2.79419087 31.0056806,2.85560166 C30.9287816,2.90165975 30.8672624,2.99377593 30.821123,3.10124481 Z" id="Shape"></path>
                            <polygon id="Shape" points="31.0979594 1.67344398 31.1902383 1.30497925 32.9435357 0.782987552 32.9435357 0.782987552 31.4055555 0.399170124 31.4824545 0.0767634855 33.5741075 0.598755187 33.4818287 0.967219917 31.7285313 1.48921162 31.7285313 1.50456432 33.2665115 1.88838174 33.1896125 2.21078838"></polygon>
                        </g>
                        <g id="Group" transform="translate(1.384182, 10.439834)">
                            <g id="XMLID_22_" transform="translate(9.689275, 5.219917)">
                                <path d="M6.444137,0.184232365 L0.292216236,4.12987552 C0.292216236,4.12987552 0.953547718,5.57302905 1.30728316,5.57302905 C3.47583523,5.61908714 7.95135758,1.22821577 7.95135758,1.22821577 L6.444137,0.184232365 Z" id="Shape" fill="#FFFFFF"></path>
                                <path d="M1.32266296,5.72655602 L1.29190336,5.72655602 C0.89202851,5.71120332 0.369115246,4.65186722 0.153798019,4.19128631 L0.107658613,4.08381743 L6.444137,0.0153526971 L8.15129501,1.22821577 L8.02825659,1.35103734 C7.84369897,1.51991701 3.53735444,5.72655602 1.32266296,5.72655602 Z M0.461394057,4.19128631 C0.784369897,4.86680498 1.15348514,5.43485477 1.29190336,5.45020747 L1.32266296,5.45020747 C3.2297584,5.45020747 6.99780986,1.94979253 7.70528075,1.25892116 L6.42875719,0.353112033 L0.461394057,4.19128631 Z" id="Shape" fill="#000000"></path>
                            </g>
                            <g id="XMLID_21_" transform="translate(7.689901, 4.145228)">
                                <path d="M6.99780986,0.245643154 L0.276836434,4.37551867 C0.276836434,4.37551867 0.938167916,5.8186722 1.29190336,5.8186722 C3.46045543,5.86473029 8.50503045,1.28962656 8.50503045,1.28962656 L6.99780986,0.245643154 Z" id="Shape" fill="#FFFFFF"></path>
                                <path d="M1.32266296,5.95684647 L1.29190336,5.95684647 C0.89202851,5.95684647 0.369115246,4.88215768 0.153798019,4.42157676 L0.107658613,4.31410788 L7.01318967,0.0614107884 L8.72034768,1.25892116 L8.59730926,1.38174274 C8.38199204,1.5813278 3.53735444,5.95684647 1.32266296,5.95684647 Z M0.461394057,4.43692946 C0.784369897,5.11244813 1.15348514,5.68049793 1.29190336,5.69585062 L1.32266296,5.69585062 C3.2451382,5.69585062 7.47458372,2.01120332 8.27433342,1.32033195 L6.99780986,0.414522822 L0.461394057,4.43692946 Z" id="Shape" fill="#000000"></path>
                            </g>
                            <g id="XMLID_20_" transform="translate(6.151921, 3.070539)">
                                <path d="M6.95167046,0.184232365 L0.230697029,4.31410788 C0.230697029,4.31410788 0.89202851,5.75726141 1.24576395,5.75726141 C3.41431602,5.8033195 8.45889105,1.22821577 8.45889105,1.22821577 L6.95167046,0.184232365 Z" id="Shape" fill="#FFFFFF"></path>
                                <path d="M1.26114376,5.91078838 L1.23038415,5.91078838 C0.830509303,5.89543568 0.307596038,4.83609959 0.0922788114,4.37551867 L0.0461394057,4.26804979 L6.95167046,0.0153526971 L8.65882847,1.21286307 L8.53579005,1.33568465 C8.32047283,1.53526971 3.47583523,5.91078838 1.26114376,5.91078838 Z M0.399874849,4.37551867 C0.722850689,5.05103734 1.09196593,5.61908714 1.23038415,5.63443983 L1.26114376,5.63443983 C3.18361899,5.63443983 7.41306452,1.94979253 8.21281421,1.25892116 L6.93629066,0.353112033 L0.399874849,4.37551867 Z" id="Shape" fill="#000000"></path>
                            </g>
                            <g id="XMLID_19_" transform="translate(3.383556, 2.302905)">
                                <path d="M8.79724669,0.291701245 L0.215317227,4.19128631 C0.215317227,4.19128631 0.753610293,5.38879668 1.13810534,5.43485477 C3.52197464,5.75726141 10.3198471,1.22821577 10.3198471,1.22821577 L8.79724669,0.291701245 Z" id="Shape" fill="#FFFFFF"></path>
                                <path d="M1.39956197,5.58838174 C1.30728316,5.58838174 1.19962455,5.58838174 1.12272554,5.57302905 C0.676711284,5.51161826 0.184557623,4.45228216 0.0922788114,4.2373444 L0.0307596038,4.11452282 L8.81262649,0.138174274 L10.5813037,1.22821577 L10.3967461,1.35103734 C10.1352895,1.53526971 3.99874849,5.58838174 1.39956197,5.58838174 Z M0.384495048,4.2526971 C0.630571878,4.7593361 0.96892752,5.2813278 1.15348514,5.2966805 C3.2451382,5.58838174 8.98180431,1.94979253 10.0737702,1.24356846 L8.78186689,0.445228216 L0.384495048,4.2526971 Z" id="Shape" fill="#000000"></path>
                            </g>
                            <g id="XMLID_18_" transform="translate(0.000000, 1.228216)">
                                <path d="M11.8885869,0.245643154 C11.8885869,0.245643154 2.76836434,3.1780083 0.353735444,3.80746888 C-0.199937425,3.94564315 0.96892752,5.8033195 1.35342257,5.88008299 C2.98368157,6.21784232 12.657577,1.12074689 12.2730819,1.36639004 L11.8885869,0.245643154 Z" id="Shape" fill="#FFFFFF"></path>
                                <path d="M1.52260039,6.04896266 C1.44570138,6.04896266 1.38418217,6.04896266 1.32266296,6.03360996 C0.922788114,5.94149378 0.0768990095,4.62116183 0.0615192076,4.06846473 C0.0615192076,3.77676349 0.230697029,3.7 0.307596038,3.6846473 C2.70684513,3.07053942 11.7501687,0.153526971 11.8424475,0.122821577 L11.9654859,0.0767634855 L12.3653607,1.27427386 C12.3653607,1.28962656 12.3807405,1.28962656 12.3807405,1.30497925 L12.4422597,1.41244813 L12.1808031,1.5966805 L12.1654233,1.5659751 C12.0270051,1.62738589 11.7809283,1.75020747 11.5194716,1.88838174 C7.90521818,3.7 3.02982097,6.04896266 1.52260039,6.04896266 Z M11.7963081,0.414522822 C10.6735825,0.782987552 2.61456632,3.36224066 0.384495048,3.94564315 C0.369115246,3.94564315 0.338355642,3.96099585 0.338355642,4.05311203 C0.353735444,4.57510373 1.16886494,5.71120332 1.38418217,5.75726141 C1.43032158,5.77261411 1.49184078,5.77261411 1.55335999,5.77261411 C3.13747959,5.77261411 9.33553975,2.68672199 11.411813,1.64273859 C11.7501687,1.47385892 11.9654859,1.36639004 12.1039041,1.30497925 L11.7963081,0.414522822 Z" id="Shape" fill="#000000"></path>
                            </g>
                            <g id="XMLID_15_" transform="translate(8.920285, 0.000000)">
                                <path d="M8.01287679,6.07966805 C7.3054059,5.86473029 6.25957937,5.48091286 5.58286809,4.80539419 C5.07533463,4.31410788 4.52166176,3.56182573 4.50628196,3.56182573 C4.47552235,3.53112033 4.44476275,3.50041494 4.39862334,3.50041494 L4.39862334,3.50041494 L4.22944552,3.50041494 C3.47583523,3.50041494 3.18361899,3.43900415 3.13747959,3.40829876 C3.07596038,3.31618257 3.04520078,2.71742739 3.07596038,2.21078838 C3.07596038,2.16473029 3.06058058,2.1340249 3.02982097,2.1033195 C2.99906137,2.07261411 2.96830177,2.05726141 2.93754216,2.05726141 C2.93754216,2.05726141 2.93754216,2.05726141 2.92216236,2.05726141 C2.90678256,2.05726141 1.46108118,2.16473029 0.630571878,2.18008299 C1.01506693,1.98049793 1.41494177,1.71950207 1.84557623,1.45850622 C2.78374414,0.859751037 3.86033028,0.184232365 4.70621938,0.184232365 C5.59824789,0.184232365 6.13654096,0.997925311 6.35185818,2.67136929 C6.58255521,4.54439834 7.39768471,5.55767635 8.01287679,6.07966805 Z" id="Shape" fill="#FFFFFF"></path>
                                <path d="M4.70621938,0.322406639 C4.99843562,0.322406639 5.92122373,0.322406639 6.21343997,2.68672199 C6.39799759,4.19128631 6.95167046,5.15850622 7.48996353,5.75726141 C6.87477145,5.52697095 6.16730056,5.18921162 5.6751469,4.69792531 C5.18299324,4.206639 4.61394057,3.46970954 4.61394057,3.46970954 C4.56780116,3.39294606 4.47552235,3.36224066 4.39862334,3.36224066 L4.39862334,3.36224066 L4.24482532,3.36224066 C3.67577265,3.36224066 3.38355642,3.33153527 3.2758978,3.30082988 C3.2297584,3.13195021 3.2143786,2.6560166 3.2451382,2.21078838 C3.2451382,2.1340249 3.2143786,2.05726141 3.16823919,1.99585062 C3.12209979,1.94979253 3.04520078,1.91908714 2.96830177,1.91908714 L2.95292196,1.91908714 C2.93754216,1.91908714 2.03013385,1.98049793 1.24576395,2.02655602 C1.47646098,1.88838174 1.72253781,1.73485477 1.96861464,1.5813278 C2.86064315,0.997925311 3.92184948,0.322406639 4.70621938,0.322406639 L4.70621938,0.322406639 Z M4.70621938,0.0460580913 C3.29127761,0.0460580913 1.39956197,1.79626556 0.123038415,2.25684647 C-1.13287157e-12,2.30290456 0.138418217,2.31825726 0.399874849,2.31825726 C1.15348514,2.31825726 2.93754216,2.19543568 2.93754216,2.19543568 C2.93754216,2.19543568 2.87602296,3.36224066 3.04520078,3.50041494 C3.18361899,3.60788382 3.89108988,3.62323651 4.21406572,3.62323651 L4.38324354,3.62323651 C4.38324354,3.62323651 4.95229621,4.37551867 5.47520948,4.88215768 C6.64407442,6.01825726 8.75110728,6.38672199 8.75110728,6.38672199 C8.75110728,6.38672199 6.85939165,5.61908714 6.4748966,2.6406639 C6.24419957,0.690871369 5.56748829,0.0460580913 4.70621938,0.0460580913 L4.70621938,0.0460580913 Z" id="Shape" fill="#000000"></path>
                            </g>
                        </g>
                        <g id="Group" transform="translate(17.840570, 10.439834)">
                            <g id="XMLID_26_" transform="translate(0.000000, 5.219917)">
                                <path d="M1.79943682,0.184232365 L7.95135758,4.12987552 C7.95135758,4.12987552 7.2900261,5.57302905 6.93629066,5.57302905 C4.76773859,5.61908714 0.292216236,1.22821577 0.292216236,1.22821577 L1.79943682,0.184232365 Z" id="Shape" fill="#FFFFFF"></path>
                                <path d="M6.90553105,5.71120332 C4.69083958,5.71120332 0.384495048,1.50456432 0.199937425,1.32033195 L0.0768990095,1.19751037 L1.78405702,0 L8.1205354,4.06846473 L8.074396,4.17593361 C7.85907877,4.63651452 7.33616551,5.69585062 6.93629066,5.71120332 L6.90553105,5.71120332 Z M0.507533463,1.25892116 C1.23038415,1.94979253 4.99843562,5.45020747 6.89015125,5.45020747 L6.92091086,5.45020747 C7.05932907,5.43485477 7.44382412,4.86680498 7.75142016,4.19128631 L1.76867722,0.353112033 L0.507533463,1.25892116 Z" id="Shape" fill="#000000"></path>
                            </g>
                            <g id="XMLID_25_" transform="translate(1.384182, 4.145228)">
                                <path d="M1.84557623,0.230290456 L8.56654966,4.36016598 C8.56654966,4.36016598 7.90521818,5.8033195 7.55148273,5.8033195 C5.38293067,5.84937759 0.338355642,1.27427386 0.338355642,1.27427386 L1.84557623,0.230290456 Z" id="Shape" fill="#FFFFFF"></path>
                                <path d="M7.52072313,5.95684647 C5.30603166,5.95684647 0.461394057,1.5813278 0.261456632,1.38174274 L0.138418217,1.25892116 L1.84557623,0.0614107884 L8.75110728,4.31410788 L8.70496788,4.42157676 C8.48965065,4.88215768 7.96673738,5.94149378 7.56686254,5.95684647 L7.52072313,5.95684647 Z M0.56905267,1.30497925 C1.36880237,2.01120332 5.59824789,5.68049793 7.52072313,5.68049793 L7.55148273,5.68049793 C7.68990095,5.66514523 8.074396,5.09709544 8.38199204,4.42157676 L1.84557623,0.399170124 L0.56905267,1.30497925 Z" id="Shape" fill="#000000"></path>
                            </g>
                            <g id="XMLID_24_" transform="translate(3.075960, 3.070539)">
                                <path d="M1.73791761,0.184232365 L8.45889105,4.31410788 C8.45889105,4.31410788 7.79755956,5.75726141 7.44382412,5.75726141 C5.27527205,5.8033195 0.230697029,1.22821577 0.230697029,1.22821577 L1.73791761,0.184232365 Z" id="Shape" fill="#FFFFFF"></path>
                                <path d="M7.42844432,5.89543568 C5.21375284,5.89543568 0.369115246,1.51991701 0.169177821,1.32033195 L0.0461394057,1.19751037 L1.75329742,0 L8.65882847,4.2526971 L8.61268906,4.36016598 C8.39737184,4.82074689 7.87445857,5.88008299 7.47458372,5.89543568 C7.44382412,5.89543568 7.44382412,5.89543568 7.42844432,5.89543568 Z M0.476773859,1.24356846 C1.27652356,1.94979253 5.50596908,5.61908714 7.42844432,5.61908714 L7.45920392,5.61908714 C7.59762214,5.60373444 7.98211719,5.03568465 8.28971322,4.36016598 L1.75329742,0.337759336 L0.476773859,1.24356846 Z" id="Shape" fill="#000000"></path>
                            </g>
                            <g id="XMLID_17_" transform="translate(3.844950, 2.302905)">
                                <path d="M1.89171563,0.276348548 L10.4736451,4.17593361 C10.4736451,4.17593361 9.93535203,5.37344398 9.55085698,5.41950207 C7.16698769,5.74190871 0.353735444,1.22821577 0.353735444,1.22821577 L1.89171563,0.276348548 Z" id="Shape" fill="#FFFFFF"></path>
                                <path d="M9.28940035,5.57302905 C6.69021383,5.57302905 0.553672868,1.51991701 0.276836434,1.33568465 L0.0922788114,1.21286307 L1.87633583,0.10746888 L10.6582027,4.08381743 L10.5966835,4.206639 C10.5044047,4.42157676 9.99687124,5.48091286 9.56623678,5.54232365 C9.48933777,5.57302905 9.39705896,5.57302905 9.28940035,5.57302905 Z M0.615192076,1.22821577 C1.70715801,1.93443983 7.44382412,5.57302905 9.53547718,5.2813278 C9.7200348,5.25062241 10.0583904,4.7439834 10.3044673,4.2373444 L1.90709544,0.429875519 L0.615192076,1.22821577 Z" id="Shape" fill="#000000"></path>
                            </g>
                            <g id="XMLID_13_" transform="translate(5.382931, 1.228216)">
                                <path d="M0.64595168,0.245643154 C0.64595168,0.245643154 9.76617421,3.1780083 12.1808031,3.80746888 C12.734476,3.94564315 11.565611,5.8033195 11.181116,5.88008299 C9.55085698,6.21784232 -0.123038415,1.12074689 0.261456632,1.36639004 L0.64595168,0.245643154 Z" id="Shape" fill="#FFFFFF"></path>
                                <path d="M11.0119382,6.03360996 C9.50471757,6.03360996 4.61394057,3.6846473 0.999687124,1.87302905 C0.722850689,1.73485477 0.492153661,1.6120332 0.353735444,1.55062241 L0.338355642,1.5813278 L0.0768990095,1.41244813 L0.138418217,1.28962656 C0.153798019,1.27427386 0.153798019,1.25892116 0.153798019,1.25892116 L0.553672868,0.0614107884 L0.676711284,0.10746888 C0.768990095,0.138174274 9.81231361,3.05518672 12.2115627,3.66929461 C12.2884617,3.6846473 12.4730193,3.76141079 12.4576395,4.05311203 C12.4422597,4.60580913 11.5963706,5.92614108 11.1964958,6.01825726 C11.1657362,6.03360996 11.0888372,6.03360996 11.0119382,6.03360996 Z M0.446014255,1.30497925 C0.584432472,1.36639004 0.799749699,1.47385892 1.13810534,1.64273859 C3.30665741,2.73278008 9.91997223,6.01825726 11.1657362,5.75726141 C11.3656736,5.71120332 12.1961829,4.57510373 12.2115627,4.05311203 C12.2115627,3.96099585 12.1808031,3.94564315 12.1654233,3.94564315 C9.91997223,3.36224066 1.87633583,0.782987552 0.753610293,0.414522822 L0.446014255,1.30497925 Z" id="Shape" fill="#000000"></path>
                            </g>
                            <g id="XMLID_4_" transform="translate(0.153798, 0.000000)">
                                <path d="M0.830509303,6.06431535 C1.43032158,5.55767635 2.24545108,4.52904564 2.49152791,2.6560166 C2.70684513,0.982572614 3.2451382,0.168879668 4.13716671,0.168879668 C4.96767601,0.168879668 6.04426215,0.84439834 6.99780986,1.44315353 C7.42844432,1.71950207 7.82831917,1.96514523 8.21281421,2.16473029 C7.39768471,2.14937759 5.93660353,2.04190871 5.92122373,2.04190871 C5.92122373,2.04190871 5.92122373,2.04190871 5.90584393,2.04190871 C5.87508433,2.04190871 5.82894492,2.05726141 5.81356512,2.0879668 C5.78280551,2.1186722 5.76742571,2.14937759 5.76742571,2.19543568 C5.79818532,2.70207469 5.76742571,3.30082988 5.70590651,3.39294606 C5.6597671,3.42365145 5.38293067,3.48506224 4.62932037,3.48506224 L4.46014255,3.48506224 L4.46014255,3.48506224 C4.41400315,3.48506224 4.36786374,3.50041494 4.35248394,3.54647303 C4.35248394,3.54647303 3.78343127,4.29875519 3.2758978,4.79004149 C2.58380672,5.46556017 1.53798019,5.86473029 0.830509303,6.06431535 Z" id="Shape" fill="#FFFFFF"></path>
                                <path d="M4.13716671,0.0460580913 L4.13716671,0.322406639 C4.93691641,0.322406639 5.98274294,0.982572614 6.92091086,1.5813278 C7.16698769,1.73485477 7.41306452,1.88838174 7.64376154,2.02655602 C6.85939165,1.99585062 5.95198334,1.91908714 5.93660353,1.91908714 L5.92122373,1.91908714 C5.84432472,1.91908714 5.78280551,1.94979253 5.72128631,1.99585062 C5.6597671,2.05726141 5.6290075,2.1340249 5.6443873,2.21078838 C5.6597671,2.6560166 5.6443873,3.13195021 5.61362769,3.30082988 C5.50596908,3.33153527 5.21375284,3.36224066 4.64470017,3.36224066 L4.49090216,3.36224066 L4.49090216,3.36224066 C4.39862334,3.36224066 4.32172433,3.40829876 4.27558493,3.46970954 C4.27558493,3.46970954 3.72191206,4.2219917 3.2143786,4.69792531 C2.70684513,5.18921162 1.99937425,5.52697095 1.39956197,5.75726141 C1.93785504,5.15850622 2.49152791,4.17593361 2.67608553,2.68672199 C2.96830177,0.322406639 3.87571008,0.322406639 4.18330612,0.322406639 L4.13716671,0.0460580913 L4.13716671,0.0460580913 Z M4.13716671,0.0460580913 C3.2758978,0.0460580913 2.59918652,0.690871369 2.35310969,2.6560166 C1.98399445,5.63443983 0.0768990095,6.40207469 0.0768990095,6.40207469 C0.0768990095,6.40207469 2.18393187,6.03360996 3.35279681,4.89751037 C3.87571008,4.39087137 4.44476275,3.63858921 4.44476275,3.63858921 L4.61394057,3.63858921 C4.93691641,3.63858921 5.6443873,3.62323651 5.78280551,3.51576763 C5.95198334,3.37759336 5.89046413,2.21078838 5.89046413,2.21078838 C5.89046413,2.21078838 7.67452115,2.33360996 8.42813144,2.33360996 C8.68958807,2.33360996 8.82800629,2.31825726 8.70496788,2.27219917 C7.44382412,1.79626556 5.53672868,0.0460580913 4.13716671,0.0460580913 L4.13716671,0.0460580913 Z" id="Shape" fill="#000000"></path>
                            </g>
                        </g>
                        <g id="XMLID_48_" transform="translate(17.071580, 12.896266)" fill="#000000">
                            <polygon id="Shape" points="2.04551365 19.2369295 2.75298454 0.168879668 0.230697029 0.168879668 1.04582653 19.2215768"></polygon>
                            <path d="M2.13779246,19.3290456 L0.96892752,19.2983402 L0.138418217,0.0614107884 L2.86064315,0.0614107884 L2.86064315,0.153526971 L2.13779246,19.3290456 Z M1.13810534,19.1294606 L1.95323484,19.1448133 L2.66070573,0.260995851 L0.32297584,0.260995851 L1.13810534,19.1294606 Z" id="Shape"></path>
                        </g>
                        <g id="XMLID_47_" transform="translate(17.686772, 13.203320)" fill="#FFFFFF">
                            <polygon id="Shape" points="0.0153798019 0.0460580913 0.24607683 10.3323651 0.384495048 10.4244813 0.384495048 0.0460580913"></polygon>
                        </g>
                        <g id="XMLID_6_" transform="translate(16.610186, 6.448133)" fill="#000000">
                            <path d="M3.78343127,2.57925311 C3.75267166,2.1033195 3.39893622,1.50456432 2.66070573,1.16680498 C2.38386929,1.02863071 2.19931167,0.890456432 2.21469147,0.629460581 C2.21469147,0.307053942 2.4300087,0.0767634855 2.4300087,0.0767634855 C2.4300087,0.0767634855 0.999687124,0.0921161826 1.10734574,1.38174274 C1.12272554,1.64273859 1.33804277,2.05726141 0.96892752,2.0879668 C0.676711284,2.1186722 0.692091086,1.71950207 0.707470887,1.55062241 C0.722850689,1.22821577 -0.0307596038,2.07261411 0.169177821,3.30082988 C0.461394057,5.18921162 3.98336869,5.18921162 3.78343127,2.57925311 Z" id="Shape"></path>
                        </g>
                        <g id="XMLID_3_" transform="translate(16.917782, 6.755187)" fill="#FFFFFF">
                            <path d="M3.2143786,2.6560166 C3.2451382,2.1340249 3.10671998,1.70414938 2.73760474,1.39709544 C2.4453885,1.15145228 2.32235009,1.13609959 2.07627326,0.982572614 C1.92247524,0.890456432 1.75329742,0.752282158 1.69177821,0.506639004 C1.6456388,0.276348548 1.70715801,0.10746888 1.70715801,0.10746888 C1.70715801,0.10746888 1.38418217,0.138174274 1.15348514,0.491286307 C1.01506693,0.706224066 0.999687124,0.890456432 1.10734574,1.48921162 C1.23038415,2.18008299 0.384495048,2.24149378 0.261456632,1.82697095 C0.184557623,1.6120332 -0.107658613,2.68672199 0.199937425,3.30082988 C0.492153661,3.85352697 1.10734574,4.09917012 1.73791761,4.06846473 C2.38386929,4.02240664 3.16823919,3.54647303 3.2143786,2.6560166 Z" id="Shape"></path>
                        </g>
                        <g id="XMLID_1_" transform="translate(17.840570, 9.058091)" fill="#000000">
                            <path d="M0.0307596038,1.12074689 C0.0922788114,0.706224066 0.476773859,0.690871369 0.676711284,0.429875519 C0.784369897,0.276348548 0.768990095,0 0.768990095,0 C0.768990095,0 1.13810534,0.214937759 0.922788114,0.706224066 C0.861268906,0.859751037 0.845889105,1.02863071 1.06120633,1.01327801 C1.18424475,1.01327801 1.27652356,0.890456432 1.29190336,0.829045643 C1.30728316,0.736929461 1.49184078,1.0439834 1.41494177,1.41244813 C1.29190336,2.02655602 -0.123038415,2.07261411 0.0307596038,1.12074689 Z" id="Shape"></path>
                        </g>
                        <ellipse id="Oval" fill="#000000" cx="18.5172815" cy="11.9443983" rx="1.29190336" ry="1.10539419"></ellipse>
                        <path d="M17.7329116,11.9751037 C17.7329116,11.606639 17.9789884,11.2074689 18.3019643,11.1614108 C18.2712047,11.1614108 18.2404451,11.1460581 18.2096855,11.1460581 C17.8405702,11.1460581 17.5022146,11.4991701 17.4868348,11.9751037 C17.4868348,12.3742739 17.8405702,12.8195021 18.2250653,12.8195021 C18.2558249,12.8195021 18.2865845,12.8195021 18.3173441,12.8041494 C17.9789884,12.7427386 17.7329116,12.3435685 17.7329116,11.9751037 Z" id="Shape" fill="#FFFFFF"></path>
                        <g id="XMLID_40_" transform="translate(18.763358, 18.423237)" fill="#FFFFFF">
                            <path d="M0.753610293,5.49626556 C3.53735444,5.18921162 4.79849819,3.6846473 4.69083958,2.04190871 C4.66007998,1.5813278 4.35248394,1.09004149 3.89108988,0.690871369 C3.07596038,0.0460580913 2.24545108,0.0460580913 2.03013385,0.0460580913 C0.953547718,0.0460580913 0.0768990095,0.47593361 0.0768990095,1.01327801 C0.0768990095,1.55062241 0.953547718,1.98049793 2.03013385,1.98049793 C2.3992491,1.98049793 2.75298454,1.93443983 3.04520078,1.84232365 C3.30665741,1.81161826 3.35279681,2.1186722 3.32203721,2.24149378 C3.30665741,3.10124481 2.07627326,3.66929461 0.784369897,4.14522822 L0.753610293,5.49626556 Z" id="Shape"></path>
                        </g>
                        <g id="XMLID_12_" transform="translate(18.301964, 18.269710)" fill="#000000">
                            <path d="M0.24607683,6.3406639 C0.184557623,6.3406639 0.138418217,6.30995851 0.123038415,6.24854772 C0.0922788114,6.17178423 0.123038415,6.09502075 0.199937425,6.06431535 C0.215317227,6.06431535 0.24607683,6.04896266 0.261456632,6.03360996 C0.307596038,6.00290456 0.338355642,5.98755187 0.384495048,5.97219917 C0.707470887,5.86473029 0.861268906,5.8186722 1.01506693,5.77261411 C1.19962455,5.72655602 1.39956197,5.66514523 1.92247524,5.48091286 C4.27558493,4.65186722 5.18299324,3.7153527 5.04457502,2.21078838 C4.99843562,1.64273859 4.73697899,1.33568465 4.29096473,0.95186722 C3.78343127,0.552697095 3.1989988,0.353112033 2.53766731,0.353112033 L2.53766731,0.353112033 C1.44570138,0.353112033 0.722850689,0.782987552 0.722850689,1.18215768 C0.722850689,1.33568465 0.830509303,1.47385892 0.907408312,1.55062241 C1.23038415,1.85767635 1.84557623,2.04190871 2.52228751,2.01120332 C2.90678256,1.99585062 3.12209979,1.98049793 3.50659483,1.87302905 L3.56811404,1.87302905 C3.84495048,1.90373444 4.0141283,2.1186722 4.0295081,2.41037344 C4.0602677,3.10124481 3.12209979,3.79211618 1.21500435,4.45228216 C1.13810534,4.48298755 1.06120633,4.43692946 1.04582653,4.36016598 C1.01506693,4.28340249 1.06120633,4.206639 1.13810534,4.19128631 C2.84526335,3.59253112 3.79881107,2.94771784 3.76805147,2.42572614 C3.75267166,2.21078838 3.62963325,2.16473029 3.56811404,2.14937759 C3.18361899,2.25684647 2.93754216,2.27219917 2.55304712,2.28755187 C1.79943682,2.31825726 1.10734574,2.1033195 0.722850689,1.75020747 C0.538293067,1.5813278 0.446014255,1.38174274 0.446014255,1.18215768 C0.446014255,0.568049793 1.36880237,0.0767634855 2.53766731,0.0767634855 L2.53766731,0.0767634855 C3.260518,0.0767634855 3.92184948,0.307053942 4.47552235,0.736929461 C4.96767601,1.16680498 5.25989225,1.53526971 5.32141146,2.19543568 C5.47520948,3.82282158 4.47552235,4.88215768 2.01475405,5.74190871 C1.47646098,5.92614108 1.27652356,5.98755187 1.09196593,6.03360996 C0.938167916,6.07966805 0.799749699,6.11037344 0.476773859,6.23319502 C0.461394057,6.23319502 0.430634453,6.26390041 0.399874849,6.27925311 C0.369115246,6.29460581 0.32297584,6.3253112 0.292216236,6.3406639 C0.276836434,6.3406639 0.261456632,6.3406639 0.24607683,6.3406639 Z" id="Shape"></path>
                        </g>
                        <g id="XMLID_10_" transform="translate(19.686146, 18.854779)" fill="#000000">
                            <ellipse id="Oval" transform="translate(0.645281, 0.760901) rotate(-11.636935) translate(-0.645281, -0.760901) " cx="0.46851023" cy="0.412253951" rx="1" ry="1"></ellipse>
                        </g>
                        <g id="XMLID_35_" transform="translate(13.688024, 18.423237)" fill="#FFFFFF">
                            <path d="M8.53579005,7.44605809 C8.53579005,6.18713693 7.76679996,5.48091286 5.42907007,4.65186722 C4.95229621,4.48298755 5.19837304,4.60580913 4.0448879,4.17593361 C2.75298454,3.6846473 1.39956197,3.13195021 1.38418217,2.25684647 C1.35342257,2.1186722 1.41494177,1.82697095 1.66101861,1.85767635 C1.95323484,1.94979253 2.30697029,1.99585062 2.67608553,1.99585062 C3.75267166,1.99585062 4.62932037,1.5659751 4.62932037,1.02863071 C4.62932037,0.491286307 3.75267166,0.0614107884 2.67608553,0.0614107884 C2.4607683,0.0614107884 1.630259,0.0614107884 0.815129501,0.706224066 C0.353735444,1.10539419 0.0461394057,1.5966805 0.0153798019,2.05726141 C-0.0922788114,3.7 1.29190336,4.82074689 3.46045543,5.57302905 C4.36786374,5.88008299 4.96767601,6.04896266 5.82894492,6.41742739 C6.52103601,6.72448133 6.82863204,6.83195021 6.90553105,7.47676349 C7.01318967,8.10622407 6.56717541,8.56680498 5.6905267,8.95062241 L5.6443873,10.4551867 C7.56686254,10.0253112 8.53579005,9.02738589 8.53579005,7.44605809 Z" id="Shape"></path>
                        </g>
                        <path d="M17.2253781,30.3369295 C17.2407579,29.8149378 17.6098732,29.3697095 17.9174692,29.2315353 L17.85595,27.7576763 C17.1023397,27.7423237 16.225691,28.5406639 15.841196,29.2315353 C15.5951191,29.6767635 15.5643595,31.1966805 16.2410708,31.7647303 C17.0100609,31.9182573 17.4406954,31.9182573 18.086647,31.9489627 C18.1020268,31.8875519 18.0251278,31.7033195 18.009748,31.6879668 C17.6713924,31.5497925 17.2099983,30.8742739 17.2253781,30.3369295 Z" id="Shape" fill="#FFFFFF"></path>
                        <g id="XMLID_8_" transform="translate(13.534226, 18.269710)" fill="#000000">
                            <path d="M5.39831047,10.7929461 C5.32141146,10.7929461 5.25989225,10.7315353 5.25989225,10.6701245 C5.25989225,10.593361 5.30603166,10.5319502 5.38293067,10.5165975 C7.22850689,10.3630705 8.70496788,9.02738589 8.59730926,7.59958506 C8.52041025,6.46348548 7.58224234,5.66514523 5.50596908,4.92821577 C5.29065185,4.85145228 5.22913265,4.83609959 5.12147403,4.79004149 C4.99843562,4.7439834 4.78311839,4.66721992 4.12178691,4.43692946 C2.21469147,3.77676349 1.26114376,3.08589212 1.30728316,2.39502075 C1.32266296,2.0879668 1.49184078,1.88838174 1.76867722,1.85767635 L1.83019643,1.85767635 C2.21469147,1.96514523 2.4300087,1.98049793 2.81450375,1.99585062 C3.49121503,2.02655602 4.12178691,1.84232365 4.42938295,1.53526971 C4.52166176,1.45850622 4.61394057,1.32033195 4.61394057,1.16680498 C4.61394057,0.767634855 3.89108988,0.337759336 2.79912395,0.337759336 L2.79912395,0.337759336 C2.13779246,0.337759336 1.53798019,0.537344398 1.03044673,0.95186722 C0.584432472,1.33568465 0.338355642,1.64273859 0.292216236,2.21078838 C0.153798019,3.7 1.06120633,4.65186722 3.41431602,5.48091286 C3.93722929,5.66514523 4.36786374,5.8033195 4.75235879,5.91078838 C5.07533463,6.01825726 5.39831047,6.11037344 5.72128631,6.23319502 C6.36723799,6.46348548 7.21312709,6.8626556 7.22850689,7.78381743 C7.21312709,8.13692946 7.04394927,8.4439834 6.75173303,8.68962656 C6.22881977,9.13485477 5.35217106,9.30373444 4.79849819,9.24232365 C4.72159918,9.22697095 4.66007998,9.16556017 4.67545978,9.08879668 C4.69083958,9.0120332 4.75235879,8.95062241 4.8292578,8.9659751 C5.25989225,9.0120332 6.07502175,8.88921162 6.56717541,8.4746888 C6.79787244,8.27510373 6.92091086,8.04481328 6.93629066,7.78381743 C6.92091086,7.21576763 6.5056562,6.81659751 5.61362769,6.49419087 C5.29065185,6.38672199 4.98305582,6.27925311 4.66007998,6.18713693 C4.27558493,6.06431535 3.84495048,5.92614108 3.32203721,5.74190871 C0.861268906,4.88215768 -0.123038415,3.80746888 0.0153798019,2.19543568 C0.0768990095,1.53526971 0.369115246,1.16680498 0.861268906,0.752282158 C1.43032158,0.307053942 2.07627326,0.0767634855 2.79912395,0.0767634855 L2.79912395,0.0767634855 C3.98336869,0.0767634855 4.890777,0.568049793 4.890777,1.18215768 C4.890777,1.38174274 4.79849819,1.5813278 4.61394057,1.75020747 C4.24482532,2.1033195 3.53735444,2.31825726 2.78374414,2.28755187 C2.3992491,2.27219917 2.15317227,2.25684647 1.76867722,2.14937759 C1.70715801,2.16473029 1.5841196,2.21078838 1.56873979,2.42572614 C1.53798019,2.96307054 2.50690771,3.60788382 4.19868592,4.19128631 C4.8600174,4.42157676 5.07533463,4.49834025 5.19837304,4.54439834 C5.30603166,4.57510373 5.36755086,4.60580913 5.58286809,4.68257261 C7.78217976,5.46556017 8.76648708,6.3406639 8.85876589,7.59958506 C8.99718411,9.18091286 7.44382412,10.6240664 5.39831047,10.7929461 L5.39831047,10.7929461 Z" id="Shape"></path>
                        </g>
                        <g id="XMLID_2_" transform="translate(16.610186, 18.248221)" fill="#000000">
                            <ellipse id="Oval" transform="translate(0.722962, 0.731322) rotate(-78.363065) translate(-0.722962, -0.731322) " cx="0.375025655" cy="0.553554903" rx="1" ry="1"></ellipse>
                        </g>
                        <path d="M18.2096855,32.0717842 C17.7329116,31.9029046 17.2099983,31.3348548 17.1792387,30.4904564 C17.1484791,29.9684647 17.4099358,29.0319502 18.5019017,28.8477178 L18.5480411,29.1240664 C17.4253156,29.2929461 17.4406954,30.3522822 17.4560752,30.4751037 C17.4868348,31.1506224 17.9020894,31.6572614 18.3019643,31.8107884 L18.2096855,32.0717842 Z" id="Shape" fill="#000000"></path>
                        <path d="M16.5179072,32.1485477 C16.5025274,32.1485477 16.4871476,32.1485477 16.456388,32.133195 C15.4259413,31.6879668 15.4413211,30.0912863 15.7489171,29.3236515 C16.0257536,28.586722 16.5948063,27.7116183 18.4250027,27.4045643 C18.5019017,27.3892116 18.5788007,27.4352697 18.5788007,27.5120332 C18.5941805,27.5887967 18.5480411,27.6655602 18.4711421,27.6655602 C16.7793639,27.9572614 16.2718304,28.7095436 16.0103738,29.4157676 C15.7489171,30.0759336 15.7335373,31.5037344 16.5794264,31.8721992 C16.6563255,31.9029046 16.6870851,31.979668 16.6563255,32.0564315 C16.6255659,32.1178423 16.5794264,32.1485477 16.5179072,32.1485477 Z" id="Shape" fill="#000000"></path>
                        <g id="XMLID_32_" transform="translate(14.918408, 23.796680)" fill="#FFFFFF">
                            <path d="M2.76836434,0.491286307 C2.76836434,0.598755187 2.78374414,0.798340249 2.78374414,0.798340249 C2.78374414,0.905809129 2.76836434,0.997925311 2.72222494,1.02863071 C2.12241266,1.48921162 1.72253781,1.44315353 1.6456388,2.0879668 C1.53798019,2.71742739 2.06089345,3.1473029 2.93754216,3.53112033 L4.53704156,3.96099585 L4.32172433,5.37344398 L2.99906137,5.06639004 C1.09196593,4.65186722 0.0153798019,3.66929461 0.0153798019,2.07261411 C0.0153798019,1.16680498 0.461394057,0.644813278 1.53798019,0.0614107884 L2.12241266,0.276348548 L2.76836434,0.491286307 Z" id="Shape"></path>
                        </g>
                        <path d="M19.8553243,30.3369295 C19.8553243,29.8149378 19.563108,29.3697095 19.255512,29.2315353 L19.3170312,27.7576763 C20.0706415,27.7423237 20.9472902,28.5406639 21.3317852,29.2315353 C21.5778621,29.6767635 21.6547611,31.1813278 20.96267,31.7493776 C20.4858961,31.8261411 19.9168435,31.9182573 19.0709544,31.9489627 C19.0555746,31.8875519 19.1170938,31.7493776 19.1324736,31.7340249 C19.8399445,31.5037344 19.8553243,30.8282158 19.8553243,30.3369295 Z" id="Shape" fill="#FFFFFF"></path>
                        <g id="XMLID_14_" transform="translate(16.302590, 24.410788)" fill="#000000">
                            <path d="M4.46014255,7.73775934 C4.41400315,7.73775934 4.36786374,7.70705394 4.33710414,7.66099585 C4.30634453,7.59958506 4.32172433,7.50746888 4.39862334,7.47676349 C5.13685383,7.07759336 5.19837304,5.72655602 4.92153661,5.00497925 C4.70621938,4.45228216 4.38324354,3.86887967 2.89140276,3.36224066 C2.81450375,3.33153527 2.75298454,3.31618257 2.67608553,3.30082988 C2.59918652,3.28547718 2.50690771,3.25477178 2.35310969,3.20871369 C2.23007128,3.1780083 2.10703286,3.1473029 1.99937425,3.11659751 C1.86095603,3.08589212 1.75329742,3.05518672 1.67639841,3.03983402 C1.29190336,2.96307054 0.138418217,2.70207469 0.123038415,1.64273859 C0.123038415,0.921161826 0.56905267,0.414522822 1.46108118,0.138174274 C1.53798019,0.122821577 1.6148792,0.153526971 1.630259,0.230290456 C1.6456388,0.307053942 1.6148792,0.383817427 1.53798019,0.399170124 C0.768990095,0.644813278 0.384495048,1.0439834 0.384495048,1.62738589 C0.399874849,2.19543568 0.815129501,2.54854772 1.72253781,2.74813278 C1.79943682,2.76348548 1.92247524,2.79419087 2.06089345,2.82489627 C2.16855207,2.85560166 2.29159048,2.88630705 2.4300087,2.91701245 C2.58380672,2.96307054 2.67608553,2.97842324 2.75298454,3.00912863 C2.84526335,3.02448133 2.89140276,3.03983402 2.98368157,3.07053942 C4.58318097,3.60788382 4.95229621,4.28340249 5.18299324,4.86680498 C5.50596908,5.69585062 5.41369027,7.20041494 4.53704156,7.67634855 C4.50628196,7.72240664 4.49090215,7.73775934 4.46014255,7.73775934 Z" id="Shape"></path>
                        </g>
                        <g id="XMLID_11_" transform="translate(14.610812, 23.489627)" fill="#000000">
                            <path d="M4.41400315,8.55145228 L4.32172433,8.29045643 C4.70621938,8.15228216 5.09071443,7.69170124 5.13685383,6.98547718 C5.15223364,6.61701245 4.96767601,5.94149378 4.18330612,5.74190871 C4.16792632,5.74190871 3.90646968,5.66514523 3.53735444,5.58838174 C3.260518,5.54232365 3.15285939,5.51161826 3.06058058,5.49626556 L2.96830177,5.48091286 C1.13810534,5.09709544 0.0153798019,3.86887967 0.123038415,2.36431535 C0.184557623,1.53526971 0.584432472,0.84439834 1.27652356,0.399170124 L1.29190336,0.383817427 C1.41494177,0.307053942 1.50722059,0.245643154 1.87633583,0.10746888 L1.96861464,0.36846473 C1.630259,0.491286307 1.53798019,0.552697095 1.44570138,0.629460581 L1.43032158,0.644813278 C0.615192076,1.16680498 0.446014255,1.96514523 0.415254651,2.39502075 C0.32297584,3.76141079 1.33804277,4.86680498 3.02982097,5.21991701 L3.12209979,5.23526971 C3.1989988,5.25062241 3.30665741,5.2813278 3.58349384,5.32738589 C3.96798889,5.40414938 4.24482532,5.48091286 4.24482532,5.48091286 C5.07533463,5.69585062 5.41369027,6.41742739 5.39831047,7.00082988 C5.36755086,7.82987552 4.8753972,8.38257261 4.41400315,8.55145228 Z" id="Shape"></path>
                        </g>
                        <polygon id="Shape" fill="#FFFFFF" points="17.9174692 24.4721992 18.2212833 24.53361 18.2212833 27.066805 18.0693763 27.0514523"></polygon>
                    </g>
                </g>
                <g id="nyc-sani-logo-white" transform="translate(40.966935, 10.385965)" fill="#FFFFFF">
                    <g id="Layer_1">
                        <path d="M2.21806213,10.5826688 C2.3759617,10.8187135 2.53386126,10.9760766 2.77071061,11.1334397 C3.00755996,11.251462 3.24440931,11.3694843 3.56020844,11.4088251 C3.83653268,11.4875066 4.15233181,11.4875066 4.46813094,11.4875066 C4.70498029,11.4875066 4.94182963,11.4875066 5.21815387,11.4481659 C5.49447811,11.4088251 5.73132746,11.3301435 5.92870192,11.251462 C6.16555126,11.1727804 6.32345083,11.0154173 6.48135039,10.8187135 C6.63924996,10.6220096 6.67872485,10.3859649 6.67872485,10.1105795 C6.67872485,9.71717172 6.52082528,9.44178628 6.24450105,9.2450824 C5.92870192,9.04837852 5.57342789,8.89101542 5.13920409,8.77299309 C4.70498029,8.65497076 4.23128159,8.53694843 3.67863311,8.4189261 C3.16545953,8.30090377 2.69176083,8.18288145 2.21806213,7.98617757 C1.78383833,7.78947368 1.38908942,7.55342903 1.11276518,7.19936204 C0.796966048,6.88463583 0.678541374,6.41254652 0.678541374,5.82243488 C0.678541374,5.35034556 0.796966048,4.9569378 0.994340505,4.64221159 C1.19171496,4.32748538 1.4680392,4.05209995 1.78383833,3.85539607 C2.09963746,3.65869219 2.49438637,3.50132908 2.88913529,3.38330675 C3.2838842,3.26528442 3.718108,3.22594365 4.11285692,3.22594365 C4.6260305,3.22594365 5.0997292,3.26528442 5.533953,3.34396598 C5.96817681,3.42264753 6.36292572,3.58001063 6.67872485,3.81605529 C7.03399887,4.05209995 7.27084822,4.32748538 7.46822268,4.68155237 C7.66559713,5.03561935 7.78402181,5.50770867 7.8234967,6.05847953 L6.32345083,6.05847953 C6.28397594,5.7830941 6.20502615,5.50770867 6.08660148,5.31100478 C5.96817681,5.1143009 5.77080235,4.9569378 5.57342789,4.83891547 C5.37605344,4.72089314 5.13920409,4.64221159 4.90235474,4.56353004 C4.66550539,4.52418926 4.42865605,4.48484848 4.15233181,4.48484848 C3.91548246,4.48484848 3.718108,4.48484848 3.48125866,4.52418926 C3.24440931,4.56353004 3.04703485,4.60287081 2.84966039,4.72089314 C2.65228594,4.79957469 2.49438637,4.91759702 2.3759617,5.07496013 C2.25753703,5.23232323 2.17858724,5.42902711 2.17858724,5.66507177 C2.17858724,5.9404572 2.25753703,6.13716108 2.45491148,6.29452419 C2.65228594,6.45188729 2.88913529,6.6092504 3.16545953,6.72727273 C3.44178376,6.84529506 3.75758289,6.92397661 4.11285692,7.00265816 C4.46813094,7.08133971 4.82340496,7.16002127 5.17867898,7.23870282 C5.57342789,7.31738437 5.92870192,7.4354067 6.28397594,7.55342903 C6.63924996,7.67145136 6.95504909,7.82881446 7.23137333,8.02551834 C7.50769757,8.22222222 7.74454691,8.45826688 7.90244648,8.77299309 C8.06034604,9.0877193 8.17877072,9.44178628 8.17877072,9.87453482 C8.17877072,10.4253057 8.06034604,10.897395 7.8234967,11.251462 C7.58664735,11.605529 7.31032311,11.9202552 6.9155742,12.1169591 C6.56030018,12.3530037 6.12607637,12.5103668 5.65237768,12.5890484 C5.17867898,12.6677299 4.70498029,12.7070707 4.27075648,12.7070707 C3.75758289,12.7070707 3.2838842,12.6677299 2.8101855,12.5497076 C2.33648681,12.4316853 1.9417379,12.2743222 1.58646387,12.0382775 C1.23118985,11.8022329 0.954865613,11.4875066 0.718016266,11.0940989 C0.520641809,10.7006911 0.402217135,10.2286018 0.362742244,9.63849016 L1.86278811,9.63849016 C2.02068768,10.0712387 2.06016257,10.3466241 2.21806213,10.5826688 Z" id="Shape"></path>
                        <path d="M18.0869684,12.5890484 C17.8106442,12.7464115 17.4553702,12.825093 17.0211464,12.825093 C16.6263975,12.825093 16.3105983,12.7070707 16.073749,12.5103668 C15.8368996,12.3136629 15.718475,11.9202552 15.718475,11.4481659 C15.2842511,11.959596 14.8105525,12.3136629 14.257904,12.5103668 C13.7052555,12.7464115 13.1131321,12.825093 12.4815339,12.825093 C12.0473101,12.825093 11.692036,12.7857523 11.2972871,12.6677299 C10.9420131,12.5890484 10.5867391,12.4316853 10.3104148,12.2349814 C10.0340906,12.0382775 9.83671615,11.7628921 9.67881659,11.4481659 C9.52091702,11.1334397 9.44196724,10.7400319 9.44196724,10.2679426 C9.44196724,9.75651249 9.52091702,9.32376396 9.71829148,9.00903775 C9.91566593,8.69431154 10.1130404,8.4189261 10.4288395,8.22222222 C10.7051638,8.02551834 11.0604378,7.86815524 11.4157118,7.75013291 C11.7709858,7.63211058 12.1657347,7.55342903 12.5604837,7.47474747 C12.9552326,7.39606592 13.3499815,7.31738437 13.7447304,7.27804359 C14.1000044,7.23870282 14.4552784,7.16002127 14.7316027,7.08133971 C15.0079269,7.00265816 15.2447763,6.88463583 15.4026758,6.72727273 C15.5605754,6.56990962 15.6395252,6.37320574 15.6395252,6.09782031 C15.6395252,5.7830941 15.5605754,5.50770867 15.4421507,5.31100478 C15.323726,5.1143009 15.1658265,4.9569378 14.968452,4.83891547 C14.7710776,4.72089314 14.5342282,4.64221159 14.2973789,4.64221159 C14.0605295,4.60287081 13.8236802,4.60287081 13.5868308,4.60287081 C12.9552326,4.60287081 12.4025841,4.72089314 11.9683603,4.9569378 C11.5341365,5.19298246 11.2972871,5.66507177 11.2578122,6.33386497 L9.75776637,6.33386497 C9.79724126,5.7830941 9.91566593,5.27166401 10.1130404,4.91759702 C10.3104148,4.52418926 10.626214,4.20946305 10.981488,3.97341839 C11.336762,3.73737374 11.7315109,3.54066986 12.2052096,3.4619883 C12.6789083,3.38330675 13.152607,3.3046252 13.6657806,3.3046252 C14.0605295,3.3046252 14.4947533,3.34396598 14.8895022,3.38330675 C15.2842511,3.42264753 15.6790001,3.58001063 15.9947992,3.73737374 C16.3105983,3.93407762 16.5869226,4.17012228 16.784297,4.52418926 C16.9816715,4.83891547 17.1000961,5.27166401 17.1000961,5.82243488 L17.1000961,10.5039872 C17.1000961,10.8580542 17.139571,11.1334397 17.1790459,11.2908028 C17.2185208,11.4481659 17.3764204,11.5268474 17.6132697,11.5268474 C17.7316944,11.5268474 17.889594,11.4875066 18.0869684,11.4481659 L18.0869684,12.5890484 Z M15.6395252,7.90749601 C15.4421507,8.06485912 15.2053014,8.14354067 14.8895022,8.22222222 C14.5737031,8.30090377 14.257904,8.34024455 13.90263,8.37958533 C13.5473559,8.4189261 13.2315568,8.45826688 12.8762828,8.53694843 C12.5210088,8.57628921 12.2446845,8.69431154 11.9683603,8.77299309 C11.692036,8.89101542 11.4551867,9.04837852 11.2972871,9.28442318 C11.1393876,9.52046784 11.0209629,9.79585327 11.0209629,10.189261 C11.0209629,10.4253057 11.0604378,10.6613503 11.1788625,10.8187135 C11.2972871,10.9760766 11.4157118,11.1334397 11.5736114,11.251462 C11.7315109,11.3694843 11.9288854,11.4481659 12.1262598,11.4875066 C12.3236343,11.5268474 12.5604837,11.5661882 12.797333,11.5661882 C13.3105066,11.5661882 13.7052555,11.4875066 14.0605295,11.3694843 C14.4158035,11.251462 14.6921278,11.0547581 14.9289771,10.8580542 C15.1658265,10.6613503 15.323726,10.4253057 15.4421507,10.189261 C15.5605754,9.95321637 15.6000503,9.71717172 15.6000503,9.52046784 L15.6000503,7.90749601 L15.6395252,7.90749601 Z" id="Shape"></path>
                        <path d="M20.8896857,3.50132908 L20.8896857,4.9569378 L20.9291606,4.9569378 C21.5607589,3.85539607 22.5476311,3.3046252 23.9292523,3.3046252 C24.5213757,3.3046252 25.0345493,3.38330675 25.4292982,3.54066986 C25.8240471,3.69803296 26.1398463,3.93407762 26.4161705,4.24880383 C26.6530198,4.56353004 26.8503943,4.87825625 26.9293441,5.31100478 C27.0477688,5.70441255 27.0872436,6.17650186 27.0872436,6.64859117 L27.0872436,12.6677299 L25.5871978,12.6677299 L25.5871978,6.45188729 C25.5871978,5.90111643 25.4292982,5.42902711 25.0740242,5.1143009 C24.7582251,4.79957469 24.2845264,4.60287081 23.692403,4.60287081 C23.2187043,4.60287081 22.8239554,4.68155237 22.5081563,4.79957469 C22.1528822,4.9569378 21.876558,5.15364168 21.6791835,5.38968634 C21.4423342,5.66507177 21.2844346,5.9404572 21.1660099,6.29452419 C21.0475853,6.64859117 21.0081104,7.04199894 21.0081104,7.4354067 L21.0081104,12.5890484 L19.5080645,12.5890484 L19.5080645,3.50132908 L20.8896857,3.50132908 Z" id="Shape"></path>
                        <path d="M29.4557371,1.84901648 L29.4557371,0 L30.955783,0 L30.955783,1.84901648 L29.4557371,1.84901648 Z M30.955783,3.50132908 L30.955783,12.6677299 L29.4557371,12.6677299 L29.4557371,3.50132908 L30.955783,3.50132908 Z" id="Shape"></path>
                        <path d="M37.2322907,3.50132908 L37.2322907,4.83891547 L35.4164457,4.83891547 L35.4164457,10.5039872 C35.4164457,10.7006911 35.4164457,10.8187135 35.4559206,10.9367358 C35.4953955,11.0547581 35.5348704,11.1334397 35.6138202,11.1727804 C35.6927699,11.251462 35.8111946,11.251462 35.9690942,11.2908028 C36.1269937,11.3301435 36.3243682,11.3301435 36.5612176,11.3301435 L37.2717656,11.3301435 L37.2717656,12.6677299 L36.1269937,12.6677299 C35.7322448,12.6677299 35.4164457,12.6283892 35.1401215,12.5890484 C34.8637972,12.5497076 34.6269479,12.4316853 34.4690483,12.3136629 C34.3111487,12.1562998 34.1532492,11.959596 34.0742994,11.7235513 C33.9953496,11.4875066 33.9558747,11.1334397 33.9558747,10.7006911 L33.9558747,4.79957469 L32.3768791,4.79957469 L32.3768791,3.50132908 L33.9558747,3.50132908 L33.9558747,0.747474747 L35.4559206,0.747474747 L35.4559206,3.50132908 L37.2322907,3.50132908 Z" id="Shape"></path>
                        <path d="M47.0220637,12.5890484 C46.7457395,12.7464115 46.3904655,12.825093 45.9562417,12.825093 C45.5614928,12.825093 45.2456936,12.7070707 45.0088443,12.5103668 C44.7719949,12.3136629 44.6535703,11.9202552 44.6535703,11.4481659 C44.2193465,11.959596 43.7456478,12.3136629 43.1929993,12.5103668 C42.6403508,12.7464115 42.0482274,12.825093 41.4166292,12.825093 C40.9824054,12.825093 40.6271314,12.7857523 40.2323824,12.6677299 C39.8771084,12.5890484 39.5218344,12.4316853 39.2455102,12.2349814 C38.9691859,12.0382775 38.7718115,11.7628921 38.6139119,11.4481659 C38.4560123,11.1334397 38.3770625,10.7400319 38.3770625,10.2679426 C38.3770625,9.75651249 38.4560123,9.32376396 38.6533868,9.00903775 C38.8507612,8.69431154 39.0481357,8.4189261 39.3639348,8.22222222 C39.6402591,8.02551834 39.9955331,7.86815524 40.3508071,7.75013291 C40.7060811,7.63211058 41.10083,7.55342903 41.495579,7.47474747 C41.8903279,7.39606592 42.2850768,7.31738437 42.6798257,7.27804359 C43.0350997,7.23870282 43.3903737,7.16002127 43.666698,7.08133971 C43.9430222,7.00265816 44.1798716,6.88463583 44.3377711,6.72727273 C44.4956707,6.56990962 44.5746205,6.37320574 44.5746205,6.09782031 C44.5746205,5.7830941 44.4956707,5.50770867 44.377246,5.31100478 C44.2588214,5.1143009 44.1009218,4.9569378 43.9035473,4.83891547 C43.7061729,4.72089314 43.4693235,4.64221159 43.2324742,4.64221159 C42.9956248,4.60287081 42.7587755,4.60287081 42.5219261,4.60287081 C41.8903279,4.60287081 41.3376794,4.72089314 40.9034556,4.9569378 C40.4692318,5.19298246 40.2323824,5.66507177 40.1929075,6.33386497 L38.6928617,6.33386497 C38.7323366,5.7830941 38.8507612,5.27166401 39.0481357,4.91759702 C39.2455102,4.52418926 39.5613093,4.20946305 39.9165833,3.97341839 C40.2718573,3.73737374 40.6666062,3.54066986 41.1403049,3.4619883 C41.6140036,3.38330675 42.0877023,3.3046252 42.6008759,3.3046252 C42.9956248,3.3046252 43.4298486,3.34396598 43.8245975,3.38330675 C44.2193465,3.42264753 44.6140954,3.58001063 44.9298945,3.73737374 C45.2456936,3.93407762 45.5220179,4.17012228 45.7193923,4.52418926 C45.9167668,4.83891547 46.0351915,5.27166401 46.0351915,5.82243488 L46.0351915,10.5039872 C46.0351915,10.8580542 46.0746663,11.1334397 46.1141412,11.2908028 C46.1536161,11.4481659 46.3115157,11.5268474 46.548365,11.5268474 C46.6667897,11.5268474 46.8246893,11.4875066 47.0220637,11.4481659 L47.0220637,12.5890484 L47.0220637,12.5890484 Z M44.5746205,7.90749601 C44.377246,8.06485912 44.1403967,8.14354067 43.8245975,8.22222222 C43.5087984,8.30090377 43.1929993,8.34024455 42.8377253,8.37958533 C42.4824512,8.4189261 42.1666521,8.45826688 41.8113781,8.53694843 C41.4561041,8.57628921 41.1797798,8.69431154 40.9034556,8.77299309 C40.6271314,8.89101542 40.390282,9.04837852 40.2323824,9.28442318 C40.0744829,9.52046784 39.9560582,9.79585327 39.9560582,10.189261 C39.9560582,10.4253057 39.9955331,10.6613503 40.1139578,10.8187135 C40.2323824,10.9760766 40.3508071,11.1334397 40.5087067,11.251462 C40.6666062,11.3694843 40.8639807,11.4481659 41.0613552,11.4875066 C41.2587296,11.5268474 41.495579,11.5661882 41.7324283,11.5661882 C42.2456019,11.5661882 42.6403508,11.4875066 42.9956248,11.3694843 C43.3508989,11.251462 43.6272231,11.0547581 43.8640724,10.8580542 C44.1009218,10.6613503 44.2588214,10.4253057 44.377246,10.189261 C44.4956707,9.95321637 44.5351456,9.71717172 44.5351456,9.52046784 L44.5351456,7.90749601 L44.5746205,7.90749601 Z" id="Shape"></path>
                        <path d="M52.3511741,3.50132908 L52.3511741,4.83891547 L50.5353291,4.83891547 L50.5353291,10.5039872 C50.5353291,10.7006911 50.5353291,10.8187135 50.574804,10.9367358 C50.6142788,11.0547581 50.6537537,11.1334397 50.7327035,11.1727804 C50.8116533,11.251462 50.930078,11.251462 51.0879775,11.2908028 C51.2458771,11.3301435 51.4432516,11.3301435 51.6801009,11.3301435 L52.390649,11.3301435 L52.390649,12.6677299 L51.2458771,12.6677299 C50.8511282,12.6677299 50.5353291,12.6283892 50.2590048,12.5890484 C49.9826806,12.5497076 49.7458312,12.4316853 49.5879317,12.3136629 C49.4300321,12.1562998 49.2721325,11.959596 49.1931828,11.7235513 C49.114233,11.4875066 49.0747581,11.1334397 49.0747581,10.7006911 L49.0747581,4.79957469 L47.4957624,4.79957469 L47.4957624,3.50132908 L49.0747581,3.50132908 L49.0747581,0.747474747 L50.574804,0.747474747 L50.574804,3.50132908 L52.3511741,3.50132908 Z" id="Shape"></path>
                        <path d="M54.1275442,1.84901648 L54.1275442,0 L55.62759,0 L55.62759,1.84901648 L54.1275442,1.84901648 Z M55.62759,3.50132908 L55.62759,12.6677299 L54.1275442,12.6677299 L54.1275442,3.50132908 L55.62759,3.50132908 Z" id="Shape"></path>
                        <path d="M57.7592342,6.17650186 C57.9566086,5.58639022 58.2329329,5.07496013 58.6276818,4.64221159 C59.0224307,4.20946305 59.4566545,3.85539607 60.0487779,3.61935141 C60.6014263,3.38330675 61.2330246,3.26528442 61.9830475,3.26528442 C62.7330705,3.26528442 63.3646687,3.38330675 63.9173172,3.61935141 C64.4699657,3.85539607 64.9436644,4.20946305 65.2989384,4.64221159 C65.6936873,5.07496013 65.9700116,5.58639022 66.167386,6.17650186 C66.3647605,6.7666135 66.4437103,7.39606592 66.4437103,8.06485912 C66.4437103,8.73365231 66.3647605,9.36310473 66.167386,9.95321637 C65.9700116,10.543328 65.6936873,11.0547581 65.2989384,11.4481659 C64.9041895,11.8809144 64.4699657,12.2349814 63.9173172,12.471026 C63.3646687,12.7070707 62.7330705,12.825093 61.9830475,12.825093 C61.2724995,12.825093 60.6014263,12.7070707 60.0487779,12.471026 C59.4961294,12.2349814 59.0224307,11.8809144 58.6276818,11.4481659 C58.2329329,11.0154173 57.9566086,10.5039872 57.7592342,9.95321637 C57.5618597,9.36310473 57.4829099,8.73365231 57.4829099,8.06485912 C57.4829099,7.39606592 57.5618597,6.7666135 57.7592342,6.17650186 Z M59.2987549,9.55980861 C59.4566545,9.99255715 59.654029,10.3466241 59.9303532,10.6220096 C60.2066774,10.897395 60.4830017,11.1334397 60.8382757,11.2908028 C61.1935497,11.4481659 61.5488237,11.5268474 61.9435726,11.5268474 C62.3383216,11.5268474 62.6935956,11.4481659 63.0488696,11.2908028 C63.4041436,11.1334397 63.7199428,10.897395 63.9567921,10.6220096 C64.2331163,10.3466241 64.4304908,9.99255715 64.5883904,9.55980861 C64.7462899,9.12706007 64.8252397,8.65497076 64.8252397,8.06485912 C64.8252397,7.51408825 64.7462899,7.00265816 64.5883904,6.56990962 C64.4304908,6.13716108 64.2331163,5.7830941 63.9567921,5.46836789 C63.6804679,5.15364168 63.4041436,4.9569378 63.0488696,4.79957469 C62.6935956,4.64221159 62.3383216,4.56353004 61.9435726,4.56353004 C61.5488237,4.56353004 61.1935497,4.64221159 60.8382757,4.79957469 C60.4830017,4.9569378 60.1672025,5.19298246 59.9303532,5.46836789 C59.654029,5.7830941 59.4566545,6.13716108 59.2987549,6.56990962 C59.1408554,7.00265816 59.0619056,7.47474747 59.0619056,8.06485912 C59.1013805,8.61562998 59.1408554,9.12706007 59.2987549,9.55980861 Z" id="Shape"></path>
                        <path d="M69.6017016,3.50132908 L69.6017016,4.9569378 L69.6411764,4.9569378 C70.2727747,3.85539607 71.259647,3.3046252 72.6412682,3.3046252 C73.2333916,3.3046252 73.7465651,3.38330675 74.1413141,3.54066986 C74.536063,3.69803296 74.8518621,3.93407762 75.1281863,4.24880383 C75.3650357,4.56353004 75.5624101,4.87825625 75.6413599,5.31100478 C75.7597846,5.70441255 75.7992595,6.17650186 75.7992595,6.64859117 L75.7992595,12.6677299 L74.2992136,12.6677299 L74.2992136,6.45188729 C74.2992136,5.90111643 74.1413141,5.42902711 73.78604,5.1143009 C73.4702409,4.79957469 72.9965422,4.60287081 72.4044188,4.60287081 C71.9307201,4.60287081 71.5359712,4.68155237 71.2201721,4.79957469 C70.8648981,4.9569378 70.5885738,5.15364168 70.3911994,5.38968634 C70.15435,5.66507177 69.9964505,5.9404572 69.8780258,6.29452419 C69.7596011,6.64859117 69.7201262,7.04199894 69.7201262,7.4354067 L69.7201262,12.5890484 L68.2200804,12.5890484 L68.2200804,3.50132908 L69.6017016,3.50132908 Z" id="Shape"></path>
                    </g>
                </g>
            </g>
        </g>
    </g>
</svg>