<?xml version="1.0" encoding="UTF-8"?>
<svg width="184px" height="65px" viewBox="0 0 184 65" version="1.1" xmlns="http://www.w3.org/2000/svg" xmlns:xlink="http://www.w3.org/1999/xlink">
    <!-- Generator: Sketch 43.2 (39069) - http://www.bohemiancoding.com/sketch -->
    <title>Group 6</title>
    <desc>Created with Sketch.</desc>
    <defs>
        <filter x="-12.3%" y="-8.8%" width="126.3%" height="126.3%" filterUnits="objectBoundingBox" id="filter-1">
            <feOffset dx="0" dy="2" in="SourceAlpha" result="shadowOffsetOuter1"></feOffset>
            <feGaussianBlur stdDeviation="2" in="shadowOffsetOuter1" result="shadowBlurOuter1"></feGaussianBlur>
            <feColorMatrix values="0 0 0 0 0   0 0 0 0 0   0 0 0 0 0  0 0 0 0.5 0" type="matrix" in="shadowBlurOuter1" result="shadowMatrixOuter1"></feColorMatrix>
            <feMerge>
                <feMergeNode in="shadowMatrixOuter1"></feMergeNode>
                <feMergeNode in="SourceGraphic"></feMergeNode>
            </feMerge>
        </filter>
    </defs>
    <g id="Page-1" stroke="none" stroke-width="1" fill="none" fill-rule="evenodd">
        <g id="Tablet-Portrait" transform="translate(-6.000000, -3.000000)" fill-rule="nonzero">
            <g id="Group-6" transform="translate(10.000000, 5.000000)">
                <g id="FINAL-DSNY-Web" filter="url(#filter-1)">
                    <g id="Layer_1">
                        <g id="XMLID_92_">
                            <path d="M28.4763485,0.378423237 C12.9609959,0.378423237 0.378423237,12.9609959 0.378423237,28.4763485 C0.378423237,43.9917012 12.9609959,56.5742739 28.4763485,56.5742739 C43.9917012,56.5742739 56.5742739,43.9917012 56.5742739,28.4763485 C56.5979253,12.9609959 44.0153527,0.378423237 28.4763485,0.378423237 Z" id="Shape" fill="#E6E6E6"></path>
                            <path d="M28.4763485,56.9763485 C12.7717842,56.9763485 0,44.1809129 0,28.4763485 C0,12.7717842 12.7717842,0 28.4763485,0 C44.1809129,0 56.9526971,12.7717842 56.9526971,28.4763485 C56.9763485,44.1809129 44.1809129,56.9763485 28.4763485,56.9763485 Z M28.4763485,0.756846473 C13.1975104,0.756846473 0.756846473,13.1975104 0.756846473,28.4763485 C0.756846473,43.7551867 13.1975104,56.1958506 28.4763485,56.1958506 C43.7551867,56.1958506 56.1958506,43.7551867 56.1958506,28.4763485 C56.1958506,13.1975104 43.7788382,0.756846473 28.4763485,0.756846473 Z" id="Shape" fill="#000000"></path>
                        </g>
                        <g id="XMLID_65_" transform="translate(7.331950, 7.095436)" fill="#015949">
                            <circle id="Oval" cx="21.0970954" cy="21.1680498" r="21.0261411"></circle>
                        </g>
                        <g id="XMLID_93_" transform="translate(7.095436, 7.095436)" fill="#000000">
                            <path d="M21.3809129,42.7145228 C9.62614108,42.7145228 0.0473029046,33.1356846 0.0473029046,21.3809129 C0.0473029046,9.62614108 9.62614108,0.0473029046 21.3809129,0.0473029046 C33.1356846,0.0473029046 42.7145228,9.62614108 42.7145228,21.3809129 C42.7145228,33.1593361 33.1593361,42.7145228 21.3809129,42.7145228 Z M21.3809129,0.662240664 C9.95726141,0.662240664 0.638589212,9.95726141 0.638589212,21.4045643 C0.638589212,32.8518672 9.93360996,42.146888 21.3809129,42.146888 C32.8045643,42.146888 42.1232365,32.8518672 42.1232365,21.4045643 C42.1232365,9.95726141 32.8282158,0.662240664 21.3809129,0.662240664 Z" id="Shape"></path>
                        </g>
                        <g id="Group" transform="translate(9.460581, 2.601660)" fill="#000000">
                            <polygon id="Shape" points="0.212863071 7.94688797 0.662240664 7.52116183 3.42946058 8.2780083 3.42946058 8.2780083 1.77385892 6.50414938 2.17593361 6.12572614 4.42282158 8.53817427 3.97344398 8.96390041 1.22987552 8.20705394 1.22987552 8.20705394 2.88547718 9.98091286 2.48340249 10.3593361"></polygon>
                            <polygon id="Shape" points="3.1219917 5.39253112 5.06141079 4.02074689 5.34522822 4.42282158 3.87883817 5.46348548 4.37551867 6.17302905 5.7473029 5.22697095 6.00746888 5.60539419 4.63568465 6.55145228 5.17966805 7.35560166 6.66970954 6.31493776 6.95352697 6.71701245 4.96680498 8.08879668"></polygon>
                            <polygon id="Shape" points="5.7 3.57136929 6.22033195 3.31120332 7.85228216 5.32157676 7.85228216 5.32157676 7.35560166 2.76721992 7.89958506 2.50705394 9.57883817 4.49377593 9.57883817 4.49377593 9.03485477 1.96307054 9.55518672 1.70290456 10.1701245 5.06141079 9.64979253 5.32157676 7.94688797 3.33485477 7.94688797 3.33485477 8.44356846 5.91286307 7.89958506 6.17302905"></polygon>
                            <polygon id="Shape" points="13.3394191 2.71991701 11.6838174 1.0406639 12.3460581 0.898755187 13.5286307 2.15228216 14.0489627 0.52033195 14.6875519 0.378423237 13.9307054 2.60165975 14.2145228 3.85518672 13.646888 3.97344398"></polygon>
                            <path d="M16.6742739,0.0473029046 C16.9107884,0.0236514523 17.1473029,0.0473029046 17.3365145,0.141908714 C17.5493776,0.212863071 17.7149378,0.331120332 17.8568465,0.473029046 C17.9987552,0.614937759 18.1170124,0.804149378 18.2116183,0.993360996 C18.3062241,1.20622407 18.353527,1.41908714 18.3771784,1.65560166 C18.4008299,1.89211618 18.3771784,2.12863071 18.3298755,2.34149378 C18.2825726,2.55435685 18.1879668,2.74356846 18.0697095,2.90912863 C17.9514523,3.0746888 17.7858921,3.21659751 17.5966805,3.31120332 C17.4074689,3.42946058 17.1946058,3.47676349 16.9344398,3.50041494 C16.6979253,3.52406639 16.4614108,3.50041494 16.2721992,3.40580913 C16.0593361,3.33485477 15.8937759,3.21659751 15.7518672,3.0746888 C15.6099585,2.93278008 15.4917012,2.74356846 15.3970954,2.55435685 C15.3024896,2.34149378 15.2551867,2.12863071 15.2315353,1.89211618 C15.2078838,1.65560166 15.2315353,1.44273859 15.2788382,1.22987552 C15.3261411,1.01701245 15.4207469,0.82780083 15.5390041,0.662240664 C15.6572614,0.496680498 15.8228216,0.354771784 16.0120332,0.260165975 C16.2012448,0.165560166 16.4377593,0.0709543568 16.6742739,0.0473029046 Z M16.7215768,0.52033195 C16.5560166,0.543983402 16.3904564,0.591286307 16.2721992,0.662240664 C16.1539419,0.733195021 16.0593361,0.851452282 15.9883817,0.969709544 C15.9174274,1.0879668 15.8701245,1.22987552 15.846473,1.39543568 C15.8228216,1.5373444 15.8228216,1.70290456 15.8228216,1.86846473 C15.846473,2.0340249 15.8701245,2.17593361 15.9174274,2.31784232 C15.9647303,2.45975104 16.0356846,2.60165975 16.1302905,2.69626556 C16.2248963,2.81452282 16.3195021,2.88547718 16.4614108,2.95643154 C16.6033195,3.02738589 16.7452282,3.05103734 16.9344398,3.02738589 C17.1,3.00373444 17.2655602,2.95643154 17.3838174,2.88547718 C17.5020747,2.81452282 17.5966805,2.69626556 17.6676349,2.5780083 C17.7385892,2.45975104 17.7858921,2.31784232 17.8095436,2.15228216 C17.833195,2.01037344 17.833195,1.84481328 17.833195,1.67925311 C17.8095436,1.51369295 17.7858921,1.37178423 17.7385892,1.22987552 C17.6912863,1.0879668 17.620332,0.946058091 17.5257261,0.851452282 C17.4311203,0.733195021 17.3365145,0.662240664 17.1946058,0.591286307 C17.0526971,0.52033195 16.8871369,0.496680498 16.7215768,0.52033195 Z" id="Shape"></path>
                            <path d="M19.2286307,0 L20.813278,0.0946058091 C21.1680498,0.118257261 21.4518672,0.212863071 21.6174274,0.378423237 C21.7829876,0.543983402 21.8539419,0.780497925 21.8539419,1.0406639 C21.8539419,1.20622407 21.806639,1.32448133 21.7593361,1.41908714 C21.7120332,1.51369295 21.6410788,1.60829876 21.5701245,1.65560166 C21.4991701,1.70290456 21.4518672,1.75020747 21.3809129,1.77385892 C21.3099585,1.79751037 21.2626556,1.82116183 21.2390041,1.82116183 L21.2390041,1.82116183 C21.2863071,1.82116183 21.33361,1.84481328 21.4045643,1.86846473 C21.4518672,1.89211618 21.4991701,1.93941909 21.546473,1.98672199 C21.5937759,2.0340249 21.6174274,2.12863071 21.6647303,2.19958506 C21.6883817,2.29419087 21.6883817,2.38879668 21.6883817,2.53070539 C21.6647303,2.71991701 21.6883817,2.90912863 21.6883817,3.05103734 C21.7120332,3.21659751 21.7356846,3.33485477 21.806639,3.40580913 L21.1917012,3.35850622 C21.1443983,3.28755187 21.1443983,3.19294606 21.1207469,3.1219917 L21.1207469,2.86182573 L21.1207469,2.45975104 C21.1207469,2.34149378 21.073444,2.24688797 21.0261411,2.17593361 C20.9788382,2.10497925 20.9078838,2.0340249 20.8369295,2.01037344 C20.7659751,1.96307054 20.6477178,1.93941909 20.5058091,1.93941909 L19.6543568,1.89211618 L19.559751,3.24024896 L18.9921162,3.19294606 L19.2286307,0 Z M19.7016598,1.56099585 L20.6477178,1.63195021 C20.8369295,1.65560166 20.9788382,1.60829876 21.073444,1.5373444 C21.1680498,1.46639004 21.2390041,1.32448133 21.2390041,1.15892116 C21.2390041,1.06431535 21.2390041,0.969709544 21.2153527,0.898755187 C21.1917012,0.82780083 21.1443983,0.780497925 21.0970954,0.733195021 C21.0497925,0.685892116 20.9788382,0.662240664 20.9078838,0.638589212 C20.8369295,0.614937759 20.7659751,0.614937759 20.6950207,0.614937759 L19.7489627,0.543983402 L19.7016598,1.56099585 Z" id="Shape"></path>
                            <polygon id="Shape" points="23.2966805 0.354771784 23.8643154 0.473029046 23.5568465 1.93941909 25.3070539 0.780497925 25.9929461 0.922406639 24.4319502 1.93941909 25.4016598 4.1626556 24.6921162 4.02074689 23.9589212 2.24688797 23.3912863 2.60165975 23.1547718 3.68962656 22.5871369 3.57136929"></polygon>
                            <path d="M30.0609959,3.6186722 C30.0846473,3.52406639 30.0846473,3.42946058 30.0846473,3.33485477 C30.0846473,3.24024896 30.0609959,3.16929461 30.0136929,3.0746888 C29.96639,3.00373444 29.9190871,2.90912863 29.8481328,2.86182573 C29.7771784,2.79087137 29.6825726,2.74356846 29.5879668,2.69626556 C29.4224066,2.6253112 29.2804979,2.60165975 29.1385892,2.60165975 C28.9966805,2.6253112 28.8547718,2.64896266 28.7365145,2.74356846 C28.6182573,2.81452282 28.5,2.90912863 28.4053942,3.05103734 C28.3107884,3.16929461 28.239834,3.31120332 28.1688797,3.45311203 C28.0979253,3.59502075 28.0506224,3.73692946 28.026971,3.90248963 C28.0033195,4.04439834 28.0033195,4.20995851 28.026971,4.35186722 C28.0506224,4.49377593 28.0979253,4.6120332 28.1925311,4.73029046 C28.2871369,4.84854772 28.4053942,4.94315353 28.5709544,5.01410788 C28.6892116,5.06141079 28.8074689,5.08506224 28.9020747,5.08506224 C29.020332,5.08506224 29.1149378,5.06141079 29.2095436,5.01410788 C29.3041494,4.96680498 29.3987552,4.91950207 29.4697095,4.82489627 C29.5406639,4.75394191 29.6116183,4.6593361 29.6825726,4.54107884 L30.2029046,4.77759336 C30.1082988,4.94315353 29.9900415,5.10871369 29.8717842,5.22697095 C29.7298755,5.34522822 29.5879668,5.43983402 29.4224066,5.48713693 C29.2568465,5.53443983 29.0912863,5.58174274 28.9020747,5.55809129 C28.7128631,5.55809129 28.5473029,5.51078838 28.3580913,5.41618257 C28.1215768,5.32157676 27.9560166,5.17966805 27.8141079,5.01410788 C27.6721992,4.84854772 27.5775934,4.6593361 27.506639,4.47012448 C27.4356846,4.28091286 27.4356846,4.06804979 27.4356846,3.83153527 C27.4593361,3.6186722 27.506639,3.38215768 27.6012448,3.16929461 C27.6958506,2.95643154 27.8141079,2.76721992 27.979668,2.60165975 C28.1215768,2.43609959 28.3107884,2.31784232 28.5,2.22323651 C28.6892116,2.12863071 28.8784232,2.0813278 29.1149378,2.0813278 C29.3278008,2.0813278 29.5406639,2.12863071 29.7771784,2.22323651 C29.9427386,2.29419087 30.0846473,2.38879668 30.226556,2.50705394 C30.3684647,2.6253112 30.4630705,2.74356846 30.5340249,2.88547718 C30.6049793,3.02738589 30.6522822,3.16929461 30.6759336,3.33485477 C30.6995851,3.50041494 30.6759336,3.6659751 30.6049793,3.83153527 L30.0609959,3.6186722 Z" id="Shape"></path>
                            <polygon id="Shape" points="31.8585062 3.38215768 32.3551867 3.6659751 30.6995851 6.52780083 30.2029046 6.2439834"></polygon>
                            <polygon id="Shape" points="33.0883817 4.09170124 35.2643154 5.62904564 34.9804979 6.03112033 34.1290456 5.41618257 32.4970954 7.71037344 32.0240664 7.37925311 33.6560166 5.08506224 32.8045643 4.47012448"></polygon>
                            <polygon id="Shape" points="35.2170124 8.25435685 35.66639 5.93651452 36.1630705 6.38589212 35.8082988 8.06514523 37.440249 7.56846473 37.913278 8.01784232 35.6427386 8.65643154 34.7676349 9.60248963 34.3419087 9.20041494"></polygon>
                        </g>
                        <g id="Group" transform="translate(2.601660, 32.639004)" fill="#000000">
                            <path d="M3.33485477,0.141908714 L3.6659751,1.46639004 C3.73692946,1.70290456 3.73692946,1.93941909 3.68962656,2.12863071 C3.64232365,2.31784232 3.57136929,2.50705394 3.45311203,2.64896266 C3.33485477,2.79087137 3.19294606,2.93278008 3.00373444,3.02738589 C2.81452282,3.1219917 2.6253112,3.21659751 2.41244813,3.26390041 C2.19958506,3.31120332 1.98672199,3.33485477 1.77385892,3.33485477 C1.56099585,3.33485477 1.37178423,3.28755187 1.20622407,3.21659751 C1.0406639,3.14564315 0.875103734,3.02738589 0.756846473,2.86182573 C0.638589212,2.69626556 0.543983402,2.50705394 0.473029046,2.24688797 L0.141908714,0.922406639 L3.33485477,0.141908714 Z M0.733195021,1.39543568 L0.875103734,1.93941909 C0.922406639,2.15228216 0.993360996,2.31784232 1.0879668,2.45975104 C1.18257261,2.5780083 1.30082988,2.67261411 1.41908714,2.71991701 C1.5373444,2.76721992 1.67925311,2.79087137 1.82116183,2.79087137 C1.96307054,2.79087137 2.12863071,2.76721992 2.29419087,2.71991701 C2.45975104,2.67261411 2.60165975,2.6253112 2.74356846,2.55435685 C2.88547718,2.48340249 2.98008299,2.41244813 3.0746888,2.29419087 C3.16929461,2.19958506 3.21659751,2.05767635 3.24024896,1.91576763 C3.26390041,1.77385892 3.24024896,1.5846473 3.19294606,1.34813278 L3.05103734,0.804149378 L0.733195021,1.39543568 Z" id="Shape"></path>
                            <polygon id="Shape" points="4.18630705 3.28755187 4.94315353 5.2033195 4.47012448 5.39253112 3.90248963 3.92614108 3.09834025 4.23360996 3.6186722 5.58174274 3.16929461 5.7473029 2.64896266 4.39917012 1.75020747 4.75394191 2.34149378 6.2439834 1.86846473 6.43319502 1.11161826 4.47012448"></polygon>
                            <path d="M5.13236515,5.60539419 L5.79460581,6.83526971 C5.88921162,7.02448133 5.96016598,7.21369295 5.96016598,7.35560166 C5.96016598,7.52116183 5.93651452,7.63941909 5.88921162,7.75767635 C5.84190871,7.87593361 5.77095436,7.97053942 5.67634855,8.04149378 C5.58174274,8.11244813 5.48713693,8.18340249 5.39253112,8.23070539 C5.29792531,8.2780083 5.2033195,8.3253112 5.08506224,8.34896266 C4.96680498,8.37261411 4.84854772,8.39626556 4.73029046,8.37261411 C4.6120332,8.34896266 4.47012448,8.30165975 4.35186722,8.20705394 C4.23360996,8.11244813 4.1153527,7.97053942 3.99709544,7.7813278 L3.59502075,7.04813278 L2.48340249,7.63941909 L2.22323651,7.16639004 L5.13236515,5.60539419 Z M4.02074689,6.81161826 L4.39917012,7.52116183 C4.42282158,7.56846473 4.47012448,7.61576763 4.51742739,7.66307054 C4.56473029,7.71037344 4.6120332,7.75767635 4.68298755,7.7813278 C4.75394191,7.80497925 4.82489627,7.82863071 4.89585062,7.82863071 C4.96680498,7.82863071 5.06141079,7.80497925 5.1560166,7.75767635 C5.25062241,7.71037344 5.32157676,7.66307054 5.36887967,7.59211618 C5.41618257,7.52116183 5.43983402,7.47385892 5.46348548,7.40290456 C5.48713693,7.33195021 5.46348548,7.2846473 5.46348548,7.21369295 C5.43983402,7.14273859 5.41618257,7.09543568 5.39253112,7.02448133 L5.01410788,6.31493776 L4.02074689,6.81161826 Z" id="Shape"></path>
                            <path d="M6.83526971,8.53817427 L7.16639004,9.01120332 L5.13236515,11.873029 L4.80124481,11.4 L5.34522822,10.666805 L4.63568465,9.62614108 L3.76058091,9.88630705 L3.42946058,9.41327801 L6.83526971,8.53817427 Z M5.08506224,9.50788382 L5.62904564,10.2883817 L6.52780083,9.10580913 L6.52780083,9.10580913 L5.08506224,9.50788382 Z" id="Shape"></path>
                            <path d="M8.01784232,10.1937759 L8.98755187,11.2817427 C9.20041494,11.5419087 9.3186722,11.7784232 9.3186722,11.9912863 C9.3186722,12.2278008 9.20041494,12.4406639 8.98755187,12.6062241 C8.86929461,12.7008299 8.75103734,12.7717842 8.65643154,12.8190871 C8.56182573,12.86639 8.46721992,12.86639 8.37261411,12.86639 C8.2780083,12.86639 8.20705394,12.86639 8.15975104,12.8427386 C8.11244813,12.8190871 8.06514523,12.7954357 8.04149378,12.7954357 L8.04149378,12.7954357 C8.06514523,12.8427386 8.08879668,12.8900415 8.11244813,12.9373444 C8.13609959,12.9846473 8.13609959,13.0556017 8.11244813,13.126556 C8.08879668,13.1975104 8.06514523,13.2684647 8.04149378,13.3394191 C7.99419087,13.4103734 7.92323651,13.5049793 7.82863071,13.5995851 C7.68672199,13.7178423 7.56846473,13.859751 7.45020747,13.9780083 C7.35560166,14.0962656 7.2846473,14.2145228 7.2846473,14.3091286 L6.90622407,13.8834025 C6.92987552,13.8124481 6.97717842,13.7414938 7.02448133,13.6705394 C7.09543568,13.5995851 7.14273859,13.5522822 7.21369295,13.5049793 C7.33195021,13.4103734 7.42655602,13.3157676 7.49751037,13.2211618 C7.56846473,13.126556 7.61576763,13.0556017 7.63941909,12.9609959 C7.66307054,12.8900415 7.66307054,12.7954357 7.63941909,12.7244813 C7.61576763,12.653527 7.56846473,12.5589212 7.47385892,12.4643154 L6.95352697,11.873029 L5.93651452,12.7717842 L5.58174274,12.3697095 L8.01784232,10.1937759 Z M7.2373444,11.5892116 L7.82863071,12.2278008 C7.94688797,12.3460581 8.06514523,12.4170124 8.18340249,12.4170124 C8.30165975,12.4170124 8.44356846,12.3697095 8.56182573,12.2514523 C8.63278008,12.1804979 8.70373444,12.1095436 8.72738589,12.0385892 C8.75103734,11.9676349 8.7746888,11.920332 8.7746888,11.8493776 C8.7746888,11.7784232 8.75103734,11.7311203 8.72738589,11.6838174 C8.70373444,11.6365145 8.65643154,11.5655602 8.60912863,11.5182573 L8.04149378,10.879668 L7.2373444,11.5892116 Z" id="Shape"></path>
                            <polygon id="Shape" points="9.79170124 12.1568465 11.5182573 13.6941909 11.1871369 14.0726141 10.5012448 13.4576763 8.63278008 15.5626556 8.25435685 15.2315353 10.1228216 13.126556 9.46058091 12.5352697"></polygon>
                            <polygon id="Shape" points="11.8020747 13.9307054 12.393361 14.3327801 11.6128631 16.9344398 11.6128631 16.9344398 13.7178423 15.2315353 14.3091286 15.63361 12.4643154 18.3771784 12.0622407 18.093361 13.4813278 15.9883817 13.4813278 15.9883817 11.3763485 17.6439834 11.0215768 17.4074689 11.7784232 14.8294606 11.7784232 14.8294606 10.3593361 16.9344398 9.95726141 16.6506224"></polygon>
                            <polygon id="Shape" points="14.8058091 15.8937759 16.6506224 16.8161826 16.4377593 17.2655602 15.0423237 16.5560166 14.6639004 17.3365145 15.9647303 17.9751037 15.7518672 18.4008299 14.4510373 17.7622407 14.0253112 18.6373444 15.4443983 19.346888 15.2315353 19.7962656 13.3630705 18.8502075"></polygon>
                            <polygon id="Shape" points="17.0290456 16.9580913 17.5493776 17.1473029 17.9987552 19.8908714 17.9987552 19.8908714 18.826556 17.5966805 19.2995851 17.7622407 18.1879668 20.8605809 17.6676349 20.6713693 17.2182573 17.9278008 17.2182573 17.9278008 16.3904564 20.2219917 15.9174274 20.0564315"></polygon>
                            <polygon id="Shape" points="19.5360996 17.8568465 21.806639 18.3771784 21.6883817 18.8738589 20.7896266 18.6609959 20.1510373 21.3809129 19.6543568 21.2626556 20.2929461 18.5427386 19.4178423 18.3298755"></polygon>
                            <path d="M24.8103734,18.826556 C25.0232365,18.826556 25.2124481,18.8975104 25.3780083,18.9684647 C25.5435685,19.0630705 25.6854772,19.1813278 25.8037344,19.3232365 C25.9219917,19.4651452 25.9929461,19.6307054 26.0639004,19.819917 C26.1112033,20.0091286 26.1348548,20.1983402 26.1348548,20.4112033 C26.1348548,20.6240664 26.0875519,20.813278 26.0165975,21.0024896 C25.9456432,21.1917012 25.8510373,21.33361 25.7327801,21.4755187 C25.6145228,21.6174274 25.4489627,21.7120332 25.2834025,21.7829876 C25.1178423,21.8539419 24.9049793,21.8775934 24.6921162,21.8775934 C24.4792531,21.8775934 24.2900415,21.8302905 24.1244813,21.7356846 C23.9589212,21.6410788 23.8170124,21.5228216 23.6987552,21.3809129 C23.5804979,21.2390041 23.5095436,21.073444 23.4385892,20.8842324 C23.3912863,20.6950207 23.3676349,20.5058091 23.3676349,20.2929461 C23.3676349,20.080083 23.4149378,19.8908714 23.4858921,19.7253112 C23.5568465,19.5360996 23.6514523,19.3941909 23.7697095,19.2522822 C23.8879668,19.1103734 24.053527,19.0157676 24.2190871,18.9448133 C24.3846473,18.8502075 24.5738589,18.8029046 24.8103734,18.826556 Z M24.786722,19.2286307 C24.6448133,19.2286307 24.5029046,19.2522822 24.3846473,19.2995851 C24.26639,19.346888 24.1717842,19.4414938 24.1008299,19.5360996 C24.0298755,19.6307054 23.9589212,19.7489627 23.9352697,19.8908714 C23.8879668,20.0327801 23.8643154,20.1510373 23.8643154,20.2929461 C23.8643154,20.4348548 23.8643154,20.5767635 23.8879668,20.6950207 C23.9116183,20.8369295 23.9589212,20.9551867 24.0298755,21.0497925 C24.1008299,21.1680498 24.1717842,21.2390041 24.2900415,21.3099585 C24.4082988,21.3809129 24.526556,21.4045643 24.6921162,21.4282158 C24.8340249,21.4282158 24.9759336,21.4045643 25.0941909,21.3572614 C25.2124481,21.3099585 25.3070539,21.2153527 25.3780083,21.1207469 C25.4489627,21.0261411 25.519917,20.9078838 25.5435685,20.7659751 C25.5908714,20.6240664 25.6145228,20.5058091 25.6145228,20.3639004 C25.6145228,20.2219917 25.6145228,20.080083 25.5908714,19.9618257 C25.5672199,19.819917 25.519917,19.7016598 25.4489627,19.6070539 C25.3780083,19.4887967 25.3070539,19.4178423 25.1887967,19.346888 C25.0705394,19.2759336 24.9286307,19.2522822 24.786722,19.2286307 Z" id="Shape"></path>
                            <polygon id="Shape" points="26.5842324 18.9211618 28.5709544 18.7792531 28.5946058 19.2049793 27.1045643 19.2995851 27.1518672 20.0564315 28.4526971 19.9618257 28.4763485 20.3639004 27.1755187 20.4585062 27.2701245 21.7356846 26.773444 21.7593361"></polygon>
                            <path d="M31.5273859,20.2929461 C31.5510373,20.4112033 31.5983402,20.5058091 31.6692946,20.6004149 C31.740249,20.6713693 31.8112033,20.7423237 31.9058091,20.7659751 C32.0004149,20.813278 32.0950207,20.813278 32.1896266,20.813278 C32.2842324,20.813278 32.4024896,20.7896266 32.5207469,20.7659751 C32.6390041,20.7423237 32.73361,20.6950207 32.8282158,20.6477178 C32.8991701,20.6004149 32.9701245,20.553112 33.0174274,20.4821577 C33.0647303,20.4348548 33.0883817,20.3639004 33.0883817,20.2929461 L33.0883817,20.1037344 C33.0647303,19.9854772 32.9937759,19.8908714 32.9228216,19.8435685 C32.8518672,19.7962656 32.7809129,19.7726141 32.7099585,19.7726141 C32.5917012,19.7489627 32.4497925,19.7489627 32.2842324,19.7489627 L31.6929461,19.7489627 C31.5510373,19.7489627 31.4091286,19.7253112 31.3145228,19.7016598 C31.219917,19.6780083 31.1253112,19.6307054 31.0543568,19.559751 C30.9834025,19.5124481 30.9124481,19.4414938 30.8887967,19.3705394 C30.8414938,19.2995851 30.8178423,19.2286307 30.7941909,19.1340249 C30.746888,18.9684647 30.746888,18.826556 30.7941909,18.6846473 C30.8414938,18.5427386 30.8887967,18.4244813 30.9834025,18.3298755 C31.0780083,18.2116183 31.1726141,18.1406639 31.3145228,18.0697095 C31.4564315,17.9987552 31.5746888,17.9514523 31.7165975,17.9041494 C31.8821577,17.8568465 32.0477178,17.833195 32.213278,17.8568465 C32.3788382,17.8568465 32.5207469,17.8804979 32.6626556,17.9514523 C32.8045643,17.9987552 32.9228216,18.093361 33.0174274,18.2116183 C33.1120332,18.3298755 33.1829876,18.4481328 33.2302905,18.6373444 L32.6626556,18.7792531 C32.5917012,18.56639 32.4970954,18.4481328 32.3315353,18.4008299 C32.1896266,18.353527 32.0240664,18.353527 31.8112033,18.4008299 C31.740249,18.4244813 31.6692946,18.4481328 31.6219917,18.4717842 C31.5510373,18.4954357 31.5037344,18.5427386 31.4564315,18.5900415 C31.4091286,18.6373444 31.3618257,18.6846473 31.3381743,18.7556017 C31.3145228,18.826556 31.3145228,18.8975104 31.3381743,18.9684647 C31.3618257,19.086722 31.4327801,19.1576763 31.5037344,19.2049793 C31.5983402,19.2522822 31.6929461,19.2759336 31.8112033,19.2759336 L31.953112,19.2759336 L32.2369295,19.2759336 L32.5443983,19.2759336 L32.7572614,19.2759336 C32.8755187,19.2759336 32.9701245,19.2995851 33.0647303,19.346888 C33.1593361,19.3941909 33.2302905,19.4414938 33.3012448,19.4887967 C33.3721992,19.559751 33.4431535,19.6070539 33.4904564,19.7016598 C33.5377593,19.7726141 33.5614108,19.8672199 33.5850622,19.9381743 C33.6323651,20.1273859 33.6323651,20.2692946 33.5850622,20.4348548 C33.5377593,20.5767635 33.466805,20.7186722 33.3721992,20.813278 C33.2775934,20.9315353 33.1593361,21.0261411 33.0174274,21.0970954 C32.8755187,21.1680498 32.73361,21.2390041 32.5680498,21.2863071 C32.3788382,21.33361 32.213278,21.3572614 32.0240664,21.3572614 C31.8585062,21.3572614 31.6929461,21.33361 31.5510373,21.2626556 C31.4091286,21.1917012 31.2908714,21.0970954 31.1726141,20.9788382 C31.0543568,20.8605809 30.9834025,20.6950207 30.9360996,20.5058091 L31.5273859,20.2929461 Z" id="Shape"></path>
                            <path d="M34.4128631,17.0763485 L34.9804979,16.839834 L37.4165975,19.3941909 L36.8489627,19.6307054 L36.2340249,18.9448133 L35.0278008,19.4414938 L35.0751037,20.3639004 L34.5311203,20.6004149 L34.4128631,17.0763485 Z M35.0041494,18.9921162 L35.926556,18.6136929 L34.933195,17.5020747 L34.9095436,17.5020747 L35.0041494,18.9921162 Z" id="Shape"></path>
                            <polygon id="Shape" points="36.4941909 16.1539419 36.9908714 15.846473 39.4742739 17.1946058 39.4742739 17.1946058 38.2207469 15.113278 38.6701245 14.853112 40.373029 17.6912863 39.8763485 17.9987552 37.4165975 16.6506224 37.4165975 16.6506224 38.6701245 18.7319502 38.2207469 18.9921162"></polygon>
                            <polygon id="Shape" points="39.3560166 14.3327801 39.8290456 13.9780083 41.8157676 16.626971 41.3427386 16.9817427"></polygon>
                            <polygon id="Shape" points="40.3020747 13.6705394 42.2887967 11.873029 42.619917 12.2514523 41.8394191 12.9609959 43.7315353 15.0423237 43.3058091 15.4207469 41.4136929 13.3394191 40.633195 14.0489627"></polygon>
                            <path d="M42.9273859,11.1161826 L43.3294606,10.6431535 L46.6643154,11.8493776 L46.2622407,12.3224066 L45.4107884,11.9912863 L44.5356846,12.9846473 L44.9850622,13.7887967 L44.5829876,14.2381743 L42.9273859,11.1161826 Z M44.2991701,12.5589212 L44.9614108,11.8020747 L43.5659751,11.2344398 L43.5659751,11.2344398 L44.2991701,12.5589212 Z" id="Shape"></path>
                            <polygon id="Shape" points="43.9917012 9.88630705 45.5053942 7.68672199 45.9074689 7.97053942 45.3161826 8.84564315 47.6340249 10.4302905 47.3029046 10.9033195 44.9850622 9.3186722 44.3937759 10.1701245"></polygon>
                            <polygon id="Shape" points="45.7892116 7.16639004 46.073029 6.66970954 48.9585062 8.2780083 48.6746888 8.7746888"></polygon>
                            <path d="M46.9717842,4.58838174 C47.06639,4.35186722 47.1846473,4.1626556 47.3502075,4.02074689 C47.5157676,3.87883817 47.6813278,3.76058091 47.8941909,3.71327801 C48.1070539,3.6659751 48.2962656,3.6186722 48.5327801,3.64232365 C48.7456432,3.6659751 48.9821577,3.71327801 49.1950207,3.80788382 C49.4078838,3.90248963 49.5970954,4.02074689 49.7626556,4.1626556 C49.9282158,4.30456432 50.046473,4.47012448 50.1410788,4.6593361 C50.2356846,4.84854772 50.2829876,5.03775934 50.2829876,5.25062241 C50.2829876,5.46348548 50.2593361,5.67634855 50.1647303,5.91286307 C50.0701245,6.14937759 49.9518672,6.33858921 49.7863071,6.48049793 C49.6207469,6.62240664 49.4551867,6.7406639 49.2423237,6.7879668 C49.053112,6.85892116 48.840249,6.88257261 48.6037344,6.85892116 C48.3908714,6.83526971 48.1543568,6.7879668 47.9414938,6.693361 C47.7286307,6.59875519 47.5394191,6.48049793 47.3738589,6.33858921 C47.2082988,6.1966805 47.0900415,6.03112033 46.9954357,5.84190871 C46.9008299,5.6526971 46.853527,5.46348548 46.8298755,5.22697095 C46.8298755,5.03775934 46.8771784,4.82489627 46.9717842,4.58838174 Z M47.3975104,4.77759336 C47.326556,4.94315353 47.3029046,5.08506224 47.326556,5.25062241 C47.3502075,5.39253112 47.3975104,5.53443983 47.4684647,5.6526971 C47.5394191,5.77095436 47.6576763,5.88921162 47.7759336,5.98381743 C47.8941909,6.07842324 48.0360996,6.14937759 48.1780083,6.22033195 C48.319917,6.29128631 48.4618257,6.31493776 48.6273859,6.33858921 C48.7929461,6.36224066 48.9348548,6.36224066 49.0767635,6.33858921 C49.2186722,6.31493776 49.3369295,6.2439834 49.4551867,6.14937759 C49.573444,6.05477178 49.6680498,5.93651452 49.7390041,5.77095436 C49.8099585,5.60539419 49.83361,5.46348548 49.8099585,5.29792531 C49.7863071,5.1560166 49.7390041,5.01410788 49.6680498,4.89585062 C49.5970954,4.77759336 49.4788382,4.6593361 49.3605809,4.56473029 C49.2423237,4.47012448 49.1004149,4.39917012 48.9585062,4.32821577 C48.8165975,4.25726141 48.6746888,4.23360996 48.5091286,4.20995851 C48.3435685,4.18630705 48.2016598,4.18630705 48.059751,4.20995851 C47.9178423,4.23360996 47.7995851,4.30456432 47.6813278,4.39917012 C47.5630705,4.47012448 47.4684647,4.6120332 47.3975104,4.77759336 Z" id="Shape"></path>
                            <polygon id="Shape" points="47.8232365 2.5780083 47.9651452 2.01037344 50.6614108 1.20622407 50.6614108 1.20622407 48.2962656 0.614937759 48.4145228 0.118257261 51.6311203 0.922406639 51.4892116 1.49004149 48.7929461 2.29419087 48.7929461 2.31784232 51.1580913 2.90912863 51.039834 3.40580913"></polygon>
                        </g>
                        <g id="Group" transform="translate(2.128631, 16.082988)">
                            <g id="XMLID_22_" transform="translate(14.900415, 8.041494)">
                                <path d="M9.90995851,0.283817427 L0.449377593,6.36224066 C0.449377593,6.36224066 1.46639004,8.58547718 2.01037344,8.58547718 C5.34522822,8.65643154 12.2278008,1.89211618 12.2278008,1.89211618 L9.90995851,0.283817427 Z" id="Shape" fill="#FFFFFF"></path>
                                <path d="M2.0340249,8.8219917 L1.98672199,8.8219917 C1.37178423,8.79834025 0.567634855,7.16639004 0.236514523,6.45684647 L0.165560166,6.29128631 L9.90995851,0.0236514523 L12.5352697,1.89211618 L12.3460581,2.0813278 C12.0622407,2.34149378 5.43983402,8.8219917 2.0340249,8.8219917 Z M0.709543568,6.45684647 C1.20622407,7.49751037 1.77385892,8.37261411 1.98672199,8.39626556 L2.0340249,8.39626556 C4.96680498,8.39626556 10.7614108,3.00373444 11.8493776,1.93941909 L9.88630705,0.543983402 L0.709543568,6.45684647 Z" id="Shape" fill="#000000"></path>
                            </g>
                            <g id="XMLID_21_" transform="translate(11.825726, 6.385892)">
                                <path d="M10.7614108,0.378423237 L0.425726141,6.7406639 C0.425726141,6.7406639 1.44273859,8.96390041 1.98672199,8.96390041 C5.32157676,9.03485477 13.0792531,1.98672199 13.0792531,1.98672199 L10.7614108,0.378423237 Z" id="Shape" fill="#FFFFFF"></path>
                                <path d="M2.0340249,9.17676349 L1.98672199,9.17676349 C1.37178423,9.17676349 0.567634855,7.52116183 0.236514523,6.81161826 L0.165560166,6.64605809 L10.7850622,0.0946058091 L13.4103734,1.93941909 L13.2211618,2.12863071 C12.8900415,2.43609959 5.43983402,9.17676349 2.0340249,9.17676349 Z M0.709543568,6.83526971 C1.20622407,7.87593361 1.77385892,8.75103734 1.98672199,8.7746888 L2.0340249,8.7746888 C4.99045643,8.7746888 11.4946058,3.09834025 12.7244813,2.0340249 L10.7614108,0.638589212 L0.709543568,6.83526971 Z" id="Shape" fill="#000000"></path>
                            </g>
                            <g id="XMLID_20_" transform="translate(9.460581, 4.730290)">
                                <path d="M10.6904564,0.283817427 L0.354771784,6.64605809 C0.354771784,6.64605809 1.37178423,8.86929461 1.91576763,8.86929461 C5.25062241,8.94024896 13.0082988,1.89211618 13.0082988,1.89211618 L10.6904564,0.283817427 Z" id="Shape" fill="#FFFFFF"></path>
                                <path d="M1.93941909,9.10580913 L1.89211618,9.10580913 C1.27717842,9.08215768 0.473029046,7.45020747 0.141908714,6.7406639 L0.0709543568,6.57510373 L10.6904564,0.0236514523 L13.3157676,1.86846473 L13.126556,2.05767635 C12.7954357,2.36514523 5.34522822,9.10580913 1.93941909,9.10580913 Z M0.614937759,6.7406639 C1.11161826,7.7813278 1.67925311,8.65643154 1.89211618,8.68008299 L1.93941909,8.68008299 C4.89585062,8.68008299 11.4,3.00373444 12.6298755,1.93941909 L10.666805,0.543983402 L0.614937759,6.7406639 Z" id="Shape" fill="#000000"></path>
                            </g>
                            <g id="XMLID_19_" transform="translate(5.203320, 3.547718)">
                                <path d="M13.5286307,0.449377593 L0.331120332,6.45684647 C0.331120332,6.45684647 1.15892116,8.30165975 1.75020747,8.37261411 C5.41618257,8.86929461 15.8701245,1.89211618 15.8701245,1.89211618 L13.5286307,0.449377593 Z" id="Shape" fill="#FFFFFF"></path>
                                <path d="M2.15228216,8.60912863 C2.01037344,8.60912863 1.84481328,8.60912863 1.72655602,8.58547718 C1.0406639,8.49087137 0.283817427,6.85892116 0.141908714,6.52780083 L0.0473029046,6.33858921 L13.5522822,0.212863071 L16.2721992,1.89211618 L15.9883817,2.0813278 C15.5863071,2.36514523 6.14937759,8.60912863 2.15228216,8.60912863 Z M0.591286307,6.55145228 C0.969709544,7.33195021 1.49004149,8.13609959 1.77385892,8.15975104 C4.99045643,8.60912863 13.8124481,3.00373444 15.4917012,1.91576763 L13.5049793,0.685892116 L0.591286307,6.55145228 Z" id="Shape" fill="#000000"></path>
                            </g>
                            <g id="XMLID_18_" transform="translate(0.000000, 1.892116)">
                                <path d="M18.2825726,0.378423237 C18.2825726,0.378423237 4.25726141,4.89585062 0.543983402,5.86556017 C-0.30746888,6.07842324 1.49004149,8.94024896 2.0813278,9.05850622 C4.58838174,9.57883817 19.4651452,1.72655602 18.8738589,2.10497925 L18.2825726,0.378423237 Z" id="Shape" fill="#FFFFFF"></path>
                                <path d="M2.34149378,9.3186722 C2.22323651,9.3186722 2.12863071,9.3186722 2.0340249,9.29502075 C1.41908714,9.15311203 0.118257261,7.11908714 0.0946058091,6.26763485 C0.0946058091,5.81825726 0.354771784,5.7 0.473029046,5.67634855 C4.1626556,4.73029046 18.0697095,0.236514523 18.2116183,0.189211618 L18.4008299,0.118257261 L19.0157676,1.96307054 C19.0157676,1.98672199 19.0394191,1.98672199 19.0394191,2.01037344 L19.1340249,2.17593361 L18.7319502,2.45975104 L18.7082988,2.41244813 C18.4954357,2.50705394 18.1170124,2.69626556 17.7149378,2.90912863 C12.1568465,5.7 4.6593361,9.3186722 2.34149378,9.3186722 Z M18.1406639,0.638589212 C16.4141079,1.20622407 4.02074689,5.17966805 0.591286307,6.07842324 C0.567634855,6.07842324 0.52033195,6.10207469 0.52033195,6.2439834 C0.543983402,7.04813278 1.79751037,8.79834025 2.12863071,8.86929461 C2.19958506,8.89294606 2.29419087,8.89294606 2.38879668,8.89294606 C4.82489627,8.89294606 14.3564315,4.13900415 17.5493776,2.53070539 C18.0697095,2.27053942 18.4008299,2.10497925 18.6136929,2.01037344 L18.1406639,0.638589212 Z" id="Shape" fill="#000000"></path>
                            </g>
                            <g id="XMLID_15_" transform="translate(13.717842, 0.000000)">
                                <path d="M12.3224066,9.3659751 C11.2344398,9.03485477 9.62614108,8.44356846 8.58547718,7.40290456 C7.80497925,6.64605809 6.95352697,5.48713693 6.92987552,5.48713693 C6.88257261,5.43983402 6.83526971,5.39253112 6.76431535,5.39253112 L6.76431535,5.39253112 L6.50414938,5.39253112 C5.34522822,5.39253112 4.89585062,5.29792531 4.82489627,5.25062241 C4.73029046,5.10871369 4.68298755,4.18630705 4.73029046,3.40580913 C4.73029046,3.33485477 4.706639,3.28755187 4.6593361,3.24024896 C4.6120332,3.19294606 4.56473029,3.16929461 4.51742739,3.16929461 C4.51742739,3.16929461 4.51742739,3.16929461 4.49377593,3.16929461 C4.47012448,3.16929461 2.24688797,3.33485477 0.969709544,3.35850622 C1.56099585,3.05103734 2.17593361,2.64896266 2.83817427,2.24688797 C4.28091286,1.32448133 5.93651452,0.283817427 7.2373444,0.283817427 C8.60912863,0.283817427 9.43692946,1.5373444 9.76804979,4.1153527 C10.1228216,7.00082988 11.3763485,8.56182573 12.3224066,9.3659751 Z" id="Shape" fill="#FFFFFF"></path>
                                <path d="M7.2373444,0.496680498 C7.68672199,0.496680498 9.10580913,0.496680498 9.55518672,4.13900415 C9.83900415,6.45684647 10.6904564,7.94688797 11.5182573,8.86929461 C10.5721992,8.51452282 9.48423237,7.99419087 8.72738589,7.2373444 C7.97053942,6.48049793 7.09543568,5.34522822 7.09543568,5.34522822 C7.02448133,5.22697095 6.88257261,5.17966805 6.76431535,5.17966805 L6.76431535,5.17966805 L6.52780083,5.17966805 C5.6526971,5.17966805 5.2033195,5.13236515 5.03775934,5.08506224 C4.96680498,4.82489627 4.94315353,4.09170124 4.99045643,3.40580913 C4.99045643,3.28755187 4.94315353,3.16929461 4.87219917,3.0746888 C4.80124481,3.00373444 4.68298755,2.95643154 4.56473029,2.95643154 L4.54107884,2.95643154 C4.51742739,2.95643154 3.1219917,3.05103734 1.91576763,3.1219917 C2.27053942,2.90912863 2.64896266,2.67261411 3.02738589,2.43609959 C4.39917012,1.5373444 6.03112033,0.496680498 7.2373444,0.496680498 L7.2373444,0.496680498 Z M7.2373444,0.0709543568 C5.06141079,0.0709543568 2.15228216,2.76721992 0.189211618,3.47676349 C-1.7422036e-12,3.54771784 0.212863071,3.57136929 0.614937759,3.57136929 C1.77385892,3.57136929 4.51742739,3.38215768 4.51742739,3.38215768 C4.51742739,3.38215768 4.42282158,5.17966805 4.68298755,5.39253112 C4.89585062,5.55809129 5.98381743,5.58174274 6.48049793,5.58174274 L6.7406639,5.58174274 C6.7406639,5.58174274 7.61576763,6.7406639 8.41991701,7.52116183 C10.2174274,9.27136929 13.4576763,9.83900415 13.4576763,9.83900415 C13.4576763,9.83900415 10.5485477,8.65643154 9.95726141,4.06804979 C9.60248963,1.06431535 8.56182573,0.0709543568 7.2373444,0.0709543568 L7.2373444,0.0709543568 Z" id="Shape" fill="#000000"></path>
                            </g>
                        </g>
                        <g id="Group" transform="translate(27.435685, 16.082988)">
                            <g id="XMLID_26_" transform="translate(0.000000, 8.041494)">
                                <path d="M2.76721992,0.283817427 L12.2278008,6.36224066 C12.2278008,6.36224066 11.2107884,8.58547718 10.666805,8.58547718 C7.33195021,8.65643154 0.449377593,1.89211618 0.449377593,1.89211618 L2.76721992,0.283817427 Z" id="Shape" fill="#FFFFFF"></path>
                                <path d="M10.6195021,8.79834025 C7.21369295,8.79834025 0.591286307,2.31784232 0.30746888,2.0340249 L0.118257261,1.84481328 L2.74356846,0 L12.4879668,6.26763485 L12.4170124,6.43319502 C12.0858921,7.14273859 11.2817427,8.7746888 10.666805,8.79834025 L10.6195021,8.79834025 Z M0.780497925,1.93941909 C1.89211618,3.00373444 7.68672199,8.39626556 10.5958506,8.39626556 L10.6431535,8.39626556 C10.8560166,8.37261411 11.4473029,7.49751037 11.920332,6.45684647 L2.71991701,0.543983402 L0.780497925,1.93941909 Z" id="Shape" fill="#000000"></path>
                            </g>
                            <g id="XMLID_25_" transform="translate(2.128631, 6.385892)">
                                <path d="M2.83817427,0.354771784 L13.1738589,6.71701245 C13.1738589,6.71701245 12.1568465,8.94024896 11.6128631,8.94024896 C8.2780083,9.01120332 0.52033195,1.96307054 0.52033195,1.96307054 L2.83817427,0.354771784 Z" id="Shape" fill="#FFFFFF"></path>
                                <path d="M11.5655602,9.17676349 C8.15975104,9.17676349 0.709543568,2.43609959 0.402074689,2.12863071 L0.212863071,1.93941909 L2.83817427,0.0946058091 L13.4576763,6.64605809 L13.386722,6.81161826 C13.0556017,7.52116183 12.2514523,9.15311203 11.6365145,9.17676349 L11.5655602,9.17676349 Z M0.875103734,2.01037344 C2.10497925,3.09834025 8.60912863,8.75103734 11.5655602,8.75103734 L11.6128631,8.75103734 C11.8257261,8.72738589 12.4170124,7.85228216 12.8900415,6.81161826 L2.83817427,0.614937759 L0.875103734,2.01037344 Z" id="Shape" fill="#000000"></path>
                            </g>
                            <g id="XMLID_24_" transform="translate(4.730290, 4.730290)">
                                <path d="M2.67261411,0.283817427 L13.0082988,6.64605809 C13.0082988,6.64605809 11.9912863,8.86929461 11.4473029,8.86929461 C8.11244813,8.94024896 0.354771784,1.89211618 0.354771784,1.89211618 L2.67261411,0.283817427 Z" id="Shape" fill="#FFFFFF"></path>
                                <path d="M11.4236515,9.08215768 C8.01784232,9.08215768 0.567634855,2.34149378 0.260165975,2.0340249 L0.0709543568,1.84481328 L2.69626556,0 L13.3157676,6.55145228 L13.2448133,6.71701245 C12.9136929,7.42655602 12.1095436,9.05850622 11.4946058,9.08215768 C11.4473029,9.08215768 11.4473029,9.08215768 11.4236515,9.08215768 Z M0.733195021,1.91576763 C1.96307054,3.00373444 8.46721992,8.65643154 11.4236515,8.65643154 L11.4709544,8.65643154 C11.6838174,8.63278008 12.2751037,7.75767635 12.7481328,6.71701245 L2.69626556,0.52033195 L0.733195021,1.91576763 Z" id="Shape" fill="#000000"></path>
                            </g>
                            <g id="XMLID_17_" transform="translate(5.912863, 3.547718)">
                                <path d="M2.90912863,0.425726141 L16.106639,6.43319502 C16.106639,6.43319502 15.2788382,8.2780083 14.6875519,8.34896266 C11.0215768,8.84564315 0.543983402,1.89211618 0.543983402,1.89211618 L2.90912863,0.425726141 Z" id="Shape" fill="#FFFFFF"></path>
                                <path d="M14.2854772,8.58547718 C10.2883817,8.58547718 0.851452282,2.34149378 0.425726141,2.05767635 L0.141908714,1.86846473 L2.88547718,0.165560166 L16.3904564,6.29128631 L16.2958506,6.48049793 C16.1539419,6.81161826 15.373444,8.44356846 14.7112033,8.53817427 C14.5929461,8.58547718 14.4510373,8.58547718 14.2854772,8.58547718 Z M0.946058091,1.89211618 C2.6253112,2.98008299 11.4473029,8.58547718 14.6639004,8.13609959 C14.9477178,8.08879668 15.4680498,7.30829876 15.846473,6.52780083 L2.93278008,0.662240664 L0.946058091,1.89211618 Z" id="Shape" fill="#000000"></path>
                            </g>
                            <g id="XMLID_13_" transform="translate(8.278008, 1.892116)">
                                <path d="M0.993360996,0.378423237 C0.993360996,0.378423237 15.0186722,4.89585062 18.7319502,5.86556017 C19.5834025,6.07842324 17.7858921,8.94024896 17.1946058,9.05850622 C14.6875519,9.57883817 -0.189211618,1.72655602 0.402074689,2.10497925 L0.993360996,0.378423237 Z" id="Shape" fill="#FFFFFF"></path>
                                <path d="M16.9344398,9.29502075 C14.6165975,9.29502075 7.09543568,5.67634855 1.5373444,2.88547718 C1.11161826,2.67261411 0.756846473,2.48340249 0.543983402,2.38879668 L0.52033195,2.43609959 L0.118257261,2.17593361 L0.212863071,1.98672199 C0.236514523,1.96307054 0.236514523,1.93941909 0.236514523,1.93941909 L0.851452282,0.0946058091 L1.0406639,0.165560166 C1.18257261,0.212863071 15.0896266,4.706639 18.7792531,5.6526971 C18.8975104,5.67634855 19.1813278,5.79460581 19.1576763,6.2439834 C19.1340249,7.09543568 17.833195,9.12946058 17.2182573,9.27136929 C17.1709544,9.29502075 17.0526971,9.29502075 16.9344398,9.29502075 Z M0.685892116,2.01037344 C0.898755187,2.10497925 1.22987552,2.27053942 1.75020747,2.53070539 C5.08506224,4.20995851 15.2551867,9.27136929 17.1709544,8.86929461 C17.4784232,8.79834025 18.7556017,7.04813278 18.7792531,6.2439834 C18.7792531,6.10207469 18.7319502,6.07842324 18.7082988,6.07842324 C15.2551867,5.17966805 2.88547718,1.20622407 1.15892116,0.638589212 L0.685892116,2.01037344 Z" id="Shape" fill="#000000"></path>
                            </g>
                            <g id="XMLID_4_" transform="translate(0.236515, 0.000000)">
                                <path d="M1.27717842,9.34232365 C2.19958506,8.56182573 3.45311203,6.97717842 3.83153527,4.09170124 C4.1626556,1.51369295 4.99045643,0.260165975 6.36224066,0.260165975 C7.63941909,0.260165975 9.29502075,1.30082988 10.7614108,2.22323651 C11.4236515,2.64896266 12.0385892,3.02738589 12.6298755,3.33485477 C11.3763485,3.31120332 9.12946058,3.14564315 9.10580913,3.14564315 C9.10580913,3.14564315 9.10580913,3.14564315 9.08215768,3.14564315 C9.03485477,3.14564315 8.96390041,3.16929461 8.94024896,3.21659751 C8.89294606,3.26390041 8.86929461,3.31120332 8.86929461,3.38215768 C8.91659751,4.1626556 8.86929461,5.08506224 8.7746888,5.22697095 C8.70373444,5.27427386 8.2780083,5.36887967 7.11908714,5.36887967 L6.85892116,5.36887967 L6.85892116,5.36887967 C6.7879668,5.36887967 6.71701245,5.39253112 6.693361,5.46348548 C6.693361,5.46348548 5.81825726,6.62240664 5.03775934,7.37925311 C3.97344398,8.41991701 2.36514523,9.03485477 1.27717842,9.34232365 Z" id="Shape" fill="#FFFFFF"></path>
                                <path d="M6.36224066,0.0709543568 L6.36224066,0.496680498 C7.59211618,0.496680498 9.20041494,1.51369295 10.6431535,2.43609959 C11.0215768,2.67261411 11.4,2.90912863 11.7547718,3.1219917 C10.5485477,3.0746888 9.15311203,2.95643154 9.12946058,2.95643154 L9.10580913,2.95643154 C8.98755187,2.95643154 8.89294606,3.00373444 8.79834025,3.0746888 C8.70373444,3.16929461 8.65643154,3.28755187 8.68008299,3.40580913 C8.70373444,4.09170124 8.68008299,4.82489627 8.63278008,5.08506224 C8.46721992,5.13236515 8.01784232,5.17966805 7.14273859,5.17966805 L6.90622407,5.17966805 L6.90622407,5.17966805 C6.76431535,5.17966805 6.64605809,5.25062241 6.57510373,5.34522822 C6.57510373,5.34522822 5.72365145,6.50414938 4.94315353,7.2373444 C4.1626556,7.99419087 3.0746888,8.51452282 2.15228216,8.86929461 C2.98008299,7.94688797 3.83153527,6.43319502 4.1153527,4.13900415 C4.56473029,0.496680498 5.96016598,0.496680498 6.43319502,0.496680498 L6.36224066,0.0709543568 L6.36224066,0.0709543568 Z M6.36224066,0.0709543568 C5.03775934,0.0709543568 3.99709544,1.06431535 3.6186722,4.09170124 C3.05103734,8.68008299 0.118257261,9.8626556 0.118257261,9.8626556 C0.118257261,9.8626556 3.35850622,9.29502075 5.1560166,7.54481328 C5.96016598,6.76431535 6.83526971,5.60539419 6.83526971,5.60539419 L7.09543568,5.60539419 C7.59211618,5.60539419 8.68008299,5.58174274 8.89294606,5.41618257 C9.15311203,5.2033195 9.05850622,3.40580913 9.05850622,3.40580913 C9.05850622,3.40580913 11.8020747,3.59502075 12.9609959,3.59502075 C13.3630705,3.59502075 13.5759336,3.57136929 13.386722,3.50041494 C11.4473029,2.76721992 8.51452282,0.0709543568 6.36224066,0.0709543568 L6.36224066,0.0709543568 Z" id="Shape" fill="#000000"></path>
                            </g>
                        </g>
                        <g id="XMLID_48_" transform="translate(26.253112, 19.867220)" fill="#000000">
                            <polygon id="Shape" points="3.14564315 29.6352697 4.23360996 0.260165975 0.354771784 0.260165975 1.60829876 29.6116183"></polygon>
                            <path d="M3.28755187,29.7771784 L1.49004149,29.7298755 L0.212863071,0.0946058091 L4.39917012,0.0946058091 L4.39917012,0.236514523 L3.28755187,29.7771784 Z M1.75020747,29.4697095 L3.00373444,29.493361 L4.09170124,0.402074689 L0.496680498,0.402074689 L1.75020747,29.4697095 Z" id="Shape"></path>
                        </g>
                        <g id="XMLID_47_" transform="translate(27.199170, 20.340249)" fill="#FFFFFF">
                            <polygon id="Shape" points="0.0236514523 0.0709543568 0.378423237 15.9174274 0.591286307 16.0593361 0.591286307 0.0709543568"></polygon>
                        </g>
                        <g id="XMLID_6_" transform="translate(25.543568, 9.933610)" fill="#000000">
                            <path d="M5.81825726,3.97344398 C5.77095436,3.24024896 5.22697095,2.31784232 4.09170124,1.79751037 C3.6659751,1.5846473 3.38215768,1.37178423 3.40580913,0.969709544 C3.40580913,0.473029046 3.73692946,0.118257261 3.73692946,0.118257261 C3.73692946,0.118257261 1.5373444,0.141908714 1.70290456,2.12863071 C1.72655602,2.53070539 2.05767635,3.16929461 1.49004149,3.21659751 C1.0406639,3.26390041 1.06431535,2.64896266 1.0879668,2.38879668 C1.11161826,1.89211618 -0.0473029046,3.19294606 0.260165975,5.08506224 C0.709543568,7.99419087 6.12572614,7.99419087 5.81825726,3.97344398 Z" id="Shape"></path>
                        </g>
                        <g id="XMLID_3_" transform="translate(26.016598, 10.406639)" fill="#FFFFFF">
                            <path d="M4.94315353,4.09170124 C4.99045643,3.28755187 4.77759336,2.6253112 4.20995851,2.15228216 C3.76058091,1.77385892 3.57136929,1.75020747 3.19294606,1.51369295 C2.95643154,1.37178423 2.69626556,1.15892116 2.60165975,0.780497925 C2.53070539,0.425726141 2.6253112,0.165560166 2.6253112,0.165560166 C2.6253112,0.165560166 2.12863071,0.212863071 1.77385892,0.756846473 C1.56099585,1.0879668 1.5373444,1.37178423 1.70290456,2.29419087 C1.89211618,3.35850622 0.591286307,3.45311203 0.402074689,2.81452282 C0.283817427,2.48340249 -0.165560166,4.13900415 0.30746888,5.08506224 C0.756846473,5.93651452 1.70290456,6.31493776 2.67261411,6.26763485 C3.6659751,6.1966805 4.87219917,5.46348548 4.94315353,4.09170124 Z" id="Shape"></path>
                        </g>
                        <g id="XMLID_1_" transform="translate(27.435685, 13.954357)" fill="#000000">
                            <path d="M0.0473029046,1.72655602 C0.141908714,1.0879668 0.733195021,1.06431535 1.0406639,0.662240664 C1.20622407,0.425726141 1.18257261,0 1.18257261,0 C1.18257261,0 1.75020747,0.331120332 1.41908714,1.0879668 C1.32448133,1.32448133 1.30082988,1.5846473 1.63195021,1.56099585 C1.82116183,1.56099585 1.96307054,1.37178423 1.98672199,1.27717842 C2.01037344,1.13526971 2.29419087,1.60829876 2.17593361,2.17593361 C1.98672199,3.1219917 -0.189211618,3.19294606 0.0473029046,1.72655602 Z" id="Shape"></path>
                        </g>
                        <ellipse id="Oval" fill="#000000" cx="28.4763485" cy="18.4008299" rx="1.98672199" ry="1.70290456"></ellipse>
                        <path d="M27.2701245,18.4481328 C27.2701245,17.8804979 27.6485477,17.2655602 28.1452282,17.1946058 C28.0979253,17.1946058 28.0506224,17.1709544 28.0033195,17.1709544 C27.4356846,17.1709544 26.9153527,17.7149378 26.8917012,18.4481328 C26.8917012,19.0630705 27.4356846,19.7489627 28.026971,19.7489627 C28.0742739,19.7489627 28.1215768,19.7489627 28.1688797,19.7253112 C27.6485477,19.6307054 27.2701245,19.0157676 27.2701245,18.4481328 Z" id="Shape" fill="#FFFFFF"></path>
                        <g id="XMLID_40_" transform="translate(28.854772, 28.381743)" fill="#FFFFFF">
                            <path d="M1.15892116,8.46721992 C5.43983402,7.99419087 7.37925311,5.67634855 7.21369295,3.14564315 C7.16639004,2.43609959 6.693361,1.67925311 5.98381743,1.06431535 C4.73029046,0.0709543568 3.45311203,0.0709543568 3.1219917,0.0709543568 C1.46639004,0.0709543568 0.118257261,0.733195021 0.118257261,1.56099585 C0.118257261,2.38879668 1.46639004,3.05103734 3.1219917,3.05103734 C3.68962656,3.05103734 4.23360996,2.98008299 4.68298755,2.83817427 C5.08506224,2.79087137 5.1560166,3.26390041 5.10871369,3.45311203 C5.08506224,4.77759336 3.19294606,5.6526971 1.20622407,6.38589212 L1.15892116,8.46721992 Z" id="Shape"></path>
                        </g>
                        <g id="XMLID_12_" transform="translate(28.145228, 28.145228)" fill="#000000">
                            <path d="M0.378423237,9.76804979 C0.283817427,9.76804979 0.212863071,9.72074689 0.189211618,9.62614108 C0.141908714,9.50788382 0.189211618,9.38962656 0.30746888,9.34232365 C0.331120332,9.34232365 0.378423237,9.3186722 0.402074689,9.29502075 C0.473029046,9.24771784 0.52033195,9.22406639 0.591286307,9.20041494 C1.0879668,9.03485477 1.32448133,8.96390041 1.56099585,8.89294606 C1.84481328,8.8219917 2.15228216,8.72738589 2.95643154,8.44356846 C6.57510373,7.16639004 7.97053942,5.72365145 7.75767635,3.40580913 C7.68672199,2.53070539 7.2846473,2.05767635 6.59875519,1.46639004 C5.81825726,0.851452282 4.91950207,0.543983402 3.90248963,0.543983402 L3.90248963,0.543983402 C2.22323651,0.543983402 1.11161826,1.20622407 1.11161826,1.82116183 C1.11161826,2.05767635 1.27717842,2.27053942 1.39543568,2.38879668 C1.89211618,2.86182573 2.83817427,3.14564315 3.87883817,3.09834025 C4.47012448,3.0746888 4.80124481,3.05103734 5.39253112,2.88547718 L5.48713693,2.88547718 C5.91286307,2.93278008 6.17302905,3.26390041 6.1966805,3.71327801 C6.2439834,4.77759336 4.80124481,5.84190871 1.86846473,6.85892116 C1.75020747,6.90622407 1.63195021,6.83526971 1.60829876,6.71701245 C1.56099585,6.59875519 1.63195021,6.48049793 1.75020747,6.45684647 C4.37551867,5.53443983 5.84190871,4.54107884 5.79460581,3.73692946 C5.77095436,3.40580913 5.58174274,3.33485477 5.48713693,3.31120332 C4.89585062,3.47676349 4.51742739,3.50041494 3.92614108,3.52406639 C2.76721992,3.57136929 1.70290456,3.24024896 1.11161826,2.69626556 C0.82780083,2.43609959 0.685892116,2.12863071 0.685892116,1.82116183 C0.685892116,0.875103734 2.10497925,0.118257261 3.90248963,0.118257261 L3.90248963,0.118257261 C5.01410788,0.118257261 6.03112033,0.473029046 6.88257261,1.13526971 C7.63941909,1.79751037 8.08879668,2.36514523 8.18340249,3.38215768 C8.41991701,5.88921162 6.88257261,7.52116183 3.09834025,8.84564315 C2.27053942,9.12946058 1.96307054,9.22406639 1.67925311,9.29502075 C1.44273859,9.3659751 1.22987552,9.41327801 0.733195021,9.60248963 C0.709543568,9.60248963 0.662240664,9.64979253 0.614937759,9.67344398 C0.567634855,9.69709544 0.496680498,9.74439834 0.449377593,9.76804979 C0.425726141,9.76804979 0.402074689,9.76804979 0.378423237,9.76804979 Z" id="Shape"></path>
                        </g>
                        <g id="XMLID_10_" transform="translate(30.273859, 29.046551)" fill="#000000">
                            <ellipse id="Oval" transform="translate(0.675280, 0.960233) rotate(-11.636935) translate(-0.675280, -0.960233) " cx="0.671177395" cy="0.694635276" rx="1" ry="1"></ellipse>
                        </g>
                        <g id="XMLID_35_" transform="translate(21.049793, 28.381743)" fill="#FFFFFF">
                            <path d="M13.126556,11.4709544 C13.126556,9.53153527 11.9439834,8.44356846 8.34896266,7.16639004 C7.61576763,6.90622407 7.99419087,7.09543568 6.22033195,6.43319502 C4.23360996,5.67634855 2.15228216,4.82489627 2.12863071,3.47676349 C2.0813278,3.26390041 2.17593361,2.81452282 2.55435685,2.86182573 C3.00373444,3.00373444 3.54771784,3.0746888 4.1153527,3.0746888 C5.77095436,3.0746888 7.11908714,2.41244813 7.11908714,1.5846473 C7.11908714,0.756846473 5.77095436,0.0946058091 4.1153527,0.0946058091 C3.78423237,0.0946058091 2.50705394,0.0946058091 1.25352697,1.0879668 C0.543983402,1.70290456 0.0709543568,2.45975104 0.0236514523,3.16929461 C-0.141908714,5.7 1.98672199,7.42655602 5.32157676,8.58547718 C6.71701245,9.05850622 7.63941909,9.3186722 8.96390041,9.88630705 C10.0282158,10.3593361 10.5012448,10.5248963 10.6195021,11.5182573 C10.7850622,12.4879668 10.0991701,13.1975104 8.75103734,13.7887967 L8.68008299,16.106639 C11.6365145,15.4443983 13.126556,13.9070539 13.126556,11.4709544 Z" id="Shape"></path>
                        </g>
                        <path d="M26.4896266,46.7352697 C26.513278,45.9311203 27.0809129,45.2452282 27.5539419,45.0323651 L27.4593361,42.7618257 C26.3004149,42.7381743 24.9522822,43.9680498 24.3609959,45.0323651 C23.9825726,45.7182573 23.9352697,48.059751 24.9759336,48.9348548 C26.1585062,49.1713693 26.8207469,49.1713693 27.8141079,49.2186722 C27.8377593,49.1240664 27.7195021,48.840249 27.6958506,48.8165975 C27.1755187,48.6037344 26.4659751,47.5630705 26.4896266,46.7352697 Z" id="Shape" fill="#FFFFFF"></path>
                        <g id="XMLID_8_" transform="translate(20.813278, 28.145228)" fill="#000000">
                            <path d="M8.30165975,16.626971 C8.18340249,16.626971 8.08879668,16.5323651 8.08879668,16.4377593 C8.08879668,16.3195021 8.15975104,16.2248963 8.2780083,16.2012448 C11.1161826,15.9647303 13.386722,13.9070539 13.2211618,11.7074689 C13.1029046,9.95726141 11.660166,8.72738589 8.46721992,7.59211618 C8.13609959,7.47385892 8.04149378,7.45020747 7.87593361,7.37925311 C7.68672199,7.30829876 7.35560166,7.19004149 6.33858921,6.83526971 C3.40580913,5.81825726 1.93941909,4.75394191 2.01037344,3.68962656 C2.0340249,3.21659751 2.29419087,2.90912863 2.71991701,2.86182573 L2.81452282,2.86182573 C3.40580913,3.02738589 3.73692946,3.05103734 4.32821577,3.0746888 C5.36887967,3.1219917 6.33858921,2.83817427 6.81161826,2.36514523 C6.95352697,2.24688797 7.09543568,2.0340249 7.09543568,1.79751037 C7.09543568,1.18257261 5.98381743,0.52033195 4.30456432,0.52033195 L4.30456432,0.52033195 C3.28755187,0.52033195 2.36514523,0.82780083 1.5846473,1.46639004 C0.898755187,2.05767635 0.52033195,2.53070539 0.449377593,3.40580913 C0.236514523,5.7 1.63195021,7.16639004 5.25062241,8.44356846 C6.05477178,8.72738589 6.71701245,8.94024896 7.30829876,9.10580913 C7.80497925,9.27136929 8.30165975,9.41327801 8.79834025,9.60248963 C9.79170124,9.95726141 11.0925311,10.5721992 11.1161826,11.9912863 C11.0925311,12.5352697 10.8323651,13.0082988 10.3829876,13.386722 C9.57883817,14.0726141 8.23070539,14.3327801 7.37925311,14.2381743 C7.26099585,14.2145228 7.16639004,14.119917 7.19004149,14.0016598 C7.21369295,13.8834025 7.30829876,13.7887967 7.42655602,13.8124481 C8.08879668,13.8834025 9.34232365,13.6941909 10.0991701,13.0556017 C10.4539419,12.7481328 10.6431535,12.393361 10.666805,11.9912863 C10.6431535,11.1161826 10.0045643,10.5012448 8.63278008,10.0045643 C8.13609959,9.83900415 7.66307054,9.67344398 7.16639004,9.53153527 C6.57510373,9.34232365 5.91286307,9.12946058 5.10871369,8.84564315 C1.32448133,7.52116183 -0.189211618,5.86556017 0.0236514523,3.38215768 C0.118257261,2.36514523 0.567634855,1.79751037 1.32448133,1.15892116 C2.19958506,0.473029046 3.19294606,0.118257261 4.30456432,0.118257261 L4.30456432,0.118257261 C6.12572614,0.118257261 7.52116183,0.875103734 7.52116183,1.82116183 C7.52116183,2.12863071 7.37925311,2.43609959 7.09543568,2.69626556 C6.52780083,3.24024896 5.43983402,3.57136929 4.28091286,3.52406639 C3.68962656,3.50041494 3.31120332,3.47676349 2.71991701,3.31120332 C2.6253112,3.33485477 2.43609959,3.40580913 2.41244813,3.73692946 C2.36514523,4.56473029 3.85518672,5.55809129 6.45684647,6.45684647 C7.47385892,6.81161826 7.80497925,6.92987552 7.99419087,7.00082988 C8.15975104,7.04813278 8.25435685,7.09543568 8.58547718,7.21369295 C11.9676349,8.41991701 13.4813278,9.76804979 13.6232365,11.7074689 C13.8360996,14.1435685 11.4473029,16.366805 8.30165975,16.626971 L8.30165975,16.626971 Z" id="Shape"></path>
                        </g>
                        <g id="XMLID_2_" transform="translate(25.543568, 28.112125)" fill="#000000">
                            <ellipse id="Oval" transform="translate(0.792062, 1.334473) rotate(-78.363065) translate(-0.792062, -1.334473) " cx="0.525231097" cy="1.33158022" rx="1" ry="1"></ellipse>
                        </g>
                        <path d="M28.0033195,49.4078838 C27.2701245,49.1477178 26.4659751,48.2726141 26.4186722,46.9717842 C26.3713693,46.1676349 26.773444,44.7248963 28.4526971,44.4410788 L28.5236515,44.866805 C26.7970954,45.126971 26.8207469,46.7589212 26.8443983,46.9481328 C26.8917012,47.9887967 27.5302905,48.7692946 28.1452282,49.0058091 L28.0033195,49.4078838 Z" id="Shape" fill="#000000"></path>
                        <path d="M25.4016598,49.5261411 C25.3780083,49.5261411 25.3543568,49.5261411 25.3070539,49.5024896 C23.7224066,48.8165975 23.7460581,46.3568465 24.2190871,45.1742739 C24.6448133,44.0390041 25.519917,42.6908714 28.3344398,42.2178423 C28.4526971,42.1941909 28.5709544,42.2651452 28.5709544,42.3834025 C28.5946058,42.5016598 28.5236515,42.619917 28.4053942,42.619917 C25.8037344,43.0692946 25.0232365,44.2282158 24.6211618,45.3161826 C24.2190871,46.333195 24.1954357,48.5327801 25.4962656,49.1004149 C25.6145228,49.1477178 25.6618257,49.2659751 25.6145228,49.3842324 C25.5672199,49.4788382 25.4962656,49.5261411 25.4016598,49.5261411 Z" id="Shape" fill="#000000"></path>
                        <g id="XMLID_32_" transform="translate(22.941909, 36.659751)" fill="#FFFFFF">
                            <path d="M4.25726141,0.756846473 C4.25726141,0.922406639 4.28091286,1.22987552 4.28091286,1.22987552 C4.28091286,1.39543568 4.25726141,1.5373444 4.18630705,1.5846473 C3.26390041,2.29419087 2.64896266,2.22323651 2.53070539,3.21659751 C2.36514523,4.18630705 3.16929461,4.84854772 4.51742739,5.43983402 L6.97717842,6.10207469 L6.64605809,8.2780083 L4.6120332,7.80497925 C1.67925311,7.16639004 0.0236514523,5.6526971 0.0236514523,3.19294606 C0.0236514523,1.79751037 0.709543568,0.993360996 2.36514523,0.0946058091 L3.26390041,0.425726141 L4.25726141,0.756846473 Z" id="Shape"></path>
                        </g>
                        <path d="M30.5340249,46.7352697 C30.5340249,45.9311203 30.0846473,45.2452282 29.6116183,45.0323651 L29.7062241,42.7618257 C30.8651452,42.7381743 32.213278,43.9680498 32.8045643,45.0323651 C33.1829876,45.7182573 33.3012448,48.0360996 32.2369295,48.9112033 C31.5037344,49.0294606 30.6286307,49.1713693 29.3278008,49.2186722 C29.3041494,49.1240664 29.3987552,48.9112033 29.4224066,48.8875519 C30.5103734,48.5327801 30.5340249,47.4921162 30.5340249,46.7352697 Z" id="Shape" fill="#FFFFFF"></path>
                        <g id="XMLID_14_" transform="translate(25.070539, 37.605809)" fill="#000000">
                            <path d="M6.85892116,11.920332 C6.7879668,11.920332 6.71701245,11.873029 6.66970954,11.8020747 C6.62240664,11.7074689 6.64605809,11.5655602 6.76431535,11.5182573 C7.89958506,10.9033195 7.99419087,8.8219917 7.56846473,7.71037344 C7.2373444,6.85892116 6.7406639,5.96016598 4.44647303,5.17966805 C4.32821577,5.13236515 4.23360996,5.10871369 4.1153527,5.08506224 C3.99709544,5.06141079 3.85518672,5.01410788 3.6186722,4.94315353 C3.42946058,4.89585062 3.24024896,4.84854772 3.0746888,4.80124481 C2.86182573,4.75394191 2.69626556,4.706639 2.5780083,4.68298755 C1.98672199,4.56473029 0.212863071,4.1626556 0.189211618,2.53070539 C0.189211618,1.41908714 0.875103734,0.638589212 2.24688797,0.212863071 C2.36514523,0.189211618 2.48340249,0.236514523 2.50705394,0.354771784 C2.53070539,0.473029046 2.48340249,0.591286307 2.36514523,0.614937759 C1.18257261,0.993360996 0.591286307,1.60829876 0.591286307,2.50705394 C0.614937759,3.38215768 1.25352697,3.92614108 2.64896266,4.23360996 C2.76721992,4.25726141 2.95643154,4.30456432 3.16929461,4.35186722 C3.33485477,4.39917012 3.52406639,4.44647303 3.73692946,4.49377593 C3.97344398,4.56473029 4.1153527,4.58838174 4.23360996,4.63568465 C4.37551867,4.6593361 4.44647303,4.68298755 4.58838174,4.73029046 C7.04813278,5.55809129 7.61576763,6.59875519 7.97053942,7.49751037 C8.46721992,8.7746888 8.3253112,11.0925311 6.97717842,11.8257261 C6.92987552,11.8966805 6.90622407,11.920332 6.85892116,11.920332 Z" id="Shape"></path>
                        </g>
                        <g id="XMLID_11_" transform="translate(22.468880, 36.186722)" fill="#000000">
                            <path d="M6.7879668,13.1738589 L6.64605809,12.7717842 C7.2373444,12.5589212 7.82863071,11.8493776 7.89958506,10.7614108 C7.92323651,10.1937759 7.63941909,9.15311203 6.43319502,8.84564315 C6.40954357,8.84564315 6.00746888,8.72738589 5.43983402,8.60912863 C5.01410788,8.53817427 4.84854772,8.49087137 4.706639,8.46721992 L4.56473029,8.44356846 C1.75020747,7.85228216 0.0236514523,5.96016598 0.189211618,3.64232365 C0.283817427,2.36514523 0.898755187,1.30082988 1.96307054,0.614937759 L1.98672199,0.591286307 C2.17593361,0.473029046 2.31784232,0.378423237 2.88547718,0.165560166 L3.02738589,0.567634855 C2.50705394,0.756846473 2.36514523,0.851452282 2.22323651,0.969709544 L2.19958506,0.993360996 C0.946058091,1.79751037 0.685892116,3.02738589 0.638589212,3.68962656 C0.496680498,5.79460581 2.05767635,7.49751037 4.6593361,8.04149378 L4.80124481,8.06514523 C4.91950207,8.08879668 5.08506224,8.13609959 5.51078838,8.20705394 C6.10207469,8.3253112 6.52780083,8.44356846 6.52780083,8.44356846 C7.80497925,8.7746888 8.3253112,9.88630705 8.30165975,10.7850622 C8.25435685,12.0622407 7.49751037,12.9136929 6.7879668,13.1738589 Z" id="Shape"></path>
                        </g>
                        <polygon id="Shape" fill="#FFFFFF" points="27.5539419 37.7004149 28.021155 37.7950207 28.021155 41.6975104 27.7875485 41.6738589"></polygon>
                    </g>
                </g>
                <g id="nyc-sani-logo-white" transform="translate(63.000000, 16.000000)" fill="#FFFFFF">
                    <g id="Layer_1">
                        <path d="M3.41099262,16.3030303 C3.6538146,16.6666667 3.89663659,16.9090909 4.26086957,17.1515152 C4.62510254,17.3333333 4.98933552,17.5151515 5.47497949,17.5757576 C5.89991797,17.6969697 6.38556194,17.6969697 6.87120591,17.6969697 C7.23543888,17.6969697 7.59967186,17.6969697 8.02461034,17.6363636 C8.44954881,17.5757576 8.81378179,17.4545455 9.11730927,17.3333333 C9.48154225,17.2121212 9.72436423,16.969697 9.96718622,16.6666667 C10.2100082,16.3636364 10.2707137,16 10.2707137,15.5757576 C10.2707137,14.969697 10.0278917,14.5454545 9.60295324,14.2424242 C9.11730927,13.9393939 8.5709598,13.6969697 7.90319934,13.5151515 C7.23543888,13.3333333 6.50697293,13.1515152 5.65709598,12.969697 C4.86792453,12.7878788 4.13945857,12.6060606 3.41099262,12.3030303 C2.74323216,12 2.13617719,11.6363636 1.71123872,11.0909091 C1.22559475,10.6060606 1.04347826,9.87878788 1.04347826,8.96969697 C1.04347826,8.24242424 1.22559475,7.63636364 1.52912223,7.15151515 C1.83264971,6.66666667 2.25758819,6.24242424 2.74323216,5.93939394 C3.22887613,5.63636364 3.83593109,5.39393939 4.44298605,5.21212121 C5.05004102,5.03030303 5.71780148,4.96969697 6.32485644,4.96969697 C7.11402789,4.96969697 7.84249385,5.03030303 8.51025431,5.15151515 C9.17801477,5.27272727 9.78506973,5.51515152 10.2707137,5.87878788 C10.8170632,6.24242424 11.1812961,6.66666667 11.4848236,7.21212121 C11.7883511,7.75757576 11.9704676,8.48484848 12.0311731,9.33333333 L9.72436423,9.33333333 C9.66365874,8.90909091 9.54224774,8.48484848 9.36013126,8.18181818 C9.17801477,7.87878788 8.87448728,7.63636364 8.5709598,7.45454545 C8.26743232,7.27272727 7.90319934,7.15151515 7.53896637,7.03030303 C7.17473339,6.96969697 6.81050041,6.90909091 6.38556194,6.90909091 C6.02132896,6.90909091 5.71780148,6.90909091 5.3535685,6.96969697 C4.98933552,7.03030303 4.68580804,7.09090909 4.38228056,7.27272727 C4.07875308,7.39393939 3.83593109,7.57575758 3.6538146,7.81818182 C3.47169811,8.06060606 3.35028712,8.36363636 3.35028712,8.72727273 C3.35028712,9.15151515 3.47169811,9.45454545 3.77522559,9.6969697 C4.07875308,9.93939394 4.44298605,10.1818182 4.86792453,10.3636364 C5.292863,10.5454545 5.77850697,10.6666667 6.32485644,10.7878788 C6.87120591,10.9090909 7.41755537,11.030303 7.96390484,11.1515152 C8.5709598,11.2727273 9.11730927,11.4545455 9.66365874,11.6363636 C10.2100082,11.8181818 10.6956522,12.0606061 11.1205906,12.3636364 C11.5455291,12.6666667 11.9097621,13.030303 12.1525841,13.5151515 C12.3954061,14 12.5775226,14.5454545 12.5775226,15.2121212 C12.5775226,16.0606061 12.3954061,16.7878788 12.0311731,17.3333333 C11.6669401,17.8787879 11.2420016,18.3636364 10.6349467,18.6666667 C10.0885972,19.030303 9.42083675,19.2727273 8.6923708,19.3939394 C7.96390484,19.5151515 7.23543888,19.5757576 6.56767842,19.5757576 C5.77850697,19.5757576 5.05004102,19.5151515 4.32157506,19.3333333 C3.59310911,19.1515152 2.98605414,18.9090909 2.43970468,18.5454545 C1.89335521,18.1818182 1.46841674,17.6969697 1.10418376,17.0909091 C0.800656276,16.4848485 0.618539787,15.7575758 0.55783429,14.8484848 L2.86464315,14.8484848 C3.10746514,15.5151515 3.16817063,15.9393939 3.41099262,16.3030303 Z" id="Shape"></path>
                        <path d="M27.8146021,19.3939394 C27.3896637,19.6363636 26.8433142,19.7575758 26.1755537,19.7575758 C25.5684988,19.7575758 25.0828548,19.5757576 24.7186218,19.2727273 C24.3543888,18.969697 24.1722724,18.3636364 24.1722724,17.6363636 C23.5045119,18.4242424 22.7760459,18.969697 21.926169,19.2727273 C21.076292,19.6363636 20.1657096,19.7575758 19.1944217,19.7575758 C18.5266612,19.7575758 17.9803117,19.6969697 17.3732568,19.5151515 C16.8269073,19.3939394 16.2805578,19.1515152 15.8556194,18.8484848 C15.4306809,18.5454545 15.1271534,18.1212121 14.8843314,17.6363636 C14.6415094,17.1515152 14.5200984,16.5454545 14.5200984,15.8181818 C14.5200984,15.030303 14.6415094,14.3636364 14.9450369,13.8787879 C15.2485644,13.3939394 15.5520919,12.969697 16.0377358,12.6666667 C16.4626743,12.3636364 17.0090238,12.1212121 17.5553733,11.9393939 C18.1017227,11.7575758 18.7087777,11.6363636 19.3158326,11.5151515 C19.9228876,11.3939394 20.5299426,11.2727273 21.1369975,11.2121212 C21.683347,11.1515152 22.2296965,11.030303 22.6546349,10.9090909 C23.0795734,10.7878788 23.4438064,10.6060606 23.6866284,10.3636364 C23.9294504,10.1212121 24.0508614,9.81818182 24.0508614,9.39393939 C24.0508614,8.90909091 23.9294504,8.48484848 23.7473339,8.18181818 C23.5652174,7.87878788 23.3223954,7.63636364 23.0188679,7.45454545 C22.7153404,7.27272727 22.3511075,7.15151515 21.9868745,7.15151515 C21.6226415,7.09090909 21.2584085,7.09090909 20.8941756,7.09090909 C19.9228876,7.09090909 19.0730107,7.27272727 18.4052502,7.63636364 C17.7374897,8 17.3732568,8.72727273 17.3125513,9.75757576 L15.0057424,9.75757576 C15.0664479,8.90909091 15.2485644,8.12121212 15.5520919,7.57575758 C15.8556194,6.96969697 16.3412633,6.48484848 16.8876128,6.12121212 C17.4339623,5.75757576 18.0410172,5.45454545 18.7694832,5.33333333 C19.4979491,5.21212121 20.2264151,5.09090909 21.0155865,5.09090909 C21.6226415,5.09090909 22.290402,5.15151515 22.8974569,5.21212121 C23.5045119,5.27272727 24.1115669,5.51515152 24.5972108,5.75757576 C25.0828548,6.06060606 25.5077933,6.42424242 25.8113208,6.96969697 C26.1148482,7.45454545 26.2969647,8.12121212 26.2969647,8.96969697 L26.2969647,16.1818182 C26.2969647,16.7272727 26.3576702,17.1515152 26.4183757,17.3939394 C26.4790812,17.6363636 26.7219032,17.7575758 27.0861362,17.7575758 C27.2682527,17.7575758 27.5110747,17.6969697 27.8146021,17.6363636 L27.8146021,19.3939394 Z M24.0508614,12.1818182 C23.7473339,12.4242424 23.3831009,12.5454545 22.8974569,12.6666667 C22.411813,12.7878788 21.926169,12.8484848 21.3798195,12.9090909 C20.8334701,12.969697 20.3478261,13.030303 19.8014766,13.1515152 C19.2551272,13.2121212 18.8301887,13.3939394 18.4052502,13.5151515 C17.9803117,13.6969697 17.6160788,13.9393939 17.3732568,14.3030303 C17.1304348,14.6666667 16.9483183,15.0909091 16.9483183,15.6969697 C16.9483183,16.0606061 17.0090238,16.4242424 17.1911403,16.6666667 C17.3732568,16.9090909 17.5553733,17.1515152 17.7981952,17.3333333 C18.0410172,17.5151515 18.3445447,17.6363636 18.6480722,17.6969697 C18.9515997,17.7575758 19.3158326,17.8181818 19.6800656,17.8181818 C20.4692371,17.8181818 21.076292,17.6969697 21.6226415,17.5151515 C22.168991,17.3333333 22.5939295,17.030303 22.9581624,16.7272727 C23.3223954,16.4242424 23.5652174,16.0606061 23.7473339,15.6969697 C23.9294504,15.3333333 23.9901559,14.969697 23.9901559,14.6666667 L23.9901559,12.1818182 L24.0508614,12.1818182 Z" id="Shape"></path>
                        <path d="M32.1246924,5.39393939 L32.1246924,7.63636364 L32.1853979,7.63636364 C33.1566858,5.93939394 34.6743232,5.09090909 36.7990156,5.09090909 C37.709598,5.09090909 38.4987695,5.21212121 39.1058244,5.45454545 C39.7128794,5.6969697 40.1985234,6.06060606 40.6234619,6.54545455 C40.9876948,7.03030303 41.2912223,7.51515152 41.4126333,8.18181818 C41.5947498,8.78787879 41.6554553,9.51515152 41.6554553,10.2424242 L41.6554553,19.5151515 L39.3486464,19.5151515 L39.3486464,9.93939394 C39.3486464,9.09090909 39.1058244,8.36363636 38.559475,7.87878788 C38.073831,7.39393939 37.3453651,7.09090909 36.4347826,7.09090909 C35.7063167,7.09090909 35.0992617,7.21212121 34.6136177,7.39393939 C34.0672683,7.63636364 33.6423298,7.93939394 33.3388023,8.3030303 C32.9745693,8.72727273 32.7317473,9.15151515 32.5496308,9.6969697 C32.3675144,10.2424242 32.3068089,10.8484848 32.3068089,11.4545455 L32.3068089,19.3939394 L30,19.3939394 L30,5.39393939 L32.1246924,5.39393939 Z" id="Shape"></path>
                        <path d="M45.2977851,2.84848485 L45.2977851,0 L47.6045939,0 L47.6045939,2.84848485 L45.2977851,2.84848485 Z M47.6045939,5.39393939 L47.6045939,19.5151515 L45.2977851,19.5151515 L45.2977851,5.39393939 L47.6045939,5.39393939 Z" id="Shape"></path>
                        <path d="M57.2567678,5.39393939 L57.2567678,7.45454545 L54.464315,7.45454545 L54.464315,16.1818182 C54.464315,16.4848485 54.464315,16.6666667 54.5250205,16.8484848 C54.585726,17.030303 54.6464315,17.1515152 54.7678425,17.2121212 C54.8892535,17.3333333 55.07137,17.3333333 55.314192,17.3939394 C55.5570139,17.4545455 55.8605414,17.4545455 56.2247744,17.4545455 L57.3174733,17.4545455 L57.3174733,19.5151515 L55.5570139,19.5151515 C54.949959,19.5151515 54.464315,19.4545455 54.0393765,19.3939394 C53.6144381,19.3333333 53.2502051,19.1515152 53.0073831,18.969697 C52.7645611,18.7272727 52.5217391,18.4242424 52.4003281,18.0606061 C52.2789171,17.6969697 52.2182116,17.1515152 52.2182116,16.4848485 L52.2182116,7.39393939 L49.7899918,7.39393939 L49.7899918,5.39393939 L52.2182116,5.39393939 L52.2182116,1.15151515 L54.5250205,1.15151515 L54.5250205,5.39393939 L57.2567678,5.39393939 Z" id="Shape"></path>
                        <path d="M72.3117309,19.3939394 C71.8867925,19.6363636 71.340443,19.7575758 70.6726825,19.7575758 C70.0656276,19.7575758 69.5799836,19.5757576 69.2157506,19.2727273 C68.8515176,18.969697 68.6694011,18.3636364 68.6694011,17.6363636 C68.0016407,18.4242424 67.2731747,18.969697 66.4232978,19.2727273 C65.5734208,19.6363636 64.6628384,19.7575758 63.6915505,19.7575758 C63.02379,19.7575758 62.4774405,19.6969697 61.8703856,19.5151515 C61.3240361,19.3939394 60.7776866,19.1515152 60.3527482,18.8484848 C59.9278097,18.5454545 59.6242822,18.1212121 59.3814602,17.6363636 C59.1386382,17.1515152 59.0172272,16.5454545 59.0172272,15.8181818 C59.0172272,15.030303 59.1386382,14.3636364 59.4421657,13.8787879 C59.7456932,13.3939394 60.0492207,12.969697 60.5348646,12.6666667 C60.9598031,12.3636364 61.5061526,12.1212121 62.0525021,11.9393939 C62.5988515,11.7575758 63.2059065,11.6363636 63.8129614,11.5151515 C64.4200164,11.3939394 65.0270714,11.2727273 65.6341263,11.2121212 C66.1804758,11.1515152 66.7268253,11.030303 67.1517637,10.9090909 C67.5767022,10.7878788 67.9409352,10.6060606 68.1837572,10.3636364 C68.4265792,10.1212121 68.5479902,9.81818182 68.5479902,9.39393939 C68.5479902,8.90909091 68.4265792,8.48484848 68.2444627,8.18181818 C68.0623462,7.87878788 67.8195242,7.63636364 67.5159967,7.45454545 C67.2124692,7.27272727 66.8482363,7.15151515 66.4840033,7.15151515 C66.1197703,7.09090909 65.7555373,7.09090909 65.3913043,7.09090909 C64.4200164,7.09090909 63.5701395,7.27272727 62.902379,7.63636364 C62.2346185,8 61.8703856,8.72727273 61.8096801,9.75757576 L59.5028712,9.75757576 C59.5635767,8.90909091 59.7456932,8.12121212 60.0492207,7.57575758 C60.3527482,6.96969697 60.8383921,6.48484848 61.3847416,6.12121212 C61.9310911,5.75757576 62.538146,5.45454545 63.266612,5.33333333 C63.9950779,5.21212121 64.7235439,5.09090909 65.5127153,5.09090909 C66.1197703,5.09090909 66.7875308,5.15151515 67.3945857,5.21212121 C68.0016407,5.27272727 68.6086957,5.51515152 69.0943396,5.75757576 C69.5799836,6.06060606 70.0049221,6.42424242 70.3084495,6.96969697 C70.611977,7.45454545 70.7940935,8.12121212 70.7940935,8.96969697 L70.7940935,16.1818182 C70.7940935,16.7272727 70.854799,17.1515152 70.9155045,17.3939394 C70.97621,17.6363636 71.219032,17.7575758 71.583265,17.7575758 C71.7653815,17.7575758 72.0082034,17.6969697 72.3117309,17.6363636 L72.3117309,19.3939394 L72.3117309,19.3939394 Z M68.5479902,12.1818182 C68.2444627,12.4242424 67.8802297,12.5454545 67.3945857,12.6666667 C66.9089418,12.7878788 66.4232978,12.8484848 65.8769483,12.9090909 C65.3305989,12.969697 64.8449549,13.030303 64.2986054,13.1515152 C63.7522559,13.2121212 63.3273175,13.3939394 62.902379,13.5151515 C62.4774405,13.6969697 62.1132075,13.9393939 61.8703856,14.3030303 C61.6275636,14.6666667 61.4454471,15.0909091 61.4454471,15.6969697 C61.4454471,16.0606061 61.5061526,16.4242424 61.6882691,16.6666667 C61.8703856,16.9090909 62.0525021,17.1515152 62.295324,17.3333333 C62.538146,17.5151515 62.8416735,17.6363636 63.145201,17.6969697 C63.4487285,17.7575758 63.8129614,17.8181818 64.1771944,17.8181818 C64.9663659,17.8181818 65.5734208,17.6969697 66.1197703,17.5151515 C66.6661198,17.3333333 67.0910582,17.030303 67.4552912,16.7272727 C67.8195242,16.4242424 68.0623462,16.0606061 68.2444627,15.6969697 C68.4265792,15.3333333 68.4872847,14.969697 68.4872847,14.6666667 L68.4872847,12.1818182 L68.5479902,12.1818182 Z" id="Shape"></path>
                        <path d="M80.5069729,5.39393939 L80.5069729,7.45454545 L77.7145201,7.45454545 L77.7145201,16.1818182 C77.7145201,16.4848485 77.7145201,16.6666667 77.7752256,16.8484848 C77.8359311,17.030303 77.8966366,17.1515152 78.0180476,17.2121212 C78.1394586,17.3333333 78.3215751,17.3333333 78.564397,17.3939394 C78.807219,17.4545455 79.1107465,17.4545455 79.4749795,17.4545455 L80.5676784,17.4545455 L80.5676784,19.5151515 L78.807219,19.5151515 C78.2001641,19.5151515 77.7145201,19.4545455 77.2895816,19.3939394 C76.8646432,19.3333333 76.5004102,19.1515152 76.2575882,18.969697 C76.0147662,18.7272727 75.7719442,18.4242424 75.6505332,18.0606061 C75.5291222,17.6969697 75.4684167,17.1515152 75.4684167,16.4848485 L75.4684167,7.39393939 L73.0401969,7.39393939 L73.0401969,5.39393939 L75.4684167,5.39393939 L75.4684167,1.15151515 L77.7752256,1.15151515 L77.7752256,5.39393939 L80.5069729,5.39393939 Z" id="Shape"></path>
                        <path d="M83.2387203,2.84848485 L83.2387203,0 L85.5455291,0 L85.5455291,2.84848485 L83.2387203,2.84848485 Z M85.5455291,5.39393939 L85.5455291,19.5151515 L83.2387203,19.5151515 L83.2387203,5.39393939 L85.5455291,5.39393939 Z" id="Shape"></path>
                        <path d="M88.8236259,9.51515152 C89.1271534,8.60606061 89.5520919,7.81818182 90.1591468,7.15151515 C90.7662018,6.48484848 91.4339623,5.93939394 92.3445447,5.57575758 C93.1944217,5.21212121 94.1657096,5.03030303 95.319114,5.03030303 C96.4725185,5.03030303 97.4438064,5.21212121 98.2936833,5.57575758 C99.1435603,5.93939394 99.8720263,6.48484848 100.418376,7.15151515 C101.025431,7.81818182 101.450369,8.60606061 101.753897,9.51515152 C102.057424,10.4242424 102.178835,11.3939394 102.178835,12.4242424 C102.178835,13.4545455 102.057424,14.4242424 101.753897,15.3333333 C101.450369,16.2424242 101.025431,17.030303 100.418376,17.6363636 C99.8113208,18.3030303 99.1435603,18.8484848 98.2936833,19.2121212 C97.4438064,19.5757576 96.4725185,19.7575758 95.319114,19.7575758 C94.2264151,19.7575758 93.1944217,19.5757576 92.3445447,19.2121212 C91.4946678,18.8484848 90.7662018,18.3030303 90.1591468,17.6363636 C89.5520919,16.969697 89.1271534,16.1818182 88.8236259,15.3333333 C88.5200984,14.4242424 88.3986874,13.4545455 88.3986874,12.4242424 C88.3986874,11.3939394 88.5200984,10.4242424 88.8236259,9.51515152 Z M91.1911403,14.7272727 C91.4339623,15.3939394 91.7374897,15.9393939 92.1624282,16.3636364 C92.5873667,16.7878788 93.0123052,17.1515152 93.5586546,17.3939394 C94.1050041,17.6363636 94.6513536,17.7575758 95.2584085,17.7575758 C95.8654635,17.7575758 96.411813,17.6363636 96.9581624,17.3939394 C97.5045119,17.1515152 97.9901559,16.7878788 98.3543888,16.3636364 C98.7793273,15.9393939 99.0828548,15.3939394 99.3256768,14.7272727 C99.5684988,14.0606061 99.6899098,13.3333333 99.6899098,12.4242424 C99.6899098,11.5757576 99.5684988,10.7878788 99.3256768,10.1212121 C99.0828548,9.45454545 98.7793273,8.90909091 98.3543888,8.42424242 C97.9294504,7.93939394 97.5045119,7.63636364 96.9581624,7.39393939 C96.411813,7.15151515 95.8654635,7.03030303 95.2584085,7.03030303 C94.6513536,7.03030303 94.1050041,7.15151515 93.5586546,7.39393939 C93.0123052,7.63636364 92.5266612,8 92.1624282,8.42424242 C91.7374897,8.90909091 91.4339623,9.45454545 91.1911403,10.1212121 C90.9483183,10.7878788 90.8269073,11.5151515 90.8269073,12.4242424 C90.8876128,13.2727273 90.9483183,14.0606061 91.1911403,14.7272727 Z" id="Shape"></path>
                        <path d="M107.035275,5.39393939 L107.035275,7.63636364 L107.09598,7.63636364 C108.067268,5.93939394 109.584906,5.09090909 111.709598,5.09090909 C112.62018,5.09090909 113.409352,5.21212121 114.016407,5.45454545 C114.623462,5.6969697 115.109106,6.06060606 115.534044,6.54545455 C115.898277,7.03030303 116.201805,7.51515152 116.323216,8.18181818 C116.505332,8.78787879 116.566038,9.51515152 116.566038,10.2424242 L116.566038,19.5151515 L114.259229,19.5151515 L114.259229,9.93939394 C114.259229,9.09090909 114.016407,8.36363636 113.470057,7.87878788 C112.984413,7.39393939 112.255947,7.09090909 111.345365,7.09090909 C110.616899,7.09090909 110.009844,7.21212121 109.5242,7.39393939 C108.977851,7.63636364 108.552912,7.93939394 108.249385,8.3030303 C107.885152,8.72727273 107.64233,9.15151515 107.460213,9.6969697 C107.278097,10.2424242 107.217391,10.8484848 107.217391,11.4545455 L107.217391,19.3939394 L104.910582,19.3939394 L104.910582,5.39393939 L107.035275,5.39393939 Z" id="Shape"></path>
                    </g>
                </g>
            </g>
        </g>
    </g>
</svg>