<?xml version="1.0" encoding="utf-8"?>
<!-- Generator: Adobe Illustrator 21.1.0, SVG Export Plug-In . SVG Version: 6.00 Build 0)  -->
<svg version="1.0" xmlns="http://www.w3.org/2000/svg" xmlns:xlink="http://www.w3.org/1999/xlink" x="0px" y="0px"
	 viewBox="0 0 514.5 383.2" enable-background="new 0 0 514.5 383.2" xml:space="preserve">
<g id="Layer_3">
	<path fill="#F7941D" d="M268.9,150V0c0,0,84.7-1.3,129.9,75c0,0,38.8,58.9,9.2,131.2L268.9,150z"/>
	<path fill="#939598" d="M268.9,150l-65.8,134.9c0,0,61.1,32.7,123.9,3.5c0,0,49.6-14.5,81-82.1L268.9,150z"/>
	<path fill="#7C51A1" d="M138.3,223.9c0,0,15.5,35.8,64.9,61L268.9,150L138.3,223.9z"/>
	<linearGradient id="SVGID_1_" gradientUnits="userSpaceOnUse" x1="133.7463" y1="220.9672" x2="274.7452" y2="3.8479">
		<stop  offset="0" style="stop-color:#1B75BC"/>
		<stop  offset="0.1828" style="stop-color:#1B75BC"/>
		<stop  offset="0.7688" style="stop-color:#39B54A"/>
		<stop  offset="1" style="stop-color:#39B54A"/>
	</linearGradient>
	<path fill="url(#SVGID_1_)" d="M268.9,0c0,0-92.9-4.9-138.4,92c0,0-30.8,69.8,7.8,131.9l130.6-73.8V0z"/>
</g>
<g id="Layer_1">
	<g>
		<g>
			<g>
				<g>
					<path fill="#7D9FD3" d="M268.8,149.9l-123.7-21.8c1.9-10.9,5.2-21.2,9.9-31.3L268.8,149.9z"/>
				</g>
			</g>
			<g>
				<g>
					<path fill="#5688C7" d="M268.8,149.9l-108.7,62.8c-15.3-26.5-20.2-54.4-14.9-84.6L268.8,149.9z"/>
				</g>
			</g>
			<g>
				<g>
					<path fill="#D3C8E3" d="M268.8,149.9l-107.6,64.7c-0.6-1-0.6-0.9-1.1-1.9L268.8,149.9z"/>
				</g>
			</g>
			<g>
				<g>
					<path fill="#B19ACA" d="M268.8,149.9l-102.9,72c-1.6-2.3-3.3-5-4.8-7.4L268.8,149.9z"/>
				</g>
			</g>
			<g>
				<g>
					<path fill="#A58AC0" d="M268.8,149.9l-93.3,84c-3.7-4.1-6.4-7.5-9.5-12L268.8,149.9z"/>
				</g>
			</g>
			<g>
				<g>
					<path fill="#8F6DB0" d="M268.8,149.9l-55,112.9c-15-7.3-27.1-16.4-38.3-28.8L268.8,149.9z"/>
				</g>
			</g>
			<g>
				<g>
					<path fill="#BCBEC0" d="M268.8,149.9l-17.5,124.3c-13.8-1.9-25-5.4-37.6-11.5L268.8,149.9z"/>
				</g>
			</g>
			<g>
				<g>
					<path fill="#A7A9AC" d="M268.8,149.9l116.4,47c-22,54.3-75.9,85.5-133.9,77.3L268.8,149.9z"/>
				</g>
			</g>
			<g>
				<g>
					<path fill="#FED09E" d="M268.8,149.9h125.6c0,16.7-2.9,31.5-9.1,47L268.8,149.9z"/>
				</g>
			</g>
			<g>
				<g>
					<path fill="#FCBB76" d="M268.8,149.9l113.8-53.1c8.2,17.7,11.8,33.6,11.8,53.1H268.8z"/>
				</g>
			</g>
			<g>
				<g>
					<path fill="#FAA74A" d="M268.8,149.9V24.3c50.2,0,92.6,27,113.8,72.5L268.8,149.9z"/>
				</g>
			</g>
			<g>
				<g>
					<path fill="#6DC067" d="M268.8,149.9L155,96.8c21.2-45.5,63.6-72.5,113.8-72.5V149.9z"/>
				</g>
			</g>
		</g>
		<g>
			<g>
			</g>
			<g>
			</g>
			<g>
			</g>
			<g>
			</g>
			<g>
			</g>
			<g>
			</g>
			<g>
			</g>
			<g>
			</g>
			<g>
			</g>
			<g>
			</g>
			<g>
			</g>
			<g>
			</g>
		</g>
		<g>
			<g>
				<text transform="matrix(0.9999 -1.745000e-02 1.745000e-02 0.9999 159.11 115.5252)"><tspan x="0" y="0" fill="#FFFFFF" font-family="'Helvetica-Bold'" font-size="10px">4%</tspan><tspan x="-26.7" y="12" fill="#FFFFFF" font-family="'Helvetica-Bold'" font-size="10px">Rigid plastics </tspan></text>
			</g>
			<g>
				<text transform="matrix(0.9999 -1.745000e-02 1.745000e-02 0.9999 160.1215 154.5424)"><tspan x="0" y="0" fill="#FFFFFF" font-family="'Helvetica-Bold'" font-size="11px">1</tspan><tspan x="5.5" y="0" fill="#FFFFFF" font-family="'Helvetica-Bold'" font-size="11px">1%</tspan><tspan x="-23.5" y="13.2" fill="#FFFFFF" font-family="'Helvetica-Bold'" font-size="11px">Metal, glass, </tspan><tspan x="-31.2" y="26.4" fill="#FFFFFF" font-family="'Helvetica-Bold'" font-size="11px">plastic, cartons </tspan></text>
			</g>
			<g>
				<text transform="matrix(0.9999 -1.745000e-02 1.745000e-02 0.9999 133.4047 270.1296)"><tspan x="0" y="0" fill="#7C51A1" font-family="'Helvetica-Bold'" font-size="10px">0.4%</tspan><tspan x="-68.3" y="12" fill="#7C51A1" font-family="'Helvetica-Bold'" font-size="10px">Harmful household</tspan><tspan x="-20" y="24" fill="#7C51A1" font-family="'Helvetica-Bold'" font-size="10px">products</tspan></text>
			</g>
			<g>
				<text transform="matrix(0.9999 -1.745000e-02 1.745000e-02 0.9999 146.2437 316.1254)"><tspan x="0" y="0" fill="#7C51A1" font-family="'Helvetica-Bold'" font-size="10px">1%</tspan><tspan x="-23.3" y="12" fill="#7C51A1" font-family="'Helvetica-Bold'" font-size="10px">E-waste</tspan></text>
			</g>
			<g>
				<text transform="matrix(0.9999 -1.745000e-02 1.745000e-02 0.9999 177.1604 354.3527)"><tspan x="0" y="0" fill="#7C51A1" font-family="'Helvetica-Bold'" font-size="10px">2%</tspan><tspan x="0" y="12" fill="#7C51A1" font-family="'Helvetica-Bold'" font-size="10px">Plastic shopping</tspan><tspan x="0" y="24" fill="#7C51A1" font-family="'Helvetica-Bold'" font-size="10px">bags</tspan></text>
			</g>
			<g>
				<text transform="matrix(0.9999 -1.745000e-02 1.745000e-02 0.9999 189.982 234.054)"><tspan x="0" y="0" fill="#FFFFFF" font-family="'Helvetica-Bold'" font-size="12px">6%</tspan><tspan x="-13.2" y="14.4" fill="#FFFFFF" font-family="'Helvetica-Bold'" font-size="12px">T</tspan><tspan x="-6.8" y="14.4" fill="#FFFFFF" font-family="'Helvetica-Bold'" font-size="12px">extiles</tspan></text>
			</g>
			<g>
				<text transform="matrix(0.9999 -1.745000e-02 1.745000e-02 0.9999 238.8732 313.8601)"><tspan x="0" y="0" fill="#939598" font-family="'Helvetica-Bold'" font-size="10px">5%</tspan><tspan x="0" y="12" fill="#939598" font-family="'Helvetica-Bold'" font-size="10px">Construction,</tspan><tspan x="0" y="24" fill="#939598" font-family="'Helvetica-Bold'" font-size="10px">demolition</tspan></text>
			</g>
			<g>
				<text transform="matrix(0.9999 -1.745000e-02 1.745000e-02 0.9999 293.2197 211.1862)"><tspan x="0" y="0" fill="#FFFFFF" font-family="'Helvetica-Bold'" font-size="14px">21%</tspan><tspan x="-4.7" y="16.8" fill="#FFFFFF" font-family="'Helvetica-Bold'" font-size="14px">Other</tspan></text>
			</g>
			<g>
				<text transform="matrix(0.9999 -1.745000e-02 1.745000e-02 0.9999 358.4987 162.7832)"><tspan x="0" y="0" fill="#FFFFFF" font-family="'Helvetica-Bold'" font-size="11px">6%</tspan><tspan x="-20.8" y="13.2" fill="#FFFFFF" font-family="'Helvetica-Bold'" font-size="11px">Y</tspan><tspan x="-14.1" y="13.2" fill="#FFFFFF" font-family="'Helvetica-Bold'" font-size="11px">ard waste</tspan></text>
			</g>
			<g>
				<text transform="matrix(0.9999 -1.745000e-02 1.745000e-02 0.9999 346.7162 130.371)"><tspan x="0" y="0" fill="#FFFFFF" font-family="'Helvetica-Bold'" font-size="11px">7%</tspan><tspan x="-39.7" y="13.2" fill="#FFFFFF" font-family="'Helvetica-Bold'" font-size="11px">Food-soiled paper</tspan></text>
			</g>
			<g>
				<text transform="matrix(0.9999 -1.745000e-02 1.745000e-02 0.9999 303.4453 79.8378)"><tspan x="0" y="0" fill="#FFFFFF" font-family="'Helvetica-Bold'" font-size="12px">18%</tspan><tspan x="-23.7" y="14.4" fill="#FFFFFF" font-family="'Helvetica-Bold'" font-size="12px">Food scraps</tspan></text>
			</g>
			<g>
				<text transform="matrix(0.9999 -1.745000e-02 1.745000e-02 0.9999 215.5003 73.4886)"><tspan x="0" y="0" fill="#FFFFFF" font-family="'Helvetica-Bold'" font-size="12px">18%</tspan><tspan x="-25.3" y="14.4" fill="#FFFFFF" font-family="'Helvetica-Bold'" font-size="12px">Clean pape</tspan><tspan x="38.7" y="14.4" fill="#FFFFFF" font-family="'Helvetica-Bold'" font-size="12px">r</tspan><tspan x="42.7" y="14.4" fill="#FFFFFF" font-family="'Helvetica-Bold'" font-size="12px">, </tspan><tspan x="-19" y="28.8" fill="#FFFFFF" font-family="'Helvetica-Bold'" font-size="12px">cardboard </tspan></text>
			</g>
		</g>
	</g>
	<g>
	</g>
	<g>
		<path fill="#FED09E" d="M434.3,55.3c0.9,0.6,3,1.5,5.2,1.5c4.1,0,5.3-2.6,5.3-4.5c0-3.3-3-4.7-6-4.7h-1.8v-2.4h1.8
			c2.3,0,5.2-1.2,5.2-4c0-1.9-1.2-3.5-4.1-3.5c-1.9,0-3.7,0.8-4.7,1.5l-0.8-2.3c1.2-0.9,3.6-1.8,6.1-1.8c4.6,0,6.7,2.7,6.7,5.6
			c0,2.4-1.4,4.5-4.3,5.5v0.1c2.9,0.6,5.2,2.7,5.2,6c0,3.7-2.9,7-8.5,7c-2.6,0-4.9-0.8-6.1-1.6L434.3,55.3z"/>
		<path fill="#FED09E" d="M458.9,38.5L458.9,38.5l-4.1,2.2l-0.6-2.4l5.1-2.7h2.7v23.4h-3.1V38.5z"/>
		<path fill="#FED09E" d="M481,42.1c0,4.9-2.6,7.4-5.6,7.4c-2.9,0-5.4-2.3-5.5-7.1c0-4.7,2.6-7.3,5.7-7.3
			C478.8,35.1,481,37.7,481,42.1z M472.4,42.3c-0.1,3,1,5.3,3,5.3c2.1,0,3-2.2,3-5.3c0-2.8-0.8-5.2-3-5.2
			C473.5,37,472.4,39.4,472.4,42.3z M475.2,59.3l13.8-24.2h2l-13.8,24.2H475.2z M496.2,51.8c0,4.9-2.6,7.4-5.6,7.4
			c-2.9,0-5.4-2.3-5.5-7c0-4.7,2.6-7.3,5.7-7.3C494.1,44.8,496.2,47.3,496.2,51.8z M487.7,52c0,3,1.1,5.3,3.1,5.3c2.1,0,3-2.2,3-5.3
			c0-2.8-0.8-5.2-3-5.2C488.7,46.7,487.7,49.1,487.7,52z"/>
		<path fill="#FED09E" d="M423.4,70.9c0,3.2-2,5-4.4,5c-2.5,0-4.2-1.9-4.2-4.8c0-3,1.9-5,4.4-5C421.7,66.1,423.4,68.1,423.4,70.9z
			 M416.1,71.1c0,2,1.1,3.8,3,3.8c1.9,0,3-1.8,3-3.9c0-1.9-1-3.8-3-3.8C417.1,67.1,416.1,69,416.1,71.1z"/>
		<path fill="#FED09E" d="M424.9,71.1c0-0.8,0-1.5-0.1-2.1h1.1l0,1.3h0.1c0.3-0.9,1-1.5,1.9-1.5c0.1,0,0.2,0,0.3,0V70
			c-0.1,0-0.3,0-0.4,0c-0.9,0-1.5,0.7-1.7,1.6c0,0.2-0.1,0.4-0.1,0.6v3.6h-1.2V71.1z"/>
		<path fill="#FED09E" d="M435.2,69c0,0.5-0.1,1-0.1,1.9v3.9c0,1.6-0.3,2.5-1,3.1c-0.7,0.6-1.6,0.8-2.5,0.8c-0.8,0-1.7-0.2-2.3-0.6
			l0.3-0.9c0.4,0.3,1.1,0.5,2,0.5c1.3,0,2.2-0.7,2.2-2.4v-0.8h0c-0.4,0.6-1.1,1.1-2.2,1.1c-1.7,0-2.9-1.4-2.9-3.3
			c0-2.3,1.5-3.6,3.1-3.6c1.2,0,1.8,0.6,2.1,1.2h0l0.1-1H435.2z M434,71.6c0-0.2,0-0.4-0.1-0.6c-0.2-0.7-0.8-1.3-1.7-1.3
			c-1.2,0-2,1-2,2.6c0,1.3,0.7,2.4,2,2.4c0.8,0,1.4-0.5,1.7-1.3c0.1-0.2,0.1-0.4,0.1-0.7V71.6z"/>
		<path fill="#FED09E" d="M441,75.7l-0.1-0.9h0c-0.4,0.5-1.1,1-2.1,1c-1.4,0-2.1-1-2.1-1.9c0-1.6,1.5-2.5,4.1-2.5v-0.1
			c0-0.6-0.2-1.6-1.5-1.6c-0.6,0-1.3,0.2-1.8,0.5l-0.3-0.8c0.6-0.4,1.4-0.6,2.2-0.6c2.1,0,2.6,1.4,2.6,2.8v2.5c0,0.6,0,1.2,0.1,1.6
			H441z M440.8,72.3c-1.3,0-2.9,0.2-2.9,1.5c0,0.8,0.5,1.2,1.2,1.2c0.9,0,1.4-0.6,1.6-1.1c0-0.1,0.1-0.3,0.1-0.4V72.3z"/>
		<path fill="#FED09E" d="M444,70.8c0-0.7,0-1.3-0.1-1.8h1.1l0.1,1.1h0c0.3-0.6,1.1-1.3,2.2-1.3c0.9,0,2.4,0.6,2.4,2.9v4h-1.2v-3.9
			c0-1.1-0.4-2-1.6-2c-0.8,0-1.4,0.6-1.7,1.3c-0.1,0.2-0.1,0.4-0.1,0.6v4.1H444V70.8z"/>
		<path fill="#FED09E" d="M453.1,67c0,0.4-0.3,0.8-0.8,0.8c-0.4,0-0.7-0.3-0.7-0.8c0-0.4,0.3-0.8,0.8-0.8
			C452.8,66.3,453.1,66.6,453.1,67z M451.7,75.7V69h1.2v6.8H451.7z"/>
		<path fill="#FED09E" d="M459.9,75.5c-0.3,0.2-1,0.4-1.9,0.4c-2,0-3.4-1.4-3.4-3.5c0-2.1,1.4-3.6,3.6-3.6c0.7,0,1.4,0.2,1.7,0.4
			l-0.3,1c-0.3-0.2-0.8-0.3-1.4-0.3c-1.6,0-2.4,1.1-2.4,2.6c0,1.6,1,2.5,2.4,2.5c0.7,0,1.2-0.2,1.5-0.3L459.9,75.5z"/>
		<path fill="#FED09E" d="M461.1,74.5c0.4,0.2,1,0.5,1.6,0.5c0.9,0,1.3-0.4,1.3-1c0-0.6-0.3-0.9-1.3-1.2c-1.2-0.4-1.8-1.1-1.8-1.9
			c0-1.1,0.9-2,2.3-2c0.7,0,1.3,0.2,1.7,0.4l-0.3,0.9c-0.3-0.2-0.8-0.4-1.4-0.4c-0.7,0-1.1,0.4-1.1,0.9c0,0.6,0.4,0.8,1.3,1.1
			c1.2,0.4,1.8,1,1.8,2c0,1.2-0.9,2-2.5,2c-0.7,0-1.4-0.2-1.9-0.5L461.1,74.5z"/>
		<path fill="#FED09E" d="M469.6,74.5c0.4,0.2,1,0.5,1.6,0.5c0.9,0,1.3-0.4,1.3-1c0-0.6-0.3-0.9-1.3-1.2c-1.2-0.4-1.8-1.1-1.8-1.9
			c0-1.1,0.9-2,2.3-2c0.7,0,1.3,0.2,1.7,0.4l-0.3,0.9c-0.3-0.2-0.8-0.4-1.4-0.4c-0.7,0-1.1,0.4-1.1,0.9c0,0.6,0.4,0.8,1.3,1.1
			c1.2,0.4,1.8,1,1.8,2c0,1.2-0.9,2-2.5,2c-0.7,0-1.4-0.2-1.9-0.5L469.6,74.5z"/>
		<path fill="#FED09E" d="M481,73.9c0,0.7,0,1.3,0.1,1.8H480l-0.1-1.1h0c-0.3,0.5-1,1.3-2.2,1.3c-1.1,0-2.3-0.6-2.3-3v-4h1.2v3.8
			c0,1.3,0.4,2.2,1.5,2.2c0.8,0,1.4-0.6,1.6-1.1c0.1-0.2,0.1-0.4,0.1-0.6V69h1.2V73.9z"/>
		<path fill="#FED09E" d="M484.4,67c0,0.4-0.3,0.8-0.8,0.8c-0.4,0-0.7-0.3-0.7-0.8c0-0.4,0.3-0.8,0.8-0.8
			C484.1,66.3,484.4,66.6,484.4,67z M483.1,75.7V69h1.2v6.8H483.1z"/>
		<path fill="#FED09E" d="M487.8,67V69h1.8v0.9h-1.8v3.7c0,0.8,0.2,1.3,0.9,1.3c0.3,0,0.6,0,0.7-0.1l0.1,0.9
			c-0.2,0.1-0.6,0.2-1.1,0.2c-0.6,0-1-0.2-1.3-0.5c-0.4-0.4-0.5-1-0.5-1.8v-3.7h-1.1V69h1.1v-1.6L487.8,67z"/>
		<path fill="#FED09E" d="M494.7,75.7l-0.1-0.9h0c-0.4,0.5-1.1,1-2.1,1c-1.4,0-2.1-1-2.1-1.9c0-1.6,1.5-2.5,4.1-2.5v-0.1
			c0-0.6-0.2-1.6-1.5-1.6c-0.6,0-1.3,0.2-1.8,0.5l-0.3-0.8c0.6-0.4,1.4-0.6,2.2-0.6c2.1,0,2.6,1.4,2.6,2.8v2.5c0,0.6,0,1.2,0.1,1.6
			H494.7z M494.5,72.3c-1.3,0-2.9,0.2-2.9,1.5c0,0.8,0.5,1.2,1.2,1.2c0.9,0,1.4-0.6,1.6-1.1c0-0.1,0.1-0.3,0.1-0.4V72.3z"/>
		<path fill="#FED09E" d="M497.7,75.7c0-0.5,0.1-1.1,0.1-1.8v-8.2h1.2V70h0c0.4-0.8,1.2-1.2,2.3-1.2c1.7,0,2.9,1.4,2.9,3.5
			c0,2.4-1.5,3.6-3,3.6c-1,0-1.8-0.4-2.3-1.3h0l-0.1,1.1H497.7z M498.9,73c0,0.2,0,0.3,0.1,0.4c0.2,0.9,1,1.4,1.8,1.4
			c1.3,0,2.1-1.1,2.1-2.6c0-1.4-0.7-2.5-2-2.5c-0.8,0-1.6,0.6-1.9,1.5c0,0.1-0.1,0.3-0.1,0.5V73z"/>
		<path fill="#FED09E" d="M505.7,65.8h1.2v9.9h-1.2V65.8z"/>
		<path fill="#FED09E" d="M509.7,72.6c0,1.7,1.1,2.4,2.3,2.4c0.9,0,1.4-0.2,1.9-0.4l0.2,0.9c-0.4,0.2-1.2,0.4-2.3,0.4
			c-2.1,0-3.3-1.4-3.3-3.4c0-2,1.2-3.7,3.2-3.7c2.2,0,2.8,1.9,2.8,3.2c0,0.3,0,0.4,0,0.6H509.7z M513.3,71.7c0-0.8-0.3-2-1.7-2
			c-1.2,0-1.8,1.1-1.9,2H513.3z"/>
		<path fill="#FED09E" d="M421.1,92.5v-5.8h-1v-0.9h1v-0.3c0-1,0.2-1.8,0.8-2.4c0.5-0.4,1.1-0.6,1.7-0.6c0.4,0,0.8,0.1,1.1,0.2
			l-0.2,1c-0.2-0.1-0.4-0.2-0.8-0.2c-1,0-1.3,0.9-1.3,2v0.4h1.6v0.9h-1.6v5.8H421.1z"/>
		<path fill="#FED09E" d="M431,89.1c0,2.5-1.7,3.6-3.4,3.6c-1.8,0-3.2-1.3-3.2-3.5c0-2.3,1.5-3.6,3.4-3.6
			C429.7,85.6,431,87,431,89.1z M425.6,89.2c0,1.5,0.9,2.6,2.1,2.6c1.2,0,2.1-1.1,2.1-2.6c0-1.1-0.6-2.6-2-2.6
			S425.6,87.9,425.6,89.2z"/>
		<path fill="#FED09E" d="M432.5,87.9c0-0.8,0-1.5-0.1-2.1h1.1l0,1.3h0.1c0.3-0.9,1-1.5,1.9-1.5c0.1,0,0.2,0,0.3,0v1.2
			c-0.1,0-0.3,0-0.4,0c-0.9,0-1.5,0.7-1.7,1.6c0,0.2-0.1,0.4-0.1,0.6v3.6h-1.2V87.9z"/>
		<path fill="#FED09E" d="M444.9,92.3c-0.3,0.2-1,0.4-1.9,0.4c-2,0-3.4-1.4-3.4-3.5c0-2.1,1.4-3.6,3.6-3.6c0.7,0,1.4,0.2,1.7,0.4
			l-0.3,1c-0.3-0.2-0.8-0.3-1.4-0.3c-1.6,0-2.4,1.1-2.4,2.6c0,1.6,1,2.5,2.4,2.5c0.7,0,1.2-0.2,1.5-0.3L444.9,92.3z"/>
		<path fill="#FED09E" d="M452.4,89.1c0,2.5-1.7,3.6-3.4,3.6c-1.8,0-3.2-1.3-3.2-3.5c0-2.3,1.5-3.6,3.4-3.6
			C451.1,85.6,452.4,87,452.4,89.1z M447,89.2c0,1.5,0.9,2.6,2.1,2.6c1.2,0,2.1-1.1,2.1-2.6c0-1.1-0.6-2.6-2-2.6S447,87.9,447,89.2z
			"/>
		<path fill="#FED09E" d="M454,87.6c0-0.7,0-1.3-0.1-1.8h1.1l0.1,1.1h0c0.4-0.6,1-1.2,2.1-1.2c0.9,0,1.6,0.6,1.9,1.4h0
			c0.2-0.4,0.5-0.7,0.8-0.9c0.4-0.3,0.9-0.5,1.5-0.5c0.9,0,2.2,0.6,2.2,2.9v4h-1.2v-3.8c0-1.3-0.5-2.1-1.5-2.1
			c-0.7,0-1.2,0.5-1.5,1.1c-0.1,0.2-0.1,0.4-0.1,0.6v4.2h-1.2v-4.1c0-1.1-0.5-1.9-1.4-1.9c-0.8,0-1.3,0.6-1.5,1.2
			c-0.1,0.2-0.1,0.4-0.1,0.6v4.1H454V87.6z"/>
		<path fill="#FED09E" d="M465.6,88c0-0.9,0-1.6-0.1-2.2h1.1l0.1,1.2h0c0.5-0.8,1.3-1.3,2.4-1.3c1.6,0,2.9,1.4,2.9,3.4
			c0,2.4-1.5,3.6-3.1,3.6c-0.9,0-1.7-0.4-2.1-1.1h0v3.7h-1.2V88z M466.9,89.8c0,0.2,0,0.4,0.1,0.5c0.2,0.9,1,1.4,1.8,1.4
			c1.3,0,2.1-1.1,2.1-2.6c0-1.4-0.7-2.5-2-2.5c-0.8,0-1.6,0.6-1.9,1.5c0,0.2-0.1,0.3-0.1,0.5V89.8z"/>
		<path fill="#FED09E" d="M479.7,89.1c0,2.5-1.7,3.6-3.4,3.6c-1.8,0-3.2-1.3-3.2-3.5c0-2.3,1.5-3.6,3.4-3.6
			C478.4,85.6,479.7,87,479.7,89.1z M474.4,89.2c0,1.5,0.9,2.6,2.1,2.6c1.2,0,2.1-1.1,2.1-2.6c0-1.1-0.6-2.6-2-2.6
			S474.4,87.9,474.4,89.2z"/>
		<path fill="#FED09E" d="M481.1,91.3c0.4,0.2,1,0.5,1.6,0.5c0.9,0,1.3-0.4,1.3-1c0-0.6-0.3-0.9-1.3-1.2c-1.2-0.4-1.8-1.1-1.8-1.9
			c0-1.1,0.9-2,2.3-2c0.7,0,1.3,0.2,1.7,0.4l-0.3,0.9c-0.3-0.2-0.8-0.4-1.4-0.4c-0.7,0-1.1,0.4-1.1,0.9c0,0.6,0.4,0.8,1.3,1.1
			c1.2,0.4,1.8,1,1.8,2c0,1.2-0.9,2-2.5,2c-0.7,0-1.4-0.2-1.9-0.5L481.1,91.3z"/>
		<path fill="#FED09E" d="M488.3,83.8v1.9h1.8v0.9h-1.8v3.7c0,0.8,0.2,1.3,0.9,1.3c0.3,0,0.6,0,0.7-0.1l0.1,0.9
			c-0.2,0.1-0.6,0.2-1.1,0.2c-0.6,0-1-0.2-1.3-0.5c-0.4-0.4-0.5-1-0.5-1.8v-3.7h-1.1v-0.9h1.1v-1.6L488.3,83.8z"/>
		<path fill="#FED09E" d="M492.8,83.8c0,0.4-0.3,0.8-0.8,0.8c-0.4,0-0.7-0.3-0.7-0.8c0-0.4,0.3-0.8,0.8-0.8
			C492.5,83.1,492.8,83.4,492.8,83.8z M491.5,92.5v-6.8h1.2v6.8H491.5z"/>
		<path fill="#FED09E" d="M494.7,87.6c0-0.7,0-1.3-0.1-1.8h1.1l0.1,1.1h0c0.3-0.6,1.1-1.3,2.2-1.3c0.9,0,2.4,0.6,2.4,2.9v4h-1.2
			v-3.9c0-1.1-0.4-2-1.6-2c-0.8,0-1.4,0.6-1.7,1.3c-0.1,0.2-0.1,0.4-0.1,0.6v4.1h-1.2V87.6z"/>
		<path fill="#FED09E" d="M508.4,85.8c0,0.5-0.1,1-0.1,1.9v3.9c0,1.6-0.3,2.5-1,3.1c-0.7,0.6-1.6,0.8-2.5,0.8
			c-0.8,0-1.7-0.2-2.3-0.6l0.3-0.9c0.4,0.3,1.1,0.5,2,0.5c1.3,0,2.2-0.7,2.2-2.4v-0.8h0c-0.4,0.6-1.1,1.1-2.2,1.1
			c-1.7,0-2.9-1.4-2.9-3.3c0-2.3,1.5-3.6,3.1-3.6c1.2,0,1.8,0.6,2.1,1.2h0l0.1-1H508.4z M507.1,88.4c0-0.2,0-0.4-0.1-0.6
			c-0.2-0.7-0.8-1.3-1.7-1.3c-1.2,0-2,1-2,2.6c0,1.3,0.7,2.4,2,2.4c0.8,0,1.4-0.5,1.7-1.3c0.1-0.2,0.1-0.4,0.1-0.7V88.4z"/>
	</g>
	<g>
		<path fill="#939598" d="M387.8,334.1v-1.9l2.5-2.4c6-5.7,8.7-8.7,8.7-12.2c0-2.4-1.2-4.6-4.6-4.6c-2.1,0-3.9,1.1-5,2l-1-2.2
			c1.6-1.4,3.9-2.4,6.6-2.4c5,0,7.2,3.5,7.2,6.8c0,4.3-3.1,7.8-8.1,12.6l-1.9,1.7v0.1h10.5v2.6H387.8z"/>
		<path fill="#939598" d="M419.6,313c-0.6,0-1.5,0-2.4,0.1c-5,0.8-7.6,4.5-8.1,8.3h0.1c1.1-1.5,3.1-2.7,5.7-2.7c4.1,0,7.1,3,7.1,7.6
			c0,4.3-2.9,8.2-7.8,8.2c-5,0-8.3-3.9-8.3-10c0-4.6,1.7-8.2,4-10.5c1.9-1.9,4.5-3.1,7.5-3.5c0.9-0.1,1.7-0.2,2.3-0.2V313z
			 M418.7,326.5c0-3.3-1.9-5.4-4.8-5.4c-1.9,0-3.7,1.2-4.5,2.9c-0.2,0.4-0.4,0.8-0.4,1.4c0.1,3.9,1.8,6.7,5.1,6.7
			C416.9,332.1,418.7,329.8,418.7,326.5z"/>
		<path fill="#939598" d="M435.3,317.3c0,4.9-2.6,7.4-5.6,7.4c-2.9,0-5.4-2.3-5.5-7.1c0-4.7,2.6-7.3,5.7-7.3
			C433.1,310.3,435.3,312.8,435.3,317.3z M426.7,317.5c-0.1,3,1,5.3,3,5.3c2.1,0,3-2.2,3-5.3c0-2.8-0.8-5.2-3-5.2
			C427.7,312.2,426.7,314.6,426.7,317.5z M429.4,334.5l13.8-24.2h2l-13.8,24.2H429.4z M450.5,327c0,4.9-2.6,7.4-5.6,7.4
			c-2.9,0-5.4-2.3-5.5-7c0-4.7,2.6-7.3,5.7-7.3C448.4,320,450.5,322.5,450.5,327z M441.9,327.2c0,3,1.1,5.3,3.1,5.3
			c2.1,0,3-2.2,3-5.3c0-2.8-0.8-5.2-3-5.2C443,321.9,441.9,324.3,441.9,327.2z"/>
		<path fill="#939598" d="M411.1,346.1c0,3.2-2,5-4.4,5c-2.5,0-4.2-1.9-4.2-4.8c0-3,1.9-5,4.4-5
			C409.4,341.3,411.1,343.3,411.1,346.1z M403.8,346.3c0,2,1.1,3.8,3,3.8c1.9,0,3-1.8,3-3.9c0-1.9-1-3.8-3-3.8
			C404.8,342.3,403.8,344.2,403.8,346.3z"/>
		<path fill="#939598" d="M414.3,342.2v1.9h1.8v0.9h-1.8v3.7c0,0.8,0.2,1.3,0.9,1.3c0.3,0,0.6,0,0.7-0.1l0.1,0.9
			c-0.2,0.1-0.6,0.2-1.1,0.2c-0.6,0-1-0.2-1.3-0.5c-0.4-0.4-0.5-1-0.5-1.8v-3.7h-1.1v-0.9h1.1v-1.6L414.3,342.2z"/>
		<path fill="#939598" d="M417.5,341h1.2v4.2h0c0.2-0.4,0.5-0.7,0.9-0.9c0.4-0.2,0.8-0.4,1.3-0.4c0.9,0,2.4,0.6,2.4,2.9v4H422V347
			c0-1.1-0.4-2-1.6-2c-0.8,0-1.4,0.6-1.7,1.2c-0.1,0.2-0.1,0.4-0.1,0.6v4.1h-1.2V341z"/>
		<path fill="#939598" d="M425.9,347.8c0,1.7,1.1,2.4,2.3,2.4c0.9,0,1.4-0.2,1.9-0.3l0.2,0.9c-0.4,0.2-1.2,0.4-2.3,0.4
			c-2.1,0-3.3-1.4-3.3-3.4s1.2-3.7,3.2-3.7c2.2,0,2.8,1.9,2.8,3.2c0,0.3,0,0.4,0,0.6H425.9z M429.6,346.9c0-0.8-0.3-2-1.7-2
			c-1.2,0-1.8,1.1-1.9,2H429.6z"/>
		<path fill="#939598" d="M432.3,346.3c0-0.8,0-1.5-0.1-2.1h1.1l0,1.3h0.1c0.3-0.9,1-1.5,1.9-1.5c0.1,0,0.2,0,0.3,0v1.2
			c-0.1,0-0.3,0-0.4,0c-0.9,0-1.5,0.7-1.7,1.6c0,0.2-0.1,0.4-0.1,0.6v3.6h-1.2V346.3z"/>
	</g>
	<g>
		<path fill="#1B75BC" d="M47.8,69.5c0.9,0.6,3,1.5,5.2,1.5c4.1,0,5.3-2.6,5.3-4.5c0-3.3-3-4.7-6-4.7h-1.8v-2.4h1.8
			c2.3,0,5.2-1.2,5.2-4c0-1.9-1.2-3.5-4.1-3.5c-1.9,0-3.7,0.8-4.7,1.5l-0.8-2.3c1.2-0.9,3.6-1.8,6.1-1.8c4.6,0,6.7,2.7,6.7,5.6
			c0,2.4-1.4,4.5-4.3,5.5v0.1c2.9,0.6,5.2,2.7,5.2,6c0,3.7-2.9,7-8.5,7c-2.6,0-4.9-0.8-6.1-1.6L47.8,69.5z"/>
		<path fill="#1B75BC" d="M66.3,69.5c0.9,0.6,3,1.5,5.2,1.5c4.1,0,5.3-2.6,5.3-4.5c0-3.3-3-4.7-6-4.7H69v-2.4h1.8
			c2.3,0,5.2-1.2,5.2-4c0-1.9-1.2-3.5-4.1-3.5c-1.9,0-3.7,0.8-4.7,1.5l-0.8-2.3c1.2-0.9,3.6-1.8,6.1-1.8c4.6,0,6.7,2.7,6.7,5.6
			c0,2.4-1.4,4.5-4.3,5.5v0.1c2.9,0.6,5.2,2.7,5.2,6c0,3.7-2.9,7-8.5,7c-2.6,0-4.9-0.8-6.1-1.6L66.3,69.5z"/>
		<path fill="#1B75BC" d="M94.6,56.3c0,4.9-2.6,7.4-5.6,7.4c-2.9,0-5.4-2.3-5.5-7.1c0-4.7,2.6-7.3,5.7-7.3
			C92.4,49.3,94.6,51.8,94.6,56.3z M86,56.5c-0.1,3,1,5.3,3,5.3c2.1,0,3-2.2,3-5.3c0-2.8-0.8-5.2-3-5.2C87,51.2,86,53.6,86,56.5z
			 M88.7,73.5l13.8-24.2h2L90.7,73.5H88.7z M109.8,66c0,4.9-2.6,7.4-5.6,7.4c-2.9,0-5.4-2.3-5.5-7c0-4.7,2.6-7.3,5.7-7.3
			C107.7,59,109.8,61.5,109.8,66z M101.2,66.2c0,3,1.1,5.3,3.1,5.3c2.1,0,3-2.2,3-5.3c0-2.8-0.8-5.2-3-5.2
			C102.3,60.9,101.2,63.2,101.2,66.2z"/>
		<path fill="#1B75BC" d="M59.8,89.6c-0.4,0.2-1.3,0.4-2.5,0.4c-2.7,0-4.7-1.7-4.7-4.8c0-3,2-5,4.9-5c1.2,0,1.9,0.3,2.2,0.4l-0.3,1
			c-0.5-0.2-1.1-0.4-1.9-0.4c-2.2,0-3.7,1.4-3.7,3.9c0,2.3,1.3,3.8,3.6,3.8c0.7,0,1.5-0.2,2-0.4L59.8,89.6z"/>
		<path fill="#1B75BC" d="M66.8,88.1c0,0.7,0,1.3,0.1,1.8h-1.1l-0.1-1.1h0c-0.3,0.5-1,1.3-2.2,1.3c-1.1,0-2.3-0.6-2.3-3v-4h1.2v3.8
			c0,1.3,0.4,2.2,1.5,2.2c0.8,0,1.4-0.6,1.6-1.1c0.1-0.2,0.1-0.4,0.1-0.6v-4.2h1.2V88.1z"/>
		<path fill="#1B75BC" d="M68.9,85.2c0-0.8,0-1.5-0.1-2.1h1.1l0,1.3H70c0.3-0.9,1-1.5,1.9-1.5c0.1,0,0.2,0,0.3,0v1.2
			c-0.1,0-0.3,0-0.4,0c-0.9,0-1.5,0.7-1.7,1.6c0,0.2-0.1,0.4-0.1,0.6v3.6h-1.2V85.2z"/>
		<path fill="#1B75BC" d="M73.4,89.9c0-0.5,0.1-1.1,0.1-1.8V80h1.2v4.3h0c0.4-0.8,1.2-1.2,2.3-1.2c1.7,0,2.9,1.4,2.9,3.5
			c0,2.4-1.5,3.6-3,3.6c-1,0-1.8-0.4-2.3-1.3h0l-0.1,1.1H73.4z M74.7,87.2c0,0.2,0,0.3,0.1,0.4c0.2,0.9,1,1.4,1.8,1.4
			c1.3,0,2.1-1.1,2.1-2.6c0-1.4-0.7-2.5-2-2.5c-0.8,0-1.6,0.6-1.9,1.5c0,0.1-0.1,0.3-0.1,0.5V87.2z"/>
		<path fill="#1B75BC" d="M81.3,88.6c0.4,0.2,1,0.5,1.6,0.5c0.9,0,1.3-0.4,1.3-1c0-0.6-0.3-0.9-1.3-1.2c-1.2-0.4-1.8-1.1-1.8-1.9
			c0-1.1,0.9-2,2.3-2c0.7,0,1.3,0.2,1.7,0.4l-0.3,0.9c-0.3-0.2-0.8-0.4-1.4-0.4c-0.7,0-1.1,0.4-1.1,0.9c0,0.6,0.4,0.8,1.3,1.1
			c1.2,0.4,1.8,1,1.8,2c0,1.2-0.9,2-2.5,2c-0.7,0-1.4-0.2-1.9-0.5L81.3,88.6z"/>
		<path fill="#1B75BC" d="M88.4,81.2c0,0.4-0.3,0.8-0.8,0.8c-0.4,0-0.7-0.3-0.7-0.8c0-0.4,0.3-0.8,0.8-0.8
			C88.1,80.4,88.4,80.8,88.4,81.2z M87,89.9v-6.8h1.2v6.8H87z"/>
		<path fill="#1B75BC" d="M96.1,80v8.2c0,0.6,0,1.3,0.1,1.8h-1.1L95,88.7h0c-0.4,0.8-1.2,1.3-2.3,1.3c-1.6,0-2.9-1.4-2.9-3.4
			c0-2.3,1.4-3.6,3-3.6c1,0,1.7,0.5,2,1h0v-4H96.1z M94.9,85.9c0-0.2,0-0.4-0.1-0.5c-0.2-0.8-0.9-1.4-1.8-1.4c-1.3,0-2,1.1-2,2.6
			c0,1.4,0.7,2.5,2,2.5c0.8,0,1.6-0.5,1.8-1.5c0-0.2,0.1-0.3,0.1-0.5V85.9z"/>
		<path fill="#1B75BC" d="M98.9,86.7c0,1.7,1.1,2.4,2.3,2.4c0.9,0,1.4-0.2,1.9-0.4l0.2,0.9c-0.4,0.2-1.2,0.4-2.3,0.4
			c-2.1,0-3.3-1.4-3.3-3.4c0-2,1.2-3.7,3.2-3.7c2.2,0,2.8,1.9,2.8,3.2c0,0.3,0,0.4,0,0.6H98.9z M102.5,85.9c0-0.8-0.3-2-1.7-2
			c-1.2,0-1.8,1.1-1.9,2H102.5z"/>
		<path fill="#1B75BC" d="M46.9,102c0-0.8,0-1.5-0.1-2.1h1.1l0,1.3H48c0.3-0.9,1-1.5,1.9-1.5c0.1,0,0.2,0,0.3,0v1.2
			c-0.1,0-0.3,0-0.4,0c-0.9,0-1.5,0.7-1.7,1.6c0,0.2-0.1,0.4-0.1,0.6v3.6h-1.2V102z"/>
		<path fill="#1B75BC" d="M52,103.5c0,1.7,1.1,2.4,2.3,2.4c0.9,0,1.4-0.2,1.9-0.4l0.2,0.9c-0.4,0.2-1.2,0.4-2.3,0.4
			c-2.1,0-3.3-1.4-3.3-3.4c0-2,1.2-3.7,3.2-3.7c2.2,0,2.8,1.9,2.8,3.2c0,0.3,0,0.4,0,0.6H52z M55.7,102.7c0-0.8-0.3-2-1.7-2
			c-1.2,0-1.8,1.1-1.9,2H55.7z"/>
		<path fill="#1B75BC" d="M63.2,106.4c-0.3,0.2-1,0.4-1.9,0.4c-2,0-3.4-1.4-3.4-3.5c0-2.1,1.4-3.6,3.6-3.6c0.7,0,1.4,0.2,1.7,0.4
			l-0.3,1c-0.3-0.2-0.8-0.3-1.4-0.3c-1.6,0-2.4,1.1-2.4,2.6c0,1.6,1,2.5,2.4,2.5c0.7,0,1.2-0.2,1.5-0.3L63.2,106.4z"/>
		<path fill="#1B75BC" d="M65.3,99.9l1.5,4c0.2,0.4,0.3,1,0.4,1.4h0c0.1-0.4,0.3-0.9,0.4-1.4l1.3-4h1.3l-1.8,4.8
			c-0.9,2.3-1.5,3.5-2.3,4.2c-0.6,0.5-1.2,0.7-1.5,0.8l-0.3-1c0.3-0.1,0.7-0.3,1.1-0.6c0.3-0.3,0.8-0.7,1-1.4
			c0.1-0.1,0.1-0.2,0.1-0.3c0-0.1,0-0.2-0.1-0.3L64,99.9H65.3z"/>
		<path fill="#1B75BC" d="M76.2,106.4c-0.3,0.2-1,0.4-1.9,0.4c-2,0-3.4-1.4-3.4-3.5c0-2.1,1.4-3.6,3.6-3.6c0.7,0,1.4,0.2,1.7,0.4
			l-0.3,1c-0.3-0.2-0.8-0.3-1.4-0.3c-1.6,0-2.4,1.1-2.4,2.6c0,1.6,1,2.5,2.4,2.5c0.7,0,1.2-0.2,1.5-0.3L76.2,106.4z"/>
		<path fill="#1B75BC" d="M77.6,96.8h1.2v9.9h-1.2V96.8z"/>
		<path fill="#1B75BC" d="M84.7,106.7l-0.1-0.9h0c-0.4,0.5-1.1,1-2.1,1c-1.4,0-2.1-1-2.1-1.9c0-1.6,1.5-2.5,4.1-2.5v-0.1
			c0-0.6-0.2-1.6-1.5-1.6c-0.6,0-1.3,0.2-1.8,0.5l-0.3-0.8c0.6-0.4,1.4-0.6,2.2-0.6c2.1,0,2.6,1.4,2.6,2.8v2.5c0,0.6,0,1.2,0.1,1.6
			H84.7z M84.5,103.2c-1.3,0-2.9,0.2-2.9,1.5c0,0.8,0.5,1.2,1.2,1.2c0.9,0,1.4-0.6,1.6-1.1c0-0.1,0.1-0.3,0.1-0.4V103.2z"/>
		<path fill="#1B75BC" d="M87.6,106.7c0-0.5,0.1-1.1,0.1-1.8v-8.2h1.2v4.3h0c0.4-0.8,1.2-1.2,2.3-1.2c1.7,0,2.9,1.4,2.9,3.5
			c0,2.4-1.5,3.6-3,3.6c-1,0-1.8-0.4-2.3-1.3h0l-0.1,1.1H87.6z M88.9,104c0,0.2,0,0.3,0.1,0.4c0.2,0.9,1,1.4,1.8,1.4
			c1.3,0,2.1-1.1,2.1-2.6c0-1.4-0.7-2.5-2-2.5c-0.8,0-1.6,0.6-1.9,1.5c0,0.1-0.1,0.3-0.1,0.5V104z"/>
		<path fill="#1B75BC" d="M95.6,96.8h1.2v9.9h-1.2V96.8z"/>
		<path fill="#1B75BC" d="M99.6,103.5c0,1.7,1.1,2.4,2.3,2.4c0.9,0,1.4-0.2,1.9-0.4l0.2,0.9c-0.4,0.2-1.2,0.4-2.3,0.4
			c-2.1,0-3.3-1.4-3.3-3.4c0-2,1.2-3.7,3.2-3.7c2.2,0,2.8,1.9,2.8,3.2c0,0.3,0,0.4,0,0.6H99.6z M103.2,102.7c0-0.8-0.3-2-1.7-2
			c-1.2,0-1.8,1.1-1.9,2H103.2z"/>
		<path fill="#1B75BC" d="M105.8,105.4c0.4,0.2,1,0.5,1.6,0.5c0.9,0,1.3-0.4,1.3-1c0-0.6-0.3-0.9-1.3-1.2c-1.2-0.4-1.8-1.1-1.8-1.9
			c0-1.1,0.9-2,2.3-2c0.7,0,1.3,0.2,1.7,0.4l-0.3,0.9c-0.3-0.2-0.8-0.4-1.4-0.4c-0.7,0-1.1,0.4-1.1,0.9c0,0.6,0.4,0.8,1.3,1.1
			c1.2,0.4,1.8,1,1.8,2c0,1.2-0.9,2-2.5,2c-0.7,0-1.4-0.2-1.9-0.5L105.8,105.4z"/>
	</g>
	<g>
		<path fill="#7C51A1" d="M23.4,303.4L23.4,303.4l-4.1,2.2l-0.6-2.4l5.1-2.7h2.7v23.4h-3.1V303.4z"/>
		<path fill="#7C51A1" d="M50.5,311.9c0,8-3,12.3-8.1,12.3c-4.6,0-7.7-4.3-7.7-12c0-7.8,3.4-12.2,8.1-12.2
			C47.7,300.1,50.5,304.4,50.5,311.9z M37.8,312.3c0,6.1,1.9,9.5,4.8,9.5c3.2,0,4.8-3.8,4.8-9.8c0-5.8-1.5-9.5-4.8-9.5
			C39.8,302.5,37.8,305.9,37.8,312.3z"/>
		<path fill="#7C51A1" d="M64,307c0,4.9-2.6,7.4-5.6,7.4c-2.9,0-5.4-2.3-5.5-7.1c0-4.7,2.6-7.3,5.7-7.3C61.8,300.1,64,302.6,64,307z
			 M55.4,307.3c-0.1,3,1,5.3,3,5.3c2.1,0,3-2.2,3-5.3c0-2.8-0.8-5.2-3-5.2C56.5,302,55.4,304.3,55.4,307.3z M58.1,324.2l13.8-24.2h2
			l-13.8,24.2H58.1z M79.2,316.7c0,4.9-2.6,7.4-5.6,7.4c-2.9,0-5.4-2.3-5.5-7c0-4.7,2.6-7.3,5.7-7.3
			C77.1,309.7,79.2,312.3,79.2,316.7z M70.6,316.9c0,3,1.1,5.3,3.1,5.3c2.1,0,3-2.2,3-5.3c0-2.8-0.8-5.2-3-5.2
			C71.7,311.6,70.6,314,70.6,316.9z"/>
		<path fill="#7C51A1" d="M8.6,335.8c0,3.2-2,5-4.4,5c-2.5,0-4.2-1.9-4.2-4.8c0-3,1.9-5,4.4-5C7,331.1,8.6,333,8.6,335.8z M1.3,336
			c0,2,1.1,3.8,3,3.8c1.9,0,3-1.8,3-3.9c0-1.9-1-3.8-3-3.8C2.3,332,1.3,333.9,1.3,336z"/>
		<path fill="#7C51A1" d="M11.9,331.9v1.9h1.8v0.9h-1.8v3.7c0,0.8,0.2,1.3,0.9,1.3c0.3,0,0.6,0,0.7-0.1l0.1,0.9
			c-0.2,0.1-0.6,0.2-1.1,0.2c-0.6,0-1-0.2-1.3-0.5c-0.4-0.4-0.5-1-0.5-1.8v-3.7H9.6v-0.9h1.1v-1.6L11.9,331.9z"/>
		<path fill="#7C51A1" d="M15,330.7h1.2v4.2h0c0.2-0.4,0.5-0.7,0.9-0.9c0.4-0.2,0.8-0.4,1.3-0.4c0.9,0,2.4,0.6,2.4,2.9v4h-1.2v-3.9
			c0-1.1-0.4-2-1.6-2c-0.8,0-1.4,0.6-1.7,1.2c-0.1,0.2-0.1,0.4-0.1,0.6v4.1H15V330.7z"/>
		<path fill="#7C51A1" d="M23.5,337.5c0,1.7,1.1,2.4,2.3,2.4c0.9,0,1.4-0.2,1.9-0.3l0.2,0.9c-0.4,0.2-1.2,0.4-2.3,0.4
			c-2.1,0-3.3-1.4-3.3-3.4s1.2-3.7,3.2-3.7c2.2,0,2.8,1.9,2.8,3.2c0,0.3,0,0.4,0,0.6H23.5z M27.1,336.6c0-0.8-0.3-2-1.7-2
			c-1.2,0-1.8,1.1-1.9,2H27.1z"/>
		<path fill="#7C51A1" d="M29.8,336c0-0.8,0-1.5-0.1-2.1h1.1l0,1.3h0.1c0.3-0.9,1-1.5,1.9-1.5c0.1,0,0.2,0,0.3,0v1.2
			c-0.1,0-0.3,0-0.4,0c-0.9,0-1.5,0.7-1.7,1.6c0,0.2-0.1,0.4-0.1,0.6v3.6h-1.2V336z"/>
		<path fill="#7C51A1" d="M43.2,330.7v8.2c0,0.6,0,1.3,0.1,1.8h-1.1l-0.1-1.2h0c-0.4,0.8-1.2,1.3-2.3,1.3c-1.6,0-2.9-1.4-2.9-3.4
			c0-2.3,1.4-3.6,3-3.6c1,0,1.7,0.5,2,1h0v-4H43.2z M42,336.6c0-0.2,0-0.4-0.1-0.5c-0.2-0.8-0.9-1.4-1.8-1.4c-1.3,0-2,1.1-2,2.6
			c0,1.4,0.7,2.5,2,2.5c0.8,0,1.6-0.5,1.8-1.5c0-0.2,0.1-0.3,0.1-0.5V336.6z"/>
		<path fill="#7C51A1" d="M46.6,332c0,0.4-0.3,0.8-0.8,0.8c-0.4,0-0.7-0.3-0.7-0.8c0-0.4,0.3-0.8,0.8-0.8
			C46.3,331.2,46.6,331.5,46.6,332z M45.3,340.6v-6.8h1.2v6.8H45.3z"/>
		<path fill="#7C51A1" d="M49,333.9l1.3,3.8c0.2,0.6,0.4,1.2,0.5,1.7h0c0.2-0.6,0.3-1.1,0.6-1.7l1.3-3.8h1.3l-2.7,6.8h-1.2l-2.6-6.8
			H49z"/>
		<path fill="#7C51A1" d="M55.8,337.5c0,1.7,1.1,2.4,2.3,2.4c0.9,0,1.4-0.2,1.9-0.3l0.2,0.9c-0.4,0.2-1.2,0.4-2.3,0.4
			c-2.1,0-3.3-1.4-3.3-3.4s1.2-3.7,3.2-3.7c2.2,0,2.8,1.9,2.8,3.2c0,0.3,0,0.4,0,0.6H55.8z M59.4,336.6c0-0.8-0.3-2-1.7-2
			c-1.2,0-1.8,1.1-1.9,2H59.4z"/>
		<path fill="#7C51A1" d="M62.1,336c0-0.8,0-1.5-0.1-2.1h1.1l0,1.3h0.1c0.3-0.9,1-1.5,1.9-1.5c0.1,0,0.2,0,0.3,0v1.2
			c-0.1,0-0.3,0-0.4,0c-0.9,0-1.5,0.7-1.7,1.6c0,0.2-0.1,0.4-0.1,0.6v3.6h-1.2V336z"/>
		<path fill="#7C51A1" d="M68.5,331.9v1.9h1.8v0.9h-1.8v3.7c0,0.8,0.2,1.3,0.9,1.3c0.3,0,0.6,0,0.7-0.1l0.1,0.9
			c-0.2,0.1-0.6,0.2-1.1,0.2c-0.6,0-1-0.2-1.3-0.5c-0.4-0.4-0.5-1-0.5-1.8v-3.7h-1.1v-0.9h1.1v-1.6L68.5,331.9z"/>
		<path fill="#7C51A1" d="M75.4,340.6l-0.1-0.9h0c-0.4,0.5-1.1,1-2.1,1c-1.4,0-2.1-1-2.1-1.9c0-1.6,1.5-2.5,4.1-2.5v-0.1
			c0-0.6-0.2-1.6-1.5-1.6c-0.6,0-1.3,0.2-1.8,0.5l-0.3-0.8c0.6-0.4,1.4-0.6,2.2-0.6c2.1,0,2.6,1.4,2.6,2.8v2.5c0,0.6,0,1.2,0.1,1.6
			H75.4z M75.3,337.2c-1.3,0-2.9,0.2-2.9,1.5c0,0.8,0.5,1.2,1.2,1.2c0.9,0,1.4-0.6,1.6-1.1c0-0.1,0.1-0.3,0.1-0.4V337.2z"/>
		<path fill="#7C51A1" d="M78.4,340.6c0-0.5,0.1-1.1,0.1-1.8v-8.2h1.2v4.3h0c0.4-0.8,1.2-1.2,2.3-1.2c1.7,0,2.9,1.4,2.9,3.5
			c0,2.4-1.5,3.6-3,3.6c-1,0-1.8-0.4-2.3-1.3h0l-0.1,1.1H78.4z M79.7,337.9c0,0.2,0,0.3,0.1,0.4c0.2,0.9,1,1.4,1.8,1.4
			c1.3,0,2.1-1.1,2.1-2.6c0-1.4-0.7-2.5-2-2.5c-0.8,0-1.6,0.6-1.9,1.5c0,0.1-0.1,0.3-0.1,0.5V337.9z"/>
		<path fill="#7C51A1" d="M86.4,330.7h1.2v9.9h-1.2V330.7z"/>
		<path fill="#7C51A1" d="M90.4,337.5c0,1.7,1.1,2.4,2.3,2.4c0.9,0,1.4-0.2,1.9-0.3l0.2,0.9c-0.4,0.2-1.2,0.4-2.3,0.4
			c-2.1,0-3.3-1.4-3.3-3.4s1.2-3.7,3.2-3.7c2.2,0,2.8,1.9,2.8,3.2c0,0.3,0,0.4,0,0.6H90.4z M94,336.6c0-0.8-0.3-2-1.7-2
			c-1.2,0-1.8,1.1-1.9,2H94z"/>
		<path fill="#7C51A1" d="M21.9,352.5c0-0.7,0-1.3-0.1-1.8h1.1l0.1,1.1h0c0.4-0.6,1-1.2,2.1-1.2c0.9,0,1.6,0.6,1.9,1.4h0
			c0.2-0.4,0.5-0.7,0.8-0.9c0.4-0.3,0.9-0.5,1.5-0.5c0.9,0,2.2,0.6,2.2,2.9v4h-1.2v-3.8c0-1.3-0.5-2.1-1.5-2.1
			c-0.7,0-1.2,0.5-1.5,1.1c-0.1,0.2-0.1,0.4-0.1,0.6v4.2h-1.2v-4.1c0-1.1-0.5-1.9-1.4-1.9c-0.8,0-1.3,0.6-1.5,1.2
			c-0.1,0.2-0.1,0.4-0.1,0.6v4.1h-1.2V352.5z"/>
		<path fill="#7C51A1" d="M37.3,357.4l-0.1-0.9h0c-0.4,0.5-1.1,1-2.1,1c-1.4,0-2.1-1-2.1-1.9c0-1.6,1.5-2.5,4.1-2.5V353
			c0-0.6-0.2-1.6-1.5-1.6c-0.6,0-1.3,0.2-1.8,0.5l-0.3-0.8c0.6-0.4,1.4-0.6,2.2-0.6c2.1,0,2.6,1.4,2.6,2.8v2.5c0,0.6,0,1.2,0.1,1.6
			H37.3z M37.2,354c-1.3,0-2.9,0.2-2.9,1.5c0,0.8,0.5,1.2,1.2,1.2c0.9,0,1.4-0.6,1.6-1.1c0-0.1,0.1-0.3,0.1-0.4V354z"/>
		<path fill="#7C51A1" d="M41.8,348.7v1.9h1.8v0.9h-1.8v3.7c0,0.8,0.2,1.3,0.9,1.3c0.3,0,0.6,0,0.7-0.1l0.1,0.9
			c-0.2,0.1-0.6,0.2-1.1,0.2c-0.6,0-1-0.2-1.3-0.5c-0.4-0.4-0.5-1-0.5-1.8v-3.7h-1.1v-0.9h1.1V349L41.8,348.7z"/>
		<path fill="#7C51A1" d="M45.5,354.3c0,1.7,1.1,2.4,2.3,2.4c0.9,0,1.4-0.2,1.9-0.3l0.2,0.9c-0.4,0.2-1.2,0.4-2.3,0.4
			c-2.1,0-3.3-1.4-3.3-3.4s1.2-3.7,3.2-3.7c2.2,0,2.8,1.9,2.8,3.2c0,0.3,0,0.4,0,0.6H45.5z M49.1,353.4c0-0.8-0.3-2-1.7-2
			c-1.2,0-1.8,1.1-1.9,2H49.1z"/>
		<path fill="#7C51A1" d="M51.8,352.8c0-0.8,0-1.5-0.1-2.1h1.1l0,1.3H53c0.3-0.9,1-1.5,1.9-1.5c0.1,0,0.2,0,0.3,0v1.2
			c-0.1,0-0.3,0-0.4,0c-0.9,0-1.5,0.7-1.7,1.6c0,0.2-0.1,0.4-0.1,0.6v3.6h-1.2V352.8z"/>
		<path fill="#7C51A1" d="M57.8,348.8c0,0.4-0.3,0.8-0.8,0.8c-0.4,0-0.7-0.3-0.7-0.8c0-0.4,0.3-0.8,0.8-0.8
			C57.5,348,57.8,348.3,57.8,348.8z M56.5,357.4v-6.8h1.2v6.8H56.5z"/>
		<path fill="#7C51A1" d="M63.5,357.4l-0.1-0.9h0c-0.4,0.5-1.1,1-2.1,1c-1.4,0-2.1-1-2.1-1.9c0-1.6,1.5-2.5,4.1-2.5V353
			c0-0.6-0.2-1.6-1.5-1.6c-0.6,0-1.3,0.2-1.8,0.5l-0.3-0.8c0.6-0.4,1.4-0.6,2.2-0.6c2.1,0,2.6,1.4,2.6,2.8v2.5c0,0.6,0,1.2,0.1,1.6
			H63.5z M63.3,354c-1.3,0-2.9,0.2-2.9,1.5c0,0.8,0.5,1.2,1.2,1.2c0.9,0,1.4-0.6,1.6-1.1c0-0.1,0.1-0.3,0.1-0.4V354z"/>
		<path fill="#7C51A1" d="M66.5,347.5h1.2v9.9h-1.2V347.5z"/>
		<path fill="#7C51A1" d="M69.6,356.2c0.4,0.2,1,0.5,1.6,0.5c0.9,0,1.3-0.4,1.3-1c0-0.6-0.3-0.9-1.3-1.2c-1.2-0.4-1.8-1.1-1.8-1.9
			c0-1.1,0.9-2,2.3-2c0.7,0,1.3,0.2,1.7,0.4l-0.3,0.9c-0.3-0.2-0.8-0.4-1.4-0.4c-0.7,0-1.1,0.4-1.1,0.9c0,0.6,0.4,0.8,1.3,1.1
			c1.2,0.4,1.8,1,1.8,2c0,1.2-0.9,2-2.5,2c-0.7,0-1.4-0.2-1.9-0.5L69.6,356.2z"/>
	</g>
	<g>
		<g>
			<rect x="171.8" y="225.3" fill="#A58AC0" width="1" height="124.8"/>
		</g>
		<g>
			<g>
				<circle fill="#A58AC0" cx="172.3" cy="350" r="1.5"/>
			</g>
		</g>
	</g>
	<g>
		<g>
			<rect x="234.2" y="237.6" fill="#BCBEC0" width="1" height="74.8"/>
		</g>
		<g>
			<g>
				<circle fill="#BCBEC0" cx="234.7" cy="312.4" r="1.5"/>
			</g>
		</g>
	</g>
	<g>
		<g>
			<rect x="164.3" y="217.5" fill="#B19ACA" width="1" height="95"/>
		</g>
		<g>
			<g>
				<circle fill="#B19ACA" cx="164.8" cy="312.4" r="1.5"/>
			</g>
		</g>
	</g>
	<g>
		<g>
			<rect x="160.7" y="213.1" fill="#D3C8E3" width="1" height="53.7"/>
		</g>
		<g>
			<g>
				<circle fill="#D3C8E3" cx="161.2" cy="266.7" r="1.5"/>
			</g>
		</g>
	</g>
	<g>
	</g>
	<g>
	</g>
</g>
<g id="Layer_2">
</g>
</svg>
