<?xml version="1.0" encoding="UTF-8"?>
<svg width="539px" height="385px" viewBox="0 0 539 385" version="1.1" xmlns="http://www.w3.org/2000/svg" xmlns:xlink="http://www.w3.org/1999/xlink">
    <!-- Generator: Sketch 43.2 (39069) - http://www.bohemiancoding.com/sketch -->
    <title>waste_characterization_study</title>
    <desc>Created with Sketch.</desc>
    <defs></defs>
    <g id="Page-1" stroke="none" stroke-width="1" fill="none" fill-rule="evenodd">
        <g id="Desktop-HD-4" transform="translate(-140.000000, -3481.000000)">
            <g id="waste_characterization_study" transform="translate(140.000000, 3481.000000)">
                <path d="M273.356,172.406 L204.951,306.658 C175.96,291.886 153.876,269.802 139.104,240.811 L273.356,172.406" id="Fill-1" fill="#714B8D"></path>
                <path d="M273.356,172.406 L411.005,233.691 C377.158,309.712 288.092,343.901 212.071,310.054 C208.954,308.667 205.545,306.933 202.505,305.385 L273.356,172.406" id="Fill-2" fill="#8A8B8A"></path>
                <path d="M273.356,172.406 L273.356,21.731 C356.572,21.731 424.031,89.19 424.031,172.406 C424.031,194.125 419.839,213.849 411.005,233.691 L273.356,172.406" id="Fill-3" fill="#EB8B2D"></path>
                <path d="M273.356,172.406 L139.104,240.811 C101.325,166.665 130.806,75.932 204.951,38.154 C227.566,26.631 247.975,21.731 273.356,21.731 L273.356,172.406" id="Fill-4"></path>
                <path d="M273.423,172.167 L149.768,150.364 C151.634,139.778 155.082,128.844 159.625,119.102 L273.423,172.167" id="Fill-6" fill="#7896C1"></path>
                <path d="M273.423,172.167 L161.546,229.172 C148.355,203.282 144.722,178.978 149.768,150.364 L273.423,172.167" id="Fill-7" fill="#547EB2"></path>
                <path d="M273.423,172.167 L163.604,233.041 C163.099,232.132 162.018,230.098 161.546,229.172 L273.423,172.167" id="Fill-8" fill="#CEC3D6"></path>
                <path d="M273.423,172.167 L166.94,238.705 C165.654,236.647 164.78,235.164 163.604,233.041 L273.423,172.167" id="Fill-9" fill="#A993BA"></path>
                <path d="M273.423,172.167 L177.236,252.877 C173.18,248.043 170.284,244.057 166.94,238.705 L273.423,172.167" id="Fill-10" fill="#9D82AF"></path>
                <path d="M273.423,172.167 L214.475,283.032 C199.351,274.991 188.247,265.998 177.236,252.877 L273.423,172.167" id="Fill-11" fill="#85659D"></path>
                <path d="M273.423,172.167 L253.78,296.184 C239.877,293.982 226.904,289.641 214.475,283.032 L273.423,172.167" id="Fill-12" fill="#B4B5B4"></path>
                <path d="M273.423,172.167 L388.13,223.238 C364.494,276.326 311.177,305.275 253.78,296.184 L273.423,172.167" id="Fill-13" fill="#9E9F9E"></path>
                <path d="M273.423,172.167 L398.909,176.549 C398.321,193.39 394.984,207.844 388.13,223.238 L273.423,172.167" id="Fill-14" fill="#F8CD9A"></path>
                <path d="M273.423,172.167 L387.221,119.102 C395.984,137.894 399.632,155.827 398.909,176.549 L273.423,172.167" id="Fill-15" fill="#F4B673"></path>
                <path d="M273.423,172.167 L273.423,46.605 C323.214,46.605 366.178,73.977 387.221,119.102 L273.423,172.167" id="Fill-16" fill="#EFA04F"></path>
                <path d="M273.423,172.167 L159.625,119.102 C181.019,73.222 222.8,46.605 273.423,46.605 L273.423,172.167" id="Fill-17" fill="#66B764"></path>
                <text id="31%" font-family="LucidaGrande, Lucida Grande" font-size="36" font-weight="normal" fill="#F8CD9A">
                    <tspan x="422.04" y="43.3610625">31%</tspan>
                </text>
                <text id="Organics-suitable-" font-family="LucidaGrande, Lucida Grande" font-size="14" font-weight="normal" fill="#F8CD9A">
                    <tspan x="404.878" y="65.0710187">Organics suitable </tspan>
                </text>
                <text id="for-composting" font-family="LucidaGrande, Lucida Grande" font-size="14" font-weight="normal" fill="#F8CD9A">
                    <tspan x="411.255" y="81.8710188">for composting</tspan>
                </text>
                <text id="26%" font-family="LucidaGrande, Lucida Grande" font-size="36" font-weight="normal" fill="#B4B5B4">
                    <tspan x="346.87" y="337.214562">26%</tspan>
                </text>
                <text id="Other" font-family="LucidaGrande, Lucida Grande" font-size="14" font-weight="normal" fill="#B4B5B4">
                    <tspan x="363.118" y="358.924719">Other</tspan>
                </text>
                <text id="33%" font-family="LucidaGrande, Lucida Grande" font-size="36" font-weight="normal" fill="#286AA6">
                    <tspan x="54.2734" y="60.9338625">33%</tspan>
                </text>
                <text id="Curbside-" font-family="LucidaGrande, Lucida Grande" font-size="14" font-weight="normal" fill="#286AA6">
                    <tspan x="60.9385" y="82.6438187">Curbside </tspan>
                </text>
                <text id="recyclables-" font-family="LucidaGrande, Lucida Grande" font-size="14" font-weight="normal" fill="#286AA6">
                    <tspan x="54.0295" y="99.4438187">re</tspan>
                    <tspan x="67.5578203" y="99.4438187" letter-spacing="-0.1386">c</tspan>
                    <tspan x="74.5901188" y="99.4438187">y</tspan>
                    <tspan x="81.9045719" y="99.4438187" letter-spacing="-0.28">c</tspan>
                    <tspan x="88.7954703" y="99.4438187">lables </tspan>
                </text>
                <text id="10%" font-family="LucidaGrande, Lucida Grande" font-size="36" font-weight="normal" fill="#714B8D">
                    <tspan x="13.1279" y="307.284562">10%</tspan>
                </text>
                <text id="Other" font-family="LucidaGrande, Lucida Grande" font-size="14" font-weight="normal" fill="#714B8D">
                    <tspan x="29.376" y="328.994719">Other</tspan>
                </text>
                <text id="divertable" font-family="LucidaGrande, Lucida Grande" font-size="14" font-weight="normal" fill="#714B8D">
                    <tspan x="16.692" y="345.794719">divertable</tspan>
                </text>
                <text id="materials" font-family="LucidaGrande, Lucida Grande" font-size="14" font-weight="normal" fill="#714B8D">
                    <tspan x="18.26" y="362.594719">materials</tspan>
                </text>
                <text id="18%" font-family="LucidaGrande, Lucida Grande" font-size="9" font-weight="normal" fill="#FFFFFF">
                    <tspan x="313.898" y="97.5013906">18%</tspan>
                </text>
                <text id="Food-scraps" font-family="LucidaGrande, Lucida Grande" font-size="9" font-weight="normal" letter-spacing="-0.18" fill="#FFFFFF">
                    <tspan x="301.973" y="108.301391">F</tspan>
                    <tspan x="306.618195" y="108.301391">ood scr</tspan>
                    <tspan x="339.067414" y="108.301391" letter-spacing="0.09">a</tspan>
                    <tspan x="344.127629" y="108.301391">ps</tspan>
                </text>
                <text id="7%" font-family="LucidaGrande, Lucida Grande" font-size="9" font-weight="normal" fill="#FFFFFF">
                    <tspan x="350.6837" y="151.908191">7%</tspan>
                </text>
                <text id="Food-soiled-paper" font-family="LucidaGrande, Lucida Grande" font-size="9" font-weight="normal" letter-spacing="-0.18" fill="#FFFFFF">
                    <tspan x="326.5871" y="162.708191">F</tspan>
                    <tspan x="331.232295" y="162.708191">ood-soiled p</tspan>
                    <tspan x="387.67126" y="162.708191" letter-spacing="0.09">a</tspan>
                    <tspan x="392.731475" y="162.708191">per</tspan>
                </text>
                <text id="6%" font-family="LucidaGrande, Lucida Grande" font-size="9" font-weight="normal" fill="#FFFFFF">
                    <tspan x="356.4833" y="186.223391">6%</tspan>
                </text>
                <text id="Yard-waste" font-family="LucidaGrande, Lucida Grande" font-size="9" font-weight="normal" letter-spacing="-0.675" fill="#FFFFFF">
                    <tspan x="344.1812" y="197.023391">Y</tspan>
                    <tspan x="349.113622" y="197.023391">ard waste</tspan>
                </text>
                <text id="21%" font-family="LucidaGrande, Lucida Grande" font-size="9" font-weight="normal" fill="#FFFFFF">
                    <tspan x="304.6442" y="234.491291">21%</tspan>
                </text>
                <text id="Other-materials*" font-family="LucidaGrande, Lucida Grande" font-size="9" font-weight="normal" fill="#FFFFFF">
                    <tspan x="285.6272" y="245.291291">Other m</tspan>
                    <tspan x="321.517337" y="245.291291" letter-spacing="0.09">a</tspan>
                    <tspan x="326.577552" y="245.291291">terials*</tspan>
                </text>
                <text id="6%" font-family="LucidaGrande, Lucida Grande" font-size="9" font-weight="normal" fill="#FFFFFF">
                    <tspan x="202.145" y="245.556791">6%</tspan>
                </text>
                <text id="Textiles" font-family="LucidaGrande, Lucida Grande" font-size="9" font-weight="normal" letter-spacing="-0.666" fill="#FFFFFF">
                    <tspan x="195.5786" y="256.356791">T</tspan>
                    <tspan x="200.603518" y="256.356791">extiles</tspan>
                </text>
                <text id="11%" font-family="LucidaGrande, Lucida Grande" font-size="9" font-weight="normal" fill="#FFFFFF">
                    <tspan x="178.8962" y="172.608191">11%</tspan>
                </text>
                <text id="Metal,-glass," font-family="LucidaGrande, Lucida Grande" font-size="9" font-weight="normal" fill="#FFFFFF">
                    <tspan x="166.2611" y="183.409091">Metal</tspan>
                    <tspan x="189.965202" y="183.409091" letter-spacing="-0.333">,</tspan>
                    <tspan x="192.479858" y="183.409091"> glass,</tspan>
                </text>
                <text id="plastic,-cartons" font-family="LucidaGrande, Lucida Grande" font-size="9" font-weight="normal" fill="#FFFFFF">
                    <tspan x="161.9267" y="194.208191">plastic</tspan>
                    <tspan x="190.328555" y="194.208191" letter-spacing="-0.3321">,</tspan>
                    <tspan x="192.844112" y="194.208191"> cartons</tspan>
                </text>
                <text id="18%" font-family="LucidaGrande, Lucida Grande" font-size="9" font-weight="normal" fill="#FFFFFF">
                    <tspan x="219.3971" y="97.3987906">18%</tspan>
                </text>
                <text id="Clean-paper," font-family="LucidaGrande, Lucida Grande" font-size="9" font-weight="normal" fill="#FFFFFF">
                    <tspan x="207.0437" y="108.199691">Clean p</tspan>
                    <tspan x="239.954345" y="108.199691" letter-spacing="0.09">a</tspan>
                    <tspan x="245.014559" y="108.199691">pe</tspan>
                    <tspan x="255.69327" y="108.199691" letter-spacing="-0.666">r</tspan>
                    <tspan x="258.709887" y="108.199691">,</tspan>
                </text>
                <text id="cardboard" font-family="LucidaGrande, Lucida Grande" font-size="9" font-weight="normal" fill="#FFFFFF">
                    <tspan x="210.7517" y="118.998791">cardboard</tspan>
                </text>
                <text id="4%" font-family="LucidaGrande, Lucida Grande" font-size="9" font-weight="normal" fill="#FFFFFF">
                    <tspan x="178.2356" y="139.292891">4%</tspan>
                </text>
                <text id="Rigid-plastics" font-family="LucidaGrande, Lucida Grande" font-size="9" font-weight="normal" fill="#FFFFFF">
                    <tspan x="161.996" y="150.093791">Rigid plastics</tspan>
                </text>
                <text id="5%" font-family="LucidaGrande, Lucida Grande" font-size="9" font-weight="normal" fill="#DDDDDD">
                    <tspan x="217.895" y="337.167791">5%</tspan>
                </text>
                <text id="Construction," font-family="LucidaGrande, Lucida Grande" font-size="9" font-weight="normal" fill="#DDDDDD">
                    <tspan x="185.9279" y="347.967791">Construction,</tspan>
                </text>
                <text id="demolition" font-family="LucidaGrande, Lucida Grande" font-size="9" font-weight="normal" fill="#DDDDDD">
                    <tspan x="194.9189" y="358.767791">demolition</tspan>
                </text>
                <text id="2%" font-family="LucidaGrande, Lucida Grande" font-size="9" font-weight="normal" fill="#714B8D">
                    <tspan x="158.8028" y="371.486591">2%</tspan>
                </text>
                <text id="Plastic-shopping-bags" font-family="LucidaGrande, Lucida Grande" font-size="9" font-weight="normal" fill="#714B8D">
                    <tspan x="97.9277" y="382.286591">Plastic shopping b</tspan>
                    <tspan x="177.829067" y="382.286591" letter-spacing="0.09">a</tspan>
                    <tspan x="182.889282" y="382.286591">gs</tspan>
                </text>
                <text id="1%" font-family="LucidaGrande, Lucida Grande" font-size="9" font-weight="normal" fill="#714B8D">
                    <tspan x="150.9611" y="335.133791">1%</tspan>
                </text>
                <text id="E-waste" font-family="LucidaGrande, Lucida Grande" font-size="9" font-weight="normal" fill="#714B8D">
                    <tspan x="135.4901" y="345.933791">E-waste</tspan>
                </text>
                <text id="0.4%" font-family="LucidaGrande, Lucida Grande" font-size="9" font-weight="normal" fill="#714B8D">
                    <tspan x="139.7093" y="291.464891">0.4%</tspan>
                </text>
                <text id="Harmful-household" font-family="LucidaGrande, Lucida Grande" font-size="9" font-weight="normal" fill="#714B8D">
                    <tspan x="95.7722" y="302.264891">Harmful household</tspan>
                </text>
                <text id="products" font-family="LucidaGrande, Lucida Grande" font-size="9" font-weight="normal" fill="#714B8D">
                    <tspan x="129.4232" y="313.064891">products</tspan>
                </text>
                <path d="M0.667,0.796 L538.579,0.796" id="Stroke-18" stroke="#F8CD9A"></path>
                <path d="M233.579,284.638 L233.579,337.565" id="Stroke-20" stroke="#B4B5B4"></path>
                <path d="M232.075,337.49 C232.075,338.32 232.748,338.993 233.579,338.993 C234.409,338.993 235.083,338.32 235.083,337.49 C235.083,336.659 234.409,335.986 233.579,335.986 C232.748,335.986 232.075,336.659 232.075,337.49" id="Fill-21" fill="#B4B5B4"></path>
                <path d="M162.829,229.665 L162.829,291.906" id="Stroke-22" stroke="#CEC3D6"></path>
                <path d="M161.325,291.831 C161.325,292.661 161.998,293.335 162.829,293.335 C163.659,293.335 164.333,292.661 164.333,291.831 C164.333,291 163.659,290.327 162.829,290.327 C161.998,290.327 161.325,291 161.325,291.831" id="Fill-23" fill="#CEC3D6"></path>
                <path d="M166.579,233.691 L166.579,335.565" id="Stroke-24" stroke="#A993BA"></path>
                <path d="M165.075,335.49 C165.075,336.32 165.748,336.993 166.579,336.993 C167.409,336.993 168.083,336.32 168.083,335.49 C168.083,334.659 167.409,333.986 166.579,333.986 C165.748,333.986 165.075,334.659 165.075,335.49" id="Fill-25" fill="#A993BA"></path>
                <path d="M174.204,240.754 L174.204,372.065" id="Stroke-26" stroke="#9D82AF"></path>
                <path d="M172.7,371.99 C172.7,372.82 173.373,373.493 174.204,373.493 C175.034,373.493 175.708,372.82 175.708,371.99 C175.708,371.159 175.034,370.486 174.204,370.486 C173.373,370.486 172.7,371.159 172.7,371.99" id="Fill-27" fill="#9D82AF"></path>
            </g>
        </g>
    </g>
</svg>