<?xml version="1.0" encoding="UTF-8" standalone="no"?>
<svg width="12px" height="9px" viewBox="0 0 12 9" version="1.1" xmlns="http://www.w3.org/2000/svg" xmlns:xlink="http://www.w3.org/1999/xlink">
    <!-- Generator: Sketch 40 (33762) - http://www.bohemiancoding.com/sketch -->
    <title> copy 6</title>
    <desc>Created with Sketch.</desc>
    <defs></defs>
    <g id="Page-1" stroke="none" stroke-width="1" fill="none" fill-rule="evenodd" opacity="0.3">
        <g id="Dashboard-specs" transform="translate(-291.000000, -494.000000)" fill="#FFFFFF">
            <path d="M302.291788,496.148438 L297.03221,501.9375 C296.942424,502.036459 296.836099,502.085938 296.713233,502.085938 C296.590368,502.085938 296.484043,502.036459 296.394256,501.9375 L291.134679,496.148438 C291.044893,496.049479 291,495.93099 291,495.792969 C291,495.654947 291.044893,495.536459 291.134679,495.4375 L292.31135,494.148438 C292.401137,494.049479 292.507461,494 292.630327,494 C292.753193,494 292.859518,494.049479 292.949304,494.148438 L296.713233,498.296875 L300.477163,494.148438 C300.566949,494.049479 300.673274,494 300.79614,494 C300.919006,494 301.02533,494.049479 301.115117,494.148438 L302.291788,495.4375 C302.381574,495.536459 302.426467,495.654947 302.426467,495.792969 C302.426467,495.93099 302.381574,496.049479 302.291788,496.148438 L302.291788,496.148438 Z" id="-copy-6"></path>
        </g>
    </g>
</svg>